<svg viewBox="0 0 251.9 222.48" xmlns="http://www.w3.org/2000/svg" xmlns:xlink="http://www.w3.org/1999/xlink"><clipPath id="a"><path d="m48.66 38c34.83-17.5 104.22-35.85 146.21-13.28 49.11 26.38 42.79 67.92 37 95.68-13.87 66.94-93.5 108.54-142.02 77.22-50.5-32.62-113.12-123.47-41.19-159.62z"/></clipPath><path d="m37.31 27.25c39.94-20.07 119.52-41.12 167.69-15.25 56.32 30.26 49.08 77.9 42.47 109.74-15.92 76.77-107.28 124.49-162.92 88.56-57.92-37.4-129.74-141.6-47.24-183.05z" fill="#16191a"/><g clip-path="url(#a)"><path d="m205 12a90 90 0 0 0 -18.25-7.27 18.11 18.11 0 0 0 -11 16.67v25.48a18.13 18.13 0 0 0 18.1 18.12h25.47a18.12 18.12 0 0 0 18.12-18.12v-7.94c-7.19-9.78-17.61-18.94-32.44-26.94z"/><rect fill="#28c1e2" height="61.72" rx="18.12" width="61.72" x="99.66" y="3.29"/><rect fill="#ff6445" height="61.72" rx="18.12" width="61.72" x="23.6" y="79.06"/><rect fill="#92e340" height="61.72" rx="18.12" width="61.72" x="99.66" y="79.06"/><rect fill="#ee1d73" height="61.72" rx="18.12" width="61.72" x="175.72" y="79.06"/><path d="m67.2 154.83h-25.48a18 18 0 0 0 -11.12 3.84c15.11 20.24 33.85 38.13 51.52 50a18 18 0 0 0 3.2-10.27v-25.4a18.12 18.12 0 0 0 -18.12-18.17z" fill="#28c1e2"/><rect fill="#ffec5f" height="61.72" rx="18.12" width="61.72" x="99.66" y="154.83"/><g fill="#fff"><path d="m127.39 59.34h-11.85v-46.24h13.19a53.58 53.58 0 0 1 10.91.76 13.33 13.33 0 0 1 5.28 2.59 14 14 0 0 1 3.88 5.24 17.92 17.92 0 0 1 1.36 7.11 17.85 17.85 0 0 1 -1.36 7.26 11.58 11.58 0 0 1 -3.88 5.18 11.85 11.85 0 0 1 -4.65 2.18 36.12 36.12 0 0 1 -8.46.67h-4.42zm0-25.42h2.4c3 0 5.1-.43 6.35-1.3s1.8-2.2 1.8-4.2a4.71 4.71 0 0 0 -1.76-4.12q-1.74-1.25-6.26-1.25h-2.53z"/><path d="m219 42.17a11.69 11.69 0 0 0 3.88-5.17 17.9 17.9 0 0 0 1.36-7.27 18.83 18.83 0 0 0 -.75-5.42 108.16 108.16 0 0 0 -14.62-10.11c-1.72-.11-3.73-.16-6.06-.16h-13.19v46.23h11.85v-15.27h4.42a37 37 0 0 0 8.47-.66 12 12 0 0 0 4.64-2.17zm-8.78-8.62q-1.86 1.29-6.35 1.29h-2.4v-10.84h2.53q4.51 0 6.27 1.24a4.75 4.75 0 0 1 1.73 4.11q0 3-1.78 4.2z"/><path d="m42.69 134.2v-46.2h12.6v35.4h15.71v10.8z"/></g><path d="m123.45 133.27v-46.27h12.73v46.24z" fill="#16191a"/><path d="m221.26 88.83v13.77a21.42 21.42 0 0 0 -5.12-4.26 12.7 12.7 0 0 0 -5.56-1.3 11.45 11.45 0 0 0 -8.81 3.7 13 13 0 0 0 -1.89 2.76 12.49 12.49 0 0 0 -1.09 3.26 18.09 18.09 0 0 0 -.37 3.68 13.13 13.13 0 0 0 3.41 9.25 11.56 11.56 0 0 0 8.75 3.63 12.35 12.35 0 0 0 5.56-1.35 19.15 19.15 0 0 0 5.12-4.24v13.81a30 30 0 0 1 -6 2.18 26.14 26.14 0 0 1 -6 .72 26.45 26.45 0 0 1 -7-.9 18.51 18.51 0 0 1 -5.87-2.73 23.92 23.92 0 0 1 -7.88-8.72 26 26 0 0 1 -2.71-11.91 25.55 25.55 0 0 1 1.77-9.63 20.13 20.13 0 0 1 2-4 27 27 0 0 1 3.14-3.91 21.38 21.38 0 0 1 7.45-5.05 23.82 23.82 0 0 1 9.12-1.67 27.76 27.76 0 0 1 6 .69 33.92 33.92 0 0 1 5.98 2.22z" fill="#fff"/><path d="m82.66 209.05h2.47l-16-46.24h-15.77l-5.61 16.25q4.22 4.47 8.56 8.62l3.4-11.16c.23-.93.51-1.92.85-3s.46-2.18.76-3.25l1 3.94a23 23 0 0 0 .6 2.28l4.7 15.25h-6.92a190.35 190.35 0 0 0 21.96 17.31z" fill="#fff"/><path d="m125.24 209.05v-35.31h-10.36v-10.93h33.32v10.93h-10.36v35.31z" fill="#fff"/><path d="m23.6 35.73v11.15a18.12 18.12 0 0 0 18.12 18.12h25.48a18.12 18.12 0 0 0 18.12-18.12v-25.47a18 18 0 0 0 -3.78-11 262.44 262.44 0 0 0 -44.23 16.84 86.59 86.59 0 0 0 -13.71 8.48z" fill="#ee1d73"/><path d="m30.35 59.34h12.53l2.41-8.27h17.9l2.34 8.27h12.54l-14.88-43.06c-7.62 2.72-14.68 5.66-20.95 8.59zm22.29-32.53c.24-.93.52-1.92.86-3s.46-2.18.76-3.25c.29 1.18.62 2.49 1 3.95.3 1.24.5 2 .6 2.27l4.71 15.26h-12.57z" fill="#fff"/><path d="m232.13 160.13a18.1 18.1 0 0 0 -12.81-5.3h-25.47a18.13 18.13 0 0 0 -18.13 18.17v25.48a18.07 18.07 0 0 0 3.53 10.71 135.64 135.64 0 0 0 52.88-49.06z" fill="#ff6445"/><path d="m197.92 197.44a138.09 138.09 0 0 0 12.73-10.77v-24.78h-12.73z" fill="#fff"/></g></svg>