<svg viewBox="0 0 247.87 134.59" xmlns="http://www.w3.org/2000/svg"><g opacity=".98"><path d="m225.57 97.94a24.82 24.82 0 0 1 -4.23.36c-.74 0-1.47 0-2.2-.1a26 26 0 0 0 3.25-12.62c0-15.34-13.62-27.81-30.36-27.81h-13l.82-16.06 20.82-29.37 8.78-12.34h-44.12l-2.25 3.94-.74 1.29-.72-1.23-2.25-4h-44.14l3 4.29a46.23 46.23 0 0 0 -15.11 4.57v-8.86h-62.23l.63 8.41 2.87 49.36h-44.39l4.22 10.69 23.41 59.33 2 5h20.25l1.9-5.07 2-5.45 2 5.43 1.9 5.09h74.68l2.2-4.17 1.62-3.08h17.82l1.69 3.14 2.21 4.11h36l.36-7.44.07-1.58a50.93 50.93 0 0 0 11.67 8.13l5.33 2.69 4-4.44 17.36-19.27 15.15-16.82z" fill="#ffd534"/><path d="m221.34 106.12a33.13 33.13 0 0 1 -16.09-4.3c5.73-3.74 9.32-9.55 9.32-16.24 0-11-10.12-20-22.54-20h-21.21l1.36-26.58 22.14-31.18h-24.45l-7.57 13.18-7.48-13.18h-24.45l3.91 5.52a30.26 30.26 0 0 0 -38.93 10.76v-16.28h-46l4.34 58.18-11.93 25.71-4.07-26.12h-26.2l23.42 59.33h9.55l9.4-25 9.32 25h9.63l10-25.41 1.91 25.41h43l3.82-7.25h27.15l3.91 7.25h23.86l.95-19.67 1.91.24c5.66 8.52 12 15.29 20.23 19.43l17.36-19.27a33.77 33.77 0 0 1 -5.57.47zm-155.45-14.41-11.31-24.56h15.12zm3-33 .56-19.83 15.55 8.28v-21.26l-15.37 8.2.64-19.83 23.36 12.91a29.14 29.14 0 0 0 -1.75 20.82zm27.24-1.89a30.11 30.11 0 0 0 9.67 8.77h-9.65zm30.93 47.54v-.63l-27.21 12.75.55-19.83 15.53 8.28v-21.26l-15.37 8.2.64-19.87 25.09 13.9v-16.82a30.55 30.55 0 0 0 5.44-1.51l6.74 12.51zm8.84 4.87 9-17.2 9.23 17.2zm0-43.64a31.38 31.38 0 0 0 5.78-4.31v-23.71h-23.87v6.14h10.74v10.58a9.83 9.83 0 0 1 -6.37 2.46c-6.75 0-12.43-7.67-12.43-16.88s5.68-16.8 12.43-16.8c4.61 0 8.52 3.38 10.67 8.36l8.22-8.52 12.63 17.8 2.1 24.88zm21.54 1.56h10.23l2 38.88zm30.38 30 .24-22.21c6.52.84 10.94 5.54 10.94 11.06 0 5.71-5.06 10.73-11.19 11.12z" fill="#009bdb"/></g></svg>