<svg viewBox="0 0 1552.3 1365.72" xmlns="http://www.w3.org/2000/svg"><path d="m237.35 167c67.87-34 139-61.75 211.14-85.18a1687.22 1687.22 0 0 1 268.37-63.73c88.36-13.36 178.28-19.46 267.55-13.37 83.24 5.67 166.86 22.12 243 57 79.74 36.52 155.08 90.48 211.17 158.26a449.72 449.72 0 0 1 92.42 189.28c14 62.92 15.14 128 9.12 191.94a1161.11 1161.11 0 0 1 -31.57 180.89c-19.5 75.42-51.45 147.4-93.26 213.07a819.15 819.15 0 0 1 -148.93 173.62 830.44 830.44 0 0 1 -184.76 123.72c-66.55 32.5-137.47 55.74-211 65.54-66.78 8.9-135.25 7.07-200.9-8.61a466.67 466.67 0 0 1 -93.5-33c-29.6-14.2-57.1-32-83.85-51-57.48-40.74-111-87.12-160.78-136.88a1420.48 1420.48 0 0 1 -147.7-172.95c-43.51-60.24-82.29-124.23-113-192-28.17-62.09-49.87-127.88-58.37-195.72-7.78-61.76-4.05-125.41 17-184.34 22-61.63 62.28-114.6 112.79-155.79 29.2-23.84 61.42-43.75 95.06-60.75-2.61 1.31-6.06 1-8.7 2.32-65.65 33.15-126.4 78.35-168.41 139.46-35.76 52-55.37 113.08-59.39 175.89-4.24 66.28 7.74 132.81 28 195.74 22.56 70 55.48 136.36 93.84 198.93 40.34 65.78 87 127.66 138.06 185.48a1384.93 1384.93 0 0 0 160.65 155.4c52.13 42.66 107.74 83.65 170.42 109.33s130.47 37 198 36.12c68.17-.85 135.74-14.05 200.48-35 70.17-22.74 136.84-56 198-97.14a838.26 838.26 0 0 0 171.15-153.16c50.62-59.79 92.69-126.92 123.29-199.08 27.75-65.44 43.64-134.17 55.51-204 10.54-62 16.75-125.13 12.83-188.07-4.24-68.32-21-135.76-53.29-196.35-39.15-73.46-99.06-133.31-167.59-179.74-37.85-25.64-78.12-48.19-120.7-65-39-15.39-79.66-26.36-120.87-33.92-88.12-16.21-178.7-17.21-267.82-9.71-89.75 7.5-178.68 23.86-265.81 46.32-78.83 20.3-156.49 45.18-231.85 75.89-32 13-63.6 27.15-94.5 42.65 2.62-1.31 6.06-1 8.7-2.36z" fill="#92e340"/></svg>