<svg viewBox="0 0 245.04 150" xmlns="http://www.w3.org/2000/svg"><g opacity=".98"><path d="m8 95a57.91 57.91 0 0 0 1.2 10.15 74 74 0 0 0 2 7.57 1.81 1.81 0 0 1 -1-.35c-2.28-1.16-4.55-2.35-6.85-3.48a1.53 1.53 0 0 1 -.86-1.09 78.11 78.11 0 0 1 -2.32-13.92c0-.16 0-.34-.17-.42v-9.79a17.61 17.61 0 0 0 .46-3.55 71 71 0 0 1 11.27-30.93 15.27 15.27 0 0 1 1.53-2.19 72.75 72.75 0 0 0 -1.33 13.41 2.91 2.91 0 0 1 -.13.64 72.36 72.36 0 0 0 -4.29 21.12 88.5 88.5 0 0 0 .49 12.83z" fill="#f26f22"/><path d="m197.32 150c0-.19-.19-.16-.32-.19a6.14 6.14 0 0 1 -5-5.07 14.31 14.31 0 0 1 0-6.74 6.28 6.28 0 0 1 6.26-4.93 19.25 19.25 0 0 1 6.34 1.09c.7.22.86.13.84-.62 0-1.91 0-3.81 0-5.72 0-.54.15-.7.69-.7 1.75 0 1.75 0 1.75 1.71v20c0 .28.24.79-.24.82s-1.21.36-1.52-.4c-.22-.55-.53-.64-1.09-.45a28.33 28.33 0 0 1 -4.25 1c-.13 0-.29 0-.32.18zm8.12-8.43v-4.89c0-.3.07-.62-.34-.74a18.2 18.2 0 0 0 -6.41-1.06 4.36 4.36 0 0 0 -4.21 3.48 12.13 12.13 0 0 0 -.19 5.49c.58 3.13 2.16 4.38 5.34 4.35a21.83 21.83 0 0 0 5.43-1c.42-.11.38-.4.38-.7z" fill="#c41d77"/><path d="m166.48 150c0-.18-.2-.15-.33-.18a6.12 6.12 0 0 1 -5.06-4.94 13.59 13.59 0 0 1 .06-6.88 6.28 6.28 0 0 1 6.34-4.92 22.08 22.08 0 0 1 6.25 1.06c.66.17 1.2.4 1.58-.49.23-.53.9-.25 1.37-.23s.25.48.25.74q0 7.36 0 14.74c0 .26.2.72-.24.73s-1.12.35-1.4-.31-.79-.69-1.44-.5c-1.27.38-2.56.66-3.85 1-.14 0-.34 0-.38.2zm8-8.46c0-1.61 0-3.21 0-4.81 0-.33.05-.67-.4-.79a18.15 18.15 0 0 0 -6.4-1.06 4.33 4.33 0 0 0 -4.05 3.24 11.61 11.61 0 0 0 -.22 6c.62 2.83 2.2 4 5.11 4a21.62 21.62 0 0 0 5.51-1c.43-.11.45-.39.45-.75.02-1.58.02-3.21.02-4.83z" fill="#c41d77"/><path d="m82.41 79.34h-33c-1.31 0-1.34 0-1.3 1.29a39.76 39.76 0 0 0 2.52 13.6c2.7 6.64 7.68 10.77 14.39 13a53.71 53.71 0 0 0 14.09 2.25c7.41.41 14.54-1.06 21.61-3a82.59 82.59 0 0 0 9.56-3.22c.44-.18.68-.21.84.33q1 3.25 2 6.47c.19.56-.11.67-.48.83a93.5 93.5 0 0 1 -14 4.71 71 71 0 0 1 -21.43 2.06 65.49 65.49 0 0 1 -19.06-3.45c-7-2.55-12.86-6.66-16.85-13.12a37.44 37.44 0 0 1 -4.84-13.38 70 70 0 0 1 -.94-14.6 52.49 52.49 0 0 1 3.86-19.28c4.11-9.49 11.29-15.46 21.14-18.35a54.75 54.75 0 0 1 14.29-2 58.22 58.22 0 0 1 16.35 1.62c9.07 2.41 16.07 7.51 20.47 15.93a44.49 44.49 0 0 1 4.27 13.25 79.37 79.37 0 0 1 1 14.27c0 .7-.24.8-.86.8zm-6.41-7.6h8.54 18.74c.71 0 .9-.2.84-.88-.09-1-.1-2.09-.15-3.14a40.52 40.52 0 0 0 -1.54-9.53c-2.24-7.62-7-12.82-14.74-15a40.6 40.6 0 0 0 -22.63.11 21.2 21.2 0 0 0 -14.16 12.94c-1.94 4.69-2.54 9.62-2.81 14.63-.05.8.23.88.91.88q13.52-.03 27-.01z" fill="#818285"/><path d="m11.8 61.09a2.91 2.91 0 0 0 .13-.64 72.75 72.75 0 0 1 1.33-13.45 81.41 81.41 0 0 1 2.67-9.7 64.7 64.7 0 0 1 17.21-26.4 2.48 2.48 0 0 1 .26-.19l.13.17c-1.15 1.3-2.33 2.57-3.44 3.9a61.87 61.87 0 0 0 -12.78 26c-.07.28-.22.57-.07.87-.26 0-.12.19-.16.3a56.11 56.11 0 0 0 -1.31 10.15 43.13 43.13 0 0 0 -.12 5.57 36.62 36.62 0 0 0 .43 6.45 62.45 62.45 0 0 0 1.5 8.37 73.58 73.58 0 0 0 6.64 17.43 6.83 6.83 0 0 0 1.15 1.88.42.42 0 0 0 .18.41 65.47 65.47 0 0 0 9.74 13.13 68.64 68.64 0 0 0 35.23 20 67.77 67.77 0 0 0 14.27 1.66 68.93 68.93 0 0 0 40.95-12.67c.22-.15.4-.38.74-.39-.47 2.93-1 5.84-1.4 8.75a1.16 1.16 0 0 1 -.6.9 74.51 74.51 0 0 1 -26.2 10.64 76.06 76.06 0 0 1 -15.72 1.33c-2.42-.16-4.84-.32-7.26-.64a69.89 69.89 0 0 1 -21.25-6.29 72.63 72.63 0 0 1 -21-15.11 74.63 74.63 0 0 1 -11.17-14.72 85.38 85.38 0 0 1 -5.13-10.75c-.61-1.9-1.25-3.8-1.83-5.71-.82-2.72-1.39-5.51-1.92-8.34a82.64 82.64 0 0 1 -1-10.17 12.32 12.32 0 0 0 -.2-2.74z" fill="#c41d77"/><path d="m16.75 88.05a85.38 85.38 0 0 0 5.13 10.75 74.63 74.63 0 0 0 11.18 14.75 72.63 72.63 0 0 0 21 15.11 69.89 69.89 0 0 0 21.24 6.34c2.42.32 4.84.48 7.26.64a8 8 0 0 0 2.28.28 67.6 67.6 0 0 0 15.76-.6 3.29 3.29 0 0 1 .37 0c-.69 1-1.34 1.88-2 2.78-1 1.38-2 2.75-3 4.16a1.85 1.85 0 0 1 -1.48.84 61.64 61.64 0 0 1 -7.43.38 74.21 74.21 0 0 1 -12.27-1 73.41 73.41 0 0 1 -20-6.39c-.21-.1-.42-.29-.69-.16-.05-.3-.26-.34-.51-.33 0-.19-.21-.19-.34-.26a11.71 11.71 0 0 1 -2.65-1.49 70.63 70.63 0 0 1 -21.31-18.85 72.8 72.8 0 0 1 -11.29-22 25.73 25.73 0 0 1 -1.25-4.95z" fill="#ccdc55"/><path d="m16.75 88.05a25.73 25.73 0 0 0 1.25 4.95 72.8 72.8 0 0 0 11.26 22 70.63 70.63 0 0 0 21.28 18.85 11.71 11.71 0 0 0 2.65 1.49c0 .23.12.31.34.26.06.27.25.34.51.33a24 24 0 0 0 4.46 2.61 65.94 65.94 0 0 0 9.37 4l.67.25c-.75.4-1.38.75-2 1.08-2 1-3.94 2-5.9 3a1.25 1.25 0 0 1 -1.1.05 74.24 74.24 0 0 1 -24.22-15.13 72.14 72.14 0 0 1 -8.32-9.37c-.13-.17-.21-.39-.46-.44a.51.51 0 0 0 -.34-.51l-.17-.27a13.88 13.88 0 0 1 -1.33-2 75.64 75.64 0 0 1 -6.06-11.2 72.87 72.87 0 0 1 -5.64-23.38 81.2 81.2 0 0 1 0-10.62c.56 2.79 1.13 5.58 1.95 8.3.55 1.95 1.19 3.85 1.8 5.75z" fill="#818285"/><path d="m13 74a81.2 81.2 0 0 0 0 10.58 72.87 72.87 0 0 0 5.69 23.43 75.64 75.64 0 0 0 6.06 11.2 13.88 13.88 0 0 0 1.33 2c0 .14 0 .27.17.27-.06.28 0 .51.34.51-.19.32.11.5.24.71a68.33 68.33 0 0 0 8.9 11.3c.19.19.37.39.69.73h-1.59c-2.46 0-4.92 0-7.37 0a1.28 1.28 0 0 1 -1.08-.45 73.61 73.61 0 0 1 -17-32.08 66.72 66.72 0 0 1 -1.28-6.74 2.79 2.79 0 0 0 -.1-.46 88.5 88.5 0 0 1 -.46-12.82 72.36 72.36 0 0 1 4.26-21.09 12.32 12.32 0 0 1 .14 2.78 82.64 82.64 0 0 0 1.06 10.13z" fill="#23bff0"/><path d="m74.67 16.41c1.43.09 2.86.14 4.29.27 17.1 1.44 32.13 7.68 44.74 19.44a62.53 62.53 0 0 1 15.12 21.81 1.66 1.66 0 0 1 .17.81l-1.19-2.35a61.7 61.7 0 0 0 -27-26.74 67.32 67.32 0 0 0 -23.8-7.28 72 72 0 0 0 -43.63 8.52c-.34.18-.64.45-1.07.4.15-.31.47-.43.72-.63a71.5 71.5 0 0 1 31.65-14.25z" fill="#f26f22"/><path d="m33.52 28c2-1.85 4-3.82 6.1-5.59a71.74 71.74 0 0 1 34.32-16 69 69 0 0 1 11.29-.91 61.55 61.55 0 0 1 16.22 2.38c-2-.37-4-.75-6-1a60.87 60.87 0 0 0 -13.22-.16 62.29 62.29 0 0 0 -17.68 4.38 66.69 66.69 0 0 0 -14.68 8.26c-.16.12-.29.26-.43.38a56.67 56.67 0 0 0 -7.22 6.17 73.08 73.08 0 0 0 -13.79 18.88 14.14 14.14 0 0 0 -1.43 3.21c-.19 0-.16.22-.2.35a56.84 56.84 0 0 0 -4.06 11.65 61.8 61.8 0 0 0 -1.74 10 3.62 3.62 0 0 1 -.13.47 14.53 14.53 0 0 1 -.13-2.47c0-2.1 0-4.19.12-6.28a73.92 73.92 0 0 1 1.37-10.42 66.22 66.22 0 0 1 5.77-16.89c1.2-1.43 2.43-2.84 3.61-4.29a9.8 9.8 0 0 0 1.69-2z" fill="#818285"/><path d="m27 48a14.14 14.14 0 0 1 1.41-3.24 73.08 73.08 0 0 1 13.79-18.88 56.67 56.67 0 0 1 7.22-6.17c2.41-.95 4.75-2.05 7.2-2.91a76.39 76.39 0 0 1 18.95-4.12 69.9 69.9 0 0 1 28.64 3.32 62.9 62.9 0 0 1 19.51 10.66c.19.15.43.26.52.54-.3.16-.45-.11-.62-.23a61 61 0 0 0 -24.62-10.54 65.61 65.61 0 0 0 -18.87-.8c-1.84.19-3.67.43-5.49.78a71.5 71.5 0 0 0 -31.64 14.25c-.25.2-.57.32-.72.63a66.11 66.11 0 0 0 -5.19 4.56 69.59 69.59 0 0 0 -9.58 11.54 8 8 0 0 1 -.51.61z" fill="#23bff0"/><path d="m28 34.41a66.22 66.22 0 0 0 -5.8 16.89 73.92 73.92 0 0 0 -1.37 10.38c-.13 2.09-.1 4.18-.12 6.28a14.53 14.53 0 0 0 .16 2.46 69.47 69.47 0 0 0 4 19.66 5.27 5.27 0 0 1 .52 1.72 6.83 6.83 0 0 1 -1.15-1.88 73.58 73.58 0 0 1 -6.64-17.43 62.45 62.45 0 0 1 -1.5-8.37 36.62 36.62 0 0 1 -.43-6.45c.18-.89.34-1.78.54-2.66q.68-2.91 1.37-5.82l1.7-4.74c1-2.85 2.32-5.6 3.62-8.34a82.34 82.34 0 0 1 7-11 70.71 70.71 0 0 1 14.77-14.39 63.88 63.88 0 0 1 18.61-9.19 35.49 35.49 0 0 1 5.72-1.37c-2.64.79-5.28 1.56-7.84 2.6a58.29 58.29 0 0 0 -13.87 7.91 65.75 65.75 0 0 0 -14.52 15.44 16.75 16.75 0 0 0 -2.09 3.53c-.14 0-.16.11-.17.22a23 23 0 0 0 -2.51 4.55z" fill="#ccdc55"/><path d="m139.61 74.79c0 2.46-.06 4.92 0 7.37.13 4.28-2.32 5.84-5.66 6.3a21.5 21.5 0 0 1 -8.9-.92c-1-.28-.47-.8-.4-1.3.09-.72.49-.54.94-.4a19.94 19.94 0 0 0 6.85 1c3.88-.24 4.88-2.49 4.73-5.53 0-.51-.3-.34-.55-.26a32.76 32.76 0 0 1 -4.58 1.08 9.66 9.66 0 0 1 -3.86-.19 6.1 6.1 0 0 1 -4.42-4.51 13.54 13.54 0 0 1 -.15-6.72c1-4.34 4.3-5.69 8-5.32a27.11 27.11 0 0 1 5.24 1.15c.46.14.74.08.92-.37.32-.8 1-.51 1.57-.48.4 0 .24.44.24.68.04 2.79.03 5.63.03 8.42zm-2.43-1.05v-4.89c0-.3 0-.62-.36-.73a18.6 18.6 0 0 0 -6.4-1.05 4.28 4.28 0 0 0 -4 3.11 11.69 11.69 0 0 0 -.22 6.37c.6 2.63 2.21 3.82 4.93 3.83a21.4 21.4 0 0 0 5.44-.94c.58-.15.72-.43.71-1-.12-1.56-.1-3.13-.1-4.7z" fill="#818285"/><path d="m147.32 137.39-3.72 9.91c-.2.52-.38 1-.58 1.55s-.2.86-.89.85a1.13 1.13 0 0 1 -1.21-.81q-3.16-7.38-6.4-14.71c-.31-.7-.15-.81.54-.8 1.89 0 1.89 0 2.62 1.76 1.49 3.56 3 7.11 4.53 10.83l1.71-4.59c.9-2.43 1.82-4.86 2.67-7.3.21-.6.54-.7 1.09-.71s.75.22.92.7c1.29 3.64 2.62 7.26 3.93 10.89a1.45 1.45 0 0 0 .43.79l2.24-5.51 2.49-6.13a2 2 0 0 1 2.21-.68c.3.21 0 .45-.05.65l-2.8 6.63c-1.17 2.76-2.37 5.52-3.49 8.31-.26.66-.67.62-1.2.67s-.68-.31-.82-.71q-1.9-5.29-3.83-10.58c-.11-.31-.24-.61-.39-1.01z" fill="#c41d77"/><path d="m158 74.76c0 2.46-.06 4.92 0 7.37.13 4.37-2.48 5.91-5.72 6.34a21.57 21.57 0 0 1 -8.74-.94c-.94-.27-.44-.77-.38-1.25s.39-.62.92-.46a20.47 20.47 0 0 0 6.59 1c4.12-.13 5-2.54 5-5.51 0-.49-.23-.45-.58-.35a41 41 0 0 1 -4.65 1.14 9.19 9.19 0 0 1 -3.62-.13 4.57 4.57 0 0 1 -3.4-3.59 19.47 19.47 0 0 1 -.42-4.38c-.05-2.46 0-4.92 0-7.38 0-.3-.17-.78.2-.88a1.54 1.54 0 0 1 1.5.12 2.11 2.11 0 0 1 .76 1.58v7.46a17.82 17.82 0 0 0 .17 2.31c.36 2.46 1.9 3.58 4.54 3.33a32.74 32.74 0 0 0 5-1.08c.54-.15.43-.5.43-.83 0-2.62 0-5.25 0-7.87 0-1.49.07-3 .08-4.47 0-.45.12-.61.6-.63 1.77 0 1.77-.07 1.77 1.69z" fill="#818285"/><path d="m161.48 77c0-3.5 0-7 0-10.52 0-.27-.22-.77.3-.79s1.13-.31 1.41.32.8.65 1.41.46a26.78 26.78 0 0 1 4.51-1c4.93-.65 8.16 1.88 8.6 6.84a12.46 12.46 0 0 1 -.67 5.86 6.28 6.28 0 0 1 -5.81 4.08 17.63 17.63 0 0 1 -6.4-1.1c-.69-.21-1-.19-.93.66.06 2 0 3.92 0 5.88 0 .52-.11.71-.69.71-1.77 0-1.77 0-1.77-1.76zm13.78-3.16a9.85 9.85 0 0 0 -.35-3.11 4.54 4.54 0 0 0 -4.64-3.62 19.64 19.64 0 0 0 -5.84 1 .63.63 0 0 0 -.51.72v10c0 .34.08.55.45.66a20.21 20.21 0 0 0 5.76 1.06 4.58 4.58 0 0 0 4.77-3.66 9.68 9.68 0 0 0 .36-3.09z" fill="#818285"/><path d="m116.15 149.69c.74-1.61 1.42-3.1 2.1-4.6 2.33-5.06 4.68-10.1 7-15.18.37-.82 1-.6 1.55-.67s.75.23.94.68q4.06 9.45 8.17 18.89c.37.88.35.77-.54.91a2.11 2.11 0 0 1 -2.76-1.84c-.35-1.62-1.3-2.07-2.95-2-2.89.17-5.79.07-8.69 0a1.07 1.07 0 0 0 -1.17.76c-.3.77-.72 1.49-1 2.26a1 1 0 0 1 -1.16.76 11 11 0 0 0 -1.49.03zm9.85-16.83-5 10.88c-.25.52.11.46.41.46h9.68c-1.72-3.79-3.34-7.47-5.09-11.34z" fill="#c41d77"/><g fill="#818285"><path d="m207.84 111.53c-2.07 0-4.14 0-6.21 0-.49 0-.65.08-.59.65.41 3.6 2.05 5.12 5.81 5.32a15.48 15.48 0 0 0 6.06-1.07c.36-.12.73-.3.78.26s.74.93-.14 1.29a15.44 15.44 0 0 1 -9.65.78 6.5 6.5 0 0 1 -5.29-5.93 14 14 0 0 1 .19-5.09 6.43 6.43 0 0 1 5-5.09 11.59 11.59 0 0 1 5.82 0c3 .78 4.43 2.9 4.94 5.79a14.73 14.73 0 0 1 .2 2.39c0 .53-.13.71-.69.7-2.07-.02-4.16 0-6.23 0zm-1.25-1.6h4.89c.35 0 .67 0 .65-.49-.09-2.61-1-4.78-4-5.3a10 10 0 0 0 -1.73-.09c-3.25 0-5.18 2-5.29 5.22 0 .52.14.68.64.67 1.58-.02 3.25-.01 4.84-.01z"/><path d="m159 119.15a9.33 9.33 0 0 1 -3.2-.32 6.61 6.61 0 0 1 -4.91-4.78 11.59 11.59 0 0 1 -.06-6.37 6.69 6.69 0 0 1 5.19-5 12.39 12.39 0 0 1 6.14 0 6.75 6.75 0 0 1 5.25 5.36 11.91 11.91 0 0 1 -.11 5.9 7.15 7.15 0 0 1 -6.81 5.21c-.49.03-1.04 0-1.49 0zm6.27-8.33c0-.53 0-1-.08-1.57a5.27 5.27 0 0 0 -4.48-5.12 9.86 9.86 0 0 0 -3 0 5.05 5.05 0 0 0 -4.52 3.9 11.05 11.05 0 0 0 -.07 5.33 4.89 4.89 0 0 0 3.52 3.91 8.68 8.68 0 0 0 4.74 0 4.85 4.85 0 0 0 3.42-3.31 9.57 9.57 0 0 0 .43-3.14z"/><path d="m170.29 110.67c0-2.43 0-4.86 0-7.29 0-.26-.19-.73.22-.76s1.18-.35 1.49.3.73.64 1.33.47a22.53 22.53 0 0 1 5.91-1.11c3.71-.06 5.64 1.72 5.95 5.41.29 3.52.1 7.06.15 10.59 0 .2.08.54-.22.53-.55 0-1.18.3-1.64-.23a2.36 2.36 0 0 1 -.64-1.63c0-3.06.15-6.13-.11-9.19-.23-2.59-1.49-3.73-4.1-3.72a13.92 13.92 0 0 0 -3 .43c-.94.22-2.15.19-2.7.87s-.15 1.8-.16 2.73v9.94c0 .61-.1.88-.8.86-1.64 0-1.64 0-1.64-1.65z"/><path d="m217.21 110.72c0-2.43 0-4.86 0-7.29 0-.28-.24-.78.25-.82s1.13-.34 1.42.28.78.66 1.39.48a23.17 23.17 0 0 1 5.76-1.09c3.85-.1 5.79 1.7 6.07 5.54.26 3.48.08 7 .12 10.44 0 .23.08.57-.29.57s-1.08.24-1.49-.19a2.28 2.28 0 0 1 -.69-1.62c0-3.06.13-6.13-.11-9.19-.21-2.61-1.51-3.81-4.13-3.78a16.31 16.31 0 0 0 -3.67.57c-2.18.53-2.18.54-2.18 2.82v10.6c0 .67-.2.84-.84.83-1.6 0-1.61 0-1.61-1.61z"/><path d="m136.45 108.53a12.31 12.31 0 0 0 .33 3.16c1 4.36 4.46 5.87 8.3 5.41a17.85 17.85 0 0 0 4-1c.31-.11.64-.25.67.24s.77 1 0 1.34c-3.3 1.3-6.68 2-10.16.74a8 8 0 0 1 -5.07-5.11 13.65 13.65 0 0 1 -.05-9.41c1.28-3.61 4.05-5.3 7.74-5.62a17.22 17.22 0 0 1 7.12 1.24c.33.11.45.25.3.59a3.61 3.61 0 0 0 -.24.79c-.1.44-.31.46-.71.31a17.61 17.61 0 0 0 -4.07-1c-4.17-.49-7.18 1.7-7.93 5.82a11.14 11.14 0 0 0 -.23 2.5z"/><path d="m183.53 73.05a36.86 36.86 0 0 0 .18 5.14 2.36 2.36 0 0 0 2.45 2.22 8.18 8.18 0 0 0 3.19-.32c.93-.31.79.44 1 .89s0 .7-.51.82a12.76 12.76 0 0 1 -5.25.28 3.69 3.69 0 0 1 -3.34-3.72c-.28-2.78-.06-5.58-.16-8.36 0-.19 0-.39 0-.58 0-.61.19-1.34-.08-1.79s-1.11-.14-1.7-.19c-.34 0-.46-.13-.49-.48-.12-1.3-.09-1.39 1.21-1.31a1.27 1.27 0 0 0 1.52-1c.2-.59.57-1.13.8-1.72.17-.44.47-.48.85-.45s.34.42.35.68v1.83s.17.65.67.64h4.39c.74 0 1 .16 1 .94s-.23.92-.94.89c-1.4 0-2.81 0-4.22 0-.67 0-.91.13-.89.85.01 1.44-.03 2.93-.03 4.74z"/><path d="m238.11 109.46c.1 1.69-.07 3.48.13 5.28s1 2.61 2.83 2.65a9.46 9.46 0 0 0 3-.33c.95-.28.71.54.92 1 .29.58-.11.64-.5.74a14.78 14.78 0 0 1 -4.19.42c-2.93-.12-4.31-1.49-4.47-4.42-.17-3.12-.11-6.24-.08-9.36 0-.78-.18-1.15-1-1h-.16c-1 0-1.45-.65-1.09-1.6.12-.3.37-.25.55-.21 1.43.31 2.1-.43 2.48-1.68.12-.39.35-.75.51-1.13s.52-.35.85-.32.26.37.26.59a11.22 11.22 0 0 1 0 1.74c-.07.69.22.82.84.8h4.56c.91 0 .55.6.6 1s.09.85-.63.83c-1.57 0-3.14 0-4.72 0-.52 0-.65.16-.64.66-.03 1.36-.05 2.8-.05 4.34z"/><path d="m191.18 108.76c.07 2.31-.05 4.13.14 5.95s1 2.65 2.9 2.68a9.81 9.81 0 0 0 2.95-.34c.85-.25.66.48.82.87s.22.67-.36.82a13.92 13.92 0 0 1 -4.93.39c-2.54-.29-3.75-1.66-3.83-4.44q-.12-4.66-.1-9.35c0-.77-.2-1.07-1-.94a.92.92 0 0 1 -.33 0c-.31-.05-.79.18-.9-.17a3.47 3.47 0 0 1 0-1.47c0-.31.43-.21.64-.17a1.77 1.77 0 0 0 2.27-1.48c.13-.45.41-.85.58-1.28s.47-.4.81-.37.3.39.31.63a12.62 12.62 0 0 1 0 1.74c-.07.66.2.78.8.76h4.47c.87 0 .8.41.84 1s-.19.89-.88.87c-1.46 0-2.93 0-4.39 0-.72 0-.87.22-.84.89.07 1.24.03 2.57.03 3.41z"/></g><path d="m180.38 141.55c0-2.45 0-4.91 0-7.37 0-.26-.19-.72.23-.75s1.12-.34 1.42.29.78.71 1.45.59c2-.35 4.09-.62 6.13-.92.66-.09 1.09.06.93.86a3.64 3.64 0 0 0 0 .66c0 1.26 0 1.25-1.23 1.11-1.94-.23-3.89-.41-5.83-.68-.63-.08-.75.07-.75.65v12.76c0 .77-.2 1-1 .94-1.44-.06-1.44 0-1.44-1.43z" fill="#c41d77"/><path d="m22.88 36.11c-1.3 2.74-2.58 5.49-3.62 8.34l-1.7 4.74a29.87 29.87 0 0 0 -1.79 2.91 56.11 56.11 0 0 1 1.32-10.1.25.25 0 0 0 .16-.3 30.57 30.57 0 0 0 2.5-2.59c1.03-.98 1.99-2.11 3.13-3z" fill="#f26f22"/><path d="m124.14 109c-1.74 0-3.48 0-5.22 0-.76 0-.69-.41-.67-.89s-.18-1 .67-1q5.25.06 10.51 0c.85 0 .66.5.67 1s.09.91-.67.89c-1.76 0-3.53 0-5.29 0z" fill="#818285"/><path d="m28 34.41a23 23 0 0 1 2.49-4.57c.1 0 .22-.06.17-.22a7.73 7.73 0 0 0 1.86-1.1l.79-.42a9.8 9.8 0 0 1 -1.69 2c-1.16 1.47-2.39 2.9-3.62 4.31z" fill="#f26f22"/><path d="m33.89 10.29a5.34 5.34 0 0 1 1.26-1.06 2.42 2.42 0 0 1 -1.15 1.19z" fill="#c41d77"/><path d="m35.66 8.9c-.06-.29.28-.19.34-.34l-.08.07c-.09.08-.1.26-.27.26z" fill="#c41d77"/><path d="m124.84 27.82a.83.83 0 0 1 -.57-.49.66.66 0 0 1 .64.41z" fill="#23bff0"/><path d="m69.47 0h.07.06s-.06 0-.08 0a.09.09 0 0 1 -.05 0z" fill="#ccdc55"/><path d="m26.83 48.37c0-.13 0-.31.2-.35.02.16-.09.26-.2.35z" fill="#23bff0"/><path d="m125.36 28.12a.16.16 0 0 1 .14.22.08.08 0 0 1 0 .06.19.19 0 0 1 -.11-.25z" fill="#23bff0"/><path d="m25.55 92.2a.42.42 0 0 1 -.18-.41c.2.07.18.21.18.41z" fill="#ccdc55"/><path d="m35.15 9.23c.07-.15.16-.25.34-.16-.08.13-.13.31-.34.16z" fill="#c41d77"/><path d="m33.4 10.75.17-.17.13.18-.17.16z" fill="#c41d77"/><path d="m33.57 10.58.17-.16.12.17-.16.17z" fill="#c41d77"/><path d="m124.91 27.74.1.16c-.1.05-.14 0-.17-.08z" fill="#23bff0"/><path d="m33.52 28-.2.16z" fill="#f26f22"/><path d="m125.34 28.15h-.14l.07-.09.09.11z" fill="#23bff0"/><path d="m35.49 9.07c0-.15 0-.18.17-.17l-.17.16z" fill="#c41d77"/><path d="m33.74 10.42.15-.13.14.13-.17.17z" fill="#c41d77"/><path d="m15.77 52.1a29.87 29.87 0 0 1 1.79-2.91q-.69 2.91-1.37 5.81c-.2.88-.36 1.77-.54 2.66a43.13 43.13 0 0 1 .12-5.56z" fill="#23bff0"/></g></svg>