<svg viewBox="0 0 113.75 155.7" xmlns="http://www.w3.org/2000/svg"><g opacity=".98"><g fill="#313972"><path d="m2.81 122a5.44 5.44 0 0 0 1.54-1.45 7.82 7.82 0 0 0 1-2.15 16.3 16.3 0 0 0 .61-3 5.49 5.49 0 0 0 2.13 1.18 8.24 8.24 0 0 0 2.2.32h41.55a6.37 6.37 0 0 0 1.39-.18 4.05 4.05 0 0 0 1.29-.56 4.78 4.78 0 0 0 1.19-1.16 7.59 7.59 0 0 0 .77-1.38 8 8 0 0 0 .47-1.73 9.23 9.23 0 0 0 .08-2.06 11.93 11.93 0 0 0 -.39-2.37 8.48 8.48 0 0 0 -.51-1.36 6.68 6.68 0 0 0 -.72-1.16 5.07 5.07 0 0 0 -.88-.91 5 5 0 0 0 -1-.6 7.35 7.35 0 0 0 -2.78-.44h-3.21q-.52 0-.84 0a4.89 4.89 0 0 0 -.68.12l3.39-10h-3.13l-4.48 13.25h9.64a2.25 2.25 0 0 1 1.59.55 3.53 3.53 0 0 1 .94 1.35 4.31 4.31 0 0 1 .28 1.7 5.08 5.08 0 0 1 -.25 1.52 2.88 2.88 0 0 1 -1.27 1.69 2.58 2.58 0 0 1 -.83.33 4.14 4.14 0 0 1 -.84.09h-41.39a2.65 2.65 0 0 1 -1.22-.3 3 3 0 0 1 -1-.91 4.26 4.26 0 0 1 -.59-1.07 8.46 8.46 0 0 1 -.37-1.24 11.86 11.86 0 0 1 -.19-1.35c0-.46-.06-.93-.07-1.39v-7.33h-2.78v12.06a20.55 20.55 0 0 1 -.18 2.94 9 9 0 0 1 -.54 2.11 5 5 0 0 1 -.87 1.44 4.44 4.44 0 0 1 -1.15.94v3.48a7.8 7.8 0 0 0 2.1-.97z"/><path d="m3.48 96.79a1.9 1.9 0 0 0 .58.41 1.64 1.64 0 0 0 .71.15 1.72 1.72 0 0 0 .72-.15 2.13 2.13 0 0 0 .6-.41 1.91 1.91 0 0 0 .4-.6 1.78 1.78 0 0 0 0-1.43 2 2 0 0 0 -.4-.59 1.75 1.75 0 0 0 -.6-.4 1.72 1.72 0 0 0 -.72-.15 1.64 1.64 0 0 0 -.71.15 1.59 1.59 0 0 0 -.58.4 2 2 0 0 0 -.4.59 1.87 1.87 0 0 0 .4 2z"/><path d="m85.08 116.94h17.12a1.69 1.69 0 0 0 1.32-.4 3.26 3.26 0 0 0 .87-1.29.61.61 0 0 1 .19.2 4.37 4.37 0 0 0 .83.79 5.17 5.17 0 0 0 .85.51 5 5 0 0 0 3.17.08 6.26 6.26 0 0 0 1.63-.93 6 6 0 0 0 1.38-1.59 9 9 0 0 0 1-2.39 13.46 13.46 0 0 0 .36-3.31 13.83 13.83 0 0 0 -.16-2 11.69 11.69 0 0 0 -.45-1.92 11.38 11.38 0 0 0 -.69-1.7 8 8 0 0 0 -.9-1.4 5.23 5.23 0 0 0 -1.68-1.3 6.05 6.05 0 0 0 -1.54-.29 5 5 0 0 0 -1.65.24 5.14 5.14 0 0 0 -2 1.28 6.35 6.35 0 0 0 -1.31 2.19 13.77 13.77 0 0 0 -.75 3.11 34.34 34.34 0 0 0 -.25 4c-.08 1.82-.59 2.74-1.54 2.77h-32.56a2.66 2.66 0 0 1 -1.23-.3 3 3 0 0 1 -1-.91 4 4 0 0 1 -.6-1.07 8.22 8.22 0 0 1 -.36-1.25 9.61 9.61 0 0 1 -.2-1.34c0-.46-.06-.93-.07-1.39v-7.34h-2.77v12.06a20.55 20.55 0 0 1 -.18 2.92 8.77 8.77 0 0 1 -.54 2.1 5.07 5.07 0 0 1 -.87 1.45 4.48 4.48 0 0 1 -1.15.94v3.48a7.53 7.53 0 0 0 2.07-.9 5.44 5.44 0 0 0 1.58-1.45 7.29 7.29 0 0 0 1-2.15 16.3 16.3 0 0 0 .61-3 5.64 5.64 0 0 0 2.13 1.18 8.31 8.31 0 0 0 2.21.32h16.1m25.75-7.3a7.43 7.43 0 0 1 -.45 1.83 4.4 4.4 0 0 1 -.83 1.4 2.26 2.26 0 0 1 -1.07.68 1.7 1.7 0 0 1 -1.09-.07 2.6 2.6 0 0 1 -1-.78 4.65 4.65 0 0 1 -.77-1.44 7.53 7.53 0 0 1 -.37-1.9 9.5 9.5 0 0 1 .06-2 8.12 8.12 0 0 1 .44-1.84 4.46 4.46 0 0 1 .84-1.4 2.23 2.23 0 0 1 1.07-.68 1.7 1.7 0 0 1 1.09.08 2.6 2.6 0 0 1 1 .78 4.86 4.86 0 0 1 .76 1.44 8 8 0 0 1 .36 1.9 10.24 10.24 0 0 1 -.01 2z"/><path d="m10.11 132.18a2.07 2.07 0 0 0 -.74-.14 1.8 1.8 0 0 0 -1.29.54 1.92 1.92 0 0 0 -.39.57 1.72 1.72 0 0 0 -.15.72 1.79 1.79 0 0 0 .15.72 2.07 2.07 0 0 0 .39.6 1.87 1.87 0 0 0 .59.4 1.68 1.68 0 0 0 .7.14 1.87 1.87 0 0 0 .74-.14 1.76 1.76 0 0 0 .59-.4 2 2 0 0 0 .39-.6 1.79 1.79 0 0 0 .15-.72 1.72 1.72 0 0 0 -.15-.72 1.88 1.88 0 0 0 -1-1z"/><path d="m5.94 132.18a1.92 1.92 0 0 0 -.72-.14 1.89 1.89 0 0 0 -.72.14 2.07 2.07 0 0 0 -.58.4 1.64 1.64 0 0 0 -.4.57 1.72 1.72 0 0 0 -.15.72 1.79 1.79 0 0 0 .15.72 1.75 1.75 0 0 0 .4.6 2.07 2.07 0 0 0 .58.4 1.71 1.71 0 0 0 .72.14 1.75 1.75 0 0 0 .72-.14 1.84 1.84 0 0 0 1-1 1.79 1.79 0 0 0 .15-.72 1.72 1.72 0 0 0 -.15-.72 1.78 1.78 0 0 0 -.4-.57 1.91 1.91 0 0 0 -.6-.4z"/><path d="m14 138.94a12.9 12.9 0 0 1 -.48 3.88 6.14 6.14 0 0 1 -1.25 2.31 4.2 4.2 0 0 1 -1.8 1.17 8.12 8.12 0 0 1 -2.08.38 7.25 7.25 0 0 1 -2-.17 4.51 4.51 0 0 1 -1.76-.85 4.45 4.45 0 0 1 -1.3-1.66 6.93 6.93 0 0 1 -.49-2.7 6.14 6.14 0 0 1 0-1 7.35 7.35 0 0 1 .14-.86h-2.85a6.84 6.84 0 0 0 -.09.91v.92a10.37 10.37 0 0 0 .64 4 7.54 7.54 0 0 0 1.77 2.73 7.19 7.19 0 0 0 2.63 1.54 10.35 10.35 0 0 0 3.07.52 10.82 10.82 0 0 0 2-.16 7.84 7.84 0 0 0 2-.62 6.67 6.67 0 0 0 1.8-1.24 7 7 0 0 0 1.44-2 11.94 11.94 0 0 0 1-2.91 18.65 18.65 0 0 0 .37-4v-6.34h-2.76z"/><path d="m45.38 137.42a11.39 11.39 0 0 0 -.7-1.7 8 8 0 0 0 -.9-1.4 4.86 4.86 0 0 0 -1.68-1.32 5.53 5.53 0 0 0 -1.54-.3 5 5 0 0 0 -1.65.24 5.1 5.1 0 0 0 -2 1.28 6.46 6.46 0 0 0 -1.32 2.19 13.79 13.79 0 0 0 -.74 3.11 32.18 32.18 0 0 0 -.26 4c-.07 1.82-.58 2.74-1.54 2.77h-9a2.58 2.58 0 0 1 -1.26-.33 3.12 3.12 0 0 1 -1.08-1 5.44 5.44 0 0 1 -.76-1.68 8.81 8.81 0 0 1 -.25-2.28v-15.06h-2.7q0 3.85 0 7.67v7.68a13.42 13.42 0 0 0 .29 3 8.64 8.64 0 0 0 .8 2.24 6.17 6.17 0 0 0 1.19 1.55 6.56 6.56 0 0 0 1.43 1 5.9 5.9 0 0 0 1.55.52 8.27 8.27 0 0 0 1.54.15h9.65a1.67 1.67 0 0 0 1.33-.4 3.26 3.26 0 0 0 .87-1.29.63.63 0 0 1 .18.21 5 5 0 0 0 .83.78 5.17 5.17 0 0 0 .85.51 5 5 0 0 0 3.17.08 6.26 6.26 0 0 0 1.63-.93 6 6 0 0 0 1.38-1.59 8.34 8.34 0 0 0 .95-2.39 13.46 13.46 0 0 0 .36-3.31 12.6 12.6 0 0 0 -.16-2 12.81 12.81 0 0 0 -.46-2zm-2.32 5a7.43 7.43 0 0 1 -.45 1.83 4.39 4.39 0 0 1 -.82 1.4 2.31 2.31 0 0 1 -1.07.68 1.63 1.63 0 0 1 -1.09-.07 2.63 2.63 0 0 1 -1-.78 4.87 4.87 0 0 1 -.77-1.44 7.54 7.54 0 0 1 -.36-1.9 10.23 10.23 0 0 1 .05-2 8.45 8.45 0 0 1 .45-1.83 4.06 4.06 0 0 1 .83-1.4 2.18 2.18 0 0 1 1.07-.69 1.7 1.7 0 0 1 1.09.08 2.53 2.53 0 0 1 1 .78 4.86 4.86 0 0 1 .76 1.44 7.53 7.53 0 0 1 .37 1.9 10.23 10.23 0 0 1 -.06 2z"/><path d="m103.14 141a9.28 9.28 0 0 1 -.27 2.38 5.68 5.68 0 0 1 -.75 1.68 3.31 3.31 0 0 1 -1.08 1 2.64 2.64 0 0 1 -1.27.33h-3a9.3 9.3 0 0 0 .68-2.16 14 14 0 0 0 .25-2.82 13.83 13.83 0 0 0 -.18-2 14.17 14.17 0 0 0 -.46-1.92 11.39 11.39 0 0 0 -.7-1.7 8 8 0 0 0 -.9-1.4 4 4 0 0 0 -.82-.78 6.16 6.16 0 0 0 -.86-.52 5.53 5.53 0 0 0 -1.52-.29 5 5 0 0 0 -1.66.24 5.46 5.46 0 0 0 -3.27 3.48 21.8 21.8 0 0 0 -1 7.15c-.07 1.83-.58 2.76-1.53 2.77h-2.3a11.63 11.63 0 0 0 .85-2.39 9.37 9.37 0 0 0 .21-2.72 14.41 14.41 0 0 0 -.63-3.76 8.58 8.58 0 0 0 -1.51-2.9 5.08 5.08 0 0 0 -1.84-1.36 7.46 7.46 0 0 0 -2.8-.42h-6.22l3.37 13.55h-3.93a2.61 2.61 0 0 1 -1.21-.3 3.2 3.2 0 0 1 -1-.91 4.76 4.76 0 0 1 -.76-1.53 8.35 8.35 0 0 1 -.35-2.17v-15.56h-2.84v15.56a8.37 8.37 0 0 1 -.34 2.17 5 5 0 0 1 -.76 1.53 3.23 3.23 0 0 1 -1.06.91 2.6 2.6 0 0 1 -1.2.3h-3.13l.12-1.33c0-.44 0-.89 0-1.33a20.48 20.48 0 0 0 -.38-4.4 12.72 12.72 0 0 0 -1.3-3.69 7.38 7.38 0 0 0 -1-1.44 4.26 4.26 0 0 0 -1.26-1 3.82 3.82 0 0 0 -2.14-.54 3.16 3.16 0 0 0 -1.74.68 5.14 5.14 0 0 0 -1.28 1.61 9.86 9.86 0 0 0 -.84 2.29 14.2 14.2 0 0 0 -.37 2.68 14.49 14.49 0 0 0 .15 2.8 13.65 13.65 0 0 0 .68 2.66 8.16 8.16 0 0 0 1.25 2.23 5.77 5.77 0 0 0 1.84 1.53 5 5 0 0 0 2.44.55 5 5 0 0 1 -1 1.33 4.32 4.32 0 0 1 -1.2.76 5 5 0 0 1 -1.32.36 10.74 10.74 0 0 1 -1.4.09v3.44a9.35 9.35 0 0 0 2.46-.33 7.52 7.52 0 0 0 2.29-1 7.63 7.63 0 0 0 1.92-1.85 9.52 9.52 0 0 0 1.39-2.76h3.18a8.11 8.11 0 0 0 1.44-.13 6.37 6.37 0 0 0 1.45-.44 5.7 5.7 0 0 0 2.49-2.21 5.66 5.66 0 0 0 1.16 1.34 6.1 6.1 0 0 0 1.36.84 6.45 6.45 0 0 0 1.46.44 7.92 7.92 0 0 0 1.43.13h15.45a1.71 1.71 0 0 0 1.33-.4 3.26 3.26 0 0 0 .87-1.29 5.51 5.51 0 0 0 1.52 1.28 5.32 5.32 0 0 0 1.58.61 6.17 6.17 0 0 0 1.62.05c.54 0 1.07-.08 1.6-.16h.21a.77.77 0 0 1 .23-.06h.29.8 3a8.27 8.27 0 0 0 1.54-.15 6 6 0 0 0 1.54-.52 6.17 6.17 0 0 0 1.44-1 5.92 5.92 0 0 0 1.18-1.55 9.44 9.44 0 0 0 .81-2.24 13.37 13.37 0 0 0 .3-3c0-2.57 0-5.13 0-7.68s0-5.1 0-7.68h-2.76zm-48.37 4c0 .48-.09.92-.15 1.34h-1a2.24 2.24 0 0 1 -1.16-.29 3.36 3.36 0 0 1 -1.2-1.05 7.3 7.3 0 0 1 -.82-1.76 9.75 9.75 0 0 1 -.44-2.07 9.47 9.47 0 0 1 0-2.06 5.3 5.3 0 0 1 .46-1.72 2.2 2.2 0 0 1 1-1.08 1.36 1.36 0 0 1 .93-.14 1.8 1.8 0 0 1 .94.6 4.54 4.54 0 0 1 .81 1.42 10.92 10.92 0 0 1 .56 2.33c.07.5.12 1 .15 1.52s0 1 0 1.53-.05.99-.08 1.43zm25.71-1.85a7.44 7.44 0 0 1 -.66 1.69 3.76 3.76 0 0 1 -.92 1.16 1.35 1.35 0 0 1 -1.05.34 1.75 1.75 0 0 1 -1-.75 6.43 6.43 0 0 1 -.87-2.13l-1.81-7.29h3.33a2.5 2.5 0 0 1 1.15.3 3.1 3.1 0 0 1 1.07.93 5.23 5.23 0 0 1 .77 1.57 8 8 0 0 1 .29 2.27 7.34 7.34 0 0 1 -.3 1.94zm14.23-.76a7.43 7.43 0 0 1 -.45 1.83 4.39 4.39 0 0 1 -.82 1.4 2.31 2.31 0 0 1 -1.07.68 1.7 1.7 0 0 1 -1.09-.07 2.71 2.71 0 0 1 -1-.78 4.63 4.63 0 0 1 -.75-1.44 7.12 7.12 0 0 1 -.38-1.9 10.23 10.23 0 0 1 0-2 8.13 8.13 0 0 1 .46-1.84 4.62 4.62 0 0 1 .82-1.4 2.28 2.28 0 0 1 1.07-.68 1.69 1.69 0 0 1 1.09.08 2.53 2.53 0 0 1 1 .78 4.86 4.86 0 0 1 .76 1.44 7.53 7.53 0 0 1 .37 1.9 10.23 10.23 0 0 1 -.01 2.03z"/><path d="m108.87 149.72a2.1 2.1 0 0 0 1.24-.25 2.22 2.22 0 0 0 .8-.86 5 5 0 0 0 .46-1.35 14.65 14.65 0 0 0 .21-1.76c0-.64 0-1.32 0-2v-2.22-15.34h-2.76z"/></g><path d="m73 55.05a14.63 14.63 0 1 1 14.61-14.63 14.63 14.63 0 0 1 -14.61 14.63z" fill="#1b68a8"/><path d="m113.4 40.42a40.41 40.41 0 0 1 -66.23 31.1 37.05 37.05 0 0 0 48.74-24c.15-.46.27-.91.39-1.38a24.29 24.29 0 0 0 .7-5.72 24 24 0 0 0 -48 0 40.19 40.19 0 0 1 -8.21 24.42c-.58.78-1.2 1.53-1.85 2.26a40.44 40.44 0 0 1 -38.6 12.9 40.53 40.53 0 0 0 28.8-23.25 40.49 40.49 0 0 0 3.43-16.34 40.41 40.41 0 0 1 34.34-39.96 41.9 41.9 0 0 1 6.09-.45 40.42 40.42 0 0 1 40.4 40.42z" fill="#31a8dc"/></g></svg>