<svg viewBox="0 0 336.63 248.3" xmlns="http://www.w3.org/2000/svg" xmlns:xlink="http://www.w3.org/1999/xlink"><radialGradient id="a" cx="77.852" cy="79.619" gradientUnits="userSpaceOnUse" r="64.82"><stop offset="0" stop-color="#1b75bb"/><stop offset=".22" stop-color="#1e72b9"/><stop offset=".37" stop-color="#2769b4"/><stop offset=".5" stop-color="#365aab"/><stop offset=".62" stop-color="#4c459f"/><stop offset=".72" stop-color="#652d90"/><stop offset=".79" stop-color="#5b2f90"/><stop offset=".92" stop-color="#3f348f"/><stop offset="1" stop-color="#2b388f"/></radialGradient><clipPath id="b"><ellipse cx="74.74" cy="69.64" rx="66.63" ry="66.51"/></clipPath><radialGradient id="c" cx="-6883.4" cy="-9248.46" gradientTransform="matrix(.38 0 0 .38 2716.96 3596.84)" gradientUnits="userSpaceOnUse" r="159.16"><stop offset="0" stop-color="#00adee"/><stop offset=".47" stop-color="#1b75bb"/><stop offset=".63" stop-color="#1c72b9"/><stop offset=".75" stop-color="#1e68b2"/><stop offset=".86" stop-color="#2358a6"/><stop offset=".97" stop-color="#294196"/><stop offset="1" stop-color="#2b388f"/></radialGradient><radialGradient id="d" cx="-686.48" cy="-1343.58" gradientTransform="matrix(.71 0 0 .7 559.32 1181.23)" gradientUnits="userSpaceOnUse" r="40.98"><stop offset=".29" stop-color="#9e1f63"/><stop offset=".49" stop-color="#9b1e61"/><stop offset=".65" stop-color="#911b5c"/><stop offset=".78" stop-color="#811553"/><stop offset=".91" stop-color="#6a0d46"/><stop offset="1" stop-color="#56063b"/></radialGradient><radialGradient id="e" cx="-687.27" cy="-1578.37" gradientTransform="matrix(.71 0 0 .7 559.32 1181.23)" r="99.37" xlink:href="#c"/><clipPath id="f"><ellipse cx="74.74" cy="69.65" rx="66.63" ry="66.59"/></clipPath><linearGradient id="g" gradientUnits="userSpaceOnUse" x1="-35.32" x2="160.67" y1="118.74" y2="-39.87"><stop offset="0" stop-color="#d0d2d3"/><stop offset=".14" stop-color="#d2d4d5"/><stop offset=".2" stop-color="#d9dadb"/><stop offset=".23" stop-color="#e4e6e6"/><stop offset=".26" stop-color="#f5f6f6"/><stop offset=".28" stop-color="#fff"/><stop offset=".52" stop-color="#d0d2d3"/><stop offset=".58" stop-color="#fff"/><stop offset=".66" stop-color="#d0d2d3"/><stop offset="1" stop-color="#bbbdbf"/></linearGradient><linearGradient id="h" x1="-38.22" x2="157.78" xlink:href="#g" y1="115.16" y2="-43.44"/><linearGradient id="i" x1="4.78" x2="200.77" xlink:href="#g" y1="168.3" y2="9.69"/><radialGradient id="j" cx="-346.13" cy="-913.17" gradientTransform="matrix(.77 0 0 .77 341.2 769.99)" gradientUnits="userSpaceOnUse" r="89.52"><stop offset=".66" stop-color="#fff" stop-opacity="0"/><stop offset=".79" stop-color="#fff" stop-opacity=".01"/><stop offset=".83" stop-color="#fff" stop-opacity=".03"/><stop offset=".87" stop-color="#fff" stop-opacity=".08"/><stop offset=".89" stop-color="#fff" stop-opacity=".15"/><stop offset=".91" stop-color="#fff" stop-opacity=".23"/><stop offset=".93" stop-color="#fff" stop-opacity=".34"/><stop offset=".95" stop-color="#fff" stop-opacity=".47"/><stop offset=".97" stop-color="#fff" stop-opacity=".61"/><stop offset=".98" stop-color="#fff" stop-opacity=".78"/><stop offset="1" stop-color="#fff" stop-opacity=".96"/><stop offset="1" stop-color="#fff"/></radialGradient><radialGradient id="k" cx="-541.62" cy="-1158.52" gradientTransform="matrix(.73 0 0 .74 470.87 919.92)" r="80.42" xlink:href="#j"/><radialGradient id="l" cx="-541.78" cy="-1159.37" gradientTransform="matrix(.73 0 0 .74 470.87 919.92)" r="75.77" xlink:href="#j"/><radialGradient id="m" cx="-398.4" cy="-1010.56" gradientTransform="matrix(.76 0 0 .76 374.74 834.51)" r="91.29" xlink:href="#j"/><radialGradient id="n" cx="73.551" cy="67.716" gradientUnits="userSpaceOnUse" r="70.0928"><stop offset=".82" stop-color="#231f20" stop-opacity="0"/><stop offset=".92" stop-color="#231f20" stop-opacity=".05"/><stop offset=".96" stop-color="#231f20" stop-opacity=".25"/><stop offset=".98" stop-color="#231f20" stop-opacity=".58"/><stop offset="1" stop-color="#231f20"/></radialGradient><g opacity=".98"><path d="m28.22 46.52c7.71 14.63 16.15 28.85 23 44a170.38 170.38 0 0 1 13.46 44.88 67.25 67.25 0 0 0 10 .75 66.27 66.27 0 0 0 10.22-.79 170.57 170.57 0 0 1 13.43-44.88c6.87-15.11 15.31-29.33 23-44 2.65-5 5.21-10.14 7.57-15.36a67.06 67.06 0 0 0 -13.63-14.12c-6.17 27.88-23.53 29-40.48 54-17-25-34.37-26.18-40.52-54.15a66.66 66.66 0 0 0 -13.7 14.15c2.43 5.25 4.97 10.43 7.65 15.52z" fill="#808184"/><ellipse cx="74.79" cy="29.61" fill="#808184" rx="18.97" ry="19.44"/><g fill="url(#a)" stroke="#2b388f" stroke-miterlimit="10" stroke-width=".22"><path d="m64.67 134.58v.78a67.24 67.24 0 0 0 8.8.74v-.78a65.55 65.55 0 0 1 -8.8-.74"/><path d="m64.67 130.63v3.37a67.24 67.24 0 0 0 8.8.73v-3.42a70.89 70.89 0 0 1 -8.8-.69"/><path d="m64.67 123.69v5.7a72.87 72.87 0 0 0 8.8.68v-5.77a82.09 82.09 0 0 1 -8.8-.61"/><path d="m64.67 114.15v7.71a84.77 84.77 0 0 0 8.8.6v-7.81c-3 0-5.92-.21-8.8-.5"/><path d="m64.67 102.41v9.41c2.88.28 5.82.44 8.8.48v-9.52c-3 0-5.92-.15-8.8-.37"/><path d="m64.67 88.89v10.78c2.88.2 5.82.31 8.8.34v-10.91c-3 0-5.92-.09-8.8-.21"/><path d="m64.67 74v11.8c2.88.11 5.82.17 8.8.18v-11.98c-3 0-5.92 0-8.8 0"/><path d="m64.67 58.55v12.08h8.8v-12.2c-3 0-5.92 0-8.8.12"/><path d="m64.67 44.24v11.16c2.88-.09 5.82-.15 8.8-.16v-11.24c-3 0-5.92.12-8.8.29"/><path d="m64.67 31.46v9.92c2.88-.19 5.82-.3 8.8-.32v-10.06c-3 0-5.92.18-8.8.43"/><path d="m64.67 20.64v8.36c2.88-.27 5.82-.43 8.8-.46v-8.46a87.68 87.68 0 0 0 -8.8.56"/><path d="m64.67 12.16v6.45a84.81 84.81 0 0 1 8.8-.57v-6.53a77.2 77.2 0 0 0 -8.8.65"/><path d="m64.67 6.45v4.25a75 75 0 0 1 8.8-.67v-4.29a69 69 0 0 0 -8.8.71"/><path d="m64.67 3.93v1.71a69 69 0 0 1 8.8-.73v-1.72a65.55 65.55 0 0 0 -8.8.74"/><path d="m54.26 132.16v.74a64.57 64.57 0 0 0 8.35 2.1v-.77a67.92 67.92 0 0 1 -8.35-2.08"/><path d="m54.26 128.35v3.25a66.13 66.13 0 0 0 8.35 2.07v-3.36a69.48 69.48 0 0 1 -8.35-2"/><path d="m54.26 121.67v5.49a71.35 71.35 0 0 0 8.35 1.92v-5.68a77.65 77.65 0 0 1 -8.35-1.73"/><path d="m54.26 112.48v7.43a80.09 80.09 0 0 0 8.35 1.68v-7.68c-2.85-.35-5.64-.83-8.35-1.43"/><path d="m54.26 101.18v9.06c2.71.57 5.5 1 8.35 1.36v-9.36c-2.85-.27-5.64-.62-8.35-1.06"/><path d="m54.26 88.16v10.38c2.71.4 5.5.73 8.35 1v-10.76c-2.85-.15-5.64-.36-8.35-.62"/><path d="m54.26 73.78v11.41c2.71.22 5.5.39 8.35.52v-11.79c-2.85 0-5.64-.08-8.35-.14"/><path d="m54.26 59v11.59h8.35v-12c-2.85.09-5.64.21-8.35.35"/><path d="m54.26 45.19v10.74c2.71-.19 5.5-.34 8.35-.46v-11.1c-2.85.2-5.64.48-8.35.82"/><path d="m54.26 32.88v9.55c2.71-.37 5.5-.68 8.35-.9v-9.87c-2.85.31-5.64.72-8.35 1.22"/><path d="m54.26 22.47v8c2.71-.54 5.5-1 8.35-1.31v-8.3c-2.85.4-5.64.92-8.35 1.58"/><path d="m54.26 14.31v6.21a82.73 82.73 0 0 1 8.35-1.64v-6.42a73.29 73.29 0 0 0 -8.35 1.85"/><path d="m54.26 8.81v4.09a73.37 73.37 0 0 1 8.35-1.9v-4.21a67.77 67.77 0 0 0 -8.35 2"/><path d="m54.26 6.38v1.62a67.87 67.87 0 0 1 8.35-2v-1.72a66.22 66.22 0 0 0 -8.35 2.1"/><path d="m44.55 128.19v.69c2.3 1.07 5.4 2.45 7.77 3.36v-.74a65.92 65.92 0 0 1 -7.77-3.31"/><path d="m44.55 124.62v3a67.53 67.53 0 0 0 7.77 3.38v-3.22a68.45 68.45 0 0 1 -7.77-3.12"/><path d="m44.55 118.36v5.15a70 70 0 0 0 7.77 3v-5.44a72.85 72.85 0 0 1 -7.77-2.76"/><path d="m44.55 109.76v7a77.19 77.19 0 0 0 7.77 2.67v-7.43c-2.67-.65-5.27-1.41-7.77-2.28"/><path d="m44.55 99.18v8.48c2.5.82 5.1 1.55 7.77 2.16v-9c-2.67-.47-5.27-1-7.77-1.67"/><path d="m44.55 87v9.72c2.5.58 5.1 1.09 7.77 1.53v-10.25c-2.67-.28-5.27-.61-7.77-1"/><path d="m44.55 73.52v10.68c2.5.32 5.1.6 7.77.83v-11.29c-2.67-.06-5.27-.14-7.77-.22"/><path d="m44.55 59.64v10.89h7.77v-11.46c-2.67.16-5.27.35-7.77.57"/><path d="m44.55 46.74v10.06c2.5-.28 5.1-.52 7.77-.73v-10.63c-2.67.37-5.27.8-7.77 1.3"/><path d="m44.55 35.21v8.95c2.5-.55 5.1-1 7.77-1.44v-9.45c-2.67.55-5.27 1.2-7.77 1.94"/><path d="m44.55 25.46v7.54c2.5-.79 5.1-1.48 7.77-2.08v-7.92a79.21 79.21 0 0 0 -7.77 2.5"/><path d="m44.55 17.82v5.81a76.94 76.94 0 0 1 7.77-2.63v-6.12a71.49 71.49 0 0 0 -7.77 2.94"/><path d="m44.55 12.67v3.83a71.82 71.82 0 0 1 7.77-3v-4a67.16 67.16 0 0 0 -7.77 3.22"/><path d="m44.55 10.4v1.53a67.37 67.37 0 0 1 7.77-3.26v-1.67a66.2 66.2 0 0 0 -7.77 3.36"/><path d="m35.69 122.81v.64c2.09 1.39 4.9 3.22 7.07 4.49v-.69a66.08 66.08 0 0 1 -7.07-4.44"/><path d="m35.69 119.58v2.76a65.75 65.75 0 0 0 7.07 4.4v-3a69 69 0 0 1 -7.07-4.17"/><path d="m35.69 113.89v4.67a68.44 68.44 0 0 0 7.07 4.09v-5.07a69.49 69.49 0 0 1 -7.07-3.69"/><path d="m35.69 106.08v6.32a73 73 0 0 0 7.07 3.6v-6.85a75.18 75.18 0 0 1 -7.07-3"/><path d="m35.69 96.46v7.71c2.25 1.06 4.62 2 7.07 2.89v-8.35c-2.45-.68-4.82-1.43-7.07-2.25"/><path d="m35.69 85.39v8.83c2.25.75 4.62 1.44 7.07 2v-9.51c-2.45-.4-4.82-.84-7.07-1.32"/><path d="m35.69 73.16v9.7c2.25.41 4.62.78 7.07 1.11v-10.51c-2.45-.09-4.82-.19-7.07-.3"/><path d="m35.69 60.55v9.89l7.07.07v-10.71c-2.45.22-4.82.48-7.07.75"/><path d="m35.69 48.83v9.17c2.25-.35 4.62-.68 7.07-1v-9.9c-2.45.52-4.82 1.1-7.07 1.73"/><path d="m35.69 38.37v8.12c2.25-.7 4.62-1.35 7.07-1.93v-8.8c-2.45.79-4.82 1.66-7.07 2.61"/><path d="m35.69 29.51v6.83c2.25-1 4.62-1.94 7.07-2.78v-7.4a71.77 71.77 0 0 0 -7.07 3.35"/><path d="m35.69 22.56v5.29a70.29 70.29 0 0 1 7.07-3.48v-5.73a69.08 69.08 0 0 0 -7.07 3.92"/><path d="m35.69 17.89v3.48a67.93 67.93 0 0 1 7.07-4v-3.79a68.35 68.35 0 0 0 -7.07 4.31"/><path d="m35.69 15.83v1.39a68.84 68.84 0 0 1 7.07-4.37v-1.51a66.49 66.49 0 0 0 -7.07 4.49"/><path d="m27.82 116.18v.56c1.84 1.69 4.32 3.92 6.26 5.5v-.62a66.11 66.11 0 0 1 -6.26-5.44"/><path d="m27.82 113.35v2.42a65.6 65.6 0 0 0 6.26 5.39v-2.7a65.75 65.75 0 0 1 -6.26-5.11"/><path d="m27.82 108.37v4.09a64.78 64.78 0 0 0 6.26 5v-4.56a63.63 63.63 0 0 1 -6.26-4.53"/><path d="m27.82 101.53v5.54a65.77 65.77 0 0 0 6.26 4.37v-6.18a65 65 0 0 1 -6.26-3.73"/><path d="m27.82 93.12v6.75a66 66 0 0 0 6.26 3.53v-7.54q-3.3-1.27-6.26-2.74"/><path d="m27.82 83.42v7.73q3 1.35 6.26 2.52v-8.67q-3.3-.75-6.26-1.62"/><path d="m27.82 72.72v8.49q3 .74 6.26 1.36v-9.49q-3.3-.17-6.26-.36"/><path d="m27.82 61.68v8.66l6.26.08v-9.67q-3.3.44-6.26.93"/><path d="m27.82 51.42v8q3-.63 6.26-1.19v-8.93q-3.3 1-6.26 2.12"/><path d="m27.82 42.26v7.11q3-1.26 6.26-2.36v-7.94a66.65 66.65 0 0 0 -6.26 3.19"/><path d="m27.82 34.5v6a67.6 67.6 0 0 1 6.26-3.4v-6.7a65.55 65.55 0 0 0 -6.26 4.1"/><path d="m27.82 28.42v4.63a65 65 0 0 1 6.26-4.27v-5.16a64.38 64.38 0 0 0 -6.26 4.8"/><path d="m27.82 24.33v3.05a64 64 0 0 1 6.26-4.93v-3.4a65.93 65.93 0 0 0 -6.26 5.28"/><path d="m27.82 22.52v1.23a66.75 66.75 0 0 1 6.26-5.36v-1.39a68.11 68.11 0 0 0 -6.26 5.49"/><path d="m21.07 108.43v.46c1.55 2 3.67 4.55 5.34 6.41v-.54a67.19 67.19 0 0 1 -5.34-6.33"/><path d="m21.07 106.07v2a66.45 66.45 0 0 0 5.34 6.27v-2.34a63.78 63.78 0 0 1 -5.34-5.94"/><path d="m21.07 101.92v3.41a62.41 62.41 0 0 0 5.34 5.82v-4a59.09 59.09 0 0 1 -5.34-5.27"/><path d="m21.07 96.22v4.61a60 60 0 0 0 5.34 5.09v-5.36a56.34 56.34 0 0 1 -5.34-4.34"/><path d="m21.07 89.2v5.63a56.2 56.2 0 0 0 5.34 4.11v-6.54a56.68 56.68 0 0 1 -5.34-3.2"/><path d="m21.07 81.12v6.45a58.12 58.12 0 0 0 5.34 2.92v-7.49q-2.86-.89-5.34-1.88"/><path d="m21.07 72.2v7.08q2.47.82 5.34 1.58v-8.24q-2.86-.2-5.34-.42"/><path d="m21.07 63v7.22l5.34.1v-8.4q-2.86.51-5.34 1.08"/><path d="m21.07 54.45v6.67q2.47-.73 5.34-1.39v-7.73q-2.86 1.17-5.34 2.48"/><path d="m21.07 46.81v5.93a55.47 55.47 0 0 1 5.34-2.74v-6.9a57.17 57.17 0 0 0 -5.34 3.72"/><path d="m21.07 40.34v5a55.15 55.15 0 0 1 5.34-4v-5.8a58.47 58.47 0 0 0 -5.34 4.77"/><path d="m21.07 35.28v3.85a57.39 57.39 0 0 1 5.34-5v-4.45a62.57 62.57 0 0 0 -5.34 5.6"/><path d="m21.07 31.87v2.54a61.51 61.51 0 0 1 5.34-5.74v-3a65 65 0 0 0 -5.34 6.15"/><path d="m21.07 30.36v1a64.73 64.73 0 0 1 5.34-6.23v-1.13a68.06 68.06 0 0 0 -5.34 6.4"/><path d="m15.59 99.7v.35l.06.12c1.23 2.15 2.89 5 4.25 7.08v-.45a66.43 66.43 0 0 1 -4.31-7.1"/><path d="m15.59 97.87v1.56a66.75 66.75 0 0 0 4.31 7v-1.94a61.66 61.66 0 0 1 -4.31-6.67"/><path d="m15.59 94.65v2.64a60 60 0 0 0 4.31 6.54v-3.26a54.45 54.45 0 0 1 -4.31-5.92"/><path d="m15.59 90.23v3.57a52.21 52.21 0 0 0 4.31 5.72v-4.42a45.54 45.54 0 0 1 -4.31-4.87"/><path d="m15.59 84.79v4.36a44.3 44.3 0 0 0 4.31 4.62v-5.39a38.86 38.86 0 0 1 -4.31-3.59"/><path d="m15.59 78.53v5a39.62 39.62 0 0 0 4.31 3.29v-6.18a42.29 42.29 0 0 1 -4.31-2.11"/><path d="m15.59 71.61v5.49a43.64 43.64 0 0 0 4.31 1.77v-6.78c-1.58-.15-3-.31-4.31-.48"/><path d="m15.59 64.48v5.6l4.31.11v-6.92c-1.58.39-3 .79-4.31 1.21"/><path d="m15.59 57.85v5.15c1.29-.53 2.73-1.05 4.31-1.55v-6.37a40.57 40.57 0 0 0 -4.31 2.77"/><path d="m15.59 51.94v4.59a40.08 40.08 0 0 1 4.31-3.09v-5.68a42.82 42.82 0 0 0 -4.31 4.18"/><path d="m15.59 46.92v3.87a42.79 42.79 0 0 1 4.31-4.44v-4.78a50.21 50.21 0 0 0 -4.31 5.35"/><path d="m15.59 43v3a50.69 50.69 0 0 1 4.31-5.58v-3.7a56.78 56.78 0 0 0 -4.31 6.28"/><path d="m15.59 40.36v2a59.71 59.71 0 0 1 4.31-6.44v-2.47a63.85 63.85 0 0 0 -4.31 6.91"/><path d="m15.59 39.19v.81a65.06 65.06 0 0 1 4.31-7v-1a67.68 67.68 0 0 0 -4.31 7.19"/><path d="m11.53 90.12v.25l.09.25c.87 2.31 2.06 5.37 3.07 7.62v-.34a65.28 65.28 0 0 1 -3.16-7.78"/><path d="m11.53 88.87v1.07a64.25 64.25 0 0 0 3.16 7.71v-1.47a58.6 58.6 0 0 1 -3.16-7.31"/><path d="m11.53 86.68v1.8a57.85 57.85 0 0 0 3.16 7.16v-2.48a49.71 49.71 0 0 1 -3.16-6.48"/><path d="m11.53 83.67v2.43a47.68 47.68 0 0 0 3.16 6.26v-3.36a38.68 38.68 0 0 1 -3.16-5.33"/><path d="m11.53 80v3a36 36 0 0 0 3.16 5v-4.1a28.35 28.35 0 0 1 -3.16-3.9"/><path d="m11.53 75.69v3.41a27.34 27.34 0 0 0 3.16 3.6v-4.7a23.09 23.09 0 0 1 -3.16-2.31"/><path d="m11.53 71v3.75a23.72 23.72 0 0 0 3.16 1.94v-5.2c-1.21-.16-2.27-.34-3.16-.52"/><path d="m11.53 66.11v3.82l3.16.12v-5.26a25.81 25.81 0 0 0 -3.16 1.32"/><path d="m11.53 61.59v3.53a21.91 21.91 0 0 1 3.16-1.7v-4.87a24.2 24.2 0 0 0 -3.16 3"/><path d="m11.53 57.56v3.13a25.38 25.38 0 0 1 3.16-3.38v-4.31a32.2 32.2 0 0 0 -3.16 4.57"/><path d="m11.53 54.14v2.63a34.76 34.76 0 0 1 3.16-4.86v-3.64a43.81 43.81 0 0 0 -3.16 5.87"/><path d="m11.53 51.46v2a45.92 45.92 0 0 1 3.16-6.11v-2.77a54.78 54.78 0 0 0 -3.16 6.88"/><path d="m11.53 49.66v1.34a56.37 56.37 0 0 1 3.16-7v-1.9a62.76 62.76 0 0 0 -3.16 7.56"/><path d="m11.53 48.86v.54a64.21 64.21 0 0 1 3.16-7.66v-.74a66.46 66.46 0 0 0 -3.16 7.86"/><path d="m9 79.85v.15c0 .14.05.28.07.42.49 2.42 1.18 5.63 1.82 8v-.23a65.78 65.78 0 0 1 -1.89-8.34"/><path d="m9 79.23v.53a64.72 64.72 0 0 0 1.92 8.24v-1a58.26 58.26 0 0 1 -1.92-7.77"/><path d="m9 78.13v.87a56.14 56.14 0 0 0 1.89 7.67v-1.6a47.11 47.11 0 0 1 -1.89-6.94"/><path d="m9 76.63v1.21a44.24 44.24 0 0 0 1.89 6.71v-2.21a33.51 33.51 0 0 1 -1.89-5.71"/><path d="m9 74.77v1.49a30.47 30.47 0 0 0 1.89 5.41v-2.67a20.46 20.46 0 0 1 -1.89-4.23"/><path d="m9 72.64v1.7a17.9 17.9 0 0 0 1.89 3.86v-3.08a10.75 10.75 0 0 1 -1.89-2.48"/><path d="m9 70.29v1.87a9.42 9.42 0 0 0 1.89 2.07v-3.39a11.85 11.85 0 0 1 -1.89-.55"/><path d="m9 67.86v1.9c.45 0 1.09.09 1.89.13v-3.45a7.94 7.94 0 0 0 -1.89 1.42"/><path d="m9 65.6v1.76a8.69 8.69 0 0 1 1.89-1.82v-3.19a14.21 14.21 0 0 0 -1.89 3.25"/><path d="m9 63.58v1.57a16.5 16.5 0 0 1 1.89-3.62v-2.84a26.11 26.11 0 0 0 -1.89 4.89"/><path d="m9 61.88v1.31a29.08 29.08 0 0 1 1.92-5.19v-2.4a39.46 39.46 0 0 0 -1.92 6.28"/><path d="m9 60.54v1a42.51 42.51 0 0 1 1.92-6.54v-1.83a52.74 52.74 0 0 0 -1.92 7.37"/><path d="m9 59.64v.67a54.48 54.48 0 0 1 1.89-7.55v-1.22a62.33 62.33 0 0 0 -1.89 8.1"/><path d="m9 59.24v.27a63.82 63.82 0 0 1 1.89-8.2v-.49a67.16 67.16 0 0 0 -1.89 8.42"/><path d="m8.23 69.6c.1 2.49.26 5.81.51 8.29v-.1c-.21-2.45-.46-5.73-.51-8.19"/><path d="m8.23 69.6a64 64 0 0 0 .51 8.12v-.42a57.68 57.68 0 0 1 -.51-7.7"/><path d="m8.23 69.6a55.3 55.3 0 0 0 .51 7.54v-.72c-.21-2-.46-4.77-.51-6.82"/><path d="m8.23 69.6a42.35 42.35 0 0 0 .51 6.59v-1a30.92 30.92 0 0 1 -.51-5.62"/><path d="m8.23 69.6a27.73 27.73 0 0 0 .51 5.32v-1.18a17 17 0 0 1 -.51-4.14"/><path d="m8.23 69.6a14.31 14.31 0 0 0 .51 3.79v-1.39a6.13 6.13 0 0 1 -.51-2.43"/><path d="m8.23 69.6a4.46 4.46 0 0 0 .51 2v-1.45a1.49 1.49 0 0 1 -.51-.55"/><path d="m8.23 69.6s.17.09.51.13v-1.52a2.3 2.3 0 0 0 -.51 1.39"/><path d="m8.23 69.6a3.53 3.53 0 0 1 .51-1.79v-1.41a10.34 10.34 0 0 0 -.51 3.2"/><path d="m8.23 69.6a12.71 12.71 0 0 1 .51-3.6v-1.21a22.78 22.78 0 0 0 -.51 4.81"/><path d="m8.23 69.6a25.77 25.77 0 0 1 .51-5.12v-1.05c-.21 1.84-.48 4.31-.51 6.17"/><path d="m8.23 69.6a40.32 40.32 0 0 1 .51-6.43v-.81a51 51 0 0 0 -.51 7.24"/><path d="m8.23 69.6a53.81 53.81 0 0 1 .51-7.43v-.53a61.52 61.52 0 0 0 -.51 8"/><path d="m8.23 69.6c.1-2.42.26-5.65.51-8.06v-.22a66.57 66.57 0 0 0 -.51 8.28"/><path d="m140.75 77.79v.1c.2-2.48.45-5.8.51-8.29a67 67 0 0 1 -.51 8.19"/><path d="m140.75 77.3v.42a65.93 65.93 0 0 0 .51-8.12 59.27 59.27 0 0 1 -.51 7.7"/><path d="m140.75 76.42v.72a57 57 0 0 0 .51-7.54c-.1 2.05-.39 4.77-.51 6.82"/><path d="m140.75 75.22v1c.2-2 .45-4.61.51-6.59a31.84 31.84 0 0 1 -.51 5.62"/><path d="m140.75 73.74v1.18a28.55 28.55 0 0 0 .51-5.32 17.51 17.51 0 0 1 -.51 4.14"/><path d="m140.75 72v1.36a14.73 14.73 0 0 0 .51-3.79 6.3 6.3 0 0 1 -.51 2.43"/><path d="m140.75 70.15v1.49a4.59 4.59 0 0 0 .51-2 1.91 1.91 0 0 1 -.51.55"/><path d="m140.75 68.21v1.52c.33 0 .51-.09.51-.13a2.36 2.36 0 0 0 -.51-1.39"/><path d="m140.75 66.4v1.41a3.63 3.63 0 0 1 .51 1.79 10.65 10.65 0 0 0 -.51-3.2"/><path d="m140.75 64.79v1.21a13.09 13.09 0 0 1 .51 3.56 23.45 23.45 0 0 0 -.51-4.81"/><path d="m140.75 63.43v1.05a26.54 26.54 0 0 1 .51 5.12 38.24 38.24 0 0 0 -.51-6.17"/><path d="m140.75 62.36v.81a41.52 41.52 0 0 1 .51 6.43c-.1-2.18-.26-5.08-.51-7.24"/><path d="m140.75 61.64v.53c.2 2.23.45 5.2.51 7.43a63.35 63.35 0 0 0 -.51-8"/><path d="m140.75 61.32v.22a65 65 0 0 1 .51 8.06 68.55 68.55 0 0 0 -.51-8.28"/><path d="m138.56 88.18v.23c.6-2.4 1.38-5.6 1.83-8l.06-.42v-.12a63.73 63.73 0 0 1 -1.89 8.33"/><path d="m138.56 87.05v1a62.7 62.7 0 0 0 1.89-8.26v-.53a56.78 56.78 0 0 1 -1.89 7.82"/><path d="m138.56 85.07v1.63a54.72 54.72 0 0 0 1.89-7.7v-.9a45.9 45.9 0 0 1 -1.89 6.94"/><path d="m138.56 82.34v2.21a43.11 43.11 0 0 0 1.89-6.71v-1.21a32.66 32.66 0 0 1 -1.89 5.71"/><path d="m138.56 79v2.7a30.05 30.05 0 0 0 1.89-5.42v-1.5a19.87 19.87 0 0 1 -1.89 4.2"/><path d="m138.56 75.12v3.08a17.45 17.45 0 0 0 1.89-3.86v-1.7a10.47 10.47 0 0 1 -1.89 2.48"/><path d="m138.56 70.84v3.39a9.18 9.18 0 0 0 1.89-2.07v-1.87a11.54 11.54 0 0 1 -1.89.55"/><path d="m138.56 66.44v3.45c.81 0 1.44-.08 1.89-.13v-1.9a7.74 7.74 0 0 0 -1.89-1.42"/><path d="m138.56 62.35v3.19a8.47 8.47 0 0 1 1.89 1.82v-1.76a13.86 13.86 0 0 0 -1.89-3.25"/><path d="m138.56 58.69v2.84a16.08 16.08 0 0 1 1.89 3.62v-1.57a25.44 25.44 0 0 0 -1.89-4.89"/><path d="m138.56 55.6v2.4a28.33 28.33 0 0 1 1.89 5.21v-1.33a38.45 38.45 0 0 0 -1.89-6.28"/><path d="m138.56 53.17v1.83a41.11 41.11 0 0 1 1.89 6.54v-1a51.38 51.38 0 0 0 -1.89-7.37"/><path d="m138.56 51.54v1.22a53.1 53.1 0 0 1 1.89 7.55v-.67a60.74 60.74 0 0 0 -1.89-8.1"/><path d="m138.56 50.82v.49a61.82 61.82 0 0 1 1.89 8.2v-.27a65.44 65.44 0 0 0 -1.89-8.42"/><path d="m134.79 97.9v.34c1-2.26 2.25-5.3 3.08-7.62l.08-.25v-.25a63.64 63.64 0 0 1 -3.16 7.78"/><path d="m134.79 96.18v1.48a63.44 63.44 0 0 0 3.21-7.72v-1.07a57.15 57.15 0 0 1 -3.16 7.31"/><path d="m134.79 93.16v2.48a56.4 56.4 0 0 0 3.21-7.16v-1.8a48.47 48.47 0 0 1 -3.16 6.48"/><path d="m134.79 89v3.36a45.32 45.32 0 0 0 3.21-6.26v-2.43a37.71 37.71 0 0 1 -3.21 5.33"/><path d="m134.79 83.89v4.11a35.14 35.14 0 0 0 3.21-5.07v-2.93a27.63 27.63 0 0 1 -3.16 3.93"/><path d="m134.79 78v4.7a26.63 26.63 0 0 0 3.21-3.6v-3.41a21.72 21.72 0 0 1 -3.21 2.31"/><path d="m134.79 71.49v5.17a23.09 23.09 0 0 0 3.21-1.94v-3.72c-.89.18-1.94.36-3.16.52"/><path d="m134.79 64.79v5.26l3.16-.12v-3.82a25.17 25.17 0 0 0 -3.16-1.32"/><path d="m134.79 58.55v4.87a21.39 21.39 0 0 1 3.16 1.7v-3.53a23.59 23.59 0 0 0 -3.16-3"/><path d="m134.79 53v4.32a24.74 24.74 0 0 1 3.21 3.37v-3.13a31.4 31.4 0 0 0 -3.21-4.56"/><path d="m134.79 48.27v3.64a33.88 33.88 0 0 1 3.21 4.86v-2.63a42.7 42.7 0 0 0 -3.16-5.87"/><path d="m134.79 44.58v2.81a44.77 44.77 0 0 1 3.21 6.11v-2a53.39 53.39 0 0 0 -3.16-6.88"/><path d="m134.79 42.1v1.9a55 55 0 0 1 3.21 7v-1.34a61.19 61.19 0 0 0 -3.16-7.56"/><path d="m134.79 41v.74a62.59 62.59 0 0 1 3.21 7.66v-.54a64.79 64.79 0 0 0 -3.21-7.86"/><path d="m129.59 106.8v.45c1.32-2.1 3-4.91 4.24-7.08l.06-.12v-.35a64.76 64.76 0 0 1 -4.3 7.1"/><path d="m129.59 104.54v1.94a64.09 64.09 0 0 0 4.3-7v-1.61a60.1 60.1 0 0 1 -4.3 6.67"/><path d="m129.59 100.57v3.26a58.48 58.48 0 0 0 4.3-6.54v-2.64a53.05 53.05 0 0 1 -4.3 5.92"/><path d="m129.59 95.1v4.42a50 50 0 0 0 4.3-5.72v-3.57a44.36 44.36 0 0 1 -4.3 4.87"/><path d="m129.59 88.38v5.39a42.21 42.21 0 0 0 4.3-4.62v-4.36a37.83 37.83 0 0 1 -4.3 3.59"/><path d="m129.59 80.64v6.17a38.48 38.48 0 0 0 4.3-3.28v-5a41.09 41.09 0 0 1 -4.3 2.11"/><path d="m129.59 72.09v6.78a42.44 42.44 0 0 0 4.3-1.77v-5.49c-1.28.17-2.72.33-4.3.48"/><path d="m129.59 63.27v6.92l4.3-.11v-5.6c-1.28-.42-2.72-.82-4.3-1.21"/><path d="m129.59 55.08v6.39c1.58.5 3 1 4.3 1.55v-5.17a39.41 39.41 0 0 0 -4.3-2.77"/><path d="m129.59 47.76v5.68a39 39 0 0 1 4.3 3.09v-4.59a41.67 41.67 0 0 0 -4.3-4.18"/><path d="m129.59 41.57v4.77a42.72 42.72 0 0 1 4.3 4.45v-3.87a48.9 48.9 0 0 0 -4.3-5.35"/><path d="m129.59 36.72v3.69a49.4 49.4 0 0 1 4.3 5.58v-2.99a55.36 55.36 0 0 0 -4.3-6.28"/><path d="m129.59 33.45v2.43a58.19 58.19 0 0 1 4.3 6.44v-2a61.33 61.33 0 0 0 -4.3-6.91"/><path d="m129.59 32v1a63.42 63.42 0 0 1 4.3 7v-.79a66 66 0 0 0 -4.3-7.19"/><path d="m123.08 114.76v.54c1.64-1.88 3.81-4.43 5.34-6.41v-.46a67.19 67.19 0 0 1 -5.34 6.33"/><path d="m123.08 112v2.35a66.45 66.45 0 0 0 5.34-6.27v-2a63.78 63.78 0 0 1 -5.34 5.94"/><path d="m123.08 107.19v4a62.41 62.41 0 0 0 5.34-5.82v-3.41a59.09 59.09 0 0 1 -5.34 5.27"/><path d="m123.08 100.56v5.36a60 60 0 0 0 5.34-5.09v-4.61a56.34 56.34 0 0 1 -5.34 4.34"/><path d="m123.08 92.4v6.54a54.6 54.6 0 0 0 5.34-4.11v-5.63a54.63 54.63 0 0 1 -5.34 3.2"/><path d="m123.08 83v7.5a60.64 60.64 0 0 0 5.34-2.93v-6.45q-2.47 1-5.34 1.88"/><path d="m123.08 72.62v8.24q2.86-.75 5.34-1.58v-7.08q-2.47.22-5.34.42"/><path d="m123.08 61.92v8.4l5.34-.1v-7.22q-2.47-.57-5.34-1.08"/><path d="m123.08 52v7.76q2.86.66 5.34 1.39v-6.7q-2.47-1.31-5.34-2.48"/><path d="m123.08 43.09v6.91a55.47 55.47 0 0 1 5.34 2.75v-5.94a57.17 57.17 0 0 0 -5.34-3.72"/><path d="m123.08 35.57v5.8a55.15 55.15 0 0 1 5.34 4v-5a58.47 58.47 0 0 0 -5.34-4.77"/><path d="m123.08 29.68v4.49a57.39 57.39 0 0 1 5.34 5v-3.89a62.57 62.57 0 0 0 -5.34-5.6"/><path d="m123.08 25.72v3a61.51 61.51 0 0 1 5.34 5.74v-2.59a65 65 0 0 0 -5.34-6.15"/><path d="m123.08 24v1.19a64.73 64.73 0 0 1 5.34 6.23v-1a68.06 68.06 0 0 0 -5.34-6.4"/><path d="m115.41 121.62v.62c1.92-1.6 4.45-3.78 6.27-5.51v-.55a66.24 66.24 0 0 1 -6.27 5.44"/><path d="m115.41 118.46v2.7a67.18 67.18 0 0 0 6.27-5.39v-2.42a65.88 65.88 0 0 1 -6.27 5.11"/><path d="m115.41 112.9v4.57a66.48 66.48 0 0 0 6.27-5v-4.09a65.46 65.46 0 0 1 -6.27 4.53"/><path d="m115.41 105.26v6.18a66 66 0 0 0 6.27-4.38v-5.53a65.2 65.2 0 0 1 -6.27 3.73"/><path d="m115.41 95.86v7.54a66.22 66.22 0 0 0 6.27-3.54v-6.74c-2 1-4.07 1.89-6.27 2.74"/><path d="m115.41 85v8.63c2.2-.78 4.3-1.62 6.27-2.52v-7.69c-2 .58-4.07 1.12-6.27 1.62"/><path d="m115.41 73.08v9.49c2.2-.42 4.3-.88 6.27-1.36v-8.49c-2 .13-4.07.25-6.27.36"/><path d="m115.41 60.75v9.67l6.27-.08v-8.66c-2-.33-4.07-.64-6.27-.93"/><path d="m115.41 49.3v8.93c2.2.37 4.3.77 6.27 1.19v-8c-2-.76-4.07-1.47-6.27-2.12"/><path d="m115.41 39.07v7.93c2.2.73 4.3 1.52 6.27 2.36v-7.1a69.35 69.35 0 0 0 -6.27-3.19"/><path d="m115.41 30.4v6.68a65.54 65.54 0 0 1 6.27 3.41v-6a63.91 63.91 0 0 0 -6.27-4.11"/><path d="m115.41 23.62v5.16a65.2 65.2 0 0 1 6.27 4.28v-4.63a64.61 64.61 0 0 0 -6.27-4.81"/><path d="m115.41 19.05v3.4a65.72 65.72 0 0 1 6.27 4.93v-3a66.16 66.16 0 0 0 -6.27-5.29"/><path d="m115.41 17v1.36a66.87 66.87 0 0 1 6.27 5.36v-1.19a66.86 66.86 0 0 0 -6.27-5.5"/><path d="m106.72 127.25v.69c2.16-1.3 5-3.07 7.08-4.49v-.64a65.23 65.23 0 0 1 -7.08 4.44"/><path d="m106.72 123.75v3a64.92 64.92 0 0 0 7.08-4.4v-2.76a68.13 68.13 0 0 1 -7.08 4.17"/><path d="m106.72 117.58v5.07a67.55 67.55 0 0 0 7.08-4.09v-4.67a68.62 68.62 0 0 1 -7.08 3.69"/><path d="m106.72 109.12v6.88a72.07 72.07 0 0 0 7.08-3.57v-6.32a74.26 74.26 0 0 1 -7.08 3"/><path d="m106.72 98.71v8.35a76.4 76.4 0 0 0 7.08-2.89v-7.7c-2.25.81-4.62 1.56-7.08 2.24"/><path d="m106.72 86.71v9.56c2.46-.61 4.83-1.3 7.08-2v-8.88c-2.25.48-4.62.92-7.08 1.32"/><path d="m106.72 73.46v10.54c2.46-.33 4.83-.7 7.08-1.11v-9.7c-2.25.11-4.62.21-7.08.3"/><path d="m106.72 59.8v10.71l7.08-.07v-9.89c-2.25-.27-4.62-.53-7.08-.75"/><path d="m106.72 47.1v9.9c2.46.29 4.83.62 7.08 1v-9.17c-2.25-.63-4.62-1.21-7.08-1.73"/><path d="m106.72 35.76v8.8c2.46.58 4.83 1.23 7.08 1.93v-8.12c-2.25-.95-4.62-1.82-7.08-2.61"/><path d="m106.72 26.16v7.4c2.46.84 4.83 1.76 7.08 2.78v-6.83a70.89 70.89 0 0 0 -7.08-3.35"/><path d="m106.72 18.64v5.73a69.42 69.42 0 0 1 7.08 3.48v-5.29a68.19 68.19 0 0 0 -7.08-3.92"/><path d="m106.72 13.58v3.77a67.06 67.06 0 0 1 7.08 4v-3.46a67.45 67.45 0 0 0 -7.08-4.31"/><path d="m106.72 11.34v1.51a67.92 67.92 0 0 1 7.08 4.37v-1.39a65.63 65.63 0 0 0 -7.08-4.49"/><path d="m97.17 131.5v.74c2.35-1 5.48-2.26 7.77-3.36v-.69a66.65 66.65 0 0 1 -7.77 3.31"/><path d="m97.17 127.74v3.26a68.29 68.29 0 0 0 7.77-3.29v-3a69.2 69.2 0 0 1 -7.77 3.12"/><path d="m97.17 121.12v5.44a70.78 70.78 0 0 0 7.77-3v-5.15a73.64 73.64 0 0 1 -7.77 2.76"/><path d="m97.17 112v7.35a78.06 78.06 0 0 0 7.77-2.67v-7q-3.76 1.3-7.77 2.28"/><path d="m97.17 100.85v9c2.67-.61 5.26-1.34 7.77-2.16v-8.51q-3.76 1-7.77 1.67"/><path d="m97.17 88v10.24q4-.66 7.77-1.53v-9.71q-3.76.56-7.77 1"/><path d="m97.17 73.74v11.26q4-.34 7.77-.83v-10.65c-2.51.08-5.1.16-7.77.22"/><path d="m97.17 59.07v11.51h7.77v-10.94q-3.76-.33-7.77-.57"/><path d="m97.17 45.44v10.63q4 .32 7.77.73v-10.07q-3.76-.73-7.77-1.29"/><path d="m97.17 33.27v9.45q4 .62 7.77 1.44v-8.95q-3.76-1.11-7.77-1.94"/><path d="m97.17 23v7.9q4 .9 7.77 2.08v-7.52a80.08 80.08 0 0 0 -7.77-2.46"/><path d="m97.17 14.88v6.12a77.79 77.79 0 0 1 7.77 2.6v-5.78a72.29 72.29 0 0 0 -7.77-2.94"/><path d="m97.17 9.45v4a72.64 72.64 0 0 1 7.77 3v-3.78a66.14 66.14 0 0 0 -7.77-3.22"/><path d="m97.17 7v1.67a68.12 68.12 0 0 1 7.77 3.26v-1.53a66.94 66.94 0 0 0 -7.77-3.4"/><path d="m86.89 134.24v.76c2.52-.57 5.86-1.38 8.34-2.11v-.74a67.77 67.77 0 0 1 -8.34 2.08"/><path d="m86.89 130.31v3.36a69.57 69.57 0 0 0 8.34-2.06v-3.26a69.32 69.32 0 0 1 -8.34 2"/><path d="m86.89 123.4v5.68a71.19 71.19 0 0 0 8.34-1.92v-5.49a77.47 77.47 0 0 1 -8.34 1.73"/><path d="m86.89 113.91v7.68a79.9 79.9 0 0 0 8.34-1.68v-7.43c-2.71.6-5.49 1.07-8.34 1.43"/><path d="m86.89 102.23v9.37q4.27-.51 8.34-1.36v-9.06q-4.07.66-8.34 1"/><path d="m86.89 88.78v10.73c2.85-.24 5.63-.57 8.34-1v-10.35q-4.07.39-8.34.62"/><path d="m86.89 73.92v11.79q4.27-.19 8.34-.52v-11.41q-4.07.09-8.34.14"/><path d="m86.89 58.61v12h8.34v-11.61q-4.07-.21-8.34-.35"/><path d="m86.89 44.37v11.11q4.27.17 8.34.45v-10.74c-2.71-.34-5.49-.62-8.34-.82"/><path d="m86.89 31.66v9.87c2.85.22 5.63.53 8.34.9v-9.55q-4.07-.75-8.34-1.22"/><path d="m86.89 20.9v8.29q4.27.49 8.34 1.31v-8a82.48 82.48 0 0 0 -8.34-1.57"/><path d="m86.89 12.46v6.42a82.54 82.54 0 0 1 8.34 1.64v-6.21a73.12 73.12 0 0 0 -8.34-1.85"/><path d="m86.89 6.79v4.21a73.2 73.2 0 0 1 8.34 1.89v-4.08a67.61 67.61 0 0 0 -8.34-2"/><path d="m86.89 4.28v1.72a65.93 65.93 0 0 1 8.34 2v-1.62a66.06 66.06 0 0 0 -8.34-2.1"/><path d="m76 135.32v.78c2.64-.15 6.17-.41 8.8-.74v-.78a65.55 65.55 0 0 1 -8.8.74"/><path d="m76 131.32v3.42a67.24 67.24 0 0 0 8.8-.73v-3.38a70.89 70.89 0 0 1 -8.8.69"/><path d="m76 124.3v5.77a72.87 72.87 0 0 0 8.8-.68v-5.7a82.09 82.09 0 0 1 -8.8.61"/><path d="m76 114.65v7.81a84.77 84.77 0 0 0 8.8-.6v-7.71c-2.88.29-5.82.46-8.8.5"/><path d="m76 102.78v9.52c3 0 5.92-.2 8.8-.48v-9.41c-2.88.22-5.82.34-8.8.37"/><path d="m76 89.1v10.9c3 0 5.92-.14 8.8-.34v-10.77c-2.88.12-5.82.2-8.8.21"/><path d="m76 74v12c3 0 5.92-.07 8.8-.18v-11.82c-2.86 0-5.8 0-8.8 0"/><path d="m76 58.43v12.21h8.8v-12.09c-2.88-.07-5.82-.12-8.8-.12"/><path d="m76 44v11.24c3 0 5.92.07 8.8.16v-11.16c-2.86-.17-5.8-.24-8.8-.24"/><path d="m76 31v10c3 0 5.92.13 8.8.32v-9.86c-2.88-.25-5.82-.4-8.8-.43"/><path d="m76 20.08v8.44c3 0 5.92.19 8.8.46v-8.34a87.68 87.68 0 0 0 -8.8-.56"/><path d="m76 11.51v6.49a84.81 84.81 0 0 1 8.8.57v-6.41a77.2 77.2 0 0 0 -8.8-.65"/><path d="m76 5.74v4.26a75 75 0 0 1 8.8.67v-4.22a69 69 0 0 0 -8.8-.71"/><path d="m76 3.19v1.72a69 69 0 0 1 8.8.73v-1.71a65.55 65.55 0 0 0 -8.8-.74"/></g><g clip-path="url(#b)"><path d="m116.61 10.76a98 98 0 0 0 -83.51 0c4.8 30.24 23.51 34.81 41.75 61.64 18.25-26.83 36.95-31.4 41.76-61.64zm-60.76 18.86a19 19 0 1 1 38 0 19 19 0 1 1 -38 0z" fill="url(#c)"/><path d="m74.85 234.76c-21.59 0-39.1-5.36-39.1-12v12c0 6.62 17.51 12 39.1 12s39.1-5.37 39.1-12v-12c.05 6.64-17.5 12-39.1 12z" fill="url(#d)"/><path d="m133.71 20.08a231.29 231.29 0 0 1 -12.21 26.45c-7.72 14.63-16.17 28.85-23.06 44a169.31 169.31 0 0 0 -14 48.81 174 174 0 0 0 4.38 66.29 123.74 123.74 0 0 0 -27.92 0 174 174 0 0 0 4.39-66.29 169.62 169.62 0 0 0 -14-48.81c-6.89-15.11-15.34-29.33-23.06-44a231.29 231.29 0 0 1 -12.23-26.45 102.58 102.58 0 0 0 -14.65 13.78 205.88 205.88 0 0 0 9.48 62.14c5.06 15.72 13.17 30 21.17 44.23 8.37 14.77 17.5 30.26 19.5 47.68a96 96 0 0 1 .25 19.19c-9.71 2.18-16 5.7-16 9.68 0 6.61 17.51 12 39.1 12s39.1-5.37 39.1-12c0-4-6.31-7.5-16-9.68a96 96 0 0 1 .24-19.19c2-17.42 11.13-32.87 19.47-47.68 8-14.25 16.14-28.51 21.21-44.28a206.18 206.18 0 0 0 9.47-62.09 102 102 0 0 0 -14.63-13.78z" fill="url(#e)"/><path d="m74.85 233.42c-22.24 0-37.75-5.61-37.75-10.64h-2.7v12c0 3.9 4.29 7.28 12.41 9.77 7.51 2.3 17.47 3.57 28 3.57s20.54-1.27 28.05-3.57c8.12-2.49 12.41-5.87 12.41-9.77v-12h-2.67c0 5.03-15.5 10.64-37.75 10.64zm37.75 1.34c0 5-15.5 10.64-37.75 10.64s-37.75-5.6-37.75-10.64v-6.95c2.08 1.8 5.34 3.39 9.71 4.73 7.51 2.3 17.47 3.57 28 3.57s20.54-1.27 28.05-3.57c4.36-1.34 7.62-2.93 9.7-4.73z" fill="#fff"/></g><g clip-path="url(#f)"><path d="m74.85 235c-21.59 0-39.1-5.37-39.1-12v12c0 6.63 17.51 12 39.1 12s39.1-5.37 39.1-12v-12c.05 6.58-17.5 12-39.1 12z" fill="#d6de23"/><path d="m95.21 29.58a20.36 20.36 0 1 0 -40.72 0 20.36 20.36 0 1 0 40.72 0zm-38 0a17.66 17.66 0 1 1 35.31 0 17.66 17.66 0 1 1 -35.31 0z" fill="url(#g)"/><path d="m73.74 70.76 1.11 1.65 1.15-1.65c16.47-24.24 37-28.24 42-59.85l.16-1-.92-.43a99.25 99.25 0 0 0 -84.66 0l-.91.43.16 1c4.95 31.61 25.44 35.61 41.91 59.85zm1.11-68.06a95.78 95.78 0 0 1 40.26 8.79c-5.11 29.95-24.32 32.64-40.26 56.11-15.93-23.47-35.18-26.16-40.25-56.11a95.74 95.74 0 0 1 40.25-8.79z" fill="url(#h)"/><path d="m74.85 233.6c-22.24 0-37.75-5.6-37.75-10.6h-2.7v12c0 3.9 4.29 7.28 12.41 9.78 7.51 2.3 17.47 3.57 28 3.57s20.54-1.27 28.05-3.57c8.12-2.5 12.41-5.88 12.41-9.78v-12h-2.67c0 5-15.5 10.6-37.75 10.6zm37.75 1.4c0 5-15.5 10.65-37.75 10.65s-37.75-5.65-37.75-10.65v-7c2.08 1.8 5.34 3.4 9.71 4.74 7.51 2.3 17.47 3.57 28 3.57s20.54-1.27 28.05-3.57c4.36-1.34 7.62-2.94 9.7-4.74z" fill="#fff"/><path d="m149.37 32.94a103.2 103.2 0 0 0 -14.84-14l-1.45-1.12-.64 1.71a228.55 228.55 0 0 1 -12.13 26.33c-2.45 4.64-5 9.33-7.5 13.85-5.35 9.79-10.88 19.88-15.6 30.29a171.06 171.06 0 0 0 -14.12 49.25 176.79 176.79 0 0 0 3.93 65 126.78 126.78 0 0 0 -24.33 0 176.79 176.79 0 0 0 3.93-65 171.38 171.38 0 0 0 -14.12-49.25c-4.72-10.41-10.25-20.5-15.6-30.26-2.48-4.53-5-9.21-7.5-13.86a228.55 228.55 0 0 1 -12.13-26.33l-.65-1.71-1.44 1.16a103.8 103.8 0 0 0 -14.85 14l-.33.32v.51a207.33 207.33 0 0 0 9.54 62.57c5 15.56 13 29.82 20.78 43.61l1.78 3.17c8 14.12 16.19 28.71 18.06 45a93.77 93.77 0 0 1 .32 18c-10.38 2.49-16.08 6.29-16.08 10.82 0 8.67 20.84 13.35 40.45 13.35 10.58 0 20.54-1.27 28.05-3.57 8.12-2.49 12.41-5.87 12.41-9.78 0-4.48-5.7-8.28-16.08-10.77a93.76 93.76 0 0 1 .32-18c1.87-16.31 10.1-30.9 18-45l1.78-3.15c7.76-13.8 15.79-28.07 20.78-43.63a206.71 206.71 0 0 0 9.54-62.57v-.51zm-11.78 62.63c-4.91 15.31-12.87 29.43-20.59 43.13l-1.78 3.16c-8.09 14.35-16.45 29.18-18.39 46a97.54 97.54 0 0 0 -.34 18.34l-4.44 1.11 5.55 1.24c9.1 2 15 5.33 15 8.37 0 5-15.5 10.65-37.75 10.65s-37.75-5.57-37.75-10.57c0-3 5.88-6.32 15-8.37l5.63-1.28-4.52-1.08a97.45 97.45 0 0 0 -.34-18.33c-1.94-16.85-10.31-31.69-18.4-46l-1.78-3.16c-7.69-13.78-15.69-27.91-20.57-43.21a203.78 203.78 0 0 1 -9.41-61.24 101.38 101.38 0 0 1 12.68-12.11 240.26 240.26 0 0 0 11.61 24.92c2.46 4.66 5 9.36 7.52 13.9 5.32 9.71 10.83 19.76 15.51 30a168.84 168.84 0 0 1 13.9 48.49 173.86 173.86 0 0 1 -4.35 65.84l-.51 1.91 2-.23a122.56 122.56 0 0 1 27.61 0l2 .23-.51-1.91a173.86 173.86 0 0 1 -4.35-65.84 168.52 168.52 0 0 1 13.9-48.49c4.68-10.27 10.19-20.32 15.51-30 2.49-4.54 5.06-9.23 7.52-13.89a238.87 238.87 0 0 0 11.61-24.92 100.78 100.78 0 0 1 12.64 12.1 203.78 203.78 0 0 1 -9.41 61.24z" fill="url(#i)"/></g><path d="m61.54 134.88c-31-6.8-53.59-33-53.59-66 .05-13.56 4.32-25.18 11.05-35.83z" fill="url(#j)"/><path d="m37.5 14a72.62 72.62 0 0 1 38.64-11.41c13.92 0 26.86 6.11 37.86 13.24-2.73 27.22-37.84 75.33-37.84 75.33s-39.59-56.25-38.66-77.16z" fill="url(#k)"/><path d="m96.42 24.29c-1.22-22.29-39.15-20.29-25.09-20.29a70.2 70.2 0 0 1 38.25 11c10.2 8.23-19.58 45.15-19.58 45.15a84.86 84.86 0 0 0 6.42-35.86z" fill="url(#l)"/><path d="m131.23 34.41c6.31 10.33 10.3 21.59 10.3 34.59 0 32.53-23.1 59.06-53.58 65.85z" fill="url(#m)"/><ellipse cx="74.92" cy="69.65" fill="url(#n)" rx="66.49" ry="66.59"/><path d="m153.56 37.21a.48.48 0 0 0 -.14-.35 1.37 1.37 0 0 0 -.72-.2v-.36h7.3v.36a1.61 1.61 0 0 0 -.68.14.31.31 0 0 0 -.17.26 2.63 2.63 0 0 0 .4.55c.26.32.6.72 1 1.21s.91 1 1.44 1.63l1.63 1.79c.55.6 1.07 1.17 1.58 1.7l1.31 1.39v-8.12c0-.34-.22-.53-.64-.55v-.36h5.56v.36a1.35 1.35 0 0 0 -.71.2.48.48 0 0 0 -.14.35v14.17a.5.5 0 0 0 .14.35 1.38 1.38 0 0 0 .71.19v.37h-5.77v-.37a1.15 1.15 0 0 0 .56-.09.28.28 0 0 0 .14-.24.4.4 0 0 0 -.1-.23 4.76 4.76 0 0 0 -.39-.47l-.9-1c-.39-.41-.92-1-1.56-1.67l-2.4-2.61c-1-1-2.1-2.32-3.44-3.82v9.55a.5.5 0 0 0 .14.35 1.38 1.38 0 0 0 .71.19v.37h-5.72v-.37a1.39 1.39 0 0 0 .72-.19.5.5 0 0 0 .14-.35z" fill="#929497"/><path d="m189.31 49.61c.4 0 .67-.25.79-.76h.36v4h-.3c-.1-.29-.21-.45-.32-.49a1.7 1.7 0 0 0 -.53-.06h-13.56v-.37a2.46 2.46 0 0 0 .59-.12.4.4 0 0 0 .26-.42v-11.57a.4.4 0 0 0 -.26-.42 2.46 2.46 0 0 0 -.59-.12v-.37h13.8a.65.65 0 0 0 .36-.12c.13-.08.19-.26.19-.55h.36v4.08h-.36a.72.72 0 0 0 -.19-.6.59.59 0 0 0 -.36-.13h-8.88v2.46h5.72a.61.61 0 0 0 .36-.14.65.65 0 0 0 .19-.56h.36v3.95h-.36a.65.65 0 0 0 -.19-.56.61.61 0 0 0 -.36-.14h-5.72v3z" fill="#929497"/><path d="m193.81 51.92q.33 0 .42-.15l5-6.47-4.53-5.75a.68.68 0 0 0 -.4-.23 2 2 0 0 0 -.36 0v-.37h6.47v.37h-.39c-.2 0-.31.11-.31.27a.91.91 0 0 0 .22.49c.14.2.31.42.5.65a8.13 8.13 0 0 0 .64.7c.23.23.44.45.62.65.14-.2.31-.43.52-.68l.59-.74.49-.66a.9.9 0 0 0 .19-.41c0-.16-.06-.25-.19-.27a2.83 2.83 0 0 0 -.41 0v-.37h6v.37h-.29a.63.63 0 0 0 -.38.23l-4.21 5.5 5.44 6.72a.68.68 0 0 0 .49.15v.37h-6.33v-.37h.27q.21 0 .21-.18a1.59 1.59 0 0 0 -.35-.74 13 13 0 0 0 -.79-1l-.83-1a6.57 6.57 0 0 1 -.52-.63 5.63 5.63 0 0 1 -.49.7l-.82 1.07-.77 1a1.57 1.57 0 0 0 -.35.59c0 .1.07.16.23.18h.34v.37h-5.92z" fill="#929497"/><path d="m225.88 38.91a.65.65 0 0 0 .36-.12c.12-.08.19-.26.19-.55h.36v4.44h-.36a.66.66 0 0 0 -.19-.55.65.65 0 0 0 -.36-.12h-4.35v9.37a.4.4 0 0 0 .23.42 1.91 1.91 0 0 0 .47.12v.37h-5.47v-.37a1.91 1.91 0 0 0 .47-.12.4.4 0 0 0 .23-.42v-9.38h-4.35a.65.65 0 0 0 -.36.12c-.13.09-.19.27-.19.55h-.36v-4.43h.36c0 .29.06.47.19.55a.65.65 0 0 0 .36.12z" fill="#929497"/><path d="m156.38 76.69a1.37 1.37 0 0 0 .72-.2.46.46 0 0 0 .13-.35v-11.37h-5.23a.43.43 0 0 0 -.37.17 1.63 1.63 0 0 0 -.18.69h-.37v-5.42h.37a1.63 1.63 0 0 0 .18.69.43.43 0 0 0 .37.17h15a.43.43 0 0 0 .37-.17 1.63 1.63 0 0 0 .18-.69h.37v5.42h-.37a1.63 1.63 0 0 0 -.18-.69.43.43 0 0 0 -.37-.17h-5.23v11.37a.47.47 0 0 0 .14.35 1.37 1.37 0 0 0 .72.2v.37h-6.27z" fill="#929497"/><path d="m184.23 74.38c.41 0 .67-.25.79-.76h.37v4h-.31c-.1-.28-.21-.44-.32-.48a1.7 1.7 0 0 0 -.53-.06h-13.56v-.37a2.46 2.46 0 0 0 .59-.12.39.39 0 0 0 .26-.43v-11.57a.39.39 0 0 0 -.26-.42 3 3 0 0 0 -.59-.13v-.36h13.8a.65.65 0 0 0 .37-.12c.12-.08.18-.26.18-.55h.37v4.07h-.39a.73.73 0 0 0 -.18-.59.6.6 0 0 0 -.37-.13h-8.85v2.46h5.71a.63.63 0 0 0 .37-.14.68.68 0 0 0 .18-.56h.36v3.95h-.36a.68.68 0 0 0 -.18-.56.63.63 0 0 0 -.37-.14h-5.71v3z" fill="#929497"/><path d="m201.92 68.82-.42-.22a2.17 2.17 0 0 1 .07-.24.76.76 0 0 0 .05-.27c0-.12-.13-.27-.38-.43a4.43 4.43 0 0 0 -1-.44 12.34 12.34 0 0 0 -1.34-.35 7.66 7.66 0 0 0 -1.51-.15 7.5 7.5 0 0 0 -1.73.21 5.6 5.6 0 0 0 -1.58.66 3.76 3.76 0 0 0 -1.08 1.13 2.89 2.89 0 0 0 -.46 1.66 2.92 2.92 0 0 0 .46 1.62 3.71 3.71 0 0 0 1.15 1.15 5.31 5.31 0 0 0 1.58.65 7 7 0 0 0 1.73.22 6.38 6.38 0 0 0 1.72-.23 7.9 7.9 0 0 0 1.43-.55 4 4 0 0 0 1-.64c.24-.21.35-.37.35-.47v-.27a1 1 0 0 0 0-.28l.34-.21 2.89 4.15-.37.21a.73.73 0 0 0 -.49-.33 2.35 2.35 0 0 0 -.65.27c-.36.18-.83.39-1.41.62a12.61 12.61 0 0 1 -2.09.59 13.55 13.55 0 0 1 -2.66.24 15.35 15.35 0 0 1 -3.26-.34 8.2 8.2 0 0 1 -2.85-1.14 6 6 0 0 1 -2-2.11 6.23 6.23 0 0 1 -.76-3.19 6.14 6.14 0 0 1 .76-3.16 6.28 6.28 0 0 1 2-2.13 8.69 8.69 0 0 1 2.85-1.2 13.65 13.65 0 0 1 3.26-.38 11.32 11.32 0 0 1 2 .16c.63.12 1.2.23 1.73.35s1 .24 1.37.35a3.08 3.08 0 0 0 .82.17.44.44 0 0 0 .27-.09.66.66 0 0 0 .19-.18l.36.12z" fill="#929497"/><path d="m212.75 76.14a.4.4 0 0 0 .24.43 2.26 2.26 0 0 0 .61.12v.37h-5.78v-.37a2.35 2.35 0 0 0 .61-.12.4.4 0 0 0 .24-.43v-11.55a.4.4 0 0 0 -.24-.42 2.81 2.81 0 0 0 -.61-.13v-.36h5.78v.32a2.68 2.68 0 0 0 -.61.13.4.4 0 0 0 -.24.42v3.83h6.71v-3.79a.4.4 0 0 0 -.24-.42 2.68 2.68 0 0 0 -.61-.13v-.36h5.78v.32a2.81 2.81 0 0 0 -.61.13.4.4 0 0 0 -.24.42v11.59a.4.4 0 0 0 .24.43 2.35 2.35 0 0 0 .61.12v.37h-5.78v-.37a2.26 2.26 0 0 0 .61-.12.4.4 0 0 0 .24-.43v-4.62h-6.71z" fill="#929497"/><path d="m243.85 76.14a.4.4 0 0 0 .24.43 2.26 2.26 0 0 0 .61.12v.37h-5.63v-.37a3.06 3.06 0 0 0 .56-.06c.22 0 .32-.15.32-.33s-.22-.53-.66-1-1-1.11-1.72-1.84l-2.36-2.46c-.87-.9-1.73-1.86-2.58-2.87l-.06.06v8c0 .23.07.37.22.43a2.11 2.11 0 0 0 .57.12v.37h-5.2v-.37a2 2 0 0 0 .53-.12.41.41 0 0 0 .23-.43v-11.6a.4.4 0 0 0 -.24-.42 2.93 2.93 0 0 0 -.58-.13v-.36h7.23v.32a2.25 2.25 0 0 0 -.42.13.41.41 0 0 0 -.22.42 3.51 3.51 0 0 0 .51.63l1.29 1.41c.52.57 1.11 1.19 1.76 1.88l1.95 2.07v-6a.39.39 0 0 0 -.25-.42 2.7 2.7 0 0 0 -.6-.13v-.36h5.35v.37a2.68 2.68 0 0 0 -.61.13.4.4 0 0 0 -.24.42z" fill="#929497"/><path d="m255.79 63.5a11 11 0 0 1 2.88.39 8.47 8.47 0 0 1 2.61 1.23 6.57 6.57 0 0 1 1.9 2.15 7 7 0 0 1 0 6.21 6.37 6.37 0 0 1 -1.9 2.12 7.93 7.93 0 0 1 -2.61 1.18 11.35 11.35 0 0 1 -5.75 0 7.93 7.93 0 0 1 -2.61-1.18 6.65 6.65 0 0 1 -1.9-8.33 6.35 6.35 0 0 1 1.9-2.15 8.47 8.47 0 0 1 2.61-1.23 11 11 0 0 1 2.87-.39zm0 3.22a5.08 5.08 0 0 0 -1.61.26 4.34 4.34 0 0 0 -1.34.73 3.36 3.36 0 0 0 -1.21 2.67 3.44 3.44 0 0 0 .32 1.53 3.21 3.21 0 0 0 .89 1.14 4.36 4.36 0 0 0 1.34.74 5.08 5.08 0 0 0 1.61.26 5 5 0 0 0 1.63-.26 4.25 4.25 0 0 0 1.32-.74 3.13 3.13 0 0 0 .9-1.14 3.58 3.58 0 0 0 .32-1.53 3.5 3.5 0 0 0 -.32-1.52 3.25 3.25 0 0 0 -.9-1.15 4.23 4.23 0 0 0 -1.32-.73 5 5 0 0 0 -1.63-.26z" fill="#929497"/><path d="m267.71 64.59a.4.4 0 0 0 -.24-.42 2.93 2.93 0 0 0 -.58-.13v-.36h5.68v.32a2.44 2.44 0 0 0 -.56.13.4.4 0 0 0 -.23.42v9.45h8.33a.63.63 0 0 0 .37-.14c.12-.09.18-.3.18-.62h.34v4.53h-.36c0-.33-.06-.52-.18-.58a.84.84 0 0 0 -.37-.09h-13.2v-.37a2.37 2.37 0 0 0 .58-.12.4.4 0 0 0 .24-.43z" fill="#929497"/><path d="m291.27 63.5a11 11 0 0 1 2.87.39 8.42 8.42 0 0 1 2.62 1.23 6.57 6.57 0 0 1 1.9 2.15 6.4 6.4 0 0 1 -1.9 8.33 7.89 7.89 0 0 1 -2.62 1.18 11.32 11.32 0 0 1 -5.74 0 7.89 7.89 0 0 1 -2.62-1.18 6.37 6.37 0 0 1 -1.9-2.12 7 7 0 0 1 0-6.21 6.57 6.57 0 0 1 1.9-2.15 8.42 8.42 0 0 1 2.62-1.23 11 11 0 0 1 2.87-.39zm0 3.22a5 5 0 0 0 -1.61.26 4.34 4.34 0 0 0 -1.34.73 3.28 3.28 0 0 0 -1.21 2.67 3.58 3.58 0 0 0 .31 1.53 3.35 3.35 0 0 0 .9 1.14 4.36 4.36 0 0 0 1.34.74 5.18 5.18 0 0 0 3.24 0 4.5 4.5 0 0 0 1.32-.74 3.35 3.35 0 0 0 .9-1.14 3.58 3.58 0 0 0 .31-1.53 3.28 3.28 0 0 0 -1.21-2.67 4.47 4.47 0 0 0 -1.32-.71 5 5 0 0 0 -1.63-.28z" fill="#929497"/><path d="m317.17 73.92a1 1 0 0 0 .15.55.5.5 0 0 0 .43.25h.25v.36c-.48.24-1 .49-1.67.75a19.5 19.5 0 0 1 -2 .68 18.31 18.31 0 0 1 -2.25.47 16.32 16.32 0 0 1 -2.31.17 13.3 13.3 0 0 1 -3.25-.37 6.44 6.44 0 0 1 -2.54-1.2 5.72 5.72 0 0 1 -1.64-2.13 7.27 7.27 0 0 1 -.59-3.08 6.59 6.59 0 0 1 .67-3.09 6.08 6.08 0 0 1 1.79-2.13 8 8 0 0 1 2.57-1.24 10.63 10.63 0 0 1 3-.41 15.37 15.37 0 0 1 2.12.13c.63.1 1.2.2 1.68.32l1.2.32a3.21 3.21 0 0 0 .63.14.42.42 0 0 0 .32-.09l.19-.21.37.06-1.58 4-.37-.18v-.22c0-.18-.13-.35-.41-.51a4.94 4.94 0 0 0 -1-.44 7.16 7.16 0 0 0 -1.29-.31 8 8 0 0 0 -1.23-.1 7.38 7.38 0 0 0 -1.79.21 3.83 3.83 0 0 0 -1.48.7 3.41 3.41 0 0 0 -1 1.23 4 4 0 0 0 -.37 1.81 4.27 4.27 0 0 0 .37 1.87 3.39 3.39 0 0 0 1 1.27 4.1 4.1 0 0 0 1.49.75 6.79 6.79 0 0 0 1.85.24 10.36 10.36 0 0 0 1.49-.1 8.6 8.6 0 0 0 1.46-.35v-2h-2.55c-.25 0-.4.09-.46.27a1.59 1.59 0 0 0 -.09.46h-.36v-3.77h.36a1.59 1.59 0 0 0 .09.46c.06.18.21.27.46.27h6.32z" fill="#929497"/><path d="m330.61 76.14c0 .23.07.37.21.43a1.62 1.62 0 0 0 .43.12v.37h-5.35v-.37a1.66 1.66 0 0 0 .42-.12c.14-.06.21-.2.21-.43v-3.92l-5.8-7.87a.62.62 0 0 0 -.41-.24 2.67 2.67 0 0 0 -.47-.07v-.36h6.53v.32a2.69 2.69 0 0 0 -.44 0 .28.28 0 0 0 -.26.29 1.37 1.37 0 0 0 .29.56c.19.28.43.6.72 1s.59.8.94 1.23.67.86 1 1.26a8 8 0 0 1 .55-.85l.9-1.28c.31-.44.59-.85.83-1.21a2 2 0 0 0 .37-.7.27.27 0 0 0 -.25-.29 2.3 2.3 0 0 0 -.39 0v-.36h6v.35a2.33 2.33 0 0 0 -.43.07.6.6 0 0 0 -.39.24l-5.2 7.75z" fill="#929497"/><path d="m168.57 98.12a.43.43 0 0 0 .37-.17 1.63 1.63 0 0 0 .18-.69h.37v5.26h-.37a1.08 1.08 0 0 0 -.18-.59.54.54 0 0 0 -.37-.11h-15.87v-.36a1.37 1.37 0 0 0 .72-.2.48.48 0 0 0 .14-.35v-14.16a.47.47 0 0 0 -.14-.35 1.28 1.28 0 0 0 -.72-.2v-.37h6.3v.37a1.28 1.28 0 0 0 -.72.2.46.46 0 0 0 -.13.35v11.37z" fill="#929497"/><path d="m185.93 99.15c.41 0 .67-.25.79-.76h.37v4h-.31c-.1-.28-.2-.44-.31-.48a1.46 1.46 0 0 0 -.54-.07h-13.56v-.36a2.55 2.55 0 0 0 .6-.12.4.4 0 0 0 .26-.43v-11.57a.42.42 0 0 0 -.26-.43 2.55 2.55 0 0 0 -.6-.12v-.36h13.81a.65.65 0 0 0 .36-.12c.12-.08.18-.27.18-.55h.37v4.07h-.37a.73.73 0 0 0 -.18-.59.61.61 0 0 0 -.36-.14h-8.88v2.47h5.7a.61.61 0 0 0 .37-.14.68.68 0 0 0 .18-.56h.37v4h-.37a.68.68 0 0 0 -.18-.56.55.55 0 0 0 -.37-.14h-5.7v3z" fill="#929497"/><path d="m202.9 101.46h.24q.15 0 .15-.24a1 1 0 0 0 -.11-.38c-.07-.18-.15-.36-.24-.57s-.19-.4-.29-.6-.18-.38-.24-.52h-7a4.75 4.75 0 0 1 -.2.52c-.09.2-.19.4-.29.6s-.19.39-.27.57a1.11 1.11 0 0 0 -.13.38c0 .14.06.22.16.24h.24v.36h-4.56v-.36a.94.94 0 0 0 .36-.08.4.4 0 0 0 .25-.22c.61-1.42 1.22-2.83 1.85-4.22s1.19-2.64 1.69-3.76.91-2.06 1.23-2.8a6.81 6.81 0 0 0 .49-1.26c0-.19-.13-.29-.4-.31v-.36h6.36v.36c-.27 0-.4.12-.4.31a4.88 4.88 0 0 0 .32.8q.31.72.84 1.8c.34.72.72 1.51 1.14 2.38l1.24 2.62c.42.87.81 1.69 1.17 2.47s.66 1.44.88 2a.46.46 0 0 0 .25.22.94.94 0 0 0 .36.08v.36h-5zm-4.08-9.85-2.49 5.32h5z" fill="#929497"/><path d="m212 89.36a.43.43 0 0 0 -.23-.43 2 2 0 0 0 -.56-.12v-.36h9.12a6.76 6.76 0 0 1 2.88.55 5.41 5.41 0 0 1 3.09 3.58 9.5 9.5 0 0 1 0 5.11 5.46 5.46 0 0 1 -3.09 3.59 6.92 6.92 0 0 1 -2.88.54h-9.12v-.36a2 2 0 0 0 .56-.12.41.41 0 0 0 .23-.43zm6.26 9.55a5.42 5.42 0 0 0 3.4-.84 4.66 4.66 0 0 0 0-5.87 5.49 5.49 0 0 0 -3.4-.83h-2.19v7.54z" fill="#929497"/><path d="m243.36 99.15c.4 0 .67-.25.79-.76h.36v4h-.3c-.1-.28-.21-.44-.32-.48a1.4 1.4 0 0 0 -.53-.07h-13.56v-.36a2.46 2.46 0 0 0 .59-.12.4.4 0 0 0 .26-.43v-11.57a.42.42 0 0 0 -.26-.43 2.46 2.46 0 0 0 -.59-.12v-.36h13.8a.68.68 0 0 0 .37-.12c.12-.08.18-.27.18-.55h.36v4.07h-.36a.73.73 0 0 0 -.18-.59.63.63 0 0 0 -.37-.14h-8.88v2.47h5.72a.66.66 0 0 0 .37-.14.68.68 0 0 0 .18-.56h.36v4h-.35a.68.68 0 0 0 -.18-.56.59.59 0 0 0 -.37-.14h-5.72v3z" fill="#929497"/><path d="m249.35 89.36a.42.42 0 0 0 -.22-.43 1.66 1.66 0 0 0 -.45-.12v-.36h9.76a5.7 5.7 0 0 1 3.63 1.06 3.79 3.79 0 0 1 1.35 3.16 3.54 3.54 0 0 1 -.95 2.6 6.78 6.78 0 0 1 -2.42 1.51l2.7 4.07a1.43 1.43 0 0 0 .45.43 1.12 1.12 0 0 0 .62.18v.36h-6.14v-.36a1.71 1.71 0 0 0 .47-.08.31.31 0 0 0 .26-.32 2.77 2.77 0 0 0 -.32-.76c-.22-.4-.46-.84-.73-1.3l-.79-1.34c-.26-.43-.41-.7-.47-.82h-2.92v4.07c0 .23.07.37.23.43a2 2 0 0 0 .56.12v.36h-5.23v-.36a1.72 1.72 0 0 0 .39-.12c.15-.06.22-.2.22-.43zm8.15 4.92a2.5 2.5 0 0 0 1.53-.41 1.4 1.4 0 0 0 .56-1.23 1.58 1.58 0 0 0 -.47-1.17 2.66 2.66 0 0 0 -1.84-.47h-4.1v3.28z" fill="#929497"/><path d="m267.89 97.36a.62.62 0 0 1 0 .13 1 1 0 0 0 0 .2c0 .2.19.4.58.58a8.32 8.32 0 0 0 1.47.5 17 17 0 0 0 1.95.36 13.79 13.79 0 0 0 2 .14h.74a4.13 4.13 0 0 0 .93-.17 2.29 2.29 0 0 0 .78-.39.88.88 0 0 0 .32-.72c0-.4-.25-.69-.73-.86a9 9 0 0 0 -1.84-.4l-2.4-.29a11.66 11.66 0 0 1 -2.41-.53 4.87 4.87 0 0 1 -1.84-1.09 2.68 2.68 0 0 1 -.72-2 3.73 3.73 0 0 1 .36-1.51 4.16 4.16 0 0 1 1.15-1.47 6.33 6.33 0 0 1 2.09-1.11 9.63 9.63 0 0 1 3.14-.44 17.42 17.42 0 0 1 2.09.12c.65.08 1.25.17 1.79.27l1.37.27a3.81 3.81 0 0 0 .8.13.57.57 0 0 0 .4-.14l.27-.23.34.12-1.83 3.83-.39-.18a.86.86 0 0 1 0-.15 1.1 1.1 0 0 0 0-.18c0-.08-.12-.19-.37-.31a6.41 6.41 0 0 0 -.95-.36 12.62 12.62 0 0 0 -1.34-.32 8.65 8.65 0 0 0 -1.54-.14h-.85a5.67 5.67 0 0 0 -1.15.15 3.61 3.61 0 0 0 -1 .39.84.84 0 0 0 -.44.78c0 .36.24.62.73.77a9.73 9.73 0 0 0 1.84.37l2.4.3a11.7 11.7 0 0 1 2.4.57 4.71 4.71 0 0 1 1.84 1.14 2.86 2.86 0 0 1 .73 2.08 3.72 3.72 0 0 1 -.4 1.69 4 4 0 0 1 -1.21 1.41 6.12 6.12 0 0 1 -2.09.93 12.39 12.39 0 0 1 -3 .32 18.64 18.64 0 0 1 -2.22-.14c-.75-.09-1.44-.2-2.07-.34s-1.15-.25-1.56-.36a6.42 6.42 0 0 0 -.72-.17.59.59 0 0 0 -.38.14l-.32.29-.33-.09 1.25-4.08z" fill="#929497"/></g></svg>