<svg viewBox="0 0 239.32 110.98" xmlns="http://www.w3.org/2000/svg"><g opacity=".98"><path d="m205.09 74.74v2a10.53 10.53 0 0 0 2.27 7.19 7.52 7.52 0 0 0 5.94 2.58 19.72 19.72 0 0 0 7.93-1.8 42.74 42.74 0 0 0 8.16-4.76q4.06-3 9.93-8v4.76q-8.83 10.62-16.57 16.29t-15.7 5.66a13.05 13.05 0 0 1 -11-5.39q-4.05-5.39-4.05-14.78a29.39 29.39 0 0 1 3.83-14.88q3.83-6.69 12.51-14.11a48 48 0 0 1 11.8-7.66 26.39 26.39 0 0 1 10.47-2.58 9.22 9.22 0 0 1 5.82 1.68 6 6 0 0 1 2.15 5 16.28 16.28 0 0 1 -3.67 9.81q-3.68 4.89-11.22 9.69a115.15 115.15 0 0 1 -18.6 9.3zm.78-5.08a44.5 44.5 0 0 0 12-6.8 34.8 34.8 0 0 0 7.38-7.77q2.39-3.72 2.39-5.43t-1.64-1.8c-.93 0-2.46.6-4.57 1.8a38.47 38.47 0 0 0 -6.41 4.68 34.82 34.82 0 0 0 -5.82 6.8 22 22 0 0 0 -3.33 8.52z" fill="#05ad4b"/><path d="m108.66 92.41a22.09 22.09 0 0 1 -20.48-13.63c-1.93 1.75-3.66 3.22-5.18 4.48a80.41 80.41 0 0 1 -6.57 4.87 36.59 36.59 0 0 1 -5.56 3.13 10.71 10.71 0 0 1 -4.15 1 8.71 8.71 0 0 1 -6.9-3.14 11.59 11.59 0 0 1 -2.61-7.79 26.63 26.63 0 0 1 2.09-10.15 51.56 51.56 0 0 1 5.78-10.18c2.46-3.42 5.57-7.3 9.25-11.53.7-.8 1.28-1.47 1.74-2-.61.49-1.36 1.11-2.27 1.89-3.13 2.69-7.23 6.71-12.17 12s-10.37 11.56-16.1 18.8q-.51.61-3.08 4a48.92 48.92 0 0 1 -3.82 4.57 4.16 4.16 0 0 1 -2.77 1.39c-2.29 0-3.28-2.73-3.61-3.63a18.61 18.61 0 0 1 -1.07-6.33 9.72 9.72 0 0 1 1.41-4.75c.86-1.52 2.66-4.14 5.5-8s5.07-7 6.89-9.56 3.8-5.74 5.94-9.38c1.5-2.53 2.63-4.56 3.34-6.05a8.41 8.41 0 0 0 1-3.47v-.07c-.7.29-2.31 1.25-5.62 4.46a140.64 140.64 0 0 0 -12.56 14.51c-5 6.45-10.25 14-15.67 22.49-1.83 3-3.09 5-3.86 6a4.39 4.39 0 0 1 -3.55 2.03c-2.6 0-4-3.35-4.42-4.46a17.47 17.47 0 0 1 -1.58-6.38 4.21 4.21 0 0 1 .81-2.34c4.31-5.75 7.86-10.64 10.6-14.6s5.19-7.76 7.32-11.32a75.17 75.17 0 0 0 4.6-8.72 14.32 14.32 0 0 0 1.36-5c0-.78-.16-.78-.58-.78s-1.58.18-4.7 1.84c-2.49 1.39-5.66 3.19-9.41 5.46s-6.93 4.1-9.26 5.34c-2.53 1.33-4.42 2-5.79 2a2.81 2.81 0 0 1 -2.95-3.15 31.23 31.23 0 0 1 .7-4.95 24.34 24.34 0 0 1 1.53-5.53c.8-1.53 2.64-3.36 5.63-5.65 4.58-3.48 4.93-3.48 5.46-3.48a1.63 1.63 0 0 1 1.68 1.66 1.59 1.59 0 0 1 -.14.66 92.8 92.8 0 0 1 9.73-4.59c4.9-2 8.26-2.91 10.27-2.91 1.37 0 2.61.82 3.68 2.43a19.9 19.9 0 0 1 2.22 4.53 11.73 11.73 0 0 1 .96 3.57 18.73 18.73 0 0 1 -1.35 6.34c-.86 2.28-2 5-3.49 8l-.5 1c.77-.92 1.54-1.82 2.31-2.71 1.52-1.76 3.05-3.53 4.62-5.33a67.29 67.29 0 0 1 7.26-7.14 64.75 64.75 0 0 1 7.55-5.57c3.33-2.06 4.61-2.33 5.35-2.33a5 5 0 0 1 4.13 2.44 8.11 8.11 0 0 1 1.58 4.79c0 .73-.2 2.15-2 6-1.18 2.67-3.06 6.14-5.44 10.31q-1.55 2.72-3.53 6.12 1.77-1.86 3.58-3.74 6-6.27 9-9.15a59.45 59.45 0 0 1 5-4.5c1.8-1.37 3.59-2.84 5.33-4.36l4.27-3.74a21.8 21.8 0 0 1 3-2.23 5.74 5.74 0 0 1 2.92-.92c1.37 0 2.7 1.09 4.3 3.52 1.89 2.87 2.15 3.85 2.15 4.48a5.35 5.35 0 0 1 -1.44 3.28c-.8 1-2.37 2.72-4.82 5.34a115.76 115.76 0 0 0 -11.5 14.2 78.8 78.8 0 0 0 -7.26 13c-1.6 3.81-2.41 6.81-2.41 8.93a3.59 3.59 0 0 0 .5 2.28c.1.13.41.5 1.49.5a5.69 5.69 0 0 0 2.38-.48 19.06 19.06 0 0 0 2.78-1.55l3.09-2c1.39-.84 2.71-1.69 4-2.59l2-1.43a23.09 23.09 0 0 1 -.14-2.49 22.2 22.2 0 1 1 22.19 22.19zm0-33.5a11.31 11.31 0 1 0 11.34 11.31 11.32 11.32 0 0 0 -11.34-11.31z" fill="#841619"/><g fill="#05ad4b"><path d="m205.79 11.82a23 23 0 0 0 -11.14-7.27 58.11 58.11 0 0 0 -7.65-2.07q-4.83-1-10.78-1.76a101.11 101.11 0 0 0 -12.15-.72 149.29 149.29 0 0 0 -39.88 5.63q-8.58 2.52-12.66 5a21.22 21.22 0 0 0 -6.38 5.83 34.23 34.23 0 0 0 -4.31 7.42 16.42 16.42 0 0 0 -1.52 5 4.15 4.15 0 0 0 1 3 3.74 3.74 0 0 0 2.91 1.12c.91 0 2.52 0 4.83-.16s5.18-.21 8.58-.32q9-.39 11-.51c1.31-.08 2-.39 2-.92s-.49-.79-1.48-.92a33.51 33.51 0 0 0 -4.15-.2 25.74 25.74 0 0 1 -4.43-.32c-1.17-.21-1.76-.61-1.76-1.2s.48-1.13 1.44-1.47a36.25 36.25 0 0 1 5-1.2c2.37-.45 5.31-1 8.82-1.72q5-1.11 17.49-2.79-4.23 5.48-11.57 15.38c-4.69 6.29-9 12.14-13.08 17.61a23.34 23.34 0 0 1 5.05 8.47c8.79-.58 16.91-1.39 24.28-2.45a207.41 207.41 0 0 0 22.75-4.39 72.12 72.12 0 0 0 14-4.89 32 32 0 0 0 9.7-7.47 31 31 0 0 0 6-10 32 32 0 0 0 2-11 16.79 16.79 0 0 0 -3.91-10.71zm-10 23q-3.88 3.32-11.54 6.31a165.28 165.28 0 0 1 -19.52 6q-11.87 3-28.62 6.14 3.66-4.78 8-10.5t6.59-8.77a40.33 40.33 0 0 0 3.59-6 12.22 12.22 0 0 0 1.4-5.15c0-.58 0-1 0-1.35s-.07-.67-.12-1c.69-.05 2.27-.2 4.75-.44s4.6-.4 6.38-.48 3.48-.12 5.07-.12a74.19 74.19 0 0 1 19.84 2.28q8.12 2.27 8.11 6.26-.04 3.54-3.91 6.85z"/><path d="m108.66 80.2a10 10 0 0 0 .34-19.94c-.64.83-1.41 1.9-2.34 3.29-1.66 2.56-2.66 4.45-2.79 5.63a2.19 2.19 0 0 0 .88 2.44c.74.42 2.69 1.27 5.83 2.55-1.49 2-2.88 3.9-4.19 5.75a10 10 0 0 0 2.27.28z"/><path d="m185.39 89.42a61.34 61.34 0 0 0 -7.59-4.42c-2.77-1.44-6.58-3.29-11.46-5.55s-10.85-4.84-18-7.74q-7.9-3.24-16.73-6.44a23.27 23.27 0 0 1 -3.14 17.48l20 9.75q9.58 4.64 14 7t9.86 5.35q5.43 3 8.51 4.55a13.58 13.58 0 0 0 3.79 1.56c1.49 0 2.46-.89 2.91-2.68a36.69 36.69 0 0 0 .68-8.26 31.82 31.82 0 0 0 -.56-7.11 6.35 6.35 0 0 0 -2.27-3.49z"/><path d="m98.7 91.51c-.47.78-1 1.59-1.42 2.34q-4.83 8.34-4.83 10.1 0 3.12 4.07 3.12c1 0 2.55-.82 4.75-2.44a10.84 10.84 0 0 0 4.28-6 23.7 23.7 0 0 1 2.25-4.93 23.65 23.65 0 0 1 -9.1-2.19z"/></g></g></svg>