<svg viewBox="0 0 367.12 88.29" xmlns="http://www.w3.org/2000/svg"><g fill="#e57925" opacity=".98"><path d="m88.45 43.29a16.24 16.24 0 0 0 1.83-3.08 12.5 12.5 0 0 0 .91-2.93 22 22 0 0 0 .16-2.49c0-1.27.05-3.11.05-5.49h6.37v6.17a12.13 12.13 0 0 1 -.47 3.23 14.7 14.7 0 0 1 -1.3 3.24 12.14 12.14 0 0 1 -2.07 2.77 7.71 7.71 0 0 1 -2.72 1.79z"/><path d="m81.69 46.23c-2 1.06-5.88 1.17-11.09 1.31a116.77 116.77 0 0 0 -19.77 1.79c-15.78 3.13-33.07 8.38-35.61 12.34a1.35 1.35 0 0 0 -.25 1 .26.26 0 0 0 .18.21c1.13.44 5.33-1.84 7.94-3.6.28-.18 6.76-4.29 22.45-7.47 9.53-1.93 16.1-1.52 17.16 1.08.32.79.36 2.45-3 4.62-3.79 2.45-9.55 4-14.63 5.36-5.29 1.42-10.29 2.76-11.33 4.69a1.53 1.53 0 0 0 -.1 1.26 1.29 1.29 0 0 0 .8.17c.84 0 2.48-.35 5.57-2.07 5.46-3 11.06-5.71 14.38-2.39a2.87 2.87 0 0 1 .88 2.61c-.51 2.87-4.95 5.51-6.61 6.29a20.32 20.32 0 0 0 -10 12.64 34.8 34.8 0 0 0 43.03-39.84zm-16.75 18.67c1.66-1.85 3.28-4.28 3-5l-.09-.25.89-1.25.38.17a1.64 1.64 0 0 1 .88 1.16q.36 1.56-1.61 4l-1 1.21c-1 1.25-1.23 1.53-1.58 1.53h-.11a.75.75 0 0 1 -.55-.51 2.17 2.17 0 0 0 -.22-.38l-.29-.33zm-4.27 16.1c-1 1.27-3.54 1.92-7.49 1.92-.65 0-1.34 0-2.07 0l-3.64-.17c-4.17-.18-4.42-.19-4.64-.7s.1-.68.3-.91a2.21 2.21 0 0 0 .44-.69l.13-.36h.38c4.78.38 12.85.48 14.19-.85l.15-.15h2.58l.1.37a1.82 1.82 0 0 1 -.43 1.54zm19.5-32.26c-4.17 15.98-10.24 21.81-14.23 25.67l-1.07 1c-2.21 2.21-8.17 2.7-13 2.7-3.64 0-6.64-.28-6.92-.31l-1-.1 2.33-2.33h.19c.08 0 2-.1 9.61-.1 13.92.03 21.06-26.49 21.13-26.76l.1-.37h3z"/><path d="m72.49 34.86 1.26.24-4 2.48h-.19a123.3 123.3 0 0 0 -33.9-.76l1.81 3a2.16 2.16 0 0 1 .19 1.62 2.5 2.5 0 0 1 -1.26 1.44 2.94 2.94 0 0 1 -3.4-.34v-.1l-.63-.95a2.24 2.24 0 0 1 -1 1.54 2.67 2.67 0 0 1 -3.53-.48l-3-3.78c-3.54 1-4.42 1.94-4.37 2.32 0 .11.57 2.7 20.51 3 .17 0 19.46-.33 25.67-1.29 4-.62 10.82-1 14.21-.19a34.79 34.79 0 0 0 -52.92-19l6.06 10.27c18.51-2.72 38.3.95 38.49.98z"/><path d="m32.94 84.07c1-3.13 3.39-7.3 9.16-10.51 9.78-5.42 10.26-7 10.17-7.35 0 0-.15-.5-2.31-.56s-3.9.86-8.77 3.59-9.43 2.69-11.19 1.14a2.4 2.4 0 0 1 -.49-2.92c2-4.6 13.59-7.25 15.89-7.73 5.23-1.1 12.85-4.33 12.74-5.4 0 0-.23-.8-5.45-.8a53.09 53.09 0 0 0 -24.91 6.32c-.33.21-7.93 4.94-12.61 5.63a35 35 0 0 0 17.77 18.59z"/><path d="m55.44 46.5c-22.59 1.69-38.27-.84-39.17-4.89-.41-1.83 1.84-3.58 6.69-5.2l-3.56-4.48a34.43 34.43 0 0 0 -6.72 20.54 35 35 0 0 0 .71 7c5.74-4.99 23.21-10.7 42.05-12.97z"/><path d="m79.52 44.68a26.17 26.17 0 0 0 -2.73-.12 70.52 70.52 0 0 0 -8.88.66c-1.54.2-3.07.38-4.57.55 1.69-.11 3.37-.19 5.06-.23a70.71 70.71 0 0 0 11.12-.86z"/><path d="m35.83 41.64a.78.78 0 0 0 .45-.55 2.65 2.65 0 0 0 -.6-1.7l-22.37-37a4 4 0 0 0 -1.78-2.26 1.64 1.64 0 0 0 -.65-.13 2.59 2.59 0 0 0 -1.23.36 2.17 2.17 0 0 0 -1.28 1.48 3 3 0 0 0 .87 2.07l.06.09 24.64 37.35a1.41 1.41 0 0 0 1.89.29z"/><path d="m5 4.36s-.77-1.71-2-2.06a1.74 1.74 0 0 0 -.45-.06 2.44 2.44 0 0 0 -1.39.51 2.16 2.16 0 0 0 -1.16 1.61 3 3 0 0 0 1.1 2l.09.08 27.68 35.36a1.44 1.44 0 0 0 1.9.05.77.77 0 0 0 .38-.6 2.71 2.71 0 0 0 -.8-1.62z"/><g fill-rule="evenodd"><path d="m302.69 47.18c-3.4 7.73-7.65-3.27-12.22-1.11 2.83-8.42 8.79 1.98 12.22 1.11z"/><path d="m139.38 52.74c9.08 2 20.06-1.33 27.77.55-1.09 3.33-5.13 1.88-9.44 2.78 19.16 6.87-6.28 34.63-18.89 21.11-2.86-9.9 3.57-14.82 8.34-18.89-4.1-.11-7.35 2.63-11.11 1.11a6.45 6.45 0 0 1 3.33-6.66zm12.22 25c10.12.35 14.14-15.6 5-20.55-15.41-2.93-16.52 20.14-5 20.54z"/><path d="m367.12 53.85c-.47 1.56-1.58 2.49-3.89 2.22.47 10.28-.52 19.1-2.78 26.66-3-1.74-2.52-5.66-3.88-8.33-3.16-6.19-8.38-11.77-13.33-16.11a57 57 0 0 0 -1.67 8.89c13-1.4 12 15.53 2.78 16.11-3.89.24-5.76-3.27-9.45-4.45-3 0-.26 4.75-2.22 4.45-2.62-9.5 10.47-7.79 13.33-2.78 2.82-.53 3.89-1.57 3.89-3.89 0-8.17-11.15.81-14.44-3.33-.65-2.53 0-5.54 3.89-5a37.33 37.33 0 0 0 -1.11-10c-2.55.08-5.43 1.79-6.67 0 .08-8 9.62-3.43 15.55-5-.49 2.44 2.28 3 3.34 4.44 4.21 5.9 7 12.73 8.88 21.11 1.25-7.71 1.24-19.41-5.55-22.22 2.35-5.09 8.43-4.14 13.33-2.77z"/><path d="m126.05 56.62c3.4 8.64 7.71 16.37 8.89 27.22-3.38-7.92-6.57-16-11.67-22.22-3.57 4.76-5 11.65-9.44 15.56-3-4-5.25-8.82-10.56-10.56-5.31 4-4.27 17.84 4.45 17.22-13.17 5.16-15.19-11.4-6.11-17.22.09-1.2-2-.25-2.78-.55 1.26-3.19 4.68-4.21 5.56-7.78-2.24-1.29-6.85-.19-10-.56.71-7.19 11.61-3.73 17.22-4.44-1.52 3.49-4.63 5.38-6.67 8.33 4.21 2.82 8.32 5.76 8.33 12.78 3.89-3.15 4.71-9.36 5.56-15.55 0-1.9-3.38-.33-3.34-2.23-.24-2.46 1.51-2.94 2.23-4.44 4.74 2.35 14.71.32 19.44 1.11-1.06 3.71-7.37 2.27-11.11 3.33z"/><path d="m263.25 54.4c-2.31 1.25-5.2 1.29-9.45 1.67a19.39 19.39 0 0 1 7.2 6.11c-1 10.35-9.1 20.11-19.42 18.88-12.3-1.46-6.63-19.19 1.12-22.77-3.64.25-5.95 1.83-10 1.67-.82-.81-.82-3.64 0-4.45-10.64 4-.26 29-11.11 32.78-1.33-7-16.2-9.25-20.55-3.34.1-2.68 3.86-6.5 5.55-9.44 5.69.83 16.76 1 16.66 9.44 3-4.14-.61-10.18-.55-15-2.47.55-4.39 4.48-7.78 5-9.28 1.41-12.8-8.59-6.66-15-.95-.74-4.68.48-7.22 0a10.41 10.41 0 0 1 .55-4.45 3.12 3.12 0 0 1 -2.22.56c-1.66 6.9.62 21.94-5 26.66-2-11.31-8.91-17.75-15.55-24.44-1.45 2.07-1.38 5.66-1.67 8.89 12.9-1.33 12 15.32 2.78 16.11-4 .33-5.77-3.13-9.44-4.45-3.24.63-.69 4.36-2.23 4.45-2.8-9.71 10.52-7.6 13.34-2.78 4.94-.17 4.33-6.27 1.11-7.78-5.24-.12-10.06 5-12.22-1.11.41-2 1.1-3.71 3.88-3.33-.16-3.36.45-7.48-.55-10-2.46.19-4.86 1.3-6.67.56-.5-3.1 1.22-4 2.22-5.56 5 0 8.14.85 12.78 0 5.52 7.26 10.59 15 12.78 25.55 1.23-8.27.68-19.57-5.56-22.22 2-4.74 9.08-4.79 12.78-2.22a9.86 9.86 0 0 0 4.44-2.22c11.12 3.54 22.1.25 32.77 1.11 7.34.59 15.32-1.95 21.67-1.11 1.06.14 1.84-.18 2.22 1.67 5.62-3.06 22.65 1.76 28.88-1.67 4.81 1.55 14 1.78 16.11 0 6.61 1.72 17.65-1 23.33 1.67.3 2.51-3.15 1.29-4.44 2.22 2.18 6.59 4.45 15.82 2.77 24.44-3-6.86-18.06-10.24-24.44-3.89 2.23-9.44 9.71-13.62 16.67-18.33-4.11-3.89-11.46.34-16.67.56-.64-.66-.62-2-.55-3.34-6.8 1-4.45 11.1-5 18.33a3.91 3.91 0 0 0 3.89 2.22c-1.06 5.19-7.67 5.22-10.56 1.67-2.42-.39-2.47 1.61-4.44 1.67 1.63-3.37 3-7 8.33-6.67 1.08-5.81-.06-10-.55-15.55-2.86-.08-5.48.08-7.22 1.11-1.1-.44-2-1.94-1.12-2.78-3.31 1.5-9 .63-12.77 1.67-1.74 6.22-5 11-7.22 16.66 8.08-3.09 20.21 1.24 18.33 13.33-2.86-7.4-14.95-11-22.78-8.33 3.59-4.74 5.48-11.19 5-20-1.19-1-4.07-.38-6.11-.56.01-1.46-.21-3.15.56-3.87zm-54.44 12.22c1.44 4.66 10.55 4.17 13.33 0 .06-4 1.83-6.32 2.78-9.44-9.18-1.18-18.43 1.92-16.11 9.44zm38.88 11.11c10 .13 13.54-15.27 5-20.55-15.5-3.05-16.56 20.41-5 20.55zm75-18.33c-3.21 2.34-7.28 3.83-8.88 7.78 8.08-.69 11.62 3.18 15.55 6.66-1.26-5.78-2.28-11.84-6.68-14.44z"/></g></g></svg>