<svg viewBox="0 0 261.54 117.1" xmlns="http://www.w3.org/2000/svg"><g opacity=".98"><path d="m23.33 49.42c-3.32-1.3-5.14-1.88-8.52-1.88-3.63 0-7.92 1.3-7.92 6 0 8.71 19.49 6.69 19.49 21.64 0 9.68-7.47 13.51-16.57 13.51a30.48 30.48 0 0 1 -9.29-1.84l.65-6a27.54 27.54 0 0 0 9.42 2.15c3.7 0 8.9-2.07 8.9-7.4 0-10.13-19.49-7.33-19.49-21.44 0-8 6.37-12.34 14.56-12.34a30.42 30.42 0 0 1 9.68 1.62z" fill="#082551"/><path d="m52.24 59.75h-8.77v18.13c0 3.84 2.34 5.92 5.13 5.92a7.58 7.58 0 0 0 4.16-1.17v5.19a19.11 19.11 0 0 1 -5.2.91c-6.3 0-10.2-3-10.2-9.61v-19.37h-7.47v-4.94h7.47v-7.66l6.11-1.95v9.61h8.77z" fill="#082551"/><path d="m79.6 72.16c-1.3 0-2.6-.13-3.9-.13-3.31 0-11.5.52-11.5 6.37 0 3.51 3.38 5.4 6.17 5.4 6 0 9.23-3.77 9.23-8.71zm-18.13-15a21.08 21.08 0 0 1 10.92-3.16c9.48 0 13.32 4.67 13.32 13.71v13.75a52.26 52.26 0 0 0 .29 6.54h-5.75v-4.33h-.13a12.31 12.31 0 0 1 -10.27 5.06c-7.14 0-12.15-3.12-12.15-10.33 0-8.32 9.1-10.91 15.4-10.91 2.41 0 4.09 0 6.5.12 0-5.71-2.08-8.64-8.19-8.64a15.55 15.55 0 0 0 -9.61 3.38z" fill="#082551"/><path d="m96 54.81h5.72v5.19h.13a10.07 10.07 0 0 1 8.68-6 17.2 17.2 0 0 1 4 .46v5.54a9 9 0 0 0 -3.38-.59c-5.46 0-9 5.2-9 13.52v15.07h-6.15z" fill="#082551"/><path d="m138.93 59.75h-8.78v18.13c0 3.84 2.34 5.92 5.14 5.92a7.6 7.6 0 0 0 4.16-1.17v5.19a19.18 19.18 0 0 1 -5.2.91c-6.31 0-10.21-3-10.21-9.61v-19.37h-7.47v-4.94h7.43v-7.66l6.11-1.95v9.61h8.78z" fill="#082551"/><path d="m169 0c2.11 1.55 3.4 5.19 4.79 8.26 1.15 2.52 2.94 5.37 2 7.65-2.27-.75-3.33-4-4.75-6.94-1.25-2.58-4.21-7-2-9" fill="#fdbd18"/><path d="m250.47 17.52c.07 3.17-2.84 5.59-4.65 7.86-1.64 2.07-3.37 5.72-6.44 5.52 1.88-5.2 6.2-10.21 10.15-13.59z" fill="#fdbd18"/><path d="m254.18 91.06c-5.25 0-12.39-3.3-16.1-6.09 0-.52.42-.48.52-.87 5.24 1.22 13.51 2.79 15.58 7" fill="#fdbd18"/><path d="m210.76 4.11c2.74-3.44 5.85-2.77 6.93 1.49l6.42 25.52a17.08 17.08 0 0 0 9.45 10.55l24.66 9.17c4.12 1.54 4.45 4.71.72 7l-22.28 14a17.06 17.06 0 0 0 -7.11 12.25l-1.11 26.29c-.18 4.4-3.09 5.69-6.47 2.86l-20.2-16.86a17 17 0 0 0 -13.84-3l-25.35 7.07c-4.24 1.18-6.36-1.19-4.72-5.27l9.8-24.42a17.07 17.07 0 0 0 -1.45-14.09l-14.56-21.86c-2.43-3.67-.83-6.42 3.56-6.12l26.26 1.77a17.09 17.09 0 0 0 12.94-5.72z" fill="#fdbd18"/><g fill="#082551"><path d="m187.17 111.07c2.4 1.07 6.44 1.71 9 .81.2-.07.56-.51.87 0-.29 2.35-1 1.91-2.75 3.47-.95.87-1.82 2.63-4 1.35-.56-.33-.65-1.27-1.11-1.75-.92-1-2.86-1.8-2-3.83"/><path d="m200.06 101.11c-1.37 4.84-14 4.36-14.3-1.38 3.46 3 10 3.29 13.44 1.07.52-.08.42.32.86.31"/><path d="m199.22 104.34c.31 2.86-4.62 3.81-7.93 3.3-2.69-.41-5.5-2.07-5.36-4.15 3.62 3.1 9.63 2.47 13.29.85"/><path d="m185.69 107.1c3 1.42 7.39 2.87 11.42 1.26.25-.1.73-.63 1.11 0-.44 3-1.38 2.4-3.62 4.35-1.23 1.07-2.4 3.3-5.11 1.61-.7-.44-.8-1.64-1.36-2.26-1.14-1.26-3.6-2.36-2.44-4.93"/><path d="m203.48 87.37c-2.09.07-1.29.84-7.26-.06-6.57-1-4.91-1.76-7.08-2.8l-1.41-.29a5.24 5.24 0 0 0 2.7 4.94c2 1.8 8.46 2.29 10.49 1.92 4-.72 3.73-3.62 3.73-3.62z"/><path d="m204.4 56.09a67.46 67.46 0 0 0 -7.31 20.61c-.42 2.25-.8 5.4 1.08 7.13 2.78 2.56 7.06.29 8.33-2.73.62-1.47-2.29-1.33-2.74-.25-.37.89-1.18 2.31-2.34 2a2.44 2.44 0 0 1 -1.54-1.85c-.56-2 0-4.36.5-6.35a68.65 68.65 0 0 1 6.76-18.3c.35-.62-.3-1.05-.85-1.1a2 2 0 0 0 -1.89.85"/><path d="m200.78 66.77c1.91 1.52 4.3.88 6.33 0 .57-.24 1.08-1 .66-1.57a1.63 1.63 0 0 0 -2-.27c-1 .42-1.91.83-2.81.11-1.08-.86-3.56.66-2.21 1.74"/><path d="m188.89 59.25a36.54 36.54 0 0 0 1.44 6.44 35.9 35.9 0 0 1 .84 7c.05 1.61 0 3.25 0 4.86 0 1.31-.1 3.07-1.1 4a.73.73 0 0 0 .35 1.28 2.13 2.13 0 0 0 2-.54 6.7 6.7 0 0 0 1.58-4.29c.15-1.73.1-3.51.08-5.24a45.78 45.78 0 0 0 -.74-7.21c-.41-2.4-1.43-4.65-1.57-7.1-.06-1.19-3-.53-2.89.78"/><path d="m190.48 52c-.48-2.39-3-2.26-4.58-.87-1.15 1-1.8 3.1-.6 4.32a4.55 4.55 0 0 0 3.29 1 5.22 5.22 0 0 0 4.52-2.64 4.25 4.25 0 0 0 -.26-4.56 8.48 8.48 0 0 0 -4-2.51 2.23 2.23 0 0 0 -2.06.24c-.36.24-.89 1-.21 1.26 1.8.71 4.13 1.67 4.14 4a2.71 2.71 0 0 1 -1.26 2.42 2.12 2.12 0 0 1 -1.53-.35c-.68-.46-.35-1.59 0-2.17a.94.94 0 0 1 .28-.34c.24-.23-.21.14.05 0-.2.1-.23.12-.09 0a1.51 1.51 0 0 1 -.46.13c-.53.07-.36 0-.53-.05.1.05 0 0 .12.15a2 2 0 0 1 .26.77c.22 1.13 3.12.4 2.88-.77"/><path d="m2.74 112.62h1a3.2 3.2 0 0 0 0-6.39h-1zm-1.87-7.86h2.55c2.86 0 5.39 1 5.39 4.66s-2.53 4.67-5.39 4.67h-2.55z"/><path d="m10.4 107.21h1.79v6.88h-1.79zm0-3h1.79v1.79h-1.79z"/><path d="m18.6 110.57c0-1.17-.46-2.13-1.5-2.13-1.21 0-1.6 1.12-1.6 2.17s.5 2.09 1.5 2.09 1.58-1 1.58-2.13m1.79-3.36v6.21c0 1.87-.75 3.63-3.64 3.63a5.87 5.87 0 0 1 -2.37-.47l.14-1.52a5.1 5.1 0 0 0 2 .6c2 0 2.07-1.48 2.07-2.67a2.44 2.44 0 0 1 -2.14 1.1c-2 0-2.8-1.63-2.8-3.48 0-1.65.85-3.56 2.91-3.56a2.27 2.27 0 0 1 2.11 1.09v-.93z"/><path d="m22.27 107.21h1.79v6.88h-1.79zm0-3h1.79v1.79h-1.79z"/><path d="m26.54 108.52h-1.33v-1.31h1.33v-1.38l1.79-.58v2h1.59v1.31h-1.59v3.2c0 .59.16 1.14.84 1.14a1.56 1.56 0 0 0 .81-.19l.06 1.42a5 5 0 0 1 -1.33.16 2 2 0 0 1 -2.17-2.29z"/><path d="m33.55 112.94a1.49 1.49 0 0 0 1.25-.62 2.22 2.22 0 0 0 .38-1.41h-.78c-.8 0-2 .13-2 1.19 0 .58.5.84 1.14.84m-2.1-5.37a6.19 6.19 0 0 1 2.39-.52c2.1 0 3 .86 3 2.9v.88 1.72s0 1 .08 1.54h-1.57a7.3 7.3 0 0 1 -.08-1 2.46 2.46 0 0 1 -2.12 1.19 2.2 2.2 0 0 1 -2.41-2 2 2 0 0 1 1.18-2 5.5 5.5 0 0 1 2.31-.4h1c0-1.11-.5-1.48-1.55-1.48a3.66 3.66 0 0 0 -2.13.74z"/><path d="m38.61 104.07h1.79v10.02h-1.79z"/><path d="m49.86 106.63-1.35 3.85h2.72zm-1-1.87h2.14l3.66 9.33h-2.12l-.81-2.09h-3.73l-.81 2.14h-1.99z"/><path d="m55.69 107.21h1.59v1.56a2.1 2.1 0 0 1 1.88-1.72 2.13 2.13 0 0 1 .55 0v1.8a1.88 1.88 0 0 0 -.8-.14c-1.46 0-1.46 1.81-1.46 2.8v2.53h-1.76z"/><path d="m63.25 112.94a1.51 1.51 0 0 0 1.26-.62 2.28 2.28 0 0 0 .37-1.41h-.77c-.81 0-2 .13-2 1.19 0 .58.5.84 1.14.84m-2.1-5.37a6.19 6.19 0 0 1 2.39-.52c2.1 0 3 .86 3 2.9v.88 1.72s0 1 .08 1.54h-1.62c-.06-.36-.06-.82-.08-1a2.44 2.44 0 0 1 -2.12 1.19 2.2 2.2 0 0 1 -2.41-2 2 2 0 0 1 1.18-2 5.5 5.5 0 0 1 2.31-.4h1c0-1.11-.49-1.48-1.55-1.48a3.61 3.61 0 0 0 -2.12.74z"/><path d="m71.66 112.86c1.17 0 1.5-1.29 1.5-2.23s-.32-2.2-1.48-2.2-1.6 1.23-1.6 2.2.39 2.23 1.58 2.23m-3.39-8.79h1.8v4a2.4 2.4 0 0 1 2.06-1c2.11 0 2.88 1.68 2.88 3.58s-.77 3.62-2.88 3.62a2.52 2.52 0 0 1 -2.11-1v.84h-1.75z"/><path d="m76.48 107.21h1.79v6.88h-1.79zm0-3h1.79v1.79h-1.79z"/><path d="m84.62 108.69a2.71 2.71 0 0 0 -1.22-.25c-1.11 0-1.82.88-1.82 2.17s.6 2.25 1.86 2.25a3.9 3.9 0 0 0 1.38-.32l.08 1.46a5.9 5.9 0 0 1 -1.79.23c-2.26 0-3.4-1.54-3.4-3.64a3.25 3.25 0 0 1 3.29-3.54 6 6 0 0 1 1.73.22z"/><path d="m96.75 114a9.51 9.51 0 0 1 -2.13.3c-3 0-5.12-1.51-5.12-4.67s2-5 5.12-5a6.07 6.07 0 0 1 2.11.39l-.13 1.57a3.86 3.86 0 0 0 -2-.49 3.11 3.11 0 0 0 -3.12 3.38 3.07 3.07 0 0 0 3.16 3.33 5.16 5.16 0 0 0 2-.39z"/><path d="m101.12 112.86c1.37 0 1.73-1.23 1.73-2.38a1.75 1.75 0 1 0 -3.46 0c0 1.13.36 2.38 1.73 2.38m0-5.81a3.44 3.44 0 0 1 3.6 3.64 3.6 3.6 0 0 1 -7.2 0 3.44 3.44 0 0 1 3.6-3.64"/><path d="m106.13 107.21h1.69v.93a2.56 2.56 0 0 1 2.26-1.09c1.63 0 2.34 1.15 2.34 2.69v4.35h-1.79v-3.68c0-.84 0-2-1.17-2s-1.57 1.4-1.57 2.28v3.37h-1.79z"/><path d="m114.88 108.52h-1.33v-1.31h1.33v-1.38l1.79-.58v2h1.59v1.31h-1.59v3.2c0 .59.16 1.14.84 1.14a1.56 1.56 0 0 0 .81-.19l.06 1.42a5 5 0 0 1 -1.32.16 2 2 0 0 1 -2.18-2.23z"/><path d="m123.8 110c0-.87-.45-1.62-1.45-1.62a1.56 1.56 0 0 0 -1.59 1.62zm1.2 3.7a4.77 4.77 0 0 1 -2.37.55 3.27 3.27 0 0 1 -3.59-3.57c0-2 1-3.63 3.19-3.63 2.55 0 3.27 1.75 3.27 4.15h-4.75a1.8 1.8 0 0 0 2 1.74 4.61 4.61 0 0 0 2.29-.7z"/><path d="m126.92 107.21h1.69v.93a2.56 2.56 0 0 1 2.26-1.09c1.63 0 2.34 1.15 2.34 2.69v4.35h-1.79v-3.68c0-.84 0-2-1.17-2s-1.57 1.4-1.57 2.28v3.37h-1.79z"/><path d="m135.67 108.52h-1.33v-1.31h1.33v-1.38l1.79-.58v2h1.59v1.31h-1.59v3.2c0 .59.16 1.14.84 1.14a1.56 1.56 0 0 0 .81-.19l.06 1.42a5 5 0 0 1 -1.33.16 2 2 0 0 1 -2.17-2.23z"/></g></g></svg>