<svg xmlns="http://www.w3.org/2000/svg" viewBox="0 0 316.87 145.54"><defs><style>.cls-1{opacity:0.98;}.cls-2{fill:#009245;}.cls-3{fill:#fff;}.cls-4{fill:#bd1e2d;}</style></defs><title>Asset 22</title><g id="Layer_2" data-name="Layer 2"><g id="Layer_1-2" data-name="Layer 1"><g class="cls-1"><path class="cls-2" d="M95.11,47.55A47.56,47.56,0,1,1,47.55,0,47.55,47.55,0,0,1,95.11,47.55Z"/><path class="cls-2" d="M90.84,83.91v-2c4.46-.62,5.09-1.25,4.13-4.08s-2.3-6.28-3.84-10.31L87.05,37.23c4.61,12.42,9.21,24.89,14,37.22,2.31,6.19,3.31,7,8,7.44v2Z"/><path class="cls-2" d="M144.14,49.17c-.63-2.78-1.11-4.31-2.16-5.7-1.25-2-2.78-2.6-8.11-2.6h-5.23c-2.25,0-2.44.2-2.44,2.31v16.4h7.19c6.57,0,7-.67,7.87-5.23h2.11V68.17h-2.16c-.86-4.89-1.25-5.66-7.82-5.66H126.2V74.74c0,6.24.62,6.67,7.19,7.15v2H113.2v-2c5.7-.43,6.33-.91,6.33-7.15V47.35c0-6.19-.63-6.57-6.14-7V38.28h32.14c.09,2.59.43,7.06.76,10.56Z"/><path class="cls-2" d="M194.41,84.53a24,24,0,0,1-2.54-.14c-5.81-.29-8.78-1.83-12.09-6.43-2.45-3.41-4.8-7.68-7-11-1.29-2-2.54-2.88-6.23-2.88h-2V75c0,5.9.67,6.43,6.43,6.91v2H151.57v-2c5.8-.48,6.48-1,6.48-6.91V47.16c0-6-.63-6.38-6.19-6.76V38.28h18.37c5.42,0,8.92.63,11.66,2.45,2.92,1.82,4.75,4.94,4.75,9.21,0,6.09-3.94,9.74-9.07,11.9,1.25,2.3,4.17,6.91,6.33,10.12a57.81,57.81,0,0,0,5.81,7.39,9.13,9.13,0,0,0,5,3.21ZM167.78,61.69c3.6,0,6-.57,7.82-2,2.74-2.11,3.84-4.84,3.84-8.64,0-7.53-4.94-10.31-10.26-10.31-2.16,0-3.31.29-3.84.67s-.77,1.2-.77,3V61.69Z"/><path class="cls-2" d="M196.9,83.91v-2c5.85-.43,6.48-.86,6.48-6.91V47.3c0-6.09-.63-6.52-6.48-6.9V38.28h19.57V40.4c-5.8.38-6.42.81-6.42,6.9V75c0,6,.62,6.48,6.42,6.91v2Z"/><path class="cls-2" d="M266.22,71.86A72.13,72.13,0,0,1,262.05,83c-2.11.48-8.45,2-13.77,2-18.52,0-26.77-12.23-26.77-23.32,0-14.77,12-24.46,28.59-24.46,6.14,0,11.32,1.68,13.34,2,.57,4,1.1,7,1.53,11l-2.16.48c-2-7.77-6.76-10.84-14.58-10.84-12.23,0-18.76,9.88-18.76,20.34,0,13.24,8.11,22.06,19.38,22.06,7.44,0,11.52-4,15.31-11.22Z"/><path class="cls-2" d="M298.74,83.91v-2c4.46-.62,5.09-1.25,4.13-4.08S300.56,71.53,299,67.5h-15.4c-1.2,3.21-2.16,6-3.07,8.73-1.53,4.27-1,5.08,4.46,5.66v2H269.19v-2c4.66-.72,5.66-1.2,8.2-7.44l15.07-36.6,2.49-.62c4.61,12.42,9.21,24.89,14,37.22,2.3,6.19,3.31,7,8,7.44v2Zm-7.05-37h-.14c-2.31,5.8-4.56,11.8-6.72,17.46H298Z"/><path class="cls-3" d="M83.6,36.39,66.47,77.81a7.36,7.36,0,0,1-6.69,4.07v2a12.63,12.63,0,0,1-8.94-9.1c-2.13-7.7-3.23-11.52-3.23-11.52l2.33-5.93-5.71-8.78,1.65-4.65-6.32-1.81S20.07,52,20.9,28.18l6.76-7.37,0-3.06,3.63-4.22,3.84.66,11.2-2,.56,3L45.55,16l8.24,3,1-.27.06-1.5,1.88-.75,6.79,1.8L65.42,18l10.2,19.25,2,1.05Z"/><path class="cls-3" d="M83.71,46.7h-.15C81.25,52.53,79,58.55,76.81,64.24H90Z"/><path class="cls-4" d="M156.86,95.19l.49-.4.57.06a1.37,1.37,0,0,0,.83-.26,1.29,1.29,0,0,1,.55-.28,1.08,1.08,0,0,0,.51-.29,1.75,1.75,0,0,1,.87-.35,1.57,1.57,0,0,0,.83-.36,1.2,1.2,0,0,1,.59-.33,5.74,5.74,0,0,0,.75-.24l2.59-.8a1.19,1.19,0,0,1,.32.12h.11a1.06,1.06,0,0,0,.67-.28,1.2,1.2,0,0,1,.79-.27,3.75,3.75,0,0,0,1.11-.34l.17.17c.3-.34.56-.51.77-.51h.17l.51.11a4.09,4.09,0,0,1,1.17-.22l.66-.06a.49.49,0,0,1,.17.06,1,1,0,0,1,.62-.32H173l1.17-.28.34.11a1.63,1.63,0,0,1,1.05-.28h.29l.28,0a2.75,2.75,0,0,0,.53-.17,9.17,9.17,0,0,1,2.29-.17l.75.11a5.78,5.78,0,0,1,.77-.28l.79.17.32-.11h.11a.89.89,0,0,1,.29.11H182l2.06-.29.22.06a.71.71,0,0,1,.35-.2l.54.14a2.12,2.12,0,0,0,.8-.31l.17.17L188.1,89l.72.06.62-.11a1.85,1.85,0,0,1,1.41.5,1.47,1.47,0,0,1,.48,1l.11.88-.17.49-.06.57a.77.77,0,0,1-.43.45s-.08.08-.25.13a2,2,0,0,0-.51.24,4.31,4.31,0,0,1-1.69.18.9.9,0,0,1-.91-.45c-.13-.29-.27-.46-.43-.5l-1.22-.51s-.15-.06-.34-.06h-.23L184,92l-.31-.06a2.47,2.47,0,0,1-.4.17L181.21,92l-.85.06-.6-.12a1.56,1.56,0,0,0-.4.09,7.76,7.76,0,0,1-1.2.14c-.6,0-.91.23-.91.57a1.25,1.25,0,0,0,.24.68,1.17,1.17,0,0,1,.25.6,2.08,2.08,0,0,0-.43.77,4.52,4.52,0,0,0-.4.37q-.28.28-1,.9a4,4,0,0,0-1.06,1.13.81.81,0,0,1-.68.51,3.37,3.37,0,0,0-.71.88l-.23.23a.39.39,0,0,0-.06.26.5.5,0,0,1-.17.34l-.26.68a7.62,7.62,0,0,0-1.16,1.49l-.35.17-.34.4h-.4c-.17,0-.25.11-.25.34l.11.83a2.53,2.53,0,0,0-.68,1l-.34.57a3.94,3.94,0,0,0-.6.66,6.43,6.43,0,0,1-.57,1.23l-.06.28c0,.32-.66,1.25-2,2.79a4.25,4.25,0,0,0-.35,1.66c-.57,1.12-1,1.66-1.16,1.62a5.21,5.21,0,0,1-.36,1.77c-.2.46-.46,1.13-.77,2a5.8,5.8,0,0,1-1,1.89l-.12.23a2.46,2.46,0,0,1-.28.46,14.22,14.22,0,0,1-.54,2.45l-.18,1.23-.57,1.59a.88.88,0,0,0-.08.34,1.23,1.23,0,0,0,.18.45,1.2,1.2,0,0,1,.19.61,1.29,1.29,0,0,1-.14.64,1.21,1.21,0,0,0-.15.64,1.15,1.15,0,0,1-.94,1.17h-.22l-.6.06a2.83,2.83,0,0,1-2.17-1.14,4.68,4.68,0,0,1-1-3.14c0-.07.06-.36.17-.87s.18-.83.2-1a1.79,1.79,0,0,1,.14-.47,1.6,1.6,0,0,0,.12-.7,4.15,4.15,0,0,1,.7-2.42,16.85,16.85,0,0,0,.92-1.48.37.37,0,0,1,.2-.26,1.82,1.82,0,0,1-.08-.57,1.56,1.56,0,0,1,.71-1.34,2.76,2.76,0,0,1,.2-.53c.1-.2.29-.68.6-1.45a2,2,0,0,1,1.2-1.36s.09-.19.34-.45l-.12-1c0-.15.17-.41.52-.77l.48-.8a1.51,1.51,0,0,1,.74-.88.68.68,0,0,1,.37-.34c0-.08.1-.32.25-.72a5.64,5.64,0,0,1,.91-1.49c.46-.6.91-1.22,1.34-1.87s.81-1,1.17-1a.58.58,0,0,0,.58-.6l.17-1a5.84,5.84,0,0,0,1-1l.4-.46a.85.85,0,0,1,.3-.52,2.42,2.42,0,0,0,.47-.53,3.19,3.19,0,0,1,.71-.71,3.88,3.88,0,0,1,1.68-2l.46-.48a4.34,4.34,0,0,1,.8-.93,1.47,1.47,0,0,0,.47-.64,1.09,1.09,0,0,1,.61-.6c.3-.13.46-.28.46-.46s-.08-.11-.23-.11a3.19,3.19,0,0,0-.77.17h-.23l-.51.12h-.17l-.49-.12a2.54,2.54,0,0,1-.8.17,2,2,0,0,1-.37.26h-.62l-.35.34-.25.06-.74-.11a1.5,1.5,0,0,0-.83.34,3.23,3.23,0,0,1-.93.2,6.55,6.55,0,0,0-1.75.52,4,4,0,0,1-1,.39l-.51-.11h-.06a.89.89,0,0,0-.68.36,1.43,1.43,0,0,1-.91.46h-.35a2.88,2.88,0,0,0-1.15.34,7.19,7.19,0,0,1-.79.35l-.51-.06a2.42,2.42,0,0,1-.59.31,1.89,1.89,0,0,0-.47.27,1.35,1.35,0,0,1-.45.27,2.48,2.48,0,0,0-.53.32.94.94,0,0,1-.47.23h-.12l-.34-.06c-.13,0-.3.12-.51.35a1.47,1.47,0,0,1-.59.45,1.4,1.4,0,0,0-.51.27,1,1,0,0,1-.5.21,3,3,0,0,0-.4.63,3,3,0,0,1-.66.84,3.51,3.51,0,0,0-.53.56c-.08.13-.16.2-.24.2-.93,0-1.4-.58-1.4-1.74l.57-1.23a2.72,2.72,0,0,1,1.83-1.77,5.93,5.93,0,0,0,1.62-.63Z"/><path class="cls-4" d="M187.92,124.81,186.58,126a.31.31,0,0,0-.23-.11c-.19,0-.42.16-.7.51s-.47.51-.58.51l-.29-.06a3.59,3.59,0,0,1-1,.63,3.87,3.87,0,0,0-.75.32,2.21,2.21,0,0,1-.8.25,1,1,0,0,0-.59.24,1.75,1.75,0,0,1-1.11.22l-.46-.06a1.6,1.6,0,0,1-.48.17.73.73,0,0,1-.48-.24,1,1,0,0,0-.56-.27.94.94,0,0,1-.61-.4,2,2,0,0,0-.59-.51,1.21,1.21,0,0,1-.44-.4l-.4-.35a3.24,3.24,0,0,1-.94-1.25,3.44,3.44,0,0,1-.46-1.42v-.12l.06-.54-.06-.63a1.87,1.87,0,0,0,.29-.48v-.91l.68-2.29c0-.09,0-.21-.23-.37a1.17,1.17,0,0,1-.57.52.56.56,0,0,0-.39.4c-.06.21-.17.31-.33.31l-.34-.11a2.36,2.36,0,0,0-.26.58.71.71,0,0,1-.69.53c-.34,0-.51-.14-.51-.4l.05-.52-.17-.71a2.17,2.17,0,0,1,.46-.89,1.65,1.65,0,0,1,.84-.77,1.15,1.15,0,0,0,.66-.55,4.27,4.27,0,0,1,1.18-1.07,1.42,1.42,0,0,0,.89-.74,3.06,3.06,0,0,1,1-.51,2,2,0,0,0,1-.58,7.67,7.67,0,0,1,1.94-1.2,6.2,6.2,0,0,1,2.36-.81,2.5,2.5,0,0,0,.63-.13l.74-.23a3.57,3.57,0,0,0,.71-.31,1.26,1.26,0,0,1,.6-.22l.83.29a6.23,6.23,0,0,1,1.11.37,2.74,2.74,0,0,0,.59.24,6.45,6.45,0,0,1,1.08.5,1.23,1.23,0,0,1,.56,1.17,5,5,0,0,0-.48.77c0,.07.21.19.65.34a12.14,12.14,0,0,0,.69,1.11l.31,1,.06,2.34-.06.22c-.21.2-.31.32-.31.37l.08.58-.23.79a.71.71,0,0,1-.28.49.58.58,0,0,0-.26.28l-.17.23a4,4,0,0,0-.24.5,2,2,0,0,1-.41.64,1,1,0,0,0-.29.55.67.67,0,0,1-.28.45.89.89,0,0,0-.33.3A.83.83,0,0,1,187.92,124.81Zm-8.86.74.11.66.06.05h.46l.14.06a4.33,4.33,0,0,0,.85.11,2.09,2.09,0,0,0,1.41-.44,1.54,1.54,0,0,1,.84-.44c.21,0,.38-.14.53-.43s.23-.42.27-.42h.39l.12-.06a1,1,0,0,1,.58-.94,1.77,1.77,0,0,0,.83-.76,2.06,2.06,0,0,1,.55-.71,1.2,1.2,0,0,0,.43-.64l.22-.34a.6.6,0,0,0,.12-.43l.54-1a5.26,5.26,0,0,0,.17-1.11,1,1,0,0,0-.61-.94,1.39,1.39,0,0,1-.61-1.34,1.58,1.58,0,0,1,.66-1.21c.45-.37.67-.6.67-.67s0-.17-.17-.17a3.29,3.29,0,0,0-.65.23c-.13.26-.81.61-2,1a4.1,4.1,0,0,0-.66-.28c-.11,0-.22.11-.34.34a1.29,1.29,0,0,1-.34.48h-.37s-.16.13-.37.37a1,1,0,0,1-.79.37l-.34.35a1.27,1.27,0,0,1-.57.94l-.32.37c-.19.22-.43.49-.74.79l-.51,1.29a3.13,3.13,0,0,0-.31,1.11,1.15,1.15,0,0,1-.39.36.54.54,0,0,0-.3.47,1,1,0,0,0,.2.28.62.62,0,0,1,.2.34l-.11.38-.12,1Z"/><path class="cls-4" d="M192.81,145.05l-.46.31a1.11,1.11,0,0,1-.6.18,1.83,1.83,0,0,1-1.38-.95,3.26,3.26,0,0,1-.67-1.94,6.72,6.72,0,0,1,.35-2.55,4.8,4.8,0,0,0,.42-1.12s.2-.49.61-1.41a10.88,10.88,0,0,1,1.16-2.1,13.88,13.88,0,0,0,.91-1.34l.11-.23a3.06,3.06,0,0,1,.83-.94c0-.11.36-.51,1.1-1.18s1.42-1.25,2.06-1.73l.29-.39a2.94,2.94,0,0,1,.8-.43l1.65-.46a13.4,13.4,0,0,1,1.11-.88h.23l.77-.23a9.5,9.5,0,0,1,2-.53q1.32-.24,1.5-.57a6.79,6.79,0,0,0,.3-.61c.09-.19.29-.59.63-1.2.07-.32.14-.58.2-.77a.6.6,0,0,1,.18-.34,1.52,1.52,0,0,0,.33-.55,5.08,5.08,0,0,1,.46-.85,0,0,0,0,0,0,0l-.17-.49a1.71,1.71,0,0,1,.47-.84c.16-.1.25-.17.25-.21l-.2-.52.48-1a.1.1,0,0,0-.11-.11,6.92,6.92,0,0,1-1.77,1,6.59,6.59,0,0,1-.63.69,1,1,0,0,0-.65.59l-.23.06-.17.29s-.07.08-.2.14-.4.21-.8.45l-.34,0c-.08,0-.17.19-.28.57a2.18,2.18,0,0,1-.93.7.92.92,0,0,0-.55.3l-.23.28-.29-.06c-.4,0-.59.16-.59.46a1,1,0,0,1-.35.6,1.21,1.21,0,0,0-.56.17h-.43a1.31,1.31,0,0,1-1,.77l-.82.57-.49.17a5.58,5.58,0,0,0-.68.41,2.34,2.34,0,0,1-1.17.3A5.1,5.1,0,0,0,194,127c-.55-.14-.94-1.07-1.17-2.78h-.06a1,1,0,0,0-.5.17.8.8,0,0,1-.38.17c-.46,0-.68-.19-.68-.57a1.63,1.63,0,0,1,1-1.68l.72-.88,1.82-1.8c1.28-1.27,2.14-2.09,2.57-2.45s.92-.71,1.43-1.06l1.46-1a4.82,4.82,0,0,1,.91-.53.9.9,0,0,0,.36-.19,4.5,4.5,0,0,1,1-.42l.52-.23a8.93,8.93,0,0,1,2.06-.54l.39.05a1,1,0,0,0,.61-.23,2.46,2.46,0,0,0,1.22-.62l1-.29A2.57,2.57,0,0,1,209,112h.54c.4,0,.66.31.78.94s.24.94.33.94.15-.14.34-.43l.4-.28a1.76,1.76,0,0,1,.54-.29.81.81,0,0,1,.86.57v.06l.11.14a14.59,14.59,0,0,1,.26,1.69,3.44,3.44,0,0,1-.59,2.13,5,5,0,0,0-.69,1.09,18.38,18.38,0,0,1-1.14,3.47c-.1.21-.33.77-.69,1.66l-.28.28a.19.19,0,0,0-.12.18l.06.39a2.62,2.62,0,0,0-.48,1.23,3.1,3.1,0,0,1-.46,1,3.19,3.19,0,0,0,.5.3,4.13,4.13,0,0,1,1,.91,2,2,0,0,1,.55,1,11,11,0,0,1-.31,1.11,3.16,3.16,0,0,1-1.74.77,1.68,1.68,0,0,1-.83-.37l-.17.06v-.12a2.33,2.33,0,0,1-.59-.21.76.76,0,0,0-.41-.13.21.21,0,0,0-.23.23.53.53,0,0,0,.06.23,4.76,4.76,0,0,0-.46.42,5.28,5.28,0,0,1-.4.84,3.6,3.6,0,0,1-.71,1c-.42,0-.71.33-.86.94a2.3,2.3,0,0,1-.54,1.17l-.29-.12a9.17,9.17,0,0,1-1.94,2.8c-.39.09-.6.16-.61.21s0,.17-.06.37a2.24,2.24,0,0,1-.68.94c-.43.43-.68.64-.76.64l-.28.06-.17.17c0,.38-.49,1-1.51,1.82-.55.31-.85.52-.89.63-.15.36-.71.79-1.68,1.28l-.54.49a2.22,2.22,0,0,1-.74.48Zm10.28-14.65-.85.11a1,1,0,0,0-.48-.23c-.08,0-.14.06-.18.17a2.75,2.75,0,0,1-1.51.77,4.72,4.72,0,0,0-1.58.65,1.46,1.46,0,0,1-.7.35c-.19,0-.28.06-.28.12a3,3,0,0,0-.43.39,2.25,2.25,0,0,0-.57.36,1.31,1.31,0,0,1-.6.3c-.34.74-.59,1.11-.74,1.11l-.29-.05h0a2.5,2.5,0,0,1-.57.85,1,1,0,0,0-.34.33,2,2,0,0,1-.56.47,1.31,1.31,0,0,0-.56.87,1.71,1.71,0,0,1-.35.82,1.56,1.56,0,0,0-.27,1l-.17.4a5.31,5.31,0,0,0-.25,1q-.15.81-.15.84a1,1,0,0,0,.34.72.7.7,0,0,1,.48-.2l1.68-.69c.06,0,.27-.21.63-.53a3.19,3.19,0,0,1,1-.61,1.8,1.8,0,0,0,.75-.51,2,2,0,0,1,.56-.57.84.84,0,0,0,.38-.57c.44-.38.84-.74,1.2-1.07a3.2,3.2,0,0,0,.7-.83,1.31,1.31,0,0,1,.5-.55l.11-.37a.89.89,0,0,1,.24-.07c.13,0,.33-.34.62-.93l.77-1.28a5.42,5.42,0,0,0,1.11-1.74l.4-.34a.28.28,0,0,0,.11-.26Zm-.51-9.1.35-.48a1,1,0,0,1,.58-.34,1.17,1.17,0,0,0,.67-.49,4.3,4.3,0,0,1,1.63-1.42l.28-.2c.29-.55.54-.85.77-.9a1,1,0,0,0,.6-.51,1.61,1.61,0,0,0,.26-.73c0-.08-.06-.12-.17-.12a1.13,1.13,0,0,0-.7.23,1,1,0,0,1-.42.23l-.57,0c-.34.18-.81.41-1.42.68l-.52.43a1.8,1.8,0,0,1-.61.28.58.58,0,0,0-.41.36c-.1.2-.22.3-.37.3l-.23.11c-.08.08-.3.11-.66.11a3.08,3.08,0,0,0-.58.49c-.2.21-.32.31-.36.31a3.24,3.24,0,0,1-1.12.89,1,1,0,0,0-.62.48,1.69,1.69,0,0,0-.91.64,2.76,2.76,0,0,1-.67.69,1.93,1.93,0,0,0-.52.47l-.29.22a2.29,2.29,0,0,0-.47.76,2.65,2.65,0,0,0-.3.9c0,.11.07.17.2.17a3.06,3.06,0,0,0,1.07-.41,5.11,5.11,0,0,0,1-.64c.15-.16.26-.23.32-.23l1.08.06a.87.87,0,0,1,.58-.49,1.05,1.05,0,0,0,.64-.49,2.89,2.89,0,0,1,1.29-.79l.31-.52Z"/><path class="cls-4" d="M219.26,116.17l.6-.48a.73.73,0,0,0,.74-.72,1.53,1.53,0,0,1,.94-1.13l.34-.49a7.43,7.43,0,0,1,2.34-1.11,2.27,2.27,0,0,0,.65-.51.17.17,0,0,1,.12-.06l.45.11a2.93,2.93,0,0,0,1-.2,3.49,3.49,0,0,1,1.12-.2l1.2,0a1.39,1.39,0,0,1,.47.17,2.08,2.08,0,0,0,.87.17,1.56,1.56,0,0,1,1.15.57,1.64,1.64,0,0,1,.53,1.05,2.65,2.65,0,0,1-.91,1.8,3.41,3.41,0,0,1-1.45,1,3.67,3.67,0,0,1-.74.62,1.85,1.85,0,0,0-.53.4.75.75,0,0,1-.44.27.22.22,0,0,1-.17-.07.21.21,0,0,0-.17-.07c-.31,0-.64.37-1,1.11l-.51-.06a1.59,1.59,0,0,0-.63.68.56.56,0,0,1-.59.37c-.71.71-1.18,1.06-1.43,1.06a2.91,2.91,0,0,1-.4-.11.92.92,0,0,0-.22.59c0,.23-.16.36-.46.4l-.37.35-.28-.06-.57.6a1.63,1.63,0,0,0-.88.28q-.06.34-.18.87c-.07.35-.11.55-.11.59,0,.55.5.82,1.51.82l1.37-.2a1.9,1.9,0,0,0,1-.28,1.94,1.94,0,0,1,1-.29,1.66,1.66,0,0,0,.52-.11l.28.11a2,2,0,0,1,.74-.77,1.77,1.77,0,0,1,.86-.34l.28-.17a.74.74,0,0,1,.35-.46l.23-.2a.62.62,0,0,1,.42-.22h.4l.12-.06a1.34,1.34,0,0,1,.95-.87c.41-.09.67-.22.77-.41a.72.72,0,0,1,.56-.35,1,1,0,0,0,.67-.38,3.32,3.32,0,0,1,.67-.61,5.66,5.66,0,0,0,.55-.43.43.43,0,0,1,.28-.14c.11,0,.17.08.17.25s0,.26.11.26a.1.1,0,0,0,.11-.11,1.18,1.18,0,0,0,0-.29v-.2a.57.57,0,0,1,.45-.57l1.29-.82c0-.4.14-.64.32-.7a1.61,1.61,0,0,0,.42-.23.43.43,0,0,1,.31-.13c.25,0,.37.14.37.43l-.14.74.14.77a.86.86,0,0,1-.27.47,2,2,0,0,0-.41.91c-.1.41-.22.63-.37.67h-.18a2.31,2.31,0,0,1-.81.64.9.9,0,0,0-.47.36l-1,1.11q-.28.28-.48.51c-.14.16-.24.23-.32.23l-.23-.23s0,0-.11,0-.31.11-.36.34a1.31,1.31,0,0,1-.3.6,2.94,2.94,0,0,0-1.11.74l-.17.06h-.51c-.25,0-.42.18-.52.55a.85.85,0,0,1-.81.64,1.73,1.73,0,0,0-1,.35.87.87,0,0,1-.25.11,4.06,4.06,0,0,0-.8.45l-2.4.86a1,1,0,0,1-.37.14l-.8.12a.47.47,0,0,1-.34-.23c-.12-.15-.19-.23-.23-.23l-.51.17a3.62,3.62,0,0,1-1.09.17,1.16,1.16,0,0,1-.62-.2,5.79,5.79,0,0,0-.55-.28c-.55,0-.94-.43-1.16-1.29l-.35.06a8.88,8.88,0,0,1-.77-2,1,1,0,0,0-.54-.33.5.5,0,0,1-.37-.56,2.09,2.09,0,0,1,.56-1.72,1.73,1.73,0,0,0,.61-.67l.4-1.48a1.58,1.58,0,0,0,.28-.57l.66-1.2Zm6-1.71-.34.17a7.65,7.65,0,0,0-.67.5,7.56,7.56,0,0,1-1.09.72,3,3,0,0,0-1.08,1.41,6.27,6.27,0,0,0-.56,1.31.15.15,0,0,0,.17.17l1-.43a4.67,4.67,0,0,0,1-.66,13.94,13.94,0,0,1,1.35-1l.23-.23a1.77,1.77,0,0,1,.52-.42,2.53,2.53,0,0,0,.7-.58l.29-.11a2.12,2.12,0,0,1,1-.95c.33-.11.5-.22.5-.34s-.18-.34-.54-.34a1.52,1.52,0,0,0-.68.29h-.66a2,2,0,0,0-.63.34Z"/><path class="cls-4" d="M242.55,102l.4-.11.29-.29h0l.26.12h.06a2.63,2.63,0,0,0,1.21-.27,7.16,7.16,0,0,1,.89-.39,1.81,1.81,0,0,0,.45-.17.29.29,0,0,1,.15-.06l.46.06c.15,0,.35-.27.61-.81a3,3,0,0,1,.87-1.18,4,4,0,0,0,1-1.4,2.62,2.62,0,0,0,.25-.44c.1-.2.17-.3.23-.3.29,0,.51-.18.68-.54.57-.67,1-1,1.4-1s.81.45,1,1.37l.28,1.08s-.05.16-.14.41a1.92,1.92,0,0,0-.13.77,1.72,1.72,0,0,1,0,.52.87.87,0,0,0,0,.3c0,.15.16.22.48.22a1.71,1.71,0,0,0,.63-.22l.17-.06a1,1,0,0,0,.49.17,8.42,8.42,0,0,0,.81-.29,6.07,6.07,0,0,1,1-.31,3.09,3.09,0,0,0,.68-.23h.34l.23.09a1.29,1.29,0,0,0,.47-.24,2.82,2.82,0,0,1,1.35-.31l.4-.17h.12c.62,0,.94.28.94.83a1.39,1.39,0,0,1-.27.6,4.1,4.1,0,0,0-.44,1l-1.32,1.65a1.76,1.76,0,0,1-1.31.86c-.08,0-.31-.26-.71-.77q0-.06-.12-.06a1.63,1.63,0,0,0-.59.12,1.73,1.73,0,0,1-.52.11s-.56.14-1.51.43l-.68.11a2.7,2.7,0,0,0-.54.12l-1.46.28a2.61,2.61,0,0,0-1.17,1.4s-.09.12-.28.25l-1.29,2.34a1.15,1.15,0,0,0-.83.74l-.11.17a1,1,0,0,0-.57.36,2.64,2.64,0,0,1-.49.47l-.51.77q-.31.41-.63.87a3.48,3.48,0,0,0-.46,1,2.07,2.07,0,0,1-.22.61.43.43,0,0,0-.09.31l-.09.23a1.11,1.11,0,0,0-.34.77l.12.46c-.27.91-.4,1.39-.4,1.45s0,.14,0,.31v.18a3.88,3.88,0,0,1-.45,1.57l.05.45-.17,1.28a4.94,4.94,0,0,0,.17.94c-.07.08-.11.14-.11.18a2.79,2.79,0,0,0,.84,1.75,4.44,4.44,0,0,1,.84,3,2.6,2.6,0,0,1-.08.5,3.62,3.62,0,0,0-.12.71,1.15,1.15,0,0,1-.44.76,1.19,1.19,0,0,1-.7.37c-1,0-1.76-.74-2.25-2.2a12.08,12.08,0,0,1-.75-2.82l.06-1.11-.17-.57.17-2.51-.11-.6.65-2.45v-.89a2.08,2.08,0,0,1,.4-.45s0-.06-.11-.06-.27.11-.46.34a4.13,4.13,0,0,1-.71.66l-.23.4a.68.68,0,0,0-.23-.12,6.55,6.55,0,0,0-.94,1.34,1.26,1.26,0,0,0-.94.69,1.06,1.06,0,0,1-.95.6l-.11,0c-.08.55-.34.83-.8.83l-.11.06c-.29.64-.59,1-.89.94a1.87,1.87,0,0,1-1.4,1.17,1.17,1.17,0,0,1-.5.51,1.89,1.89,0,0,0-.47.31.38.38,0,0,1-.26.14c-.25,0-.37-.26-.37-.79a.85.85,0,0,1,.19-.5.88.88,0,0,0,.18-.39,1.2,1.2,0,0,0-.28-.34q0-.88.45-1.11a1.47,1.47,0,0,0,.69-.66.85.85,0,0,1,.57-.48c.29-.1.43-.22.43-.37s.24-.4.74-.8a6.83,6.83,0,0,0,1.08-1c.23-.3.42-.44.58-.44l.11-.12c0-.47.22-.71.54-.71l.29-.17,0-.23.17-.11h.23l.14-.12a1.42,1.42,0,0,1,.68-1.11,15.11,15.11,0,0,0,2.24-2.24,12.48,12.48,0,0,0,1.82-2.35,10.84,10.84,0,0,1,.73-1.38,3.81,3.81,0,0,0,.59-1.64,1.13,1.13,0,0,0-.17-.23l-1.23.6c0-.06-.19-.14-.57-.26a2.32,2.32,0,0,0-.63.52c-.13.17-.24.25-.31.25l-.4,0-1.25.14a5.79,5.79,0,0,0-2.54.68l-1.17.35h-.26a1.47,1.47,0,0,0-.68.28l-.66-.06a3.27,3.27,0,0,1-1.34.49l-.34-.06-2.91.8a7.42,7.42,0,0,0-1.54,1.17l-.22,0c-.19,0-.42-.21-.67-.64a2.25,2.25,0,0,1-.39-1.15c0-1.88,1.62-3,4.85-3.28l1.17-.45h.05l.32.11h.11a1.29,1.29,0,0,0,.54-.21,7.39,7.39,0,0,1,1.66-.53l1.16-.32.37.06a1.19,1.19,0,0,0,.65-.23,2.66,2.66,0,0,1,1.08-.32,4.64,4.64,0,0,0,1-.22l.46-.11a1.5,1.5,0,0,0,.47-.2,1.79,1.79,0,0,1,.92-.2A2.32,2.32,0,0,1,242.55,102Z"/><path class="cls-4" d="M251.24,117.4l.23-.31a1.34,1.34,0,0,0,.94-.57,11.14,11.14,0,0,1,1.43-1.49c.9-.85,1.39-1.31,1.49-1.37a11,11,0,0,0,1.11-2.48c.23-.11.34-.24.34-.39l.23-.46.25-.06.11-.11v-.26a7.5,7.5,0,0,1,1.11-2.39c.74-1.54,1.14-2.39,1.2-2.56a5.83,5.83,0,0,1,.34-.71c.17-.31.43-.92.79-1.81a11.75,11.75,0,0,1,1.63-2.79c.08,0,.2-.25.35-.64a4.12,4.12,0,0,1,.71-1.16l.34-.6.6-1a8.53,8.53,0,0,1,.79-1.13,3.67,3.67,0,0,0,.54-.87,1.51,1.51,0,0,1,.44-.65,2.33,2.33,0,0,0,.52-.73.91.91,0,0,1,.85-.53,1.72,1.72,0,0,1,1.61.91,3.48,3.48,0,0,1,.5,1.6c0,.06-.12.47-.35,1.22l-.42,2.57q-.57.28-.57.66a5.4,5.4,0,0,1-1.17,3.13,1.57,1.57,0,0,0-.19.74,1.6,1.6,0,0,1-.5,1,3.55,3.55,0,0,0-.77,1.34l-2.65,3.79-.23.23a2,2,0,0,0-.4.48l-.45-.14c-.51,0-.77.16-.77.49a1.44,1.44,0,0,0,.11.45v.06s-.7,1-2.11,3a7.34,7.34,0,0,0-.4,1.11l-.4.86a6.08,6.08,0,0,0-.84,1.61,3.69,3.69,0,0,1-.64,1.27c-.38.85-.57,1.3-.57,1.34a.15.15,0,0,0,.17.17c.12,0,.39-.29.82-.86a5.29,5.29,0,0,1,1.05-1.14,2.17,2.17,0,0,0,.7-.79l.29-.2c.07,0,.23-.16.48-.35l.29.06a.72.72,0,0,0,.28-.4.83.83,0,0,1,.17-.34q.75-.09.93-.54c.12-.31.27-.46.44-.46s.36-.18.6-.53a2.72,2.72,0,0,1,1.05-.85,6.52,6.52,0,0,0,1-.58,5,5,0,0,1,1.32-.62,5.14,5.14,0,0,1,1.35-.36h.17l.23.06.42-.06a4.07,4.07,0,0,1,2,.56,1.62,1.62,0,0,1,.86,1.73l-.23,1.76-.32,1.4a12,12,0,0,1-.45,1.51,8.29,8.29,0,0,0-.4,1.34l-.11.54.11.74-.06.6a.26.26,0,0,0,.29.29c.07,0,.28-.17.62-.52.21,0,.41-.07.6-.34a4.76,4.76,0,0,1,.77-.82c0-.08.12-.15.37-.22a3,3,0,0,0,1-.67,5.06,5.06,0,0,1,1.11-1.09,9.08,9.08,0,0,1,1.9-1.3l.17-.23a1.33,1.33,0,0,1,.88-.48c.27,0,.4.14.4.42a1.53,1.53,0,0,1-.14.6,2.4,2.4,0,0,0-.2.81,4.61,4.61,0,0,1-.57,1.44l-.12.29a.89.89,0,0,1-.48.57,1.41,1.41,0,0,0-.61.47,3.14,3.14,0,0,1-1.35.73c-.31.56-.55.85-.72.85L273,123a1.33,1.33,0,0,0-.6,1,7.85,7.85,0,0,0-.88.83l-.57-.06c-.15,0-.23.21-.23.63,0,0-.19.16-.58.38a5.84,5.84,0,0,0-.9.59,2.32,2.32,0,0,1-1.33.25.61.61,0,0,1-.35-.2,2,2,0,0,0-.66-.34,1,1,0,0,1-.62-.67,3.1,3.1,0,0,0-.37-.83,1,1,0,0,1-.2-.46l.06-.57-.14-.61.25-.39a1.89,1.89,0,0,1-.17-.55l.29-1.73a18.85,18.85,0,0,1,.51-2.45.61.61,0,0,0,.06-.35l-.06-.71.06-.4c0-.29-.1-.44-.29-.46s-.3-.06-.34-.14a2.43,2.43,0,0,0-.43-.17c-.15,0-.28.12-.4.36a2.18,2.18,0,0,1-.45.64l-.72-.11v0c0,.15-.25.45-.77.89a2.33,2.33,0,0,0-1.22.74,1.61,1.61,0,0,0-.79.44,3.68,3.68,0,0,1-.73.5l-.23.45-.45.14a1.18,1.18,0,0,1-.94.75l-.29.54a.94.94,0,0,0-.83.61c-.15.37-.26.56-.34.56a.53.53,0,0,1-.18-.07.52.52,0,0,0-.25-.08c-.41,0-.64.32-.68.94a8.13,8.13,0,0,1-1.17,1.35,15.58,15.58,0,0,1-1.26,1.25,1.7,1.7,0,0,0-.32.58,1.78,1.78,0,0,1-.68.83c-.28.18-.5.33-.64.44a.57.57,0,0,1-.33.17c-.4,0-.72-.28-1-.85s-.37-.86-.37-.88l.17-.6,0-.52s.12-.4.35-1.15a6.38,6.38,0,0,1,.82-1.77,5.39,5.39,0,0,0,.71-2.1,5.15,5.15,0,0,1-1.54.86c-.38,0-.57-.25-.57-.74A3.72,3.72,0,0,1,251.24,117.4Z"/><path class="cls-4" d="M280,116.17l.6-.48a.72.72,0,0,0,.74-.72,1.53,1.53,0,0,1,.94-1.13l.34-.49a7.56,7.56,0,0,1,2.34-1.11,2.27,2.27,0,0,0,.65-.51.17.17,0,0,1,.12-.06l.45.11a2.93,2.93,0,0,0,1-.2,3.54,3.54,0,0,1,1.12-.2l1.2,0a1.32,1.32,0,0,1,.47.17,2.08,2.08,0,0,0,.87.17,1.56,1.56,0,0,1,1.15.57,1.64,1.64,0,0,1,.53,1.05,2.65,2.65,0,0,1-.91,1.8,3.41,3.41,0,0,1-1.45,1,3.67,3.67,0,0,1-.74.62,2,2,0,0,0-.53.4.75.75,0,0,1-.44.27.22.22,0,0,1-.17-.07.21.21,0,0,0-.17-.07c-.3,0-.64.37-1,1.11l-.51-.06a1.59,1.59,0,0,0-.63.68.56.56,0,0,1-.59.37c-.71.71-1.18,1.06-1.43,1.06l-.39-.11a.88.88,0,0,0-.23.59c0,.23-.15.36-.46.4l-.37.35-.28-.06-.57.6a1.65,1.65,0,0,0-.88.28c0,.23-.1.52-.17.87s-.12.55-.12.59c0,.55.5.82,1.51.82l1.37-.2a1.9,1.9,0,0,0,1-.28,1.94,1.94,0,0,1,1-.29,1.66,1.66,0,0,0,.52-.11l.29.11a1.85,1.85,0,0,1,.74-.77,1.74,1.74,0,0,1,.85-.34l.29-.17a.73.73,0,0,1,.34-.46l.23-.2a.62.62,0,0,1,.43-.22h.39l.12-.06a1.35,1.35,0,0,1,1-.87c.41-.09.67-.22.77-.41a.72.72,0,0,1,.56-.35,1,1,0,0,0,.67-.38,3.32,3.32,0,0,1,.67-.61,5.66,5.66,0,0,0,.55-.43.43.43,0,0,1,.28-.14c.11,0,.17.08.17.25s0,.26.11.26a.1.1,0,0,0,.11-.11,1.18,1.18,0,0,0-.05-.29v-.2a.57.57,0,0,1,.45-.57l1.29-.82c0-.4.14-.64.33-.7a1.71,1.71,0,0,0,.41-.23.43.43,0,0,1,.31-.13c.25,0,.37.14.37.43l-.14.74.14.77a.86.86,0,0,1-.27.47,2,2,0,0,0-.41.91c-.1.41-.22.63-.38.67h-.16a2.41,2.41,0,0,1-.82.64.9.9,0,0,0-.47.36l-1,1.11q-.28.28-.48.51c-.14.16-.24.23-.32.23l-.23-.23s0,0-.11,0-.31.11-.36.34a1.14,1.14,0,0,1-.3.6,2.94,2.94,0,0,0-1.11.74l-.17.06h-.51c-.25,0-.42.18-.52.55a.85.85,0,0,1-.81.64,1.76,1.76,0,0,0-1,.35.87.87,0,0,1-.25.11,4.06,4.06,0,0,0-.8.45l-2.4.86a1,1,0,0,1-.37.14l-.8.12a.47.47,0,0,1-.34-.23c-.11-.15-.19-.23-.23-.23l-.51.17a3.58,3.58,0,0,1-1.09.17,1.16,1.16,0,0,1-.62-.2,5.79,5.79,0,0,0-.55-.28q-.82,0-1.17-1.29l-.34.06a8.88,8.88,0,0,1-.77-2,1,1,0,0,0-.54-.33.5.5,0,0,1-.37-.56,2.09,2.09,0,0,1,.56-1.72,1.73,1.73,0,0,0,.61-.67l.4-1.48a1.58,1.58,0,0,0,.28-.57l.66-1.2Zm6-1.71-.34.17a7.65,7.65,0,0,0-.67.5,7.5,7.5,0,0,1-1.08.72,3,3,0,0,0-1.09,1.41,6.27,6.27,0,0,0-.56,1.31c0,.11.06.17.18.17l1-.43a4.45,4.45,0,0,0,1-.66,13.94,13.94,0,0,1,1.35-1l.23-.23a1.72,1.72,0,0,1,.53-.42,2.87,2.87,0,0,0,.7-.58l.28-.11a2.12,2.12,0,0,1,1-.95c.34-.11.5-.22.5-.34s-.18-.34-.54-.34a1.52,1.52,0,0,0-.68.29h-.66a2,2,0,0,0-.63.34Z"/><path class="cls-4" d="M300.38,114l.43-.11.17-.38a7.37,7.37,0,0,0,2-1.56.6.6,0,0,1,.26-.23,1.71,1.71,0,0,0,.43-.4,3.43,3.43,0,0,1,2.51-1c1.14,0,1.74.69,1.82,2.07l.17.43a10.81,10.81,0,0,1,.64,1.63,7.11,7.11,0,0,1,.42,1.51,2.91,2.91,0,0,1-.49,1.54,10.94,10.94,0,0,0-1.91,2.14l-.28.19a5.73,5.73,0,0,1-.6,1c-.38.13-.57.28-.57.43v.51a.49.49,0,0,1-.13.23,5.91,5.91,0,0,0-.36.66l-.22.34a1.12,1.12,0,0,0-.23.47,2.28,2.28,0,0,1-.33.64.86.86,0,0,0-.21.46q0,.42,1.11.42a1.77,1.77,0,0,0,.43-.17l.4.12a.82.82,0,0,0,.28-.19,1.85,1.85,0,0,1,.7-.3,2.53,2.53,0,0,0,.82-.34,4.6,4.6,0,0,1,.86-.4,3,3,0,0,0,.95-.55,3.21,3.21,0,0,1,.9-.56,2.49,2.49,0,0,0,.83-.53,6.67,6.67,0,0,1,.87-.67,11.77,11.77,0,0,0,1.54-1.37,3.24,3.24,0,0,1,.94-.6,3.49,3.49,0,0,0,.5-.75,1.23,1.23,0,0,1,1-.75c.4,0,.6.18.6.56a.85.85,0,0,1-.29.6v.17l.06.46a.45.45,0,0,1,.06.26.63.63,0,0,1-.22.34,1.34,1.34,0,0,0-.3.58.62.62,0,0,1-.54.47c-.11.42-.26.66-.44.72a2.19,2.19,0,0,0-.75.57,15.46,15.46,0,0,1-1.37,1.14,8.76,8.76,0,0,0-1.21,1c-.22.24-.37.35-.45.35A.51.51,0,0,1,311,125a.69.69,0,0,0-.23-.11c-.12,0-.19.13-.23.4l-.11.28a2,2,0,0,1-.43.23l-.17-.06h-.12c-.22,0-.34.09-.34.26l.17.28v.06c0,.27-.15.4-.45.4a6.07,6.07,0,0,0-1.83,1.06l-.82.17-.69.37a1.14,1.14,0,0,0-.43-.2l-.45.14-.83.06s-.36-.19-1-.57a2.53,2.53,0,0,1-1.21-1.14,7.74,7.74,0,0,0-.51-1.16,2.23,2.23,0,0,1-.32-.81,5.94,5.94,0,0,1,.23-2,6.6,6.6,0,0,0,.29-.87,1.47,1.47,0,0,1,.32-.62,2.45,2.45,0,0,0,.44-1.07,14.16,14.16,0,0,1,1.15-2,2.72,2.72,0,0,0,.48-.91l.37-.51a1.39,1.39,0,0,0,.17-.45c.08-.25.17-.4.29-.44a1.62,1.62,0,0,0,.23-.51c0-.55-.25-.83-.74-.83-.1,0-.2.1-.32.3a1.67,1.67,0,0,1-.78.59,3.73,3.73,0,0,0-.76.42,2.22,2.22,0,0,1-.61.36,1.93,1.93,0,0,0-.81.67l-.49.23c-.15.36-.29.56-.4.6l-1.05.28a1.47,1.47,0,0,0-.29.34.76.76,0,0,1-.65.32,7,7,0,0,0-.69.79,2.59,2.59,0,0,0-.6.23l-.57.14a2.8,2.8,0,0,0-.5.55,1.19,1.19,0,0,1-1,.37c-.28,0-.43-.23-.43-.69a2.74,2.74,0,0,1,1-2.22,3.4,3.4,0,0,1,1.44-.88.66.66,0,0,0,.57-.34.92.92,0,0,1,.55-.48,3.07,3.07,0,0,0,1-.82,3,3,0,0,1,1.27-.87Z"/></g></g></g></svg>