<svg viewBox="0 0 230.3 276.81" xmlns="http://www.w3.org/2000/svg"><path d="m47.8 6.28 167.11 106.72a30.1 30.1 0 0 1 0 50.73l-167.11 106.79c-20 12.8-46.3-1.59-46.3-25.36v-213.51c0-23.78 26.27-38.17 46.3-25.37z" fill="none" stroke="#92e340" stroke-miterlimit="10" stroke-width="3"/><g fill="#92e340"><path d="m84.09 138.75a7.1 7.1 0 0 1 -7.09 7.14h-16.74a7.44 7.44 0 0 1 -2.4-.39 7.1 7.1 0 0 1 -2.37.39h-16.68a7 7 0 0 1 -7.14-7.14v-26.23a4.75 4.75 0 1 1 9.5 0v23.83h12v-23.83c0-1.67 1.59-3.26 4.73-4.77a4.71 4.71 0 0 1 4.77 4.77v23.83h11.91v-23.83a4.76 4.76 0 1 1 9.51 0z"/><path d="m121.07 141.12a4.78 4.78 0 0 1 -9.55 0v-23.83h-14.32v23.83a4.75 4.75 0 1 1 -9.5 0v-59.24a4.75 4.75 0 1 1 9.5 0v25.87h16.69a6.94 6.94 0 0 1 5.08 2.09 6.8 6.8 0 0 1 2.1 5z"/><path d="m158 160.21a6.76 6.76 0 0 1 -2.1 5 6.91 6.91 0 0 1 -5.08 2.1h-21.41a4.78 4.78 0 0 1 0-9.55h19.05v-11.87h-16.68a7 7 0 0 1 -7.14-7.14v-26.23a4.75 4.75 0 1 1 9.5 0v23.83h14.32v-23.83a4.84 4.84 0 0 1 1.4-3.45 4 4 0 0 1 3.37-1.32q4.78.41 4.78 4.77z"/><path d="m64.49 179a3 3 0 1 1 -5.92 0v-14.82h-7.45v14.82c0 1-1 2-3 3a2.92 2.92 0 0 1 -3-3v-14.82h-7.38v14.82a3 3 0 1 1 -5.92 0v-16.32a4.42 4.42 0 0 1 4.45-4.45h10.4a4.62 4.62 0 0 1 1.47.24 4.9 4.9 0 0 1 1.5-.24h10.36a4.47 4.47 0 0 1 4.45 4.45z"/><path d="m84.56 182h-13.37a4.37 4.37 0 0 1 -4.45-4.45v-14.87a4.42 4.42 0 0 1 4.45-4.45h11.87a4.33 4.33 0 0 1 3.17 1.31 4.24 4.24 0 0 1 1.31 3.14v4.48a4.36 4.36 0 0 1 -1.31 3.17 4.42 4.42 0 0 1 -3.17 1.28h-10.39v4.45h11.89a3 3 0 0 1 3 3 3 3 0 0 1 -3 2.94zm-3-14.85v-3h-8.89v3z"/><path d="m121 152.94a14.1 14.1 0 0 1 -14.28 14.28h-4.72v9.47a5 5 0 0 1 -1.55 3.72 4.51 4.51 0 0 1 -3 1.25 4.92 4.92 0 0 1 -5-5v-14.17a4.77 4.77 0 0 1 4.77-4.77h9.55a4.48 4.48 0 0 0 3.34-1.4 4.6 4.6 0 0 0 1.39-3.38v-35.65h-9.84a4.94 4.94 0 0 1 -5-4.94 4.71 4.71 0 0 1 4.77-4.61h5.33c5.74 0 9.86 2.41 12.3 7.18a20 20 0 0 1 2 7.14zm-23.8 51.44a9.49 9.49 0 1 1 0-19 9.17 9.17 0 0 1 6.74 2.79 8.89 8.89 0 0 1 2.79 6.66 9.42 9.42 0 0 1 -9.53 9.55z"/></g></svg>