<svg viewBox="0 0 398.41 351" xmlns="http://www.w3.org/2000/svg" xmlns:xlink="http://www.w3.org/1999/xlink"><clipPath id="a" transform="translate(0 -.43)"><path d="m59.53 43.09c63.16-31.74 189-65 265.18-24.1 89.07 47.85 77.61 123.2 67.17 173.56-25.18 121.39-169.65 196.86-257.65 140-91.6-59.11-205.18-223.9-74.7-289.46z"/></clipPath><path d="m58.87 43.41c63-31.66 188.55-64.86 264.54-24 88.85 47.74 77.42 122.9 67 173.14-25.11 121.1-169.24 196.38-257 139.7-91.41-59.04-204.7-223.44-74.54-288.84z" fill="#92e340" transform="translate(0 -.43)"/><g clip-path="url(#a)"><path d="m195.69 142.6-1 .37z" fill="#16191a" transform="translate(0 -.43)"/><path d="m341.3 82.05-.16-.06-247 24-1.48 8.43 86.16 36.67c-8.31 7.44-14.77 20.1-14.62 41.45l-2.6-.46a1.71 1.71 0 1 0 -.59 3.37 1.72 1.72 0 1 0 -.6 3.38 1.71 1.71 0 1 0 -.59 3.37l1 .19a10.69 10.69 0 0 0 -2.53 19.7c-12.47 4.46-15.2 25.49-14.47 37.82 1 16.09 13 17.4 26.66 16.2 14.76-1.29 16.74-12.93 14.56-24.94-1.77-9.78-6.68-24.94-16.62-28.93a10.7 10.7 0 0 0 1.17-18.24l.33.06a1.72 1.72 0 0 0 .59-3.38 1.71 1.71 0 1 0 .6-3.37 1.72 1.72 0 0 0 .59-3.38l-1.09-.19c-.41-21.48 6.18-33.36 14.89-39.73l20.4 8.69-14.53 82.5.46.08c-3.52 22.69 55.4 54.16 120.42 67.37 38.38-28.31 68.83-70.35 79.16-120.14 5.39-26 11-58.61 3-90.68l-52.99-19.83z" fill="#292f30" transform="translate(0 -.43)"/><path d="m267.53 297.65c-21.16-7.65-43.94-17.29-60.53-32.92-6.76-6.36-12.18-14.52-10.6-23.52q2.87-16.23 5.72-32.45 3.64-20.74 7.3-41.49l89 37.89 46 19.6c2.42 1 5.58 3.13 8.21 3.49 1.73.24 4-.54 5.75-.82l23.55-3.7c.14-.35.28-.71.41-1.06l-7.05 1.11c-5.58.87-11.21 3.1-16.47.86l-37.36-15.9-111.05-47.28c.16-.9.31-1.8.47-2.71l95.28 40.56 42.2 18c1.81.77 4.25 2.4 6.23 2.65 2.22.28 5.32-.84 7.5-1.18l23.1-3.64c.12-.35.24-.7.35-1.05l-5.94.93c-4.72.75-9.43 1.58-14.15 2.23a5 5 0 0 1 -3.58-.44c-11.28-4.56-22.4-9.54-33.58-14.3l-111.65-47.51 13.15-.12 74.56-.65 18.33-.16a7.34 7.34 0 0 0 1.83-.32 144.22 144.22 0 0 0 16.55 4.67c12 2.42 25.18 3.5 37.17.39 3.2-.83 11.73-2.22 13.36-5.89l6 1.05c.12-1.3.23-2.62.32-3.94l-7.2-1.27a1.77 1.77 0 0 0 -.17-.24c-3-3.84-8.58-6-13-7.74a121.48 121.48 0 0 0 -22.54-6.16c-9.84-1.51-19.52.19-29 2.7l-47.45-8.32-57.72-10.16-2.82-.5c-1.37-.24-2.89.44-4.41 1.15-2.23.28-4.48.58-4.61 1.26q-1.69 9.66-3.4 19.32c-.73.11-1.47.23-2.19.37a99.6 99.6 0 0 0 -13.28 3.26l-56.4-24c-10.46-4.45-20.88-9.58-31.57-13.52l80.35-7.88 135.67-13.23 15.83-1.54a14.43 14.43 0 0 1 2.88-.12c.22 0 .44.07.69.13 3.55.85 7.11 2.65 10.52 3.93l20.7 7.74 26.38 9.85c-.48-2.15-1-4.3-1.63-6.44l-2.54-.93-40.39-15.1c-1.49-.55-3.27-1.56-4.86-1.75h-.28c-2.89-.33-6.48.63-9.37.91l-126.36 12.25c-36.42 3.54-72.85 6.95-109.25 10.63l-1.75.17a4.37 4.37 0 0 0 -2.46.45c-2.67.57-6.58 1.52-6.66 2-.33 1.83-2.19 7.14-1.28 8.52.34.51 2.22.95 2.76 1.18l14.16 6 54 23 15.08 6.42c-11.16 10-14.43 25.47-14.62 40.09-.65.18-1.32.34-2 .53-.41.12-.87.22-1.3.38a1.82 1.82 0 0 0 -1.31 1.38c-.14.79.4 1.37 1.26 1.82l-.54.18a1.78 1.78 0 0 0 -1.3 1.37c-.14.79.39 1.38 1.26 1.82a5.05 5.05 0 0 0 -.55.18 1.83 1.83 0 0 0 -1.31 1.38c-.2 1.11.93 1.82 2.46 2.29-4.41 1.7-8 4.42-8.06 10.23a9.8 9.8 0 0 0 5.93 9.34 22.08 22.08 0 0 0 -11.06 11.56 54.79 54.79 0 0 0 -3.8 18c-.37 6-.6 13 2.91 18.2 6.53 9.59 22.34 7.09 31.81 4.57 5.15-1.37 10.47-2.54 13.56-7.34a18.91 18.91 0 0 0 2.67-10.05c2.93 4.83 7.38 8.91 11.61 12.37 8.55 7 18.27 12.52 28.13 17.4 25.14 12.44 52.42 20.9 79.93 26.28 1.51-1.09 3-2.2 4.51-3.33a344.33 344.33 0 0 1 -47-13.37zm114.15-146.52c1.61 2.17 1.66 4.46-.86 6.27a3.34 3.34 0 0 1 -.62.33l-1 .12a74.8 74.8 0 0 1 -9.47.28c-14-.37-27-3.8-40.24-8.16 2.66-.62 7.25-1.86 7.24-2.07 0-.9.22-3.08.13-4.66l.85.15zm-48.35-14.55a53.11 53.11 0 0 1 12.67.42 4.82 4.82 0 0 0 2.2-.25 4.47 4.47 0 0 1 -2.2.25 119.31 119.31 0 0 1 22.55 6.11c2 .81 4.25 1.71 6.34 2.78l-48-8.45a61.55 61.55 0 0 1 6.44-.86zm-5.87 7.31c.45.41.43 2.34.35 4h-1.58l-.78-.52c-.06-.63-.13-1.23-.11-1.12a7.56 7.56 0 0 0 -1.11-2.39c.62-.01 2.88-.28 3.23.03zm-2.36-2.72-2.6-.1c-.08-.14-.15-.28-.23-.4zm-108.1-17.24.3-1.74 31.24 5.5 68.72 12.1-3.19 1q-6.49-.27-13-.52c-18.66-.72-37.33-1.35-56-1.5-10.06-.09-20.53-.49-30.74.3q1.35-7.6 2.67-15.14zm-3 17.24c8.59-.26 17.21-.09 25.73 0 17 .19 34 .76 51 1.41l22.63.89c.41.58.79 1.16 1.14 1.76l-25 .22-19.33.17q-11.56-.31-23.14-.45c-11.22-.11-22.63-.36-33.87.54.29-1.51.55-3.02.84-4.54zm-1.28 7.29 51.48-.45c7 .26 14.05.55 21 .8 10.47.39 21 1.23 31.57 1.49.2.92-.2.79 1.72 1.43l-103.63.91c-.89 0-1.93.12-2.95.17.28-1.45.53-2.9.79-4.35zm-10.28 9.6-12.44-5.28c.77-.56 1.57-1.09 2.39-1.58 3.06 1.7 6.13 3.29 9.52 3.74l1 .41zm1.5-8.52-2.32-1h2.5zm-12.22-5.29a31.76 31.76 0 0 1 3-1.28c-4.17 1.46-2.2.18.31-.26l.66-.11q1.08-.39 2.16-.81c-.8.32-1.5.58-2.11.81.8-.13 1.59-.24 2.38-.33 2.39-.28 4.79-.48 7.2-.66l-.81 4.58-7.73.07a1.76 1.76 0 0 0 -.93-.16l-.85-.36-3.39-1.44zm-6.08 3.75 4.44 1.89.51.28c-1.15.43-2.28.9-3.38 1.41l-2.85-1.22-1-.44c.71-.66 1.48-1.3 2.28-1.92zm-61.2-23.14-18.76-8c-1.66-.71-7.27-2-8.33-3.55a4.7 4.7 0 0 1 -.06-2.94l72.18 30.72 13.15 5.6q-1.53.76-3 1.65zm56.56 30.33a30.45 30.45 0 0 0 -6.52 6.5 40.16 40.16 0 0 1 4.64-7.3zm-20.86 49.3c1.31.16 2.45.24 3 .33s1.14.22 1.68.28a11.08 11.08 0 0 1 4.95 8.89 11.6 11.6 0 0 1 -2 6.12h-.57a7.61 7.61 0 0 0 -1.16.12c-1.11.11-2.2.27-3.27.46-5.44-3.33-7-11.25-2.64-16.2zm18.51 66.23c-1.25 1.93-2.87 3-4.61 4.27-1.14.06-2.28.2-3.42.24-4.85.17-10.19 0-14.57-2.34-9-4.86-8.33-17.08-7.37-25.84a48.67 48.67 0 0 1 4.43-16.58 23.22 23.22 0 0 1 4.15-5.95l.26-.23a14.26 14.26 0 0 0 5.58-.28l1.13-.29c7.09 3 11.25 11.27 13.71 18.5 2.86 8.44 5.92 20.38.7 28.5zm10.53-37.45c-.49 2.83-1.13 5.58-1.57 8.29-2.57-8.69-7.17-17.75-15.1-20.57a10.25 10.25 0 0 0 1.73-17.91 6.94 6.94 0 0 0 .73-.24h.15-.05a2.34 2.34 0 0 0 1.35-1.37 1.86 1.86 0 0 0 -1.15-1.85l.3-.11h.14a2.34 2.34 0 0 0 1.34-1.38 1.85 1.85 0 0 0 -1.15-1.85l.3-.11h.14a2.34 2.34 0 0 0 1.35-1.37c0-1.66-1.2-2-2.48-2.19-.15-12.38 1.6-25.91 10.18-35.47l16.1 6.85q-2.27 12.8-4.51 25.58-3.98 21.78-7.81 43.7zm-12.13-21a4.49 4.49 0 0 0 1.66-.59 3.38 3.38 0 0 1 -1.71.56z" fill="#141617" transform="translate(0 -.43)"/></g></svg>