<svg viewBox="0 0 344.33 120.07" xmlns="http://www.w3.org/2000/svg"><g opacity=".98"><path d="m259.91 40.73c-13.4 0-17.1 8.6-17.1 18.62s3.7 18.74 17 18.74 17.19-8.5 17.19-18.74c0-9.91-3.7-18.62-17.09-18.62zm24.37-40.73a60 60 0 1 0 60.05 60.05 60.06 60.06 0 0 0 -60.05-60.05zm-24.48 82.55c-17.43 0-23.53-10.13-23.53-23.2s6.32-23.09 23.64-23.09 23.63 10.13 23.63 23.09c0 13.18-6.42 23.2-23.74 23.2zm65.45-1-2.25-3.14v-19.82c0-10.13-.66-17.75-11.11-17.75-6.76 0-16.78 3.37-16.78 3.37l-.11 37.36h-6.54v-44.57h4.14l1.74 2.83s12.2-3.7 19.06-3.7c14.05 0 16.23 9.25 16.23 22.43v23z" fill="#cddd54"/><g fill="#c31c78"><path d="m0 80.26v-54.43h40.08v3.17h-35.08v21.49h30.83v3.19h-30.83v23.39h35.18v3.19z"/><path d="m64.64 98.33a63.87 63.87 0 0 1 -19.56-3.51l.85-3a52.36 52.36 0 0 0 5.74 1.7 56.73 56.73 0 0 0 13.18 1.7c13.07 0 16.48-6.69 16.48-13.71v-4c-2.66.64-13.19 3.62-19.46 3.62-14.35 0-19.66-9.36-19.66-22.65s5.31-22.64 19.66-22.64c6.49 0 17.12 3.08 19.88 3.72l1.38-2.76h2.77v45.37c0 10.42-5.96 16.16-21.26 16.16zm16.69-56c-2.77-.53-12.44-3.4-18.71-3.4-12.34 0-15.74 9-15.74 19.56s3.4 19.51 15.74 19.51c6.16 0 15.94-2.76 18.71-3.4z"/><path d="m112.26 98.33a63.86 63.86 0 0 1 -19.45-3.51l.85-3a52.36 52.36 0 0 0 5.74 1.7 56.88 56.88 0 0 0 13.18 1.7c13 0 16.16-7 16.16-14v-3.73c-5.42 1.07-13.18 3.62-19.88 3.62-13.92 0-15.94-8.72-15.94-21.9v-22.43h2.87l1.7 2.87v19.66c0 10.63.85 18.82 12.22 18.82 6.49 0 13.61-2.34 18.92-3.3l.11-38h4.57v45.02c0 10.15-5.63 16.48-21.05 16.48z"/><path d="m164.25 81.11c-6.27 0-15.63-2.77-19.46-3.62v20h-4.57v-60.71h2.78l1.38 2.76c3.93-.85 13.39-3.72 19.88-3.72 14.45 0 19.66 9.67 19.66 22.64s-5.22 22.65-19.67 22.65zm-.75-42.21c-6.59 0-15.94 2.87-18.71 3.51v32.32c2.77.53 12.23 3.4 18.71 3.4 12.33 0 15.74-9.14 15.74-19.67s-3.41-19.56-15.74-19.56z"/><path d="m212 80.47a46.15 46.15 0 0 1 -6.59.74c-13.08 0-14.88-4.78-14.88-17.22l-.11-24.34h-6v-3.19h6l2.76-8.08h1.92v8.08h18v3.19h-18v24.45c0 9.35.85 14.24 11 14a40.21 40.21 0 0 0 8.72-1.49l.74 3s-1.45.39-3.56.86z"/></g></g></svg>