<svg viewBox="0 0 181.9 161" xmlns="http://www.w3.org/2000/svg"><g opacity=".98"><path d="m36.05 60.61a55 55 0 0 1 7-26.9l-.13-.13a21.75 21.75 0 0 0 -31.72 1.5c-7.92 9.31-7.09 24.88 5.88 33-2.65 1.14-5.17 2.24-7.7 3.32a22.43 22.43 0 0 0 -8.86 6.6 1.62 1.62 0 0 0 -.07 2.31c10.09 14.58 29.77 17.78 44 9.67a54.92 54.92 0 0 1 -8.4-29.37z" fill="#a6a8ab"/><path d="m181.49 78.18a22.11 22.11 0 0 0 -8.92-6.76c-2.53-1.07-5-2.18-7.69-3.32 14.41-9.09 12.89-26.45 4.4-34.52a21.76 21.76 0 0 0 -30-.27 55.18 55.18 0 0 1 -1.37 56.89c14.37 7.83 33.84 4.44 43.66-10.14a1.34 1.34 0 0 0 -.08-1.88z" fill="#a6a8ab"/><path d="m35.71 75.91a59 59 0 1 1 56.72 42.09c-1.57 0-10.61-.85-11.07 3.24-3.36 11.39 1.64 21.42-1.86 32.76-1.72 5.61-6.53 8.19-12.14 6.52-3.55-1.05-7.08-2.14-10.62-3.23-6-1.84-8.53-6.53-6.7-12.52 3.4-11.21 11.69-17.21 15.17-28.38 1.8-3.14-4.59-7.53-6-8.48a60.77 60.77 0 0 1 -19.21-20.91c-1.46-3.7-3.18-7.3-4.29-11.09zm79.59 27.42c24.67-13.14 34.08-43.58 21-67.84s-43.51-33.4-67.62-20.49a50.13 50.13 0 0 0 -20.48 67.45c12.85 24.14 43.24 33.55 67.1 20.88z" fill="#14bdef"/><path d="m104.86 70.24c3.4 1.47 6.64 2.89 9.89 4.27a28.32 28.32 0 0 1 11.47 8.69 1.7 1.7 0 0 1 .07 2.4c-16.38 24.31-53.62 24.45-70.36.27a2.09 2.09 0 0 1 .09-3 29 29 0 0 1 11.39-8.46c3.25-1.39 6.49-2.8 9.9-4.27-16.66-10.37-17.74-30.38-7.56-42.35a28 28 0 0 1 40.77-1.93c10.92 10.38 12.87 32.69-5.66 44.38z" fill="#c31c78"/><path d="m96.16 98.7-5.11 5.1-5.1-5.1 5.1-24.82z" fill="#fff"/><path d="m91.05 73.88 2.16 3.13 11.65-6.77z" fill="#fff"/><path d="m91.05 73.88-2.32 3.13-11.49-6.77z" fill="#fff"/><g fill="#c31c78"><path d="m84.85 120.91h6.78v1.82h-4.48v2.83h4.1v1.81h-4.1v3.23h4.51v1.81h-6.81z"/><path d="m93.77 123.93h2.06v1.18a3 3 0 0 1 2.52-1.38 2.48 2.48 0 0 1 2.5 1.5 2.91 2.91 0 0 1 2.65-1.5c2.09 0 2.69 1.43 2.69 3.32v5.36h-2.19v-5.06c0-.79 0-1.91-1.27-1.91-1.46 0-1.65 1.75-1.65 2.85v4.12h-2.2v-5.06c0-.79 0-1.91-1.27-1.91-1.46 0-1.64 1.75-1.64 2.85v4.12h-2.2z"/><path d="m108.43 123.93h2.11v1.2a2.9 2.9 0 0 1 2.64-1.4c2.6 0 3.56 2.07 3.56 4.41s-1 4.46-3.61 4.46a2.9 2.9 0 0 1 -2.49-1.16v4.42h-2.21zm2.23 4.21c0 1.2.47 2.75 1.94 2.75s1.86-1.58 1.86-2.75-.4-2.7-1.83-2.7-1.97 1.56-1.97 2.7z"/><path d="m118.54 120.06h2.21v12.35h-2.21z"/><path d="m127 123.73a4.25 4.25 0 0 1 4.45 4.5 4.44 4.44 0 0 1 -8.88 0 4.25 4.25 0 0 1 4.43-4.5zm0 7.16c1.7 0 2.14-1.51 2.14-2.93a2.16 2.16 0 1 0 -4.26 0c-.05 1.4.4 2.93 2.12 2.93z"/><path d="m136.65 130.12 2-6.19h2.35l-3.18 8.41c-.7 1.88-1.21 3.72-3.52 3.72a5.56 5.56 0 0 1 -1.56-.23l.14-1.63a3.25 3.25 0 0 0 1.14.15 1.38 1.38 0 0 0 1.43-1.51l-3.24-8.91h2.43z"/><path d="m142.24 123.93h2.06v1.18a3 3 0 0 1 2.52-1.38 2.47 2.47 0 0 1 2.5 1.5 2.92 2.92 0 0 1 2.66-1.5c2.09 0 2.68 1.43 2.68 3.32v5.36h-2.21v-5.06c0-.79 0-1.91-1.26-1.91-1.47 0-1.65 1.75-1.65 2.85v4.12h-2.21v-5.06c0-.79 0-1.91-1.26-1.91-1.47 0-1.65 1.75-1.65 2.85v4.12h-2.21z"/><path d="m163.71 131.93a5.79 5.79 0 0 1 -2.92.67c-2.79 0-4.43-1.61-4.43-4.39 0-2.45 1.31-4.48 3.94-4.48 3.15 0 4 2.16 4 5.12h-5.86a2.22 2.22 0 0 0 2.42 2.14 5.73 5.73 0 0 0 2.82-.85zm-1.48-4.59c-.07-1.07-.56-2-1.8-2a1.93 1.93 0 0 0 -2 2z"/><path d="m166.06 123.93h2.09v1.15a3.18 3.18 0 0 1 2.79-1.35c2 0 2.88 1.42 2.88 3.32v5.36h-2.21v-4.53c0-1 0-2.44-1.43-2.44-1.6 0-1.94 1.73-1.94 2.82v4.15h-2.21z"/><path d="m176.84 125.54h-1.63v-1.61h1.63v-1.7l2.21-.71v2.41h2v1.61h-2v4c0 .73.2 1.4 1 1.4a2 2 0 0 0 1-.23l.07 1.75a6 6 0 0 1 -1.64.19 2.49 2.49 0 0 1 -2.68-2.74z"/><path d="m84.85 136.27h6.38v1.81h-4.08v2.83h3.85v1.82h-3.85v5h-2.3z"/><path d="m93.26 139.73a7.48 7.48 0 0 1 2.94-.64c2.59 0 3.66 1.07 3.66 3.57v1.09 2.12s0 1.24.1 1.89h-1.91a11.55 11.55 0 0 1 -.1-1.26 3 3 0 0 1 -2.65 1.5 2.7 2.7 0 0 1 -3-2.52 2.51 2.51 0 0 1 1.48-2.48 6.75 6.75 0 0 1 2.85-.49h1.22c0-1.37-.61-1.83-1.91-1.83a4.43 4.43 0 0 0 -2.62.92zm2.58 6.62a1.87 1.87 0 0 0 1.55-.76 2.81 2.81 0 0 0 .46-1.74h-.95c-1 0-2.46.16-2.46 1.46 0 .69.61 1.04 1.4 1.04z"/><path d="m102.08 135.63h2.2v2.11h-2.2zm0 3.65h2.2v8.48h-2.2z"/><path d="m106.65 139.28h2v1.93a2.46 2.46 0 0 1 3-2.06v2.23a2.14 2.14 0 0 0 -1-.18c-1.8 0-1.8 2.23-1.8 3.45v3.11h-2.21z"/><path d="m2.92 121.55h5.21v26h-5.21z"/><path d="m32.61 147.14a26.23 26.23 0 0 1 -5.92.82c-8.41 0-14.25-4.2-14.25-13s5.43-13.87 14.25-13.87a17.26 17.26 0 0 1 5.88 1.07l-.38 4.4a10.64 10.64 0 0 0 -5.61-1.38c-5.36 0-8.71 4.09-8.71 9.41s3.28 9.26 8.82 9.26a14.52 14.52 0 0 0 5.69-1.08z"/><path d="m41.15 125.64h-7.44v-4.09h20.09v4.09h-7.44v21.88h-5.21z"/></g><path d="m70 139.18c-1.83 0-2.12-.81-2.12-2.46v-2.83h-.91v-.54l1.86-1.79h.54v1.19h1.74v1.14h-1.78v2.91c0 .58 0 1.24.77 1.24a4 4 0 0 0 1-.17l.28 1.06a5.59 5.59 0 0 1 -1.38.25z" fill="#fff"/><path d="m77.05 139.07-.51-.54v-2.72c0-1.18 0-2-1.17-2a3.63 3.63 0 0 0 -1.55.42v4.84h-1.51v-8.71h1.48v2.87a5.86 5.86 0 0 1 2-.54c1.95 0 2.26 1.38 2.26 3.14v3.24z" fill="#fff"/><path d="m60.81 154.3c-4.59 0-7.25-3.64-7.25-8.38 0-4.56 2.85-8.36 7.91-8.36a16.46 16.46 0 0 1 4.94.92l-.6 2.44a12.08 12.08 0 0 0 -3.68-.83c-3.7 0-4.9 2.16-5.09 4.59a9.74 9.74 0 0 1 4.08-1.1c4.09 0 6.08 2.4 6.08 5.09s-1.71 5.66-6.39 5.63zm-.07-8.3a7.35 7.35 0 0 0 -3.7 1c.06 2.81 1.55 4.9 3.77 4.9a2.76 2.76 0 0 0 2.88-3 2.73 2.73 0 0 0 -2.95-2.9z" fill="#fff"/></g></svg>