<svg viewBox="0 0 300.8 165.3" xmlns="http://www.w3.org/2000/svg" xmlns:xlink="http://www.w3.org/1999/xlink"><linearGradient id="a" gradientUnits="userSpaceOnUse" x1="106.79" x2="106.79" y1="2.47" y2="112.46"><stop offset="0" stop-color="#c31c78"/><stop offset=".42" stop-color="#c31c78"/><stop offset=".52" stop-color="#b81971"/><stop offset=".68" stop-color="#9c125f"/><stop offset=".89" stop-color="#6e0741"/><stop offset="1" stop-color="#53002f"/></linearGradient><linearGradient id="b" x1="132.79" x2="132.79" xlink:href="#a" y1="98.97" y2="108.47"/><linearGradient id="c" x1="150.42" x2="150.42" xlink:href="#a" y1="84.11" y2="92.66"/><linearGradient id="d" x1="80.1" x2="80.1" xlink:href="#a" y1="98.59" y2="108.92"/><g opacity=".98"><path d="m86.58 95.72-86.58 31.28 101.73-55.42-9.04 92.75z" fill="#15bef0"/><path d="m128.38 95.39-7.44 69.92-6.35-93.3 186.21.21-158.67 10.59 26.69 42.39z" fill="#d2db6a"/><path d="m162.81 51.9a56.22 56.22 0 0 0 -56-51.44c-1.6 0-3.23.07-4.84.2a56.22 56.22 0 0 0 -39.32 90.84l40.21-21.91a.42.42 0 0 1 .22 0 .43.43 0 0 1 .25.07.49.49 0 0 1 .21.43l-4.13 42.37c1.18.16 2.25.28 3.26.35l.94-7.32 2.75-30.49a.46.46 0 0 1 .46-.42h2.29a.45.45 0 0 1 .45.43l2 35.26.22 2.36c1.19-.11 2.4-.26 3.73-.47l-.52-9.48-2.13-31.38a.42.42 0 0 1 .14-.3.43.43 0 0 1 .33-.15l47.82.06a55.88 55.88 0 0 0 1.66-19.01z" fill="url(#a)" transform="translate(0 -.46)"/><path d="m98.93 50.55c-5.2 0-11.09 1-11 6.08a4.22 4.22 0 0 0 4.56 4.48 6.53 6.53 0 0 0 6.27-4.49 4.81 4.81 0 0 0 .24-1.53zm.91 13.36-.43-3.29h-.16a9.8 9.8 0 0 1 -8 4c-5.31.08-8.08-3.62-8.14-7.41-.1-6.34 5.48-9.89 15.61-10v-.51c0-2.17-.69-6.06-6.06-6a13 13 0 0 0 -6.79 2.06l-1.13-3.13a16.25 16.25 0 0 1 8.57-2.46c8-.13 10.06 5.31 10.14 10.56l.16 9.81a35.62 35.62 0 0 0 .53 6.27z" fill="#fff" transform="translate(0 -.46)"/><path d="m104.94 63.83-.42-26.22 4.77-.07.41 26.22zm5.38 5a3 3 0 0 1 -5.9.1 2.91 2.91 0 0 1 2.93-3 2.82 2.82 0 0 1 3 2.93" fill="#fff" transform="translate(0 -.46)"/><path d="m110.81 44.61c0-2.71-.14-4.93-.33-7.09l4.17-.07.28 4.23h.17a9 9 0 0 1 8.15-5 7.77 7.77 0 0 1 7.51 5.14h.11a10.77 10.77 0 0 1 2.87-3.46 9 9 0 0 1 5.77-1.94c3.46-.05 8.64 2.14 8.79 11.24l.24 15.44-4.66.08-.23-14.85c-.08-5-2-8-5.82-8a6.16 6.16 0 0 0 -5.56 4.43 7.53 7.53 0 0 0 -.34 2.39l.25 16.19-4.66.08-.25-15.71c-.06-4.17-2-7.18-5.58-7.12-3 .05-5.11 2.46-5.83 4.86a6.64 6.64 0 0 0 -.34 2.34l.25 15.81-4.66.07z" fill="#fff" transform="translate(0 -.46)"/><g fill="#58595b"><path d="m175.63 40.42-.76-2.59c-.22-.72-.43-1.63-.61-2.35-.18.72-.36 1.64-.56 2.35l-.73 2.58zm-3.1 2.06-.88 3.13h-2.86l3.75-12.19h3.62l3.76 12.2h-3l-.92-3.14z" transform="translate(0 -.46)"/><path d="m188.57 45.42a6.43 6.43 0 0 1 -2.46.39c-2.86 0-4.68-1.74-4.68-4.53 0-2.59 1.78-4.7 5.08-4.7a6.33 6.33 0 0 1 2.1.35l-.44 2a3.66 3.66 0 0 0 -1.54-.28 2.48 2.48 0 0 0 .05 5 4.06 4.06 0 0 0 1.57-.27z" transform="translate(0 -.46)"/><path d="m190.84 32.79h2.75v5a3.44 3.44 0 0 1 1.09-.9 3.17 3.17 0 0 1 1.43-.34c1.75 0 3.09 1.22 3.09 3.88v5.18h-2.75v-4.83c0-1.15-.39-2-1.42-2a1.46 1.46 0 0 0 -1.38 1 1.83 1.83 0 0 0 -.09.62v5.25h-2.75z" transform="translate(0 -.46)"/><path d="m202.15 45.66v-8.85h2.75v8.85zm2.85-11.31a1.37 1.37 0 0 1 -1.49 1.37 1.38 1.38 0 1 1 0-2.76 1.38 1.38 0 0 1 1.49 1.39" transform="translate(0 -.46)"/><path d="m213.2 40.25a1.6 1.6 0 0 0 -1.56-1.79 1.79 1.79 0 0 0 -1.7 1.78zm-3.2 1.88c.09 1.14 1.21 1.68 2.5 1.69a7.93 7.93 0 0 0 2.44-.36l.36 1.86a8.76 8.76 0 0 1 -3.2.54c-3 0-4.72-1.75-4.72-4.52a4.42 4.42 0 0 1 4.48-4.71c2.86 0 3.94 2.23 3.94 4.42a7.41 7.41 0 0 1 -.09 1.09z" transform="translate(0 -.46)"/><path d="m220.06 36.84 1.19 4.16a18.54 18.54 0 0 1 .5 2.16h.06c.14-.73.29-1.4.49-2.16l1.15-4.1h2.89l-3.34 8.8h-2.75l-3.2-8.85z" transform="translate(0 -.46)"/><path d="m233.41 40.29a1.59 1.59 0 0 0 -1.55-1.8 1.8 1.8 0 0 0 -1.7 1.79zm-3.24 1.87c.09 1.14 1.21 1.69 2.5 1.69a7.64 7.64 0 0 0 2.44-.36l.36 1.87a8.8 8.8 0 0 1 -3.2.54c-3 0-4.73-1.75-4.72-4.52a4.44 4.44 0 0 1 4.45-4.72c2.86 0 3.94 2.24 3.94 4.43a6.8 6.8 0 0 1 -.1 1.08z" transform="translate(0 -.46)"/><path d="m164.94 56.78h12.2v2.77h-12.2z" transform="matrix(.00174533 -.99999848 .99999848 .00174533 112.57 228.64)"/><path d="m177.17 53.93h-3.27v-2.32l9.38.02-.01 2.31h-3.33l-.01 9.88h-2.77z"/><path d="m180.02 56.8h12.2v2.77h-12.2z" transform="matrix(.00174533 -.99999848 .99999848 .00174533 127.59 243.74)"/><path d="m192.65 62.22a5.47 5.47 0 0 0 1 .06c2.5 0 4.13-1.35 4.14-4.27a3.5 3.5 0 0 0 -3.83-3.88 5.31 5.31 0 0 0 -1.25.11zm-2.75-10a25.17 25.17 0 0 1 3.73-.25 7.85 7.85 0 0 1 5 1.31 5.42 5.42 0 0 1 2.06 4.61 6.19 6.19 0 0 1 -2 4.93 8.74 8.74 0 0 1 -5.69 1.61 23.62 23.62 0 0 1 -3.13-.19z" transform="translate(0 -.46)"/><path d="m208.13 59.13-.75-2.59c-.22-.72-.44-1.63-.62-2.35-.18.72-.36 1.65-.57 2.35l-.73 2.59zm-3.13 2.06-.87 3.13h-2.83l3.75-12.2h3.62l3.76 12.21h-3l-.93-3.13z" transform="translate(0 -.46)"/><path d="m228 59.69c0-1.46-.1-3.24-.1-5h-.05c-.39 1.55-.89 3.29-1.37 4.72l-1.48 4.75h-2.15l-1.3-4.72c-.4-1.43-.81-3.17-1.1-4.76-.08 1.64-.13 3.53-.23 5l-.22 4.67h-2.56l.8-12.2h3.68l1.19 4.08c.37 1.41.75 2.93 1 4.36h.05c.35-1.41.77-3 1.17-4.38l1.31-4.05h3.6l.65 12.2h-2.7z" transform="translate(0 -.46)"/><path d="m233.05 64.37v-8.85h2.75v8.85zm2.86-11.31a1.39 1.39 0 0 1 -1.49 1.38 1.39 1.39 0 1 1 0-2.77 1.38 1.38 0 0 1 1.47 1.39" transform="translate(0 -.46)"/><path d="m238 62a5.37 5.37 0 0 0 2.37.68c.83 0 1.18-.29 1.18-.74s-.27-.67-1.3-1c-1.83-.62-2.54-1.61-2.51-2.66 0-1.65 1.41-2.9 3.6-2.89a5.93 5.93 0 0 1 2.5.51l-.49 1.9a4.32 4.32 0 0 0 -1.92-.51c-.67 0-1 .27-1 .72s.34.63 1.43 1c1.68.58 2.38 1.43 2.4 2.73 0 1.65-1.31 2.86-3.84 2.86a6.42 6.42 0 0 1 -2.92-.6z" transform="translate(0 -.46)"/><path d="m245.85 62a5.3 5.3 0 0 0 2.37.67c.83 0 1.17-.29 1.17-.74s-.27-.67-1.3-1c-1.83-.62-2.53-1.62-2.51-2.67 0-1.65 1.42-2.89 3.61-2.89a6 6 0 0 1 2.5.51l-.5 1.9a4.24 4.24 0 0 0 -1.92-.51c-.66 0-1.05.27-1.05.72s.35.64 1.43 1c1.68.58 2.39 1.43 2.4 2.74 0 1.64-1.3 2.85-3.84 2.85a6.29 6.29 0 0 1 -2.86-.62z" transform="translate(0 -.46)"/><path d="m253.71 64.41v-8.85h2.75v8.85zm2.87-11.31a1.39 1.39 0 0 1 -1.49 1.37 1.39 1.39 0 1 1 0-2.77 1.39 1.39 0 0 1 1.47 1.4" transform="translate(0 -.46)"/><path d="m261 60c0 1.52.62 2.66 1.8 2.66s1.76-1.06 1.76-2.66c0-1.32-.5-2.66-1.75-2.66s-1.81 1.34-1.81 2.66m6.4-.08a4.42 4.42 0 0 1 -4.67 4.71 4.34 4.34 0 0 1 -4.58-4.57 4.43 4.43 0 0 1 4.74-4.68 4.31 4.31 0 0 1 4.51 4.54" transform="translate(0 -.46)"/><path d="m269.13 58.41c0-1.11 0-2-.07-2.83h2.39l.12 1.21h.06a3.21 3.21 0 0 1 2.73-1.4c1.81 0 3.17 1.2 3.16 3.8v5.25h-2.76v-4.9c0-1.14-.39-1.92-1.39-1.92a1.46 1.46 0 0 0 -1.39 1 1.72 1.72 0 0 0 -.11.69v5.1h-2.75z" transform="translate(0 -.46)"/></g><path d="m136.92 104.14-7.24-5.34-1 9.7a56 56 0 0 0 8.24-4.36z" fill="url(#b)" transform="translate(0 -.46)"/><path d="m155.93 84-11 .73 5 8a57.28 57.28 0 0 0 6-8.73z" fill="url(#c)" transform="translate(0 -.46)"/><path d="m85.17 98.4-11.08 4a56 56 0 0 0 12 6.55z" fill="url(#d)" transform="translate(0 -.46)"/></g></svg>