<svg viewBox="0 0 121.55 107.51" xmlns="http://www.w3.org/2000/svg"><g fill="#92e340"><path d="m40.67 99.23a65.59 65.59 0 0 1 9.73-1.18 16.73 16.73 0 0 0 1.24-5.28c.51-3.58.39-9.39-.33-19.32a35.35 35.35 0 0 1 .31-9.71 47.53 47.53 0 0 0 -7.49 1.26c-14.5 3.83-20.47 14.66-23.05 18.46l-1.71-2.18c3.2-4.9 9.15-15 23.85-18.55a59.62 59.62 0 0 1 9.12-1.47c1.81-5.16 7.1-12 17.34-16.3a93 93 0 0 1 14.87-4.88 232.56 232.56 0 0 1 11.56-26.6c1.35-2.64 2.66-5 4-7.3-15.29-7.77-36.06-7.89-58.3-2.18-48.91 12.58-51.81 37.24-24.6 74.41 6.94 9.47 13.79 16.64 20.71 21.42.9-.23 1.81-.43 2.75-.6z"/><path d="m61.93 72.49a16.35 16.35 0 0 0 7.36-4.6 20.16 20.16 0 0 0 -11.42-4.36 44.36 44.36 0 0 0 -.33 11.19c.36 7.84-.11 13.12-1.26 17.56a42.48 42.48 0 0 1 -2.4 5.72 36.46 36.46 0 0 0 10-.94c4.86-1.25 8.3-3.24 10.5-6.14 2.48-3.2 2.92-7.47 2-11.77a20.48 20.48 0 0 0 -5.17-9.54 25.49 25.49 0 0 1 -8.78 4.39 43.19 43.19 0 0 1 -4.86 1.23l-.1-1.49a45.44 45.44 0 0 1 4.46-1.25z"/><path d="m106.62 58.94a14.48 14.48 0 0 0 1.7-6.06c.16-5.32-2.71-8.56-7.47-9.59-.85 4.23-1.95 8.07-1.85 12.14a10.51 10.51 0 0 0 1.13 4.9c1.51 2.67 4.48 1.94 6.49-1.39z"/><path d="m103.05 7.86c-5.49 10.48-10 24.75-12.46 31.38a43.57 43.57 0 0 1 7 0c2.4-11.2 5-21.37 7.69-29.94-.76-.51-1.48-.99-2.23-1.44z"/><path d="m109.78 13c-2.89 9.7-5.58 18.55-8 26.93 5.65 1.08 11.44 5.1 10.9 12.17-.39 5.2-4.28 10.18-9.2 11.45-3 .77-5 .12-6.28-1.3-3.76-4.27-1.64-12.59-.37-19.73a32.45 32.45 0 0 0 -7.52-.35 115.78 115.78 0 0 1 -6.71 14 52.87 52.87 0 0 1 -8.6 11 20.59 20.59 0 0 1 6.87 12c1.49 8.1-3.73 16.7-13.88 19.31-3.47.89-8.21 1-14.1.75a19 19 0 0 1 -7.72 4.77c8.28 3.78 17.61 4.71 28.87 1.81 22.7-5.81 43.2-26.23 46.96-54.08 2.17-16.54-1.81-29.66-11.22-38.73z"/><path d="m41.26 100.62c-.28.07-.83.23-1.47.45 1.24.79 2.49 1.5 3.75 2.14 2.51-.8 5-2 6.14-3.84a54.24 54.24 0 0 0 -8.42 1.25z"/><path d="m76.92 57.1a144.7 144.7 0 0 0 6.49-14.1 54.28 54.28 0 0 0 -12.41 4.29c-5.88 2.84-10.82 6.36-12.64 13.88a29.13 29.13 0 0 1 13.19 4.18 57.61 57.61 0 0 0 5.37-8.25z"/></g></svg>