<svg viewBox="0 0 300 81.67" xmlns="http://www.w3.org/2000/svg"><g opacity=".98"><path d="m31.28 0v19.81a31.72 31.72 0 0 1 7.29-.81 30.49 30.49 0 0 1 12.14 2.46 31.15 31.15 0 0 1 16.49 16.47 31.16 31.16 0 0 1 0 24.27 31.94 31.94 0 0 1 -6.62 9.87 57.16 57.16 0 0 1 -6.44 5h22.92v-77.07z" fill="#78c601"/><path d="m29.71 77.06v-13.31l.31.14h.08a36.26 36.26 0 0 0 3.9 1.4l.49.13a16.41 16.41 0 0 0 4 .48 15.39 15.39 0 0 0 6.17-1.24 15.94 15.94 0 0 0 8.44-8.44 15.89 15.89 0 0 0 0-12.33 16.56 16.56 0 0 0 -3.41-5.08 15.86 15.86 0 0 0 -5-3.43 15.56 15.56 0 0 0 -6.17-1.24 15 15 0 0 0 -7.52 1.86h-.06-.06a5.33 5.33 0 0 0 -.69.39h-.05c-5.08 3.36-7.55 7.7-7.55 13.27v27.4zm1-30.33a8.64 8.64 0 0 1 1.81-2.67 8.84 8.84 0 0 1 2.67-1.82 8.49 8.49 0 0 1 6.61 0 8.5 8.5 0 0 1 2.71 1.82 8.64 8.64 0 0 1 1.81 2.67 8.18 8.18 0 0 1 .68 3.32 8.38 8.38 0 0 1 -.67 3.29 8.9 8.9 0 0 1 -1.82 2.71 8.47 8.47 0 0 1 -2.71 1.81 8.49 8.49 0 0 1 -6.61 0 8.64 8.64 0 0 1 -2.67-1.81 8.9 8.9 0 0 1 -1.82-2.71 8.38 8.38 0 0 1 -.7-3.29 8.18 8.18 0 0 1 .7-3.32z" fill="#78c601"/><path d="m64.08 60.85a27.79 27.79 0 0 0 0-21.58 27.82 27.82 0 0 0 -14.72-14.71 27 27 0 0 0 -10.79-2.18 28.34 28.34 0 0 0 -6.9.84 25.88 25.88 0 0 0 -3.79 1.25v-24.47h-17.08v77.06h8.39v-27.25c0-6.7 3-12.12 9.07-16.11a9.44 9.44 0 0 1 1.11-.64 18.45 18.45 0 0 1 9.13-2.33 18.86 18.86 0 0 1 7.5 1.53 19.15 19.15 0 0 1 6.11 4.16 19.9 19.9 0 0 1 4.11 6.12 19.34 19.34 0 0 1 0 15 19.35 19.35 0 0 1 -10.22 10.25 18.86 18.86 0 0 1 -7.52 1.52 20.13 20.13 0 0 1 -4.79-.58l-.6-.16v8.49h12.15s2.79-.83 4.12-1.4a27.73 27.73 0 0 0 8.8-6 28.78 28.78 0 0 0 5.92-8.81z" fill="#004a49"/><path d="m0 0h7.39v77.06h-7.39z" fill="#78c601"/><path d="m111.93 77.58a16.36 16.36 0 0 0 6.47-1.3 16.8 16.8 0 0 0 5.28-3.59 17.26 17.26 0 0 0 3.57-5.33 16.73 16.73 0 0 0 0-12.93 17 17 0 0 0 -3.57-5.29 16.78 16.78 0 0 0 -5.28-3.56 16.2 16.2 0 0 0 -6.47-1.31 16.93 16.93 0 0 0 -4.16.51 15.23 15.23 0 0 0 -3.77 1.45l-.83.46v-12.69h-8v43h8v-2l.83.47a15.88 15.88 0 0 0 7.93 2.11zm-8.72-16.68a8.48 8.48 0 0 1 .69-3.38 8.67 8.67 0 0 1 1.87-2.78 8.76 8.76 0 0 1 2.75-1.87 8.38 8.38 0 0 1 3.41-.69 8.52 8.52 0 0 1 3.38.69 8.62 8.62 0 0 1 2.78 1.87 8.83 8.83 0 0 1 1.91 2.78 8.7 8.7 0 0 1 0 6.79 9 9 0 0 1 -1.87 2.75 9 9 0 0 1 -2.78 1.87 8.69 8.69 0 0 1 -3.38.69 8.55 8.55 0 0 1 -3.41-.69 8.89 8.89 0 0 1 -4.62-4.62 8.41 8.41 0 0 1 -.73-3.41z" fill="#004a49"/><path d="m131.73 44.7v31.41.94h8.15v-.94-31.41h-.73-6.69z" fill="#004a49"/><path d="m170.9 77.04v-7.91h-16.4l15.97-17.77v-6.66h-26.49v7.11h15.5l-16.42 17.83v7.41z" fill="#004a49"/><path d="m208.13 67.43a16.63 16.63 0 0 0 0-12.94 17.48 17.48 0 0 0 -3.56-5.32 16.68 16.68 0 0 0 -5.29-3.59 16.16 16.16 0 0 0 -6.47-1.31 15.75 15.75 0 0 0 -7.88 2l-.84.47v-2.04h-8v37h8v-6.5l.83.46a15.8 15.8 0 0 0 3.73 1.45 17.42 17.42 0 0 0 4.16.5 16.33 16.33 0 0 0 6.47-1.3 16.71 16.71 0 0 0 8.85-8.85zm-7.29-3.09a8.62 8.62 0 0 1 -1.84 2.78 8.83 8.83 0 0 1 -2.81 1.88 8.48 8.48 0 0 1 -3.38.69 8.62 8.62 0 0 1 -3.41-.69 9 9 0 0 1 -2.75-1.87 9 9 0 0 1 -1.87-2.78 8.72 8.72 0 0 1 0-6.8 9 9 0 0 1 1.87-2.74 8.87 8.87 0 0 1 2.75-1.87 8.7 8.7 0 0 1 6.79 0 8.67 8.67 0 0 1 2.81 1.86 8.83 8.83 0 0 1 1.87 2.74 8.72 8.72 0 0 1 0 6.8z" fill="#78c601"/><path d="m135.77 34.05a3.31 3.31 0 0 1 2.44 1 3.13 3.13 0 0 1 1 2.38 3.4 3.4 0 0 1 -3.42 3.41 3.11 3.11 0 0 1 -2.37-1 3.26 3.26 0 0 1 -1-2.43 3.28 3.28 0 0 1 3.35-3.35m0-1.75a5 5 0 0 0 -5.09 5.1 5 5 0 0 0 1.47 3.65 4.89 4.89 0 0 0 3.62 1.5 5.14 5.14 0 0 0 5.16-5.15 4.85 4.85 0 0 0 -1.51-3.62 5 5 0 0 0 -3.65-1.48z" fill="#004a49"/><g fill="#78c601"><path d="m216.66 34.05a3.29 3.29 0 0 1 2.43 1 3.13 3.13 0 0 1 1 2.38 3.38 3.38 0 0 1 -3.41 3.41 3.13 3.13 0 0 1 -2.38-1 3.29 3.29 0 0 1 -1-2.43 3.28 3.28 0 0 1 3.35-3.35m0-1.75a5.05 5.05 0 0 0 -5.1 5.1 5 5 0 0 0 1.45 3.64 4.87 4.87 0 0 0 3.62 1.5 5.12 5.12 0 0 0 5.15-5.15 4.87 4.87 0 0 0 -1.5-3.62 5 5 0 0 0 -3.65-1.48z"/><path d="m212.61 44.7v31.41 1.11h8.15v-1.11-31.41h-.73-6.69z"/><path d="m232.09 35.55v-1.52h-8.15v1.52 40.56.92h8.15v-.92z"/><path d="m243.41 35.55v-1.52h-8.15v1.52 40.56.92h8.15v-.92z"/><path d="m247.89 54.43a16.73 16.73 0 0 0 0 12.93 16.84 16.84 0 0 0 3.6 5.32 17.07 17.07 0 0 0 5.32 3.6 16.56 16.56 0 0 0 14.36-.72l.82-.45v1.89h7.91v-32.3h-7.9v2l-.82-.44a16.82 16.82 0 0 0 -7.89-2 16.16 16.16 0 0 0 -6.47 1.31 17.25 17.25 0 0 0 -5.32 3.56 16.71 16.71 0 0 0 -3.61 5.3zm7.36 3.09a8.64 8.64 0 0 1 1.86-2.78 8.82 8.82 0 0 1 2.75-1.87 8.72 8.72 0 0 1 6.8 0 8.66 8.66 0 0 1 4.64 4.65 8.7 8.7 0 0 1 0 6.79 8.85 8.85 0 0 1 -1.86 2.75 9.07 9.07 0 0 1 -2.78 1.87 8.69 8.69 0 0 1 -3.38.69 8.47 8.47 0 0 1 -3.42-.7 9 9 0 0 1 -2.75-1.86 8.85 8.85 0 0 1 -1.86-2.75 8.7 8.7 0 0 1 0-6.79z"/><path d="m300 52.2v-7.93a16.69 16.69 0 0 0 -8.77 2.5v-2.07h-8.15v32.3h8.15v-16.35a8.72 8.72 0 0 1 8.77-8.45z"/></g></g></svg>