<svg viewBox="0 0 157.77 166.05" xmlns="http://www.w3.org/2000/svg"><g opacity=".98"><path d="m63 29.31a39.16 39.16 0 1 0 31.63-.14v14.9a26 26 0 0 1 10.59 20.86 26.28 26.28 0 1 1 -42.22-20.79z" fill="#8bc53f"/><path d="m87 64.65a8.11 8.11 0 1 0 -8.07 8.14 8.1 8.1 0 0 0 8.07-8.14z" fill="#4d4d4d" fill-rule="evenodd"/><path d="m87.06 7.44c-.01-3.09-3.71-7.44-8.25-7.44s-8.19 4.56-8.18 7.51l.15 38.66c0 2.82 3.7 6.74 8.24 6.72s8.19-4.53 8.19-6.78zm-8.06 42.85c-3.36 0-6.08-3.53-6.09-6.06l-.13-34.86c0-2.66 2.7-6.75 6-6.76s6.09 3.92 6.1 6.71l.12 34.86c.06 2.03-2.65 6.09-6 6.11z" fill="#4d4d4d"/><path d="m.35 158.8a6.53 6.53 0 1 0 6.5-6.56 6.53 6.53 0 0 0 -6.5 6.56z" fill="#8bc53f" fill-rule="evenodd"/><g fill="#4d4d4d"><path d="m6.8 114.66c-3.19 0-6.8 2-6.8 5.22l.12 25.5c0 4 3.65 5.44 6.84 5.43s6.67-1.79 6.67-5.48v-25.5c0-3.83-3.63-5.18-6.83-5.17zm.2 34.22c-2.65 0-4.81-1.23-4.81-4.19l-.19-23.21a4.54 4.54 0 0 1 4.77-4.93c2.65 0 4.82 1.25 4.82 4.89l.1 23.22c.03 2.99-2.09 4.22-4.69 4.22z"/><path d="m44.65 114.64h-19.08c-5.16 0-6.75 2-6.75 6.58v37.9a6.58 6.58 0 0 0 6.67 6.73 6.46 6.46 0 0 0 6.6-6.73v-31.12h12.48c3.86 0 4.79.93 4.79 4.83v26.38a6.57 6.57 0 0 0 6.69 6.79 6.48 6.48 0 0 0 6.62-6.66v-26.26c0-11.65-6.62-18.44-18.02-18.44zm16.08 43.68c0 3.8-.88 5.7-4.68 5.7s-4.76-1.92-4.76-5.78v-26.36c0-3.9-1.93-5.86-5.78-5.86h-15.26v32.15c0 3.85-.91 5.78-4.76 5.78s-4.69-1.95-4.69-5.78v-36.91c0-3.21 1.4-4.75 4.77-4.75h19.08c9.43 0 16.08 6.25 16.08 16.61z"/><path d="m79.77 132.85v6.36h20.84v-13.21h-14c-4.81 0-6.84 3-6.84 6.85zm19 4.47h-17v-4.47c0-3.37 1.37-5 4.85-5h12.13z"/><path d="m105.39 114.64h-18.93c-12.77 0-18.15 5.92-18.15 18.44v26.23c0 3.8 2.3 6.74 6.75 6.74s6.54-3 6.54-6.82v-8.67h17.15v8.67c0 4.47 2.51 6.82 6.75 6.82s6.51-2.43 6.51-6.82v-38c-.01-4.23-2.4-6.59-6.62-6.59zm4.71 43.55c0 3.85-.87 5.77-4.6 5.77s-4.81-1.92-4.81-5.77v-9.57h-20.88v9.57c0 3.85-.91 5.77-4.71 5.77s-4.78-1.9-4.78-5.7v-25.18c0-10.74 5.52-16.57 16.18-16.57h17.9c3.51 0 5.7 1.46 5.7 4.75z"/><path d="m152.07 114.68h-16.12c-13 0-18.15 5.68-18.15 18.44v26.23c0 3.8 2 6.74 6.75 6.74 4.44 0 6.55-1.92 6.55-5.77v-26.42c0-3.91 1.09-6 5-6h21.71v-6.68c-.04-3.71-1.94-6.54-5.74-6.54zm3.76 11.23h-20.83c-3.88 0-5.82 3-5.82 6.94v26.38c0 3.33-1.45 4.69-4.67 4.69-2.94 0-4.72-1.6-4.72-4.61v-26.23c0-11.14 5.19-16.49 16.12-16.49h14.18c3.8 0 5.7.88 5.7 4.63z"/></g></g></svg>