<svg viewBox="0 0 397.42 351.44" xmlns="http://www.w3.org/2000/svg" xmlns:xlink="http://www.w3.org/1999/xlink"><clipPath id="a" transform="translate(-.48)"><path d="m59 43.67c63.17-31.74 189-65 265.18-24.1 89.07 47.85 77.61 123.19 67.17 173.55-25.18 121.4-169.65 196.86-257.65 140-91.58-59.12-205.16-223.9-74.7-289.45z"/></clipPath><path d="m59.35 43c63-31.66 188.55-64.87 264.54-24 88.85 47.73 77.42 122.89 67 173.13-25.11 121.1-169.24 196.38-257 139.7-91.39-59.05-204.7-223.45-74.54-288.83z" fill="#92e340" transform="translate(-.48)"/><g clip-path="url(#a)"><path d="m252.5 235.68s42.87-34.68 91.5-48.16l-47.34-15.39 24.88-42.27s-76.77 13.23-115.55 53z" fill="#292f30" transform="translate(-.48)"/><path d="m257.3 234.4c26.37-21.26 58.27-38.75 90.84-48a4.88 4.88 0 0 0 .65-.2l-25.09-8.15-16.05-5.22c-1-.34-5.87-1.34-6.08-2.22-.12-.51 1.36-2.31 1.63-2.77l3.54-6 9.16-15.56 8.4-14.28c.65-1.11 2.31-3 1.55-3.37-1.15-.61-5.92 1.19-7.11 1.45-4.72 1-9.42 2.2-14.1 3.43a391.28 391.28 0 0 0 -38.49 11.83c-15.62 5.83-30.9 13-44.79 22.24-3.47 2.31-6.85 4.77-10.1 7.39-1.52 1.22-3 2.48-4.48 3.78-1.12 1-5 3.55-5.15 4.87-.16 1.14-.23.27.5 1.54a24.68 24.68 0 0 0 3 3.41l42.56 48.43c1 1.15 8.68-3.63 9.61-2.57l-44-50c-.5-.56-2.19-1.92-2.34-2.65-.29-1.46 5.58-5.73 6.88-6.84a150.52 150.52 0 0 1 24.43-16.82c16.5-9.27 34.28-16.21 52.36-21.67.71-.21 21.23-6.63 22-5.13.17.35-1.73 2.94-1.95 3.31l-4.57 7.75-11.21 19.05-4.4 7.48c-.49.83-2.51 3.18-2.45 4.15.08 1.15 6 2.38 7.37 2.82l37 12c2.92 1 3.37.67-.31 1.77-6.2 1.85-12.3 4-18.3 6.44a308.05 308.05 0 0 0 -70.12 40.91c2.31-1.91 7.23-.68 9.61-2.6z" fill="#16191a" transform="translate(-.48)"/><path d="m220 350.9c33.61-4 67.77-18.76 96.87-41.61-57-82.07-140.85-203-150.07-216.06-9.44-13.36-10.09-27.06-25.48-34.47-16.2-7.76-80.24 33.54-84.51 53.8a8.12 8.12 0 0 0 .13 4.29c5.4 15.94 20.71 29.59 30.26 43.29q18.27 26.21 36.52 52.44 37.26 53.52 74.53 107 10.91 15.66 21.75 31.32z" fill="#292f30" transform="translate(-.48)"/><path d="m193.6 318.9a361.14 361.14 0 0 0 89.52-65.2c-14.48-20.55-29.34-41.62-43.38-61.56-22 10.53-44.64 25.77-63 41.48q-13.62 11.64-26.15 24.44l42.56 60.16z" fill="#292f30" transform="translate(-.48)"/><path d="m225.25 350.2-23.8-34.2a359.26 359.26 0 0 0 71.64-49.63q2.58-2.29 5.11-4.64 17.49 25.2 35 50.41c2.5-1.88 4.95-3.82 7.38-5.81l-35.49-51.12.35-.34 1.25-1.24q2.44-1.2.13-2.81c-1.38-3.34-4.64-6.59-6.71-9.53q-3.64-5.17-7.3-10.36l-28.26-40.1c-.14-.19-1.76.18-3.64.7q-31.18-45-62.44-89.86c-4.55-6.53-9.21-12.88-12.77-20-4.55-9.17-8.61-18.36-18.08-23.44-4.19-2.26-8.58-1.87-13.1-.87-1.45.32-2.88.67-4.31 1 .06-.26-5.57 1.22-4.56 1.27a132.46 132.46 0 0 0 -29.52 12.9c-13.18 7.73-26.34 17-36.46 28.54-3.24 3.69-6.52 7.9-7.66 12.78-.73 5.32 2.69 10.8 5.38 15.19a127.17 127.17 0 0 0 10.35 14.09c7.54 9.19 14.7 18.37 21.5 28.13q24.45 35.09 48.87 70.17l10.49 15.06-1.51 1.51q-2.57 1.28-.17 3c1.06 3.21 4.92 7 6.9 9.75l6.9 9.76q14 19.85 28.08 39.7c.28.4 1.84-.1 3.61-.78l22.3 32q5.29-.43 10.54-1.23zm-105.25-151.2-23.4-33.6c-6.64-9.53-14-18.28-21.25-27.35-5.35-6.69-15-17.55-13.7-26.77 2.6-11.1 14.49-20.23 22.92-26.88 11.9-9.4 25.15-17.79 39.25-23.54 1.28-.53 2.58-1 3.88-1.47a20.06 20.06 0 0 1 5.94-.18c7.8 1.16 14 8.83 17.57 15.26 3.89 7 6.81 14.28 11.4 20.86l3.64 5.21q32.91 47.13 65.61 94.41c-25.79 12.87-49.32 29.88-70.53 49.33-2 1.84-4 3.7-6 5.58q-17.65-25.42-35.33-50.86zm46.95 67.42-8.71-12.51q1.89-1.91 3.83-3.79 4.38-4.27 8.89-8.41a315.49 315.49 0 0 1 62.17-45l19.84 28.6 22.53 32.46c-1.15 1.12-2.3 2.24-3.46 3.34-2.8 2.66-5.65 5.26-8.53 7.83a361 361 0 0 1 -63.36 45.14z" fill="#16191a" transform="translate(-.48)"/></g></svg>