<svg viewBox="0 0 228.4 150.08" xmlns="http://www.w3.org/2000/svg"><g opacity=".98"><path d="m.41 101.62h11.26l-.19 47.82-11.07-.04z" fill="#808184"/><path d="m41.24 101.62-.16 26.48a23 23 0 0 1 -5.88 15.47 19.72 19.72 0 0 1 -6.36 4.7 18.05 18.05 0 0 1 -7.84 1.73h-5.2l.05-11.65h5.2a8.94 8.94 0 0 0 6.82-2.94 10.39 10.39 0 0 0 2.79-7.31l.15-26.44z" fill="#808184"/><path d="m96.2 101.91v12.71l-36.55-.15a2.55 2.55 0 0 0 -1.69.64 2.11 2.11 0 0 0 -.77 1.69 2.52 2.52 0 0 0 .76 1.75 2.26 2.26 0 0 0 1.68.82l17.62.08a14.61 14.61 0 0 1 5.88 1.19 15.59 15.59 0 0 1 4.83 3.22 14.84 14.84 0 0 1 3.25 4.74 14.46 14.46 0 0 1 1.14 5.84 15.4 15.4 0 0 1 -1.19 5.94 14.9 14.9 0 0 1 -3.29 4.89 15.17 15.17 0 0 1 -4.87 3.24 14.88 14.88 0 0 1 -5.9 1.14l-33.19-.13v-12.6l33.2.14a2.5 2.5 0 0 0 2.57-2.68 2.14 2.14 0 0 0 -.75-1.63 2.54 2.54 0 0 0 -1.8-.71l-17.6-.04a15 15 0 0 1 -5.88-1.19 14.78 14.78 0 0 1 -8-8.08 15.32 15.32 0 0 1 -1.14-6 14.78 14.78 0 0 1 1.19-5.88 14.93 14.93 0 0 1 13.92-9.1z" fill="#808184"/><path d="m113.41 117.46a10.57 10.57 0 0 0 -4 7.56c-.05.47-.09.86-.12 1.16a3 3 0 0 0 .12 1.07l14.45-11.78a8.85 8.85 0 0 0 -2.29-.58 10.76 10.76 0 0 0 -8.12 2.57m19.1 13.54 7.82 9.71-4.86 4a24 24 0 0 1 -8.13 4.39 23 23 0 0 1 -9.18.89 23.24 23.24 0 0 1 -8.92-2.73 23.88 23.88 0 0 1 -7.08-5.93 23.24 23.24 0 0 1 -4.48-8.43 24.27 24.27 0 0 1 -.79-9 25.13 25.13 0 0 1 2.59-8.77 21.77 21.77 0 0 1 6.09-7.35 22.75 22.75 0 0 1 8.25-4.5 23.11 23.11 0 0 1 17.81 1.81 22.6 22.6 0 0 1 7.24 6.07l4 4.86-25.6 21.08a5.19 5.19 0 0 0 1.09.23l1.11.11a11 11 0 0 0 8.19-2.44z" fill="#808184"/><path d="m205.86 32.09a22.28 22.28 0 0 0 -.1 44.55 22.86 22.86 0 0 0 3.54-.28 30.16 30.16 0 0 1 -2.86 9.89 42.41 42.41 0 0 0 8.1-11.39 22.28 22.28 0 0 0 -8.68-42.77" fill="#d6de23"/><path d="m205.86 32.09a22.28 22.28 0 0 0 -.1 44.55 22.86 22.86 0 0 0 3.54-.28 30.16 30.16 0 0 1 -2.86 9.89 42.41 42.41 0 0 0 8.1-11.39 22.28 22.28 0 0 0 -8.68-42.77z" fill="none" stroke="#fff" stroke-miterlimit="10" stroke-width=".63"/><path d="m99.31 51.22a22.17 22.17 0 0 0 17.38 40.16 43.71 43.71 0 0 0 12.31 4.84 30.34 30.34 0 0 1 -7.58-6.62c.62-.33 1.24-.68 1.83-1.06a22.16 22.16 0 1 0 -23.94-37.32" fill="#bbbdbf"/><path d="m99.31 51.22a22.17 22.17 0 0 0 17.38 40.16 43.71 43.71 0 0 0 12.31 4.84 30.34 30.34 0 0 1 -7.58-6.62c.62-.33 1.24-.68 1.83-1.06a22.16 22.16 0 1 0 -23.94-37.32z" fill="none" stroke="#fff" stroke-miterlimit="10" stroke-width=".63"/><path d="m142.68 49.62-22.2.92a4.77 4.77 0 0 0 -4.56 5l.92 22.2a4.76 4.76 0 0 0 5 4.56l7.52-.31a23.39 23.39 0 0 1 -3.69 8.15 30.63 30.63 0 0 0 8-8.33l10.33-.48a4.77 4.77 0 0 0 4.56-5l-.91-22.2a4.79 4.79 0 0 0 -4.95-4.56" fill="#25a9e0"/><path d="m142.68 49.62-22.2.92a4.77 4.77 0 0 0 -4.56 5l.92 22.2a4.76 4.76 0 0 0 5 4.56l7.52-.31a23.39 23.39 0 0 1 -3.69 8.15 30.63 30.63 0 0 0 8-8.33l10.33-.48a4.77 4.77 0 0 0 4.56-5l-.91-22.2a4.79 4.79 0 0 0 -4.97-4.51z" fill="none" stroke="#fff" stroke-miterlimit="10" stroke-width=".63"/><path d="m184.34 2.4 25.66 14.17a6.3 6.3 0 0 1 2.46 8.53l-14.19 25.64a6.3 6.3 0 0 1 -8.53 2.46l-8.69-4.8a31 31 0 0 0 -.45 11.79c-2.6-5.39-4.16-9.87-4.6-14.56l-11.9-6.63a6.29 6.29 0 0 1 -2.46-8.53l14.17-25.61a6.3 6.3 0 0 1 8.53-2.46" fill="#25a9e0"/><path d="m184.34 2.4 25.66 14.17a6.3 6.3 0 0 1 2.46 8.53l-14.19 25.64a6.3 6.3 0 0 1 -8.53 2.46l-8.69-4.8a31 31 0 0 0 -.45 11.79c-2.6-5.39-4.16-9.87-4.6-14.56l-11.9-6.63a6.29 6.29 0 0 1 -2.46-8.53l14.17-25.61a6.3 6.3 0 0 1 8.53-2.46z" fill="none" stroke="#fff" stroke-miterlimit="10" stroke-width=".63"/><path d="m215.2 25.77a12.58 12.58 0 0 0 -6.47 24.23 17.5 17.5 0 0 1 -2.73 6.05 24 24 0 0 0 5.47-5.42 12.57 12.57 0 0 0 3.75-24.86" fill="#bbbdbf"/><path d="m215.2 25.77a12.58 12.58 0 0 0 -6.47 24.23 17.5 17.5 0 0 1 -2.73 6.05 24 24 0 0 0 5.47-5.42 12.57 12.57 0 0 0 3.75-24.86z" fill="none" stroke="#fff" stroke-miterlimit="10" stroke-width=".63"/><path d="m129.94 3.69a21.7 21.7 0 0 1 -3.36 43.08 30.06 30.06 0 0 0 1 11.47 41.87 41.87 0 0 1 -5.78-12 21.69 21.69 0 0 1 8.16-42.6" fill="#25a9e0"/><path d="m129.94 3.69a21.7 21.7 0 0 1 -3.36 43.08 30.06 30.06 0 0 0 1 11.47 41.87 41.87 0 0 1 -5.78-12 21.69 21.69 0 0 1 8.16-42.6z" fill="none" stroke="#fff" stroke-miterlimit="10" stroke-width=".63"/><path d="m142.56 28.64a16.86 16.86 0 0 1 24.38 23.09 23.16 23.16 0 0 0 7.41 5 32.65 32.65 0 0 1 -10-2.34 16.86 16.86 0 0 1 -21.74-25.76" fill="#d6de23"/><path d="m142.56 28.64a16.86 16.86 0 0 1 24.38 23.09 23.16 23.16 0 0 0 7.41 5 32.65 32.65 0 0 1 -10-2.34 16.86 16.86 0 0 1 -21.74-25.76z" fill="none" stroke="#fff" stroke-miterlimit="10" stroke-width=".63"/><path d="m166 .32-21.67.43a4.64 4.64 0 0 0 -4.54 4.72l.43 21.64a4.65 4.65 0 0 0 4.72 4.55l14.34-.29a20.82 20.82 0 0 1 -3.33 6.8 27.82 27.82 0 0 0 7-6.87l3.59-.07a4.66 4.66 0 0 0 4.55-4.73l-.39-21.64a4.65 4.65 0 0 0 -4.7-4.54" fill="#bbbdbf"/><path d="m166 .32-21.67.43a4.64 4.64 0 0 0 -4.54 4.72l.43 21.64a4.65 4.65 0 0 0 4.72 4.55l14.34-.29a20.82 20.82 0 0 1 -3.33 6.8 27.82 27.82 0 0 0 7-6.87l3.59-.07a4.66 4.66 0 0 0 4.55-4.73l-.39-21.64a4.65 4.65 0 0 0 -4.7-4.54z" fill="none" stroke="#fff" stroke-miterlimit="10" stroke-width=".63"/><path d="m197.39 67.29-20.84-2.6a4.51 4.51 0 0 0 -5 3.9l-2.6 20.84a4.51 4.51 0 0 0 3.91 5l13.8 1.72a20.13 20.13 0 0 1 -4.14 6.07 27.18 27.18 0 0 0 7.72-5.62l3.45.43a4.52 4.52 0 0 0 5-3.91l2.59-20.83a4.5 4.5 0 0 0 -3.9-5" fill="#25a9e0"/><path d="m197.39 67.29-20.84-2.6a4.51 4.51 0 0 0 -5 3.9l-2.6 20.84a4.51 4.51 0 0 0 3.91 5l13.8 1.72a20.13 20.13 0 0 1 -4.14 6.07 27.18 27.18 0 0 0 7.72-5.62l3.45.43a4.52 4.52 0 0 0 5-3.91l2.59-20.83a4.5 4.5 0 0 0 -3.89-5z" fill="none" stroke="#fff" stroke-miterlimit="10" stroke-width=".63"/><path d="m144.06 73.15a11 11 0 0 1 1.1 21.85 15.31 15.31 0 0 0 1.24 5.69 21.08 21.08 0 0 1 -3.67-5.61 11 11 0 0 1 1.33-21.9" fill="#d6de23"/><path d="m144.06 73.15a11 11 0 0 1 1.1 21.85 15.31 15.31 0 0 0 1.24 5.69 21.08 21.08 0 0 1 -3.67-5.61 11 11 0 0 1 1.33-21.9z" fill="none" stroke="#fff" stroke-miterlimit="10" stroke-width=".63"/><path d="m169.82 58.47a22.74 22.74 0 0 0 -7.68 44.82h.31c-2.94 14.7-10.3 28.23-14.48 32.59 6.85-3.28 16.95-17.18 24.86-33.37a22.74 22.74 0 0 0 -3-44.09" fill="#bbbdbf"/><path d="m169.82 58.47a22.74 22.74 0 0 0 -7.68 44.82h.31c-2.94 14.7-10.3 28.23-14.48 32.59 6.85-3.28 16.95-17.18 24.86-33.37a22.74 22.74 0 0 0 -3-44.09z" fill="none" stroke="#fff" stroke-miterlimit="10" stroke-width=".63"/><g fill="#808184"><path d="m1.24 30.83h1.51v11h-1.51z"/><path d="m5.3 33.81h1.28v1.19a3.56 3.56 0 0 1 1.2-1 3.18 3.18 0 0 1 1.42-.31 2.34 2.34 0 0 1 2.31 1.19 4.26 4.26 0 0 1 .33 1.87v5.14h-1.38v-5a2.85 2.85 0 0 0 -.21-1.19 1.33 1.33 0 0 0 -1.31-.75 2.74 2.74 0 0 0 -.78.1 2 2 0 0 0 -1 .66 1.92 1.92 0 0 0 -.43.82 5.23 5.23 0 0 0 -.11 1.21v4.2h-1.32z"/><path d="m14.4 31.57h1.37v2.24h1.28v1.1h-1.28v5.24a.57.57 0 0 0 .28.56 1.33 1.33 0 0 0 .53.08h.21.26v1.07a2.73 2.73 0 0 1 -.48.1 4.68 4.68 0 0 1 -.57.04 1.47 1.47 0 0 1 -1.28-.48 2.18 2.18 0 0 1 -.34-1.26v-5.35h-1.06v-1.1h1.08z"/><path d="m24.14 37.18a3.43 3.43 0 0 0 -.38-1.4 1.92 1.92 0 0 0 -1.83-1 2 2 0 0 0 -1.55.67 2.57 2.57 0 0 0 -.66 1.7zm-.48-3.18a3 3 0 0 1 1.21 1 3.51 3.51 0 0 1 .54 1.42 9.08 9.08 0 0 1 .12 1.76h-5.84a3.59 3.59 0 0 0 .57 2 1.92 1.92 0 0 0 1.66.74 2.14 2.14 0 0 0 1.67-.7 2.37 2.37 0 0 0 .5-.94h1.33a3.07 3.07 0 0 1 -.35 1 3.74 3.74 0 0 1 -.66.89 3.13 3.13 0 0 1 -1.51.83 4.57 4.57 0 0 1 -1.1.12 3.37 3.37 0 0 1 -2.52-1.12 4.27 4.27 0 0 1 -1-3.05 4.6 4.6 0 0 1 1-3.14 3.4 3.4 0 0 1 2.72-1.18 3.59 3.59 0 0 1 1.65.4"/><path d="m27.58 33.81h1.28v1.39a3.16 3.16 0 0 1 .77-1 2 2 0 0 1 1.42-.58h.12.31v1.42h-.22-.26a1.93 1.93 0 0 0 -1.57.66 2.31 2.31 0 0 0 -.54 1.51v4.61h-1.31z"/><path d="m33 33.81h1.28v1.19a3.56 3.56 0 0 1 1.2-1 3.18 3.18 0 0 1 1.42-.31 2.34 2.34 0 0 1 2.31 1.19 4.26 4.26 0 0 1 .33 1.87v5.14h-1.41v-5a2.84 2.84 0 0 0 -.22-1.19 1.32 1.32 0 0 0 -1.3-.75 2.82 2.82 0 0 0 -.79.1 2 2 0 0 0 -1 .66 1.94 1.94 0 0 0 -.44.82 5.33 5.33 0 0 0 -.1 1.21v4.2h-1.28z"/><path d="m43.26 40.62a1.6 1.6 0 0 0 1 .34 3.11 3.11 0 0 0 1.38-.33 1.85 1.85 0 0 0 1.12-1.79v-1.08a2.42 2.42 0 0 1 -.64.26 5.1 5.1 0 0 1 -.76.15l-.81.1a3.32 3.32 0 0 0 -1.11.31 1.2 1.2 0 0 0 -.62 1.12 1.09 1.09 0 0 0 .43.92m2.85-3.62a.74.74 0 0 0 .62-.39 1.18 1.18 0 0 0 .09-.52 1.1 1.1 0 0 0 -.49-1 2.63 2.63 0 0 0 -1.41-.32 1.78 1.78 0 0 0 -1.49.58 1.92 1.92 0 0 0 -.32.94h-1.26a2.36 2.36 0 0 1 1-2.07 3.93 3.93 0 0 1 2.16-.6 4.25 4.25 0 0 1 2.29.54 1.8 1.8 0 0 1 .88 1.67v4.62a.66.66 0 0 0 .08.34c.06.09.18.13.37.13h.2.24v1a3 3 0 0 1 -.48.11 2.83 2.83 0 0 1 -.45 0 1.11 1.11 0 0 1 -1-.49 1.79 1.79 0 0 1 -.23-.74 3.52 3.52 0 0 1 -1.19.94 3.7 3.7 0 0 1 -1.7.39 2.53 2.53 0 0 1 -1.82-.67 2.28 2.28 0 0 1 -.71-1.7 2.17 2.17 0 0 1 .7-1.73 3.25 3.25 0 0 1 1.82-.78z"/><path d="m50.9 31.57h1.37v2.24h1.28v1.1h-1.28v5.24a.57.57 0 0 0 .28.56 1.33 1.33 0 0 0 .53.08h.21.26v1.07a2.73 2.73 0 0 1 -.48.1 4.68 4.68 0 0 1 -.55 0 1.47 1.47 0 0 1 -1.28-.48 2.18 2.18 0 0 1 -.34-1.26v-5.31h-1.08v-1.1h1.08z"/><path d="m55.2 33.85h1.38v8h-1.38zm0-3h1.38v1.53h-1.38z"/><path d="m63.89 39.94a5.06 5.06 0 0 0 .5-2.25 4 4 0 0 0 -.39-1.83 2 2 0 0 0 -1.94-1.11 1.92 1.92 0 0 0 -1.78 1 4.39 4.39 0 0 0 -.52 2.25 3.83 3.83 0 0 0 .55 2.13 2 2 0 0 0 1.77.86 1.83 1.83 0 0 0 1.81-1m.84-5.33a4 4 0 0 1 1.07 3 5.26 5.26 0 0 1 -.94 3.2 3.38 3.38 0 0 1 -2.86 1.26 3.28 3.28 0 0 1 -2.66-1.12 4.43 4.43 0 0 1 -1-3 4.82 4.82 0 0 1 1-3.22 3.43 3.43 0 0 1 2.74-1.19 3.59 3.59 0 0 1 2.6 1"/><path d="m67.76 33.81h1.24v1.19a3.56 3.56 0 0 1 1.2-1 3.18 3.18 0 0 1 1.42-.31 2.34 2.34 0 0 1 2.38 1.13 4.26 4.26 0 0 1 .33 1.87v5.14h-1.4v-5a2.84 2.84 0 0 0 -.22-1.19 1.32 1.32 0 0 0 -1.3-.75 2.82 2.82 0 0 0 -.79.1 2.15 2.15 0 0 0 -1.41 1.48 5.33 5.33 0 0 0 -.1 1.21v4.2h-1.35z"/><path d="m78.06 40.62a1.6 1.6 0 0 0 1 .34 3.11 3.11 0 0 0 1.38-.33 1.85 1.85 0 0 0 1.12-1.79v-1.08a2.42 2.42 0 0 1 -.64.26 5.1 5.1 0 0 1 -.76.15l-.81.1a3.18 3.18 0 0 0 -1.1.31 1.19 1.19 0 0 0 -.63 1.12 1.09 1.09 0 0 0 .43.92m2.85-3.62a.74.74 0 0 0 .62-.39 1.18 1.18 0 0 0 .09-.52 1.1 1.1 0 0 0 -.49-1 2.61 2.61 0 0 0 -1.4-.32 1.79 1.79 0 0 0 -1.5.58 1.92 1.92 0 0 0 -.32.94h-1.26a2.36 2.36 0 0 1 1-2.07 3.93 3.93 0 0 1 2.15-.58 4.25 4.25 0 0 1 2.29.54 1.8 1.8 0 0 1 .88 1.67v4.62a.66.66 0 0 0 .08.34c.06.09.18.13.37.13h.2.24v1a3 3 0 0 1 -.48.11 2.83 2.83 0 0 1 -.45 0 1.11 1.11 0 0 1 -1-.49 1.79 1.79 0 0 1 -.23-.74 3.52 3.52 0 0 1 -1.19.94 3.7 3.7 0 0 1 -1.7.39 2.53 2.53 0 0 1 -1.82-.67 2.28 2.28 0 0 1 -.71-1.7 2.17 2.17 0 0 1 .7-1.73 3.25 3.25 0 0 1 1.83-.75z"/><path d="m85.47 30.83h1.35v11h-1.35z"/><path d="m6.31 56.08a4.63 4.63 0 0 1 -.41 2.17 3 3 0 0 1 -2.9 1.41 3.41 3.41 0 0 1 -2.12-.66 2.84 2.84 0 0 1 -.88-2.4v-.79h1.4v.79a2 2 0 0 0 .4 1.4 1.57 1.57 0 0 0 1.25.46 1.53 1.53 0 0 0 1.56-.82 5.26 5.26 0 0 0 .23-1.89v-7.39h1.47z"/><path d="m13.68 57.47a5 5 0 0 0 .49-2.25 4.17 4.17 0 0 0 -.35-1.83 2 2 0 0 0 -1.94-1.1 1.9 1.9 0 0 0 -1.78.94 4.42 4.42 0 0 0 -.56 2.27 3.85 3.85 0 0 0 .56 2.14 2 2 0 0 0 1.76.85 1.84 1.84 0 0 0 1.82-1m.84-5.33a4 4 0 0 1 1.06 3 5.19 5.19 0 0 1 -.94 3.2 3.35 3.35 0 0 1 -2.9 1.27 3.25 3.25 0 0 1 -2.61-1.12 4.4 4.4 0 0 1 -1-3 4.8 4.8 0 0 1 1-3.22 3.4 3.4 0 0 1 2.73-1.2 3.6 3.6 0 0 1 2.61 1"/><path d="m18.89 51.34v5.33a2.23 2.23 0 0 0 .19 1 1.32 1.32 0 0 0 1.31.72 1.86 1.86 0 0 0 1.87-1.26 5.35 5.35 0 0 0 .26-1.85v-3.94h1.35v8h-1.27v-1.16a2.66 2.66 0 0 1 -.6.82 2.8 2.8 0 0 1 -1.84.63 2.38 2.38 0 0 1 -2.3-1.14 3.49 3.49 0 0 1 -.33-1.64v-5.51z"/><path d="m26.42 51.34h1.28v1.39a3 3 0 0 1 .77-1 2 2 0 0 1 1.42-.58h.11.31v1.42h-.22-.22a1.93 1.93 0 0 0 -1.57.65 2.31 2.31 0 0 0 -.54 1.51v4.62h-1.34z"/><path d="m31.8 51.34h1.28v1.14a3.56 3.56 0 0 1 1.2-1 3.32 3.32 0 0 1 1.42-.31 2.34 2.34 0 0 1 2.3 1.18 4.26 4.26 0 0 1 .33 1.87v5.15h-1.33v-5.06a2.8 2.8 0 0 0 -.21-1.18 1.33 1.33 0 0 0 -1.31-.75 2.78 2.78 0 0 0 -.78.09 2 2 0 0 0 -1 .66 2 2 0 0 0 -.43.82 5.29 5.29 0 0 0 -.11 1.21v4.21h-1.36z"/><path d="m42.1 58.15a1.54 1.54 0 0 0 1 .34 3.11 3.11 0 0 0 1.38-.33 1.85 1.85 0 0 0 1.12-1.79v-1.08a2.42 2.42 0 0 1 -.64.26 5.1 5.1 0 0 1 -.76.15l-.81.11a3.12 3.12 0 0 0 -1.11.3 1.21 1.21 0 0 0 -.62 1.12 1.09 1.09 0 0 0 .43.92m2.83-3.64a.75.75 0 0 0 .63-.39 1.18 1.18 0 0 0 .09-.52 1.11 1.11 0 0 0 -.49-1 2.63 2.63 0 0 0 -1.41-.31 1.77 1.77 0 0 0 -1.49.57 1.92 1.92 0 0 0 -.32.94h-1.25a2.33 2.33 0 0 1 1-2.07 3.93 3.93 0 0 1 2.15-.58 4.34 4.34 0 0 1 2.29.54 1.82 1.82 0 0 1 .88 1.68v4.63a.62.62 0 0 0 .08.33c.06.09.18.13.37.13h.2.24v1a3 3 0 0 1 -.48.11 2.64 2.64 0 0 1 -.45 0 1.11 1.11 0 0 1 -1-.5 1.79 1.79 0 0 1 -.23-.74 3.52 3.52 0 0 1 -1.19.94 3.7 3.7 0 0 1 -1.7.39 2.53 2.53 0 0 1 -1.84-.66 2.26 2.26 0 0 1 -.71-1.7 2.14 2.14 0 0 1 .7-1.72 3.25 3.25 0 0 1 1.83-.76z"/><path d="m49.51 48.36h1.35v11h-1.35z"/><path d="m62.73 57.47a5 5 0 0 0 .5-2.25 4 4 0 0 0 -.36-1.83 2 2 0 0 0 -1.94-1.1 1.91 1.91 0 0 0 -1.78.94 4.41 4.41 0 0 0 -.55 2.27 3.85 3.85 0 0 0 .55 2.14 2 2 0 0 0 1.77.85 1.83 1.83 0 0 0 1.81-1m.84-5.33a4 4 0 0 1 1.06 3 5.25 5.25 0 0 1 -.93 3.2 3.38 3.38 0 0 1 -2.91 1.27 3.25 3.25 0 0 1 -2.61-1.12 4.4 4.4 0 0 1 -1-3 4.8 4.8 0 0 1 1-3.22 3.41 3.41 0 0 1 2.82-1.18 3.59 3.59 0 0 1 2.6 1"/><path d="m67.23 48.89a2.06 2.06 0 0 1 1.82-.69h.26.31v1.23h-.31-.18c-.41 0-.66.11-.74.32a6.25 6.25 0 0 0 -.12 1.62h1.35v1.06h-1.35v6.93h-1.34v-6.92h-1.11v-1.06h1.11v-1.26a2.35 2.35 0 0 1 .3-1.23"/><path d="m1.88 73.35a3.07 3.07 0 0 0 .43 1.52 2.75 2.75 0 0 0 2.51 1.13 4.38 4.38 0 0 0 1.48-.24 1.69 1.69 0 0 0 1.28-1.66 1.45 1.45 0 0 0 -.58-1.32 5.57 5.57 0 0 0 -1.73-.66l-1.44-.33a6.24 6.24 0 0 1 -2-.73 2.33 2.33 0 0 1 -.98-2.06 3.18 3.18 0 0 1 1-2.43 3.88 3.88 0 0 1 2.82-.95 4.76 4.76 0 0 1 2.86.83 3 3 0 0 1 1.18 2.67h-1.4a2.71 2.71 0 0 0 -.46-1.35 2.59 2.59 0 0 0 -2.22-.87 2.47 2.47 0 0 0 -1.81.56 1.77 1.77 0 0 0 -.56 1.29 1.26 1.26 0 0 0 .66 1.18 9.25 9.25 0 0 0 1.93.6l1.5.35a4.42 4.42 0 0 1 1.67.7 2.65 2.65 0 0 1 1 2.24 2.81 2.81 0 0 1 -1.29 2.61 5.67 5.67 0 0 1 -3 .79 4.42 4.42 0 0 1 -3.13-1 3.6 3.6 0 0 1 -1.12-2.87z"/><path d="m16.24 75a5.09 5.09 0 0 0 .49-2.26 4.09 4.09 0 0 0 -.35-1.82 2 2 0 0 0 -1.94-1.11 1.9 1.9 0 0 0 -1.78.94 4.43 4.43 0 0 0 -.56 2.25 3.84 3.84 0 0 0 .56 2.13 2 2 0 0 0 1.76.85 1.84 1.84 0 0 0 1.82-1m.84-5.33a4 4 0 0 1 1.06 3 5.28 5.28 0 0 1 -.93 3.21 3.4 3.4 0 0 1 -2.91 1.26 3.25 3.25 0 0 1 -2.61-1.12 4.38 4.38 0 0 1 -1-3 4.8 4.8 0 0 1 1-3.22 3.4 3.4 0 0 1 2.73-1.2 3.61 3.61 0 0 1 2.61 1"/><path d="m20.73 66.42a2.07 2.07 0 0 1 1.82-.68h.27.3v1.26h-.3-.18c-.42 0-.66.11-.74.32a5.65 5.65 0 0 0 -.13 1.62h1.35v1.06h-1.35v6.9h-1.33v-6.9h-1.11v-1.09h1.11v-1.26a2.46 2.46 0 0 1 .29-1.23"/><path d="m24.94 66.63h1.37v2.24h1.28v1.13h-1.28v5.23a.56.56 0 0 0 .28.56 1.15 1.15 0 0 0 .53.09h.21.26v1.02a3.86 3.86 0 0 1 -.49.09 4.39 4.39 0 0 1 -.54 0 1.47 1.47 0 0 1 -1.28-.48 2.17 2.17 0 0 1 -.34-1.25v-5.26h-1.08v-1.13h1.08z"/><path d="m29.87 68.88 1.54 6.32 1.57-6.32h1.51l1.57 6.28 1.64-6.28h1.35l-2.33 8.02h-1.4l-1.63-6.21-1.58 6.21h-1.4l-2.32-8.02z"/><path d="m42.09 75.68a1.54 1.54 0 0 0 1 .34 3.11 3.11 0 0 0 1.38-.33 1.85 1.85 0 0 0 1.13-1.79v-1.08a2.34 2.34 0 0 1 -.63.26 5.5 5.5 0 0 1 -.77.15l-.81.11a3 3 0 0 0 -1.1.3 1.2 1.2 0 0 0 -.63 1.12 1.09 1.09 0 0 0 .43.92m2.84-3.68a.74.74 0 0 0 .62-.39 1.18 1.18 0 0 0 .09-.52 1.09 1.09 0 0 0 -.49-1 2.6 2.6 0 0 0 -1.4-.31 1.8 1.8 0 0 0 -1.5.57 1.92 1.92 0 0 0 -.32.94h-1.26a2.36 2.36 0 0 1 1-2.07 3.93 3.93 0 0 1 2.15-.58 4.31 4.31 0 0 1 2.29.54 1.82 1.82 0 0 1 .89 1.72v4.62a.59.59 0 0 0 .09.34q.08.12.36.12h.2.24v1l-.48.12h-.45a1.13 1.13 0 0 1 -1-.49 1.9 1.9 0 0 1 -.23-.75 3.58 3.58 0 0 1 -1.18.94 3.78 3.78 0 0 1 -1.71.4 2.53 2.53 0 0 1 -1.84-.71 2.26 2.26 0 0 1 -.71-1.7 2.15 2.15 0 0 1 .7-1.72 3.33 3.33 0 0 1 1.83-.76z"/><path d="m49.5 68.87h1.29v1.39a3 3 0 0 1 .77-1 2 2 0 0 1 1.44-.57h.13.31v1.43h-.22-.22a1.94 1.94 0 0 0 -1.56.65 2.27 2.27 0 0 0 -.55 1.51v4.62h-1.39z"/><path d="m60.32 72.25a3.44 3.44 0 0 0 -.38-1.41 1.94 1.94 0 0 0 -1.83-1 2 2 0 0 0 -1.55.67 2.62 2.62 0 0 0 -.66 1.71zm-.48-3.15a3 3 0 0 1 1.21 1 3.62 3.62 0 0 1 .54 1.42 9.27 9.27 0 0 1 .12 1.77h-5.84a3.55 3.55 0 0 0 .57 2 1.92 1.92 0 0 0 1.66.71 2.1 2.1 0 0 0 1.67-.7 2.31 2.31 0 0 0 .5-.94h1.32a2.91 2.91 0 0 1 -.34 1 3.68 3.68 0 0 1 -.66.88 3.17 3.17 0 0 1 -1.51.81 4.63 4.63 0 0 1 -1.1.12 3.33 3.33 0 0 1 -2.52-1.09 4.24 4.24 0 0 1 -1-3 4.6 4.6 0 0 1 1-3.14 3.43 3.43 0 0 1 2.72-1.21 3.6 3.6 0 0 1 1.65.41"/><path d="m1.05 83.43h7.98v1.34h-6.53v3.34h6.04v1.28h-6.04v3.73h6.65v1.31h-8.1z"/><path d="m11.27 86.41h1.28v1.14a3.72 3.72 0 0 1 1.2-1 3.31 3.31 0 0 1 1.42-.3 2.3 2.3 0 0 1 2.3 1.19 4.2 4.2 0 0 1 .34 1.86v5.15h-1.38v-5.08a2.8 2.8 0 0 0 -.21-1.18 1.33 1.33 0 0 0 -1.31-.75 2.42 2.42 0 0 0 -.78.1 2.2 2.2 0 0 0 -1.42 1.46 6 6 0 0 0 -.1 1.21v4.2h-1.34z"/><path d="m24.73 88.17a2 2 0 0 0 -1.56-.71 1.93 1.93 0 0 0 -1.94 1.33 5.34 5.34 0 0 0 -.23 1.86 3.3 3.3 0 0 0 .55 2.07 1.76 1.76 0 0 0 1.47.71 2.06 2.06 0 0 0 2-1.32 4.2 4.2 0 0 0 .33-1.73 3.35 3.35 0 0 0 -.61-2.21m-.17-1.44a3.45 3.45 0 0 1 .78.76v-1h1.24v7.3a5.52 5.52 0 0 1 -.44 2.41 3.21 3.21 0 0 1 -3.15 1.62 3.82 3.82 0 0 1 -2.17-.58 2.26 2.26 0 0 1 -1-1.81h1.37a1.54 1.54 0 0 0 .39.83 2 2 0 0 0 1.43.45 2 2 0 0 0 2-1.1 6.26 6.26 0 0 0 .26-2.3 2.65 2.65 0 0 1 -1 .92 3.22 3.22 0 0 1 -1.5.3 3.18 3.18 0 0 1 -2.27-.93 4.06 4.06 0 0 1 -1-3.06 4.65 4.65 0 0 1 1-3.14 3 3 0 0 1 2.37-1.13 2.87 2.87 0 0 1 1.64.46"/><path d="m28.94 86.44h1.37v8h-1.37zm0-3h1.37v1.56h-1.37z"/><path d="m32.66 86.41h1.28v1.14a3.72 3.72 0 0 1 1.2-1 3.31 3.31 0 0 1 1.42-.3 2.33 2.33 0 0 1 2.31 1.19 4.21 4.21 0 0 1 .33 1.86v5.15h-1.37v-5.08a2.79 2.79 0 0 0 -.22-1.18 1.32 1.32 0 0 0 -1.3-.75 2.49 2.49 0 0 0 -.79.1 2 2 0 0 0 -1 .66 1.94 1.94 0 0 0 -.44.82 5.33 5.33 0 0 0 -.1 1.21v4.2h-1.32z"/><path d="m46.93 89.78a3.55 3.55 0 0 0 -.37-1.4 2 2 0 0 0 -1.84-1 2 2 0 0 0 -1.54.67 2.52 2.52 0 0 0 -.66 1.71zm-.48-3.15a3.07 3.07 0 0 1 1.22 1 3.66 3.66 0 0 1 .53 1.41 9.27 9.27 0 0 1 .12 1.77h-5.83a3.38 3.38 0 0 0 .57 2 1.88 1.88 0 0 0 1.65.74 2.14 2.14 0 0 0 1.68-.7 2.29 2.29 0 0 0 .49-.94h1.33a2.82 2.82 0 0 1 -.35 1 3.74 3.74 0 0 1 -.66.89 3 3 0 0 1 -1.51.8 4.55 4.55 0 0 1 -1.09.12 3.33 3.33 0 0 1 -2.52-1.08 4.24 4.24 0 0 1 -1-3.06 4.66 4.66 0 0 1 1-3.14 3.46 3.46 0 0 1 2.73-1.2 3.58 3.58 0 0 1 1.64.4"/><path d="m55.77 89.78a3.55 3.55 0 0 0 -.37-1.4 2 2 0 0 0 -1.84-1 2 2 0 0 0 -1.54.67 2.58 2.58 0 0 0 -.67 1.71zm-.48-3.15a3 3 0 0 1 1.21 1 3.52 3.52 0 0 1 .5 1.45 9.27 9.27 0 0 1 .12 1.77h-5.8a3.45 3.45 0 0 0 .58 2 1.88 1.88 0 0 0 1.65.74 2.14 2.14 0 0 0 1.68-.7 2.42 2.42 0 0 0 .49-.94h1.33a2.82 2.82 0 0 1 -.35 1 3.74 3.74 0 0 1 -.66.89 3 3 0 0 1 -1.51.8 4.55 4.55 0 0 1 -1.09.12 3.36 3.36 0 0 1 -2.53-1.08 4.28 4.28 0 0 1 -1-3.06 4.66 4.66 0 0 1 1-3.14 3.44 3.44 0 0 1 2.73-1.2 3.58 3.58 0 0 1 1.64.4"/><path d="m59.21 86.41h1.28v1.38a3 3 0 0 1 .77-1 2 2 0 0 1 1.42-.58h.13.3v1.42h-.22-.22a1.9 1.9 0 0 0 -1.56.66 2.25 2.25 0 0 0 -.55 1.51v4.61h-1.35z"/><path d="m64.59 86.44h1.41v8h-1.41zm0-3h1.41v1.56h-1.41z"/><path d="m68.3 86.41h1.29v1.14a3.62 3.62 0 0 1 1.2-1 3.31 3.31 0 0 1 1.42-.3 2.3 2.3 0 0 1 2.3 1.19 4.21 4.21 0 0 1 .33 1.86v5.15h-1.37v-5.08a2.8 2.8 0 0 0 -.21-1.18 1.33 1.33 0 0 0 -1.26-.75 2.42 2.42 0 0 0 -.78.1 2.2 2.2 0 0 0 -1.47 1.46 6 6 0 0 0 -.1 1.21v4.2h-1.35z"/><path d="m81.77 88.17a2 2 0 0 0 -1.56-.71 1.93 1.93 0 0 0 -1.94 1.33 5.34 5.34 0 0 0 -.27 1.86 3.36 3.36 0 0 0 .54 2.07 1.79 1.79 0 0 0 1.48.71 2.06 2.06 0 0 0 2-1.32 4.2 4.2 0 0 0 .33-1.73 3.41 3.41 0 0 0 -.61-2.21m-.17-1.44a3.67 3.67 0 0 1 .78.76v-1h1.24v7.3a5.52 5.52 0 0 1 -.44 2.41 3.22 3.22 0 0 1 -3.15 1.62 3.87 3.87 0 0 1 -2.18-.58 2.28 2.28 0 0 1 -1-1.81h1.37a1.47 1.47 0 0 0 .39.83 2.44 2.44 0 0 0 3.45-.65 6.26 6.26 0 0 0 .26-2.3 2.65 2.65 0 0 1 -1 .92 3.22 3.22 0 0 1 -1.5.3 3.16 3.16 0 0 1 -2.27-.93 4.06 4.06 0 0 1 -1-3.06 4.65 4.65 0 0 1 1-3.14 3 3 0 0 1 2.48-1.13 2.89 2.89 0 0 1 1.64.46"/></g></g></svg>