<svg viewBox="0 0 299.74 76.72" xmlns="http://www.w3.org/2000/svg" xmlns:xlink="http://www.w3.org/1999/xlink"><linearGradient id="a" gradientUnits="userSpaceOnUse" x1="-.26" x2="70.44" y1="35.32" y2="35.32"><stop offset="0" stop-color="#c31c78"/><stop offset=".18" stop-color="#bf1b75"/><stop offset=".37" stop-color="#b2186d"/><stop offset=".57" stop-color="#9e1360"/><stop offset=".76" stop-color="#810c4d"/><stop offset=".96" stop-color="#5c0234"/><stop offset="1" stop-color="#52002e"/></linearGradient><g opacity=".98"><g fill="#999"><path d="m87.18 65.66a4 4 0 0 1 1-2.94 4.23 4.23 0 0 1 3.09-1h2.5v4.05a6.42 6.42 0 0 0 .08 1.23 1.71 1.71 0 0 0 .28.69.86.86 0 0 0 .46.32 2.49 2.49 0 0 0 .65.07h.76c.3 0 .44.08.44.23v.74c0 .13 0 .2-.12.23a1 1 0 0 1 -.32 0h-1a2.73 2.73 0 0 1 -.89-.15 1.92 1.92 0 0 1 -.76-.46 2.3 2.3 0 0 1 -.54-.86 3.5 3.5 0 0 1 -.21-1.3v-3.57h-.8a9.72 9.72 0 0 0 -1.41.1 2.46 2.46 0 0 0 -1.06.42 2 2 0 0 0 -.67.88 4.3 4.3 0 0 0 -.23 1.52v2.69a5.07 5.07 0 0 1 -.34 1.83 4.64 4.64 0 0 1 -1.09 1.62 5.43 5.43 0 0 1 -1.88 1.14 7.44 7.44 0 0 1 -2.73.44 8.69 8.69 0 0 1 -2.16-.24 6.44 6.44 0 0 1 -1.61-.65 4.52 4.52 0 0 1 -1.12-.92 4.91 4.91 0 0 1 -.7-1.07 4.57 4.57 0 0 1 -.36-1.08 5 5 0 0 1 -.11-1 7.31 7.31 0 0 1 .27-2 5.14 5.14 0 0 1 .74-1.58l.5.29.5.26a5.52 5.52 0 0 0 -.55 1.41 6.21 6.21 0 0 0 -.2 1.51 4.12 4.12 0 0 0 .09.83 2.93 2.93 0 0 0 .33.86 3.21 3.21 0 0 0 .61.8 3.63 3.63 0 0 0 .95.66 5.78 5.78 0 0 0 1.35.45 8.15 8.15 0 0 0 1.81.18 5.72 5.72 0 0 0 2-.31 4.16 4.16 0 0 0 1.39-.8 3.09 3.09 0 0 0 .8-1.12 3.49 3.49 0 0 0 .26-1.29zm-6.33 10.09a.82.82 0 0 1 .23-.58.78.78 0 0 1 .57-.23.8.8 0 0 1 .56.23.78.78 0 0 1 .24.58.77.77 0 0 1 -.24.56.8.8 0 0 1 -.56.23.78.78 0 0 1 -.57-.23.8.8 0 0 1 -.23-.56zm2.54 0a.79.79 0 0 1 .8-.81.8.8 0 0 1 .56.23.78.78 0 0 1 .24.58.77.77 0 0 1 -.24.56.8.8 0 0 1 -1.36-.56z"/><path d="m95.42 69.33c-.28 0-.43-.08-.43-.23v-.73c0-.14.05-.22.13-.25a1.36 1.36 0 0 1 .3 0h3.85v-6.37h1.25v7.58zm5.35-10.89a.82.82 0 0 1 -.23.58.79.79 0 0 1 -.57.23.8.8 0 0 1 -.56-.23.78.78 0 0 1 -.24-.58.77.77 0 0 1 .24-.56.8.8 0 0 1 .56-.23.79.79 0 0 1 .57.23.8.8 0 0 1 .23.56z"/><path d="m110.35 68.87a4.57 4.57 0 0 1 -.65.24 6.5 6.5 0 0 1 -.69.14c-.23 0-.44.06-.64.08h-.51a4.67 4.67 0 0 1 -1.86-.33 3.78 3.78 0 0 1 -1.27-.9 3.42 3.42 0 0 1 -.71-1.24 4.41 4.41 0 0 1 -.22-1.37 4.51 4.51 0 0 1 .29-1.61 3.81 3.81 0 0 1 2.11-2.18 4.24 4.24 0 0 1 1.66-.32 5.33 5.33 0 0 1 .88.08 3.19 3.19 0 0 1 .86.27 3.32 3.32 0 0 1 .8.52 3.47 3.47 0 0 1 .65.83 4.42 4.42 0 0 1 .44 1.2 7 7 0 0 1 .16 1.62v1.8a6.3 6.3 0 0 1 -.46 2.56 4.35 4.35 0 0 1 -1.31 1.7 6.12 6.12 0 0 1 -2 1 14.1 14.1 0 0 1 -2.63.51l-.25-1.11a13 13 0 0 0 2.16-.39 6.85 6.85 0 0 0 1.68-.72 3.52 3.52 0 0 0 1.09-1 2.41 2.41 0 0 0 .42-1.38zm-2.19-.75a4.18 4.18 0 0 0 .59 0l.63-.1c.2 0 .39-.08.56-.13l.42-.16v-1.2a7.09 7.09 0 0 0 -.24-2 3.25 3.25 0 0 0 -.63-1.22 1.91 1.91 0 0 0 -.87-.6 3.11 3.11 0 0 0 -1-.16 2.66 2.66 0 0 0 -1 .21 2.47 2.47 0 0 0 -.85.58 2.92 2.92 0 0 0 -.56.9 3.11 3.11 0 0 0 -.22 1.16 2.84 2.84 0 0 0 .19 1 2.27 2.27 0 0 0 .57.87 2.68 2.68 0 0 0 1 .6 4.22 4.22 0 0 0 1.41.25z"/><path d="m113 72.56a5.8 5.8 0 0 0 1.77-.54 2.8 2.8 0 0 0 1.07-.9 3.22 3.22 0 0 0 .53-1.3 9 9 0 0 0 .14-1.74v-6.33h1.26v6.33h2.34c.28 0 .42.08.42.23v.74c0 .13 0 .2-.12.23a.85.85 0 0 1 -.3 0h-2.38a5.68 5.68 0 0 1 -.41 1.78 3.73 3.73 0 0 1 -.87 1.28 4.26 4.26 0 0 1 -1.38.86 9.6 9.6 0 0 1 -1.91.5z"/><path d="m119.56 69.33c-.28 0-.42-.08-.42-.23v-.73c0-.14 0-.22.13-.25a1.19 1.19 0 0 1 .29 0h2.07a2.06 2.06 0 0 0 .6-.07.66.66 0 0 0 .38-.24 1.08 1.08 0 0 0 .22-.47 3.31 3.31 0 0 0 .07-.77v-4.81h1.25v5.17a2.71 2.71 0 0 1 0 .29 2.36 2.36 0 0 1 0 .28 5.25 5.25 0 0 0 2.63.58h.1c.28 0 .42.08.42.23v.74c0 .13 0 .2-.12.23a.85.85 0 0 1 -.3 0h-.12a7.26 7.26 0 0 1 -1-.06 4.24 4.24 0 0 1 -.79-.16 2.93 2.93 0 0 1 -.65-.25 4.08 4.08 0 0 1 -.57-.34 2 2 0 0 1 -.68.59 2.39 2.39 0 0 1 -1.07.22zm3.49-10.89a.79.79 0 0 1 -.79.81.8.8 0 0 1 -.8-.81.77.77 0 0 1 .24-.56.79.79 0 0 1 .56-.23.79.79 0 0 1 .79.79zm2.54 0a.81.81 0 0 1 -.22.58.78.78 0 0 1 -.57.23.8.8 0 0 1 -.8-.81.77.77 0 0 1 .24-.56.79.79 0 0 1 .56-.23.78.78 0 0 1 .57.23.79.79 0 0 1 .22.56z"/><path d="m126.28 69.33c-.29 0-.43-.08-.43-.23v-.73c0-.14 0-.22.12-.25a1.3 1.3 0 0 1 .31 0h3.22a6.52 6.52 0 0 0 1.27-.11 2.34 2.34 0 0 0 .84-.34 1.3 1.3 0 0 0 .46-.53 1.81 1.81 0 0 0 .13-.72 2.55 2.55 0 0 0 -.25-1.09 4.77 4.77 0 0 0 -.73-1.1 9.52 9.52 0 0 0 -1.16-1.1 17.1 17.1 0 0 0 -1.54-1.1l3.83-6.57c.14.11.29.21.44.31l.43.29-3.22 5.62a8 8 0 0 1 2.42 2.11 4.11 4.11 0 0 1 .82 2.46 5.24 5.24 0 0 1 -.05.7 3.86 3.86 0 0 1 -.17.63 4.37 4.37 0 0 0 1.09.37 6.47 6.47 0 0 0 1.38.13h.09c.29 0 .43.08.43.23v.74c0 .13 0 .2-.13.23a.85.85 0 0 1 -.3 0h-.11a7.78 7.78 0 0 1 -1-.06 5.76 5.76 0 0 1 -.81-.17 3.26 3.26 0 0 1 -.66-.27 5.8 5.8 0 0 1 -.59-.36 3.18 3.18 0 0 1 -1.26.64 7.74 7.74 0 0 1 -2 .22z"/><path d="m135.07 69.33c-.3 0-.45-.08-.45-.23v-.73c0-.14 0-.22.13-.25a1.39 1.39 0 0 1 .32 0h3.23v-12.88h1.26v14.09z"/><path d="m153.77 55.24v14.09h-11.17v-1.25h4.4v-8.7h1.23v8.7h4.27v-12.84zm-4.68 16.26h-.24-.34a1.92 1.92 0 0 0 -.41 0 1.42 1.42 0 0 0 -.36.14.81.81 0 0 0 -.25.27.79.79 0 0 0 -.1.42 1 1 0 0 0 .43.85 1.9 1.9 0 0 0 1.16.31h.28v.69h-3v-.69h1.12a.93.93 0 0 1 -.19-.17 1 1 0 0 1 -.21-.27 1.5 1.5 0 0 1 -.17-.36 1.49 1.49 0 0 1 -.07-.43 1.64 1.64 0 0 1 .11-.6 1.27 1.27 0 0 1 .32-.48 1.42 1.42 0 0 1 .54-.31 2.55 2.55 0 0 1 .77-.11h.36a2.08 2.08 0 0 1 .41 0z"/><path d="m157.29 55.25h1.26v14.08h-1.26z"/><path d="m170.45 67.33a12.39 12.39 0 0 1 -1.27-1.21c-.37-.41-.69-.78-1-1.14s-.51-.66-.69-.91a5.36 5.36 0 0 0 -.43-.55c0-.14.07-.28.11-.42a3.59 3.59 0 0 1 .12-.39 1.81 1.81 0 0 1 .13-.31.28.28 0 0 1 .13-.15 4.53 4.53 0 0 1 .79-.37 9.78 9.78 0 0 1 1.07-.33 11.17 11.17 0 0 1 2.7-.33 5.31 5.31 0 0 1 1 .1 3.41 3.41 0 0 1 .95.3 1.94 1.94 0 0 1 .68.54 1.22 1.22 0 0 1 .27.79 3.92 3.92 0 0 1 -.43 1.65 7.41 7.41 0 0 1 -.78 1.27 9.64 9.64 0 0 1 -1.38 1.47 5.45 5.45 0 0 0 .84.32 9.37 9.37 0 0 0 1 .23c.34.06.7.11 1.07.14s.74 0 1.1 0h.88c.29 0 .44.08.44.23v.74a.22.22 0 0 1 -.13.23 1 1 0 0 1 -.31 0h-1.44a7.82 7.82 0 0 1 -1.57-.15 10.28 10.28 0 0 1 -1.33-.34 7.48 7.48 0 0 1 -1-.42 7 7 0 0 1 -.7-.37 11.2 11.2 0 0 0 -1.52.73 6.9 6.9 0 0 0 -1.27 1 4.09 4.09 0 0 0 -.87 1.21 3.41 3.41 0 0 0 -.11 2.67 2.67 2.67 0 0 0 .67 1 3.36 3.36 0 0 0 1.19.69 5.35 5.35 0 0 0 1.76.26h.87s.59-.07.87-.12v1.07a7.3 7.3 0 0 1 -.9.19 6.37 6.37 0 0 1 -.9.06 6.58 6.58 0 0 1 -2.25-.34 4.57 4.57 0 0 1 -1.55-.89 3.42 3.42 0 0 1 -.9-1.31 4.39 4.39 0 0 1 -.29-1.58 4.61 4.61 0 0 1 1.14-3.1 8 8 0 0 1 3.24-2.16zm3.5-3.85a.71.71 0 0 0 -.17-.46 1.46 1.46 0 0 0 -.5-.38 3.6 3.6 0 0 0 -.8-.25 5.89 5.89 0 0 0 -1.08-.09 8.07 8.07 0 0 0 -1.33.16 8.67 8.67 0 0 0 -1.87.62 5.45 5.45 0 0 0 .3.5c.13.2.28.4.45.63s.36.45.56.69.42.47.64.7a8.08 8.08 0 0 0 .66.65c.23.21.44.39.65.55a7.53 7.53 0 0 0 1-.81 8.08 8.08 0 0 0 .79-.92 5.46 5.46 0 0 0 .53-.89 1.68 1.68 0 0 0 .22-.7z"/><path d="m176.81 69.33c-.28 0-.42-.08-.42-.23v-.73c0-.14.05-.22.13-.25a1.27 1.27 0 0 1 .29 0h2.07a2.06 2.06 0 0 0 .6-.07.66.66 0 0 0 .38-.24 1.08 1.08 0 0 0 .22-.47 3.31 3.31 0 0 0 .07-.77v-4.81h1.25v5.17a2.71 2.71 0 0 1 0 .29 2.36 2.36 0 0 1 0 .28 5.28 5.28 0 0 0 2.63.58h.1c.28 0 .42.08.42.23v.74c0 .13 0 .2-.12.23a.85.85 0 0 1 -.3 0h-.13a7.26 7.26 0 0 1 -1-.06 4.24 4.24 0 0 1 -.79-.16 3.14 3.14 0 0 1 -.65-.25 4.08 4.08 0 0 1 -.57-.34 2 2 0 0 1 -.68.59 2.39 2.39 0 0 1 -1.07.22zm1.53 2.67a.77.77 0 0 1 .22-.57.74.74 0 0 1 .57-.23.8.8 0 0 1 .8.8.82.82 0 0 1 -.8.8.75.75 0 0 1 -.57-.24.78.78 0 0 1 -.22-.56zm2.53 0a.79.79 0 0 1 .8-.8.76.76 0 0 1 .56.23.75.75 0 0 1 .24.57.76.76 0 0 1 -.24.56.79.79 0 0 1 -1.13 0 .79.79 0 0 1 -.23-.56z"/><path d="m187.53 68.08a2.59 2.59 0 0 1 -.61-.58 3.53 3.53 0 0 1 -.39-.71 3.35 3.35 0 0 1 -.21-.73 4.39 4.39 0 0 1 -.06-.69 4.2 4.2 0 0 1 .3-1.59 3.85 3.85 0 0 1 .84-1.28 3.9 3.9 0 0 1 1.28-.86 4.24 4.24 0 0 1 1.61-.31 4 4 0 0 1 1.51.27 3.1 3.1 0 0 1 1.13.78 3.4 3.4 0 0 1 .71 1.25 5.33 5.33 0 0 1 .25 1.67v4h-10.37c-.28 0-.42-.08-.42-.23v-.73c0-.14 0-.22.12-.25a1.21 1.21 0 0 1 .3 0zm5.12 0v-2.35a4.52 4.52 0 0 0 -.22-1.54 2.64 2.64 0 0 0 -.57-1 2.12 2.12 0 0 0 -.84-.52 2.86 2.86 0 0 0 -1-.16 2.66 2.66 0 0 0 -1.05.21 2.59 2.59 0 0 0 -.85.57 2.78 2.78 0 0 0 -.57.88 3 3 0 0 0 -.22 1.13 2.67 2.67 0 0 0 .23 1.1 2.56 2.56 0 0 0 .62.88 3.06 3.06 0 0 0 1 .58 3.89 3.89 0 0 0 1.32.21zm-3.09-9.64a.82.82 0 0 1 -.23.58.77.77 0 0 1 -.56.23.81.81 0 0 1 -.57-.23.78.78 0 0 1 -.24-.58.77.77 0 0 1 .24-.56.81.81 0 0 1 .57-.23.77.77 0 0 1 .56.23.8.8 0 0 1 .23.56zm2.54 0a.81.81 0 0 1 -.22.58.78.78 0 0 1 -.57.23.81.81 0 0 1 -.57-.23.78.78 0 0 1 -.24-.58.77.77 0 0 1 .24-.56.81.81 0 0 1 .57-.23.78.78 0 0 1 .57.23.79.79 0 0 1 .22.56z"/><path d="m201.15 69.33a5.4 5.4 0 0 1 -2.06-.35 4 4 0 0 1 -1.35-.88 3.26 3.26 0 0 1 -.75-1.24 4.3 4.3 0 0 1 -.22-1.36 4.51 4.51 0 0 1 .29-1.61 3.78 3.78 0 0 1 2.16-2.18 4.56 4.56 0 0 1 1.73-.32 4.65 4.65 0 0 1 .82.08 3.22 3.22 0 0 1 .83.27 3.17 3.17 0 0 1 .77.52 3.24 3.24 0 0 1 .65.83 4.78 4.78 0 0 1 .44 1.2 7 7 0 0 1 .16 1.62v2.17h2.38c.3 0 .45.08.45.23v.74a.22.22 0 0 1 -.13.23 1 1 0 0 1 -.32 0h-2.51a4.4 4.4 0 0 1 -.8 1.86 4.56 4.56 0 0 1 -1.41 1.21 6.62 6.62 0 0 1 -1.87.72c-.69.16-1.44.29-2.22.39 0-.21 0-.4-.07-.59s-.05-.37-.07-.57a12.67 12.67 0 0 0 2-.34 6.75 6.75 0 0 0 1.61-.61 3.9 3.9 0 0 0 1.12-.89 2.41 2.41 0 0 0 .54-1.18zm2.24-1.25v-1.55a7.09 7.09 0 0 0 -.24-2 3.25 3.25 0 0 0 -.63-1.22 1.91 1.91 0 0 0 -.87-.6 3.11 3.11 0 0 0 -1-.16 2.51 2.51 0 0 0 -1 .23 2.63 2.63 0 0 0 -.85.62 3.09 3.09 0 0 0 -.57.92 2.64 2.64 0 0 0 -.22 1.08 3 3 0 0 0 .18 1 2 2 0 0 0 .55.86 2.52 2.52 0 0 0 1 .58 4.14 4.14 0 0 0 1.45.22z"/><path d="m206.46 69.33c-.29 0-.43-.08-.43-.23v-.73c0-.14.05-.22.13-.25a1.28 1.28 0 0 1 .3 0h2.06a2.06 2.06 0 0 0 .6-.07.66.66 0 0 0 .38-.24 1 1 0 0 0 .22-.47 3.31 3.31 0 0 0 .07-.77v-4.81h1.21v5.17a2.71 2.71 0 0 1 0 .29v.28a5.19 5.19 0 0 0 2.62.58h.1c.28 0 .42.08.42.23v.74c0 .13 0 .2-.12.23a.85.85 0 0 1 -.3 0h-.12a7.26 7.26 0 0 1 -1-.06 4.24 4.24 0 0 1 -.79-.16 3.14 3.14 0 0 1 -.65-.25 4.08 4.08 0 0 1 -.57-.34 2 2 0 0 1 -.68.59 2.39 2.39 0 0 1 -1.07.22zm3.54-10.89a.79.79 0 0 1 -.8.81.8.8 0 0 1 -.56-.23.78.78 0 0 1 -.24-.58.77.77 0 0 1 .24-.56.8.8 0 0 1 1.36.56zm2.54 0a.82.82 0 0 1 -.23.58.78.78 0 0 1 -.57.23.8.8 0 0 1 -.56-.23.78.78 0 0 1 -.24-.58.77.77 0 0 1 .24-.56.8.8 0 0 1 .56-.23.78.78 0 0 1 .57.23.8.8 0 0 1 .18.56z"/><path d="m213.18 69.33c-.29 0-.44-.08-.44-.23v-.73c0-.14 0-.22.13-.25a1.3 1.3 0 0 1 .31 0h3.24v-12.88h1.25v14.09z"/><path d="m221.2 55.25h1.26v14.08h-1.26z"/><path d="m230 72.56a6 6 0 0 0 1.77-.54 2.88 2.88 0 0 0 1.07-.9 3.36 3.36 0 0 0 .53-1.3 9.88 9.88 0 0 0 .14-1.74v-6.33h1.25v6.33h2.35c.28 0 .42.08.42.23v.74c0 .13 0 .2-.12.23a.94.94 0 0 1 -.3 0h-2.39a5.69 5.69 0 0 1 -.4 1.78 3.75 3.75 0 0 1 -.88 1.28 4.21 4.21 0 0 1 -1.37.86 9.79 9.79 0 0 1 -1.91.5zm4.65-14.12a.79.79 0 0 1 -.8.81.8.8 0 0 1 -.56-.23.78.78 0 0 1 -.24-.58.77.77 0 0 1 .24-.56.8.8 0 0 1 1.36.56z"/><path d="m236.49 69.33c-.28 0-.42-.08-.42-.23v-.73c0-.14 0-.22.12-.25a1.36 1.36 0 0 1 .3 0h2.07a2 2 0 0 0 .59-.07.72.72 0 0 0 .39-.24 1.08 1.08 0 0 0 .21-.47 3.31 3.31 0 0 0 .07-.77v-4.81h1.26v5.17a2.64 2.64 0 0 1 0 .29v.28a5.21 5.21 0 0 0 2.62.58h.1c.28 0 .42.08.42.23v.74c0 .13 0 .2-.12.23a.85.85 0 0 1 -.3 0h-.11a7.31 7.31 0 0 1 -1-.06 4.41 4.41 0 0 1 -.79-.16 3.37 3.37 0 0 1 -.65-.25 4.08 4.08 0 0 1 -.57-.34 1.87 1.87 0 0 1 -.68.59 2.39 2.39 0 0 1 -1.07.22zm1.51 2.67a.77.77 0 0 1 .22-.57.74.74 0 0 1 .57-.23.77.77 0 0 1 .57.23.75.75 0 0 1 .24.57.76.76 0 0 1 -.24.56.78.78 0 0 1 -.57.24.75.75 0 0 1 -.57-.24.78.78 0 0 1 -.22-.56zm2.54 0a.79.79 0 0 1 1.35-.57.72.72 0 0 1 .25.57.73.73 0 0 1 -.25.56.79.79 0 0 1 -1.35-.56z"/><path d="m246 68.08a3.1 3.1 0 0 1 -.45.62 1.78 1.78 0 0 1 -.53.38 2.13 2.13 0 0 1 -.62.19 4.23 4.23 0 0 1 -.73.06h-.49c-.28 0-.42-.08-.42-.23v-.73c0-.14 0-.22.13-.25a1.27 1.27 0 0 1 .29 0h.36a2.6 2.6 0 0 0 .61-.07 1.86 1.86 0 0 0 .56-.24 1.6 1.6 0 0 0 .47-.43 1.82 1.82 0 0 0 .32-.67 12.16 12.16 0 0 1 .67-1.92 8.6 8.6 0 0 1 .75-1.37 5 5 0 0 1 .81-.91 4 4 0 0 1 .81-.55 2.86 2.86 0 0 1 .76-.26 3.32 3.32 0 0 1 .67-.07 3.42 3.42 0 0 1 1.17.19 3.76 3.76 0 0 1 .95.51 3.46 3.46 0 0 1 .74.74 4.6 4.6 0 0 1 .53.87 5.49 5.49 0 0 1 .32.94 4.28 4.28 0 0 1 0 1.84 3.83 3.83 0 0 1 -.31.88 4.62 4.62 0 0 0 1.12.39 6.73 6.73 0 0 0 1.4.13h.1c.28 0 .42.08.42.23v.74c0 .13 0 .2-.12.23a.85.85 0 0 1 -.3 0h-.12a7.82 7.82 0 0 1 -1-.07 4.72 4.72 0 0 1 -.82-.18 3.35 3.35 0 0 1 -.67-.27c-.21-.12-.41-.24-.61-.38a3.33 3.33 0 0 1 -1.14.73 4.34 4.34 0 0 1 -1.61.27 6.45 6.45 0 0 1 -1.17-.1 6.84 6.84 0 0 1 -2-.72 5.07 5.07 0 0 1 -.85-.52zm6.73-2.08a3.25 3.25 0 0 0 -.18-1 3.87 3.87 0 0 0 -.53-1 3.06 3.06 0 0 0 -.88-.8 2.28 2.28 0 0 0 -1.22-.33 2.1 2.1 0 0 0 -1.15.35 3.78 3.78 0 0 0 -1 .92 5.78 5.78 0 0 0 -.75 1.35 10 10 0 0 0 -.53 1.63 1.78 1.78 0 0 0 .49.4 5.32 5.32 0 0 0 .79.36 7 7 0 0 0 .95.25 4.68 4.68 0 0 0 1 .1 5.3 5.3 0 0 0 1.24-.13 2.78 2.78 0 0 0 1-.4 1.78 1.78 0 0 0 .6-.68 2.2 2.2 0 0 0 .17-1.02z"/><path d="m255.44 69.33c-.29 0-.43-.08-.43-.23v-.73c0-.14 0-.22.13-.25a1.21 1.21 0 0 1 .3 0h3.84v-6.37h1.26v7.58zm3.91-10.89a.79.79 0 0 1 -1.35.56.75.75 0 0 1 -.24-.58.74.74 0 0 1 .24-.56.79.79 0 0 1 1.35.56zm2.54 0a.81.81 0 0 1 -.22.58.78.78 0 0 1 -.57.23.81.81 0 0 1 -.57-.23.78.78 0 0 1 -.24-.58.77.77 0 0 1 .24-.56.81.81 0 0 1 .57-.23.78.78 0 0 1 .57.23.79.79 0 0 1 .22.56z"/><path d="m267.64 72.56a6 6 0 0 0 1.77-.54 2.88 2.88 0 0 0 1.07-.9 3.53 3.53 0 0 0 .53-1.3 9.88 9.88 0 0 0 .14-1.74v-6.33h1.25v6.33h2.35c.28 0 .42.08.42.23v.74c0 .13 0 .2-.12.23a.9.9 0 0 1 -.3 0h-2.39a6 6 0 0 1 -.4 1.78 3.89 3.89 0 0 1 -.88 1.28 4.21 4.21 0 0 1 -1.37.86 9.71 9.71 0 0 1 -1.92.5zm4.65-14.12a.79.79 0 0 1 -.8.81.8.8 0 0 1 -.56-.23.78.78 0 0 1 -.24-.58.77.77 0 0 1 .24-.56.8.8 0 0 1 1.36.56z"/><path d="m274.19 69.33c-.29 0-.43-.08-.43-.23v-.73c0-.14 0-.22.12-.25a1.23 1.23 0 0 1 .31 0h3.21a6.56 6.56 0 0 0 1.28-.11 2.42 2.42 0 0 0 .84-.34 1.2 1.2 0 0 0 .45-.53 1.81 1.81 0 0 0 .14-.72 2.7 2.7 0 0 0 -.25-1.09 4.77 4.77 0 0 0 -.73-1.1 9.52 9.52 0 0 0 -1.16-1.1 17.33 17.33 0 0 0 -1.55-1.1l3.84-6.57.43.31.44.29-3.2 5.66a7.91 7.91 0 0 1 2.43 2.11 4.18 4.18 0 0 1 .82 2.46 3.79 3.79 0 0 1 -.19 1.24 2.28 2.28 0 0 1 -.66 1 3.13 3.13 0 0 1 -1.25.64 7.4 7.4 0 0 1 -2 .23z"/><path d="m282.41 72.56a5.8 5.8 0 0 0 1.77-.54 2.73 2.73 0 0 0 1.07-.9 3.22 3.22 0 0 0 .53-1.3 9 9 0 0 0 .14-1.74v-6.33h1.26v6.33h2.34c.28 0 .42.08.42.23v.74c0 .13 0 .2-.12.23a.85.85 0 0 1 -.3 0h-2.38a5.68 5.68 0 0 1 -.41 1.78 3.73 3.73 0 0 1 -.87 1.28 4.26 4.26 0 0 1 -1.38.86 9.6 9.6 0 0 1 -1.91.5z"/><path d="m291.77 68.08a3.1 3.1 0 0 1 -.45.62 1.78 1.78 0 0 1 -.53.38 2.13 2.13 0 0 1 -.62.19 4.23 4.23 0 0 1 -.73.06h-.44c-.28 0-.42-.08-.42-.23v-.73c0-.14 0-.22.13-.25a1.27 1.27 0 0 1 .29 0h.36a2.46 2.46 0 0 0 .6-.07 1.81 1.81 0 0 0 .57-.24 1.6 1.6 0 0 0 .47-.43 1.82 1.82 0 0 0 .32-.67 13.32 13.32 0 0 1 .66-1.92 9.45 9.45 0 0 1 .76-1.37 5 5 0 0 1 .81-.91 4 4 0 0 1 .81-.55 2.86 2.86 0 0 1 .76-.26 3.32 3.32 0 0 1 .67-.07 3.42 3.42 0 0 1 1.17.19 3.76 3.76 0 0 1 .95.51 3.46 3.46 0 0 1 .74.74 4.6 4.6 0 0 1 .53.87 5.49 5.49 0 0 1 .32.94 4.23 4.23 0 0 1 -.12 2.26 3.21 3.21 0 0 1 -.68 1.19 3.49 3.49 0 0 1 -1.17.83 4.26 4.26 0 0 1 -1.72.31 6.45 6.45 0 0 1 -1.17-.1 6.84 6.84 0 0 1 -2-.72 5.07 5.07 0 0 1 -.87-.57zm6.72-2.08a3.25 3.25 0 0 0 -.18-1 3.87 3.87 0 0 0 -.53-1 3.06 3.06 0 0 0 -.88-.8 2.28 2.28 0 0 0 -1.22-.33 2.1 2.1 0 0 0 -1.15.35 3.78 3.78 0 0 0 -1 .92 5.78 5.78 0 0 0 -.75 1.35 9.15 9.15 0 0 0 -.53 1.63 1.78 1.78 0 0 0 .49.4 5.32 5.32 0 0 0 .79.36 7 7 0 0 0 .95.25 4.68 4.68 0 0 0 1 .1 5.3 5.3 0 0 0 1.24-.13 2.78 2.78 0 0 0 1-.4 1.78 1.78 0 0 0 .6-.68 2.2 2.2 0 0 0 .17-1.02z"/></g><path d="m35.17 0a35.24 35.24 0 0 0 -35.17 34.82 51.28 51.28 0 0 0 14.94.34s.59-37.33 29.34-26.47-24.63 29.56-24.63 29.56-1.51 40.47 26 14.16c10.24-9.77 17.66-13.61 24.59-14.22.08-.95.13-1.91.13-2.88a35.26 35.26 0 0 0 -35.2-35.31zm-12.45 61.38c-8.38-8.58-7.17-22.77-7.17-22.77a47.74 47.74 0 0 1 -15.44-.53 35.16 35.16 0 0 0 69.57 4.17c-4.51 1-11.59 3.56-19.91 11.24-6.66 6.15-16.38 18.82-27.05 7.89zm19.17-49c-20.27-7.66-22.24 22.3-22.24 22.3s40.65-15.3 22.24-22.28z" fill="url(#a)"/><path d="m87.2 42.47a30.33 30.33 0 0 1 -11.14-2.1l.6-1.7a30.7 30.7 0 0 0 10.28 2c4.33 0 9.7-.79 9.63-5.57-.06-8.1-20.51-2.46-20.57-13-.07-6.1 6.75-7.48 12.45-7.48a32.62 32.62 0 0 1 10.22 2l-.59 1.77a30.56 30.56 0 0 0 -9.37-1.83c-4.46 0-9.89.52-9.83 5.3.13 7.93 20.64 2.49 20.64 13 0 5.91-6.52 7.61-12.32 7.61z" fill="#999"/><path d="m103.58 42v-26.85h2.82v26.85z" fill="#999"/><path d="m124.35 53.08a39.48 39.48 0 0 1 -12.06-2.16l.53-1.83a33.18 33.18 0 0 0 3.54 1 35.17 35.17 0 0 0 8.12 1c8.06 0 10.15-4.13 10.15-8.46v-2.39c-1.63.4-8.12 2.23-12 2.23-8.84 0-12.12-5.76-12.12-13.95s3.28-14 12.12-14c4 0 10.56 1.9 12.26 2.29l.85-1.7h1.7v28c.01 6.44-3.66 9.97-13.09 9.97zm10.28-34.52c-1.7-.33-7.66-2.1-11.53-2.1-7.6 0-9.69 5.57-9.69 12.06s2.09 12.05 9.69 12.05c3.8 0 9.83-1.7 11.53-2.09z" fill="#999"/><path d="m166 42-1.11-1.77v-12.11c0-6.55-.46-11.66-7.47-11.66-4.26 0-9.76 1.77-11.6 2.1l-.12 23.44h-2.81v-26.85h1.7l.85 1.64c1.9-.33 8.13-2.23 12.45-2.23 8.52 0 9.83 5.44 9.83 13.56v13.88z" fill="#999"/><path d="m196.87 42-.87-1.82c-2.42.59-8.25 2.35-12.25 2.35-8.85 0-12.12-5.63-12.12-14s3.27-14 12.12-14c3.87 0 9.89 1.77 12.25 2.23l.85-1.64h1.71v26.88zm-1.17-23.44c-2.36-.46-7.67-2.1-11.47-2.1-7.6 0-9.7 5.64-9.7 12.12s2.1 12.06 9.7 12.06c3.87 0 9.11-1.64 11.53-2.16 0-.48-.06-11.48-.06-19.92z" fill="#999"/><path d="m219 42.08a27.86 27.86 0 0 1 -4.06.45c-8.06 0-9.17-2.94-9.17-10.61l-.07-15h-3.66v-1.92h3.66l1.71-5h1.18v5h11.07v2h-11.06v15c0 5.77.52 8.78 6.81 8.65a25.38 25.38 0 0 0 5.38-.92l.45 1.83s-.91.25-2.24.52z" fill="#999"/><path d="m247.65 42-.85-1.71c-2.63.53-8.33 2.23-12.45 2.23-8.52 0-9.83-5.37-9.83-13.5v-13.87h1.77l1.11 1.77v12.08c0 6.55.46 11.6 7.47 11.6 4 0 9-1.57 11.6-2l.06-23.46h2.82v26.86z" fill="#999"/><path d="m270.05 18.1-12.32-.1-.06 24h-2.82v-26.85h1.7l.92 1.7 12.12-1.7h1.58v3z" fill="#999"/><path d="m275.75 29.43c0 8.06 4 11.27 12.58 11.27a27.79 27.79 0 0 0 9.67-2.22l.59 1.7a24.72 24.72 0 0 1 -3.21 1.18 24.49 24.49 0 0 1 -7.08 1.18c-12.64 0-15.46-6.16-15.46-14s3.28-14 13.56-14c9.51 0 13.5 5.25 13.37 14.81zm10.61-12.9c-7.6 0-10.54 4.26-10.61 11.2h21c-.03-6.88-2.75-11.2-10.39-11.2z" fill="#999"/></g></svg>