<svg viewBox="0 0 150 153.49" xmlns="http://www.w3.org/2000/svg"><g fill-rule="evenodd" opacity=".98"><g fill="#999"><path d="m47.63 57.37c2.51 5.24 1.31 14.17 1.79 21.44 1.79.92 10.82.77 13 .29-.49-1.7-3.1-3.84-3.87-6.25.48-2.1 1.43-3.72 1.79-5.95 9.77-3.14 26.25.93 18.15 12.2a18.64 18.64 0 0 0 8.34-.29c.41-2.16-1.11-4.81-1.79-6.85a41.7 41.7 0 0 0 6-2.38c2.12 1.42 1.73 5.42 1.77 8.93 1.49 1.39 5.18.91 7.15.3.17-3-1.17-4.6-1.79-6.85a53.46 53.46 0 0 0 6-2.38c1.91 1.49 2.16 6.14 1.49 9.23 1.51.28 2.74.83 4.76.59 1.58-1.32 1.58-4.4 2.34-6.55 2.31-.23 3.78.39 5.95.3.86 2.24-.32 4.51-.89 6.25 1.28.54 2.93-.19 4.46-.3.21-3-.78-4.77-1.19-7.14 2.39-.19 3.92-1.24 6.25-1.49 1.53 2 1.29 5.88.6 8.63 1.2 1 3.05.14 4.76 0 .44-2.85-1.06-6.26-1.79-8.93 2.52-.36 4-1.72 6.55-2.08 2.62 5.38.84 14.07-1.78 17.86a14.86 14.86 0 0 1 -10.13-.6c-2.4 1.82-7.81 1.32-10.71.3a22.14 22.14 0 0 1 -8 .6 10.41 10.41 0 0 1 -4.46-1.79c-2.28 2.93-10.6 2.08-13.1 0a4.1 4.1 0 0 1 -1.83 1.54c-6 .85-12.65.06-16.67-2.08-5.23 2.34-20.06 3.41-26.72 1.48-.56-4.56-1.54-10.4-1.78-15.52-.17-3.61-.24-6.17-1.79-8.34 2.57-1.17 3.81-4.68 7.14-4.17zm23.15 21.14c2.14.23 4.8-1.2 4.77-3-.08-3.39-8-3.57-11.32-2.68 1.34 1.52 3.77 5.38 6.55 5.68z"/><path d="m149.67 58c-1.17 8.56-.2 19.25-.9 28.28a29.94 29.94 0 0 1 -5.06.3 151.13 151.13 0 0 1 -1.78-27.09c2.52-.55 4.96-2.2 7.74-1.49z"/><path d="m108 66c-1.4.87-2.82 1.74-4.17 2.68-1.09-.2-1.48-1.1-2.08-1.79a33 33 0 0 0 -3.28 2.11c-2-.9-3-2.71-4.17-4.46 1.33-1.15 3.09-1.87 4.46-3 1.06.24 1.1 1.49 2.09 1.79a31.34 31.34 0 0 0 3.27-2.09 8.34 8.34 0 0 1 3.88 4.76z"/><path d="m35.13 88c-5.9 1.38-20.35 3.94-24.41-1.48-3-4-.39-10.28 2.68-13.1 1.1.09 1.65.73 2.68.89.1 3.12-.67 4.88.6 6.55 2.79 3.69 12.13 1 16.37.6-.24-3-1.57-5-2.38-7.45 1.76-.92 3.9-1.45 5.65-2.38 3.68 4.37 1.6 12.8-1.19 16.37z"/><path d="m91.62 87.14a12.19 12.19 0 0 1 3.87 5.06 13.28 13.28 0 0 0 -4.17 2.68c-1.17-.12-1.37-1.21-2.08-1.79-1.49.4-2.39 1.39-3.57 2.09a13.91 13.91 0 0 1 -3.87-4.47c1.14-1.33 2.89-2.06 4.46-3 1.1.09 1.12 1.26 1.79 1.78 1.09-.86 2.67-1.27 3.57-2.35z"/><path d="m149.67 89.52c0 .85-.55 1.24-.6 2.09-.69-.24-1.69-1-2.38-.3a2.06 2.06 0 0 0 3 1.19 5.58 5.58 0 0 1 .29 2.38c-2.42.36-4.17 1.38-6.55 1.79a5.71 5.71 0 0 0 -1.19-2.09c.45-.84 1.55-1 2.68-1.19-.32-1.06-1.6-1.18-1.78-2.38-.39-4.01 5.02-3.2 6.53-1.49z"/><path d="m27.09 96.37c-1.63.54-2.67 1.69-4.16 2.38a8.58 8.58 0 0 1 -3.87-4.17c.66-1.81 3.14-1.82 4.16-3.27 1.65 1.33 3.26 2.69 3.87 5.06z"/></g><path d="m143.44 52.43a71 71 0 1 0 -.31 49.45l5.63 1.46a76.75 76.75 0 1 1 .2-52.63z" fill="#c31c78"/></g></svg>