<svg viewBox="0 0 243.73 215.27" xmlns="http://www.w3.org/2000/svg" xmlns:xlink="http://www.w3.org/1999/xlink"><clipPath id="a"><path d="m44.58 34.39c34.82-17.49 104.21-35.85 146.21-13.28 49.1 26.38 42.79 67.92 37 95.69-13.88 66.93-93.54 108.54-142 77.21-50.53-32.61-113.15-123.47-41.21-159.62z"/></clipPath><path d="m36.1 26.36c38.65-19.36 115.64-39.78 162.24-14.74 54.5 29.28 47.49 75.38 41.1 106.18-15.44 74.27-103.8 120.44-157.63 85.68-56.04-36.19-125.53-137.01-45.71-177.12z" fill="#16191a"/><g clip-path="url(#a)"><path d="m13.6 115.7v-21.7h5.94a39.83 39.83 0 0 1 5.12.23 7.78 7.78 0 0 1 2.52.82 5 5 0 0 1 1.82 1.8 5.14 5.14 0 0 1 .64 2.6 4.35 4.35 0 0 1 -.94 3 6 6 0 0 1 -3 1.64 5.38 5.38 0 0 1 3.61 1.59 5.59 5.59 0 0 1 1.3 3.88 6 6 0 0 1 -.74 3 4.86 4.86 0 0 1 -2.08 2.06 9.88 9.88 0 0 1 -2.73.86 45.5 45.5 0 0 1 -5.34.23zm5.49-13h1.18a6.44 6.44 0 0 0 3-.47 1.78 1.78 0 0 0 .82-1.66 1.9 1.9 0 0 0 -.76-1.73 6.07 6.07 0 0 0 -3-.52h-1.24zm0 8.59h2.07a5.87 5.87 0 0 0 3-.55 1.85 1.85 0 0 0 .84-1.74 2.2 2.2 0 0 0 -.8-1.91 5.71 5.71 0 0 0 -3-.54h-2.11z" fill="#92e340"/><path d="m34.15 115.7v-21.7h6.18c1.2 0 2.21 0 3 .07a13.32 13.32 0 0 1 2 .25 6.55 6.55 0 0 1 2.45 1.13 5.52 5.52 0 0 1 1.79 2.28 6.8 6.8 0 0 1 .64 3 6.45 6.45 0 0 1 -1.21 4.15 5.73 5.73 0 0 1 -3.6 2.09l5.91 8.73h-6.64l-5-8.48v8.48zm5.55-11.42h1.1a4.7 4.7 0 0 0 2.79-.64 2.51 2.51 0 0 0 .88-2.06 2.85 2.85 0 0 0 -.82-2.3 4.27 4.27 0 0 0 -2.77-.7h-1.18z" fill="#92e340"/><path d="m51.05 115.7 7.47-21.7h7.4l7.49 21.66h-5.87l-1.1-3.88h-8.39l-1.12 3.88zm8.27-8.09h5.88l-2.2-7.15c-.05-.13-.14-.48-.28-1.07l-.46-1.85c-.13.51-.25 1-.35 1.53s-.29 1-.4 1.39z" fill="#92e340"/><path d="m75.48 115.7v-21.7h5.7l8.18 11.14a14.07 14.07 0 0 1 .79 1.38c.4.79.8 1.6 1.18 2.44-.15-1.14-.23-1.93-.25-2.38-.06-.71-.09-1.34-.09-1.88v-10.7h5.67v21.7h-5.66l-8.18-11.19a14.12 14.12 0 0 1 -.79-1.39c-.35-.63-.75-1.43-1.18-2.39.1.77.19 1.56.28 2.39s.06 1.56.06 1.88v10.7z" fill="#92e340"/><path d="m101.31 115.7v-21.7h4.51a36.92 36.92 0 0 1 7.15.47 10.26 10.26 0 0 1 3.67 1.59 9 9 0 0 1 3.12 3.67 12.87 12.87 0 0 1 0 10.23 9.21 9.21 0 0 1 -3.12 3.67 10.11 10.11 0 0 1 -3.58 1.54 28.23 28.23 0 0 1 -6.25.49h-5.5zm5.84-4.85h1q3.49 0 5.08-1.45a5.77 5.77 0 0 0 1.6-4.51 5.9 5.9 0 0 0 -1.6-4.54q-1.6-1.45-5.08-1.46h-1z" fill="#92e340"/><path d="m134 115.7v-21.7h5.7l8.18 11.14a12.51 12.51 0 0 1 .78 1.38c.41.79.8 1.6 1.19 2.44-.15-1.14-.23-1.93-.25-2.38-.06-.71-.09-1.34-.09-1.88v-10.7h5.67v21.7h-5.67l-8.19-11.19a15 15 0 0 1 -.78-1.39c-.35-.63-.75-1.43-1.18-2.39.09.77.19 1.56.28 2.39s.06 1.56.06 1.88v10.7z" fill="#92e340"/><path d="m157.29 115.7 7.47-21.7h7.4l7.49 21.66h-5.88l-1.09-3.88h-8.39l-1.13 3.88zm8.27-8.09h5.88l-2.21-7.15c0-.13-.14-.48-.28-1.07l-.46-1.85c-.14.51-.26 1-.35 1.53s-.3 1-.4 1.39z" fill="#92e340"/><path d="m206.57 115.7h-5.52l-1.28-9.37c-.1-.83-.18-1.57-.23-2.2s-.14-1.5-.21-2.65a29.52 29.52 0 0 1 -.83 3.43c-.08.25-.14.46-.18.64l-2.94 10.15h-3.94l-2.94-10.15a4.36 4.36 0 0 0 -.18-.64 20.86 20.86 0 0 1 -.81-3.43c-.08 1.09-.16 1.89-.23 2.43 0 .27-.07.68-.13 1.21s-.1.94-.13 1.21l-1.27 9.37h-5.5l3.35-21.7h5.84l3.28 11.17c.05.21.09.34.11.4a15.32 15.32 0 0 1 .58 2.54 10.76 10.76 0 0 1 .22-1.3l.45-1.67 3.3-11.14h5.86z" fill="#92e340"/><path d="m209.75 115.7v-21.7h13.25v4.8h-7.5v3.75h7.09v4.66h-7.09v3.64h7.5v4.85z" fill="#92e340"/><path d="m49.12 173.32-14.5-34.57h10l6.92 19.34.37 1.44c.19.82.45 1.88.78 3.19.21-.95.45-1.89.74-2.84a13.17 13.17 0 0 1 .47-1.79l6.87-19.34h10l-14.47 34.57z" fill="#28c1e2"/><path d="m73.85 173.32v-34.57h9.51v34.57z" fill="#28c1e2"/><path d="m92.5 162.15a18 18 0 0 0 4.15 3.56 8.13 8.13 0 0 0 4 1.19 4.66 4.66 0 0 0 3.09-1 3.19 3.19 0 0 0 1.23-2.57 3.49 3.49 0 0 0 -1-2.67 13.73 13.73 0 0 0 -4.78-1.91q-5.06-1.38-7.14-3.55a8.35 8.35 0 0 1 -2.13-6 10.56 10.56 0 0 1 3.33-8.08 11.91 11.91 0 0 1 8.59-3.14 17.69 17.69 0 0 1 5.42.78 18.5 18.5 0 0 1 4.86 2.31l-3 6.78a12.31 12.31 0 0 0 -3.31-2.08 9 9 0 0 0 -3.32-.68 4.44 4.44 0 0 0 -2.76.83 2.43 2.43 0 0 0 -1.06 2.07 2.65 2.65 0 0 0 .92 2.08 10.48 10.48 0 0 0 3.63 1.49h.17l.21.06q5.76 1.54 7.61 3.45a8.41 8.41 0 0 1 1.89 3.05 11.89 11.89 0 0 1 .61 4 11.55 11.55 0 0 1 -3.61 8.86 13.73 13.73 0 0 1 -9.64 3.33 17 17 0 0 1 -6.46-1.31 19.23 19.23 0 0 1 -5.71-3.88z" fill="#28c1e2"/><path d="m119.31 173.32v-34.57h9.51v34.57z" fill="#28c1e2"/><path d="m171.92 156.1a18.18 18.18 0 0 1 -1.35 7 17.79 17.79 0 0 1 -4 5.81 18.72 18.72 0 0 1 -6 3.92 19.27 19.27 0 0 1 -7.06 1.39 19 19 0 0 1 -7.05-1.39 17.79 17.79 0 0 1 -6-3.92 17.56 17.56 0 0 1 -4-5.86 17.91 17.91 0 0 1 0-13.93 17.56 17.56 0 0 1 4-5.86 17.91 17.91 0 0 1 6-4 19.24 19.24 0 0 1 14.16 0 18.07 18.07 0 0 1 6 3.95 18.37 18.37 0 0 1 4 5.86 18 18 0 0 1 1.3 7.03zm-18.47 10.16a8.42 8.42 0 0 0 6.52-2.91 9.24 9.24 0 0 0 1.91-3.23 12.38 12.38 0 0 0 .62-4 10.59 10.59 0 0 0 -2.58-7.25 8.37 8.37 0 0 0 -6.47-2.9 8.27 8.27 0 0 0 -6.49 2.9 10.61 10.61 0 0 0 -2.55 7.25 10.5 10.5 0 0 0 2.5 7.3 8.41 8.41 0 0 0 6.54 2.84z" fill="#28c1e2"/><path d="m177.82 173.32v-34.57h9.09l13.09 17.78a22.14 22.14 0 0 1 1.25 2.2c.65 1.25 1.28 2.55 1.89 3.89-.23-1.81-.37-3.08-.4-3.8-.09-1.13-.14-2.13-.14-3v-17.07h9v34.57h-9l-13.06-17.85a24.79 24.79 0 0 1 -1.25-2.22c-.57-1-1.2-2.29-1.89-3.83.16 1.23.31 2.5.45 3.83s.09 2.48.09 3v17.07z" fill="#28c1e2"/><path d="m92 14.64v5.86a9.22 9.22 0 0 0 -2.17-1.81 5.41 5.41 0 0 0 -2.37-.55 4.87 4.87 0 0 0 -3.75 1.57 5.91 5.91 0 0 0 -.81 1.18 5.46 5.46 0 0 0 -.46 1.38 8.28 8.28 0 0 0 -.16 1.57 5.6 5.6 0 0 0 1.46 3.94 4.88 4.88 0 0 0 3.72 1.54 5.21 5.21 0 0 0 2.37-.58 8.07 8.07 0 0 0 2.17-1.8v5.88a12.52 12.52 0 0 1 -2.54.92 10.84 10.84 0 0 1 -2.55.31 11.42 11.42 0 0 1 -3-.38 7.87 7.87 0 0 1 -2.5-1.16 10.12 10.12 0 0 1 -3.35-3.71 11.12 11.12 0 0 1 -1.06-5.07 10.92 10.92 0 0 1 .75-4.1 8.75 8.75 0 0 1 .86-1.7 11.5 11.5 0 0 1 1.33-1.66 9.11 9.11 0 0 1 3.17-2.15 10.12 10.12 0 0 1 3.88-.71 12.09 12.09 0 0 1 2.55.29 14.85 14.85 0 0 1 2.46.94z" fill="#ff6445"/><path d="m115.26 23.76a10.39 10.39 0 0 1 -.77 4 10.24 10.24 0 0 1 -2.28 3.31 10.73 10.73 0 0 1 -3.44 2.23 11.14 11.14 0 0 1 -4 .79 11 11 0 0 1 -4-.79 10.19 10.19 0 0 1 -3.41-2.23 10.09 10.09 0 0 1 -2.36-3.35 10.23 10.23 0 0 1 0-7.93 10.68 10.68 0 0 1 5.7-5.59 10.87 10.87 0 0 1 8.06 0 10.64 10.64 0 0 1 5.69 5.58 10.33 10.33 0 0 1 .81 3.98zm-10.51 5.78a4.78 4.78 0 0 0 3.71-1.66 5.38 5.38 0 0 0 1.09-1.88 7.09 7.09 0 0 0 .35-2.28 6 6 0 0 0 -1.47-4.13 5 5 0 0 0 -7.38 0 6 6 0 0 0 -1.45 4.13 6 6 0 0 0 1.4 4.19 4.82 4.82 0 0 0 3.75 1.63z" fill="#ff6445"/><path d="m118.62 33.56v-19.68h5.38v15.12h6.67v4.6z" fill="#ff6445"/><path d="m153.47 23.76a10.38 10.38 0 0 1 -.76 4 10.12 10.12 0 0 1 -2.29 3.31 10.73 10.73 0 0 1 -3.42 2.22 10.6 10.6 0 0 1 -8 0 10.29 10.29 0 0 1 -3.41-2.23 9.92 9.92 0 0 1 -2.28-3.34 10.11 10.11 0 0 1 0-7.93 9.78 9.78 0 0 1 2.28-3.33 10 10 0 0 1 3.41-2.26 10.87 10.87 0 0 1 8.06 0 10.23 10.23 0 0 1 3.41 2.25 10.44 10.44 0 0 1 2.29 3.33 10.32 10.32 0 0 1 .71 3.98zm-10.47 5.78a4.77 4.77 0 0 0 3.71-1.66 5.22 5.22 0 0 0 1.05-1.88 7.09 7.09 0 0 0 .35-2.28 6 6 0 0 0 -1.47-4.13 4.76 4.76 0 0 0 -3.64-1.59 4.69 4.69 0 0 0 -3.69 1.65 6 6 0 0 0 -1.46 4.13 6 6 0 0 0 1.43 4.15 4.8 4.8 0 0 0 3.72 1.61z" fill="#ff6445"/><path d="m156.82 33.56v-19.68h5.61c1.09 0 2 0 2.75.06a13.83 13.83 0 0 1 1.85.23 6.07 6.07 0 0 1 2.23 1 5.11 5.11 0 0 1 1.63 2.07 6.27 6.27 0 0 1 .58 2.75 5.91 5.91 0 0 1 -1.13 3.72 5.2 5.2 0 0 1 -3.27 1.89l5.37 7.94h-6.06l-4.52-7.71v7.71zm5-10.38h1a4.29 4.29 0 0 0 2.54-.58 2.27 2.27 0 0 0 .8-1.87 2.6 2.6 0 0 0 -.74-2.09 3.87 3.87 0 0 0 -2.52-.64h-1.07z" fill="#ff6445"/><path d="m175.35 27.2a10.38 10.38 0 0 0 2.36 2 4.65 4.65 0 0 0 2.31.67 2.65 2.65 0 0 0 1.76-.58 1.82 1.82 0 0 0 .7-1.46 2 2 0 0 0 -.58-1.52 7.8 7.8 0 0 0 -2.72-1.09 8.84 8.84 0 0 1 -4.07-2 4.75 4.75 0 0 1 -1.21-3.44 6 6 0 0 1 1.9-4.6 6.76 6.76 0 0 1 4.88-1.78 9.94 9.94 0 0 1 3.09.44 10.6 10.6 0 0 1 2.76 1.32l-1.68 3.84a6.91 6.91 0 0 0 -1.85-1.16 5.07 5.07 0 0 0 -1.89-.39 2.57 2.57 0 0 0 -1.57.47 1.39 1.39 0 0 0 -.61 1.19 1.52 1.52 0 0 0 .53 1.18 6 6 0 0 0 2.07.85h.09.12a9.87 9.87 0 0 1 4.33 2 4.75 4.75 0 0 1 1.07 1.74 6.56 6.56 0 0 1 .35 2.25 6.57 6.57 0 0 1 -2.05 5 7.79 7.79 0 0 1 -5.49 1.9 9.63 9.63 0 0 1 -3.74-.69 10.74 10.74 0 0 1 -3.25-2.2z" fill="#ff6445"/><g fill="#fff"><path d="m18.33 137.6-8.25-19.68h5.7l3.94 11c.06.24.13.52.21.82.11.47.26 1.07.45 1.82.11-.54.25-1.08.41-1.62a9.41 9.41 0 0 1 .27-1l3.91-11h5.7l-8.25 19.66z"/><path d="m30 137.6 6.79-19.68h6.72l6.8 19.68h-5.38l-1-3.52h-7.61l-1 3.52zm7.51-7.35h5.34l-2-6.49c-.05-.12-.13-.44-.26-1l-.41-1.68q-.2.69-.33 1.38c-.14.45-.26.87-.36 1.27z"/><path d="m52.15 137.6v-19.68h5.36v15.08h6.67v4.6z"/><path d="m66.67 117.92h5.33v9.57a28.64 28.64 0 0 0 .11 3 6.15 6.15 0 0 0 .36 1.53 2 2 0 0 0 1.06 1.13 3.92 3.92 0 0 0 1.88.42 3.88 3.88 0 0 0 1.87-.42 2.25 2.25 0 0 0 1.08-1.13 6.72 6.72 0 0 0 .35-1.53 24.87 24.87 0 0 0 .12-3v-9.57h5.33v10.41a21.43 21.43 0 0 1 -.38 4.76 6.21 6.21 0 0 1 -1.32 2.64 6 6 0 0 1 -2.78 1.79 13.06 13.06 0 0 1 -4.26.61 12.9 12.9 0 0 1 -4.28-.61 6.18 6.18 0 0 1 -2.77-1.79 6.27 6.27 0 0 1 -1.32-2.64 20.71 20.71 0 0 1 -.41-4.76v-10.41z"/><path d="m88.27 137.6v-19.68h12v4.33h-6.77v3.4h6.43v4.24h-6.43v3.3h6.82v4.41z"/><path d="m132.69 127.8a9.82 9.82 0 0 1 -3.05 7.3 10.56 10.56 0 0 1 -3.44 2.23 10.94 10.94 0 0 1 -4 .8 10.79 10.79 0 0 1 -4-.8 10.49 10.49 0 0 1 -5.7-5.56 10.23 10.23 0 0 1 0-7.93 10.59 10.59 0 0 1 5.7-5.59 10.54 10.54 0 0 1 4-.77 10.76 10.76 0 0 1 4 .77 10.4 10.4 0 0 1 3.4 2.25 10.27 10.27 0 0 1 2.29 3.34 10.09 10.09 0 0 1 .8 3.96zm-10.51 5.78a4.8 4.8 0 0 0 3.71-1.65 5.47 5.47 0 0 0 1.09-1.84 7.1 7.1 0 0 0 .35-2.29 6 6 0 0 0 -1.47-4.12 4.93 4.93 0 0 0 -7.38 0 6.67 6.67 0 0 0 0 8.28 4.78 4.78 0 0 0 3.7 1.62z"/><path d="m136.05 137.6v-19.68h12.06v4.33h-6.83v3.4h6.44v4.24h-6.44v7.71z"/><path d="m164.67 137.6h-5v-19.68h5.61a22.42 22.42 0 0 1 4.64.33 5.64 5.64 0 0 1 2.25 1.1 5.94 5.94 0 0 1 1.65 2.23 8.36 8.36 0 0 1 0 6.12 5 5 0 0 1 -1.65 2.2 5.19 5.19 0 0 1 -2 .93 15.54 15.54 0 0 1 -3.6.28h-1.88zm0-10.82h1a4.91 4.91 0 0 0 2.7-.55 2.44 2.44 0 0 0 0-3.54 4.9 4.9 0 0 0 -2.67-.53h-1.07z"/><path d="m177.07 137.6v-19.68h5.62c1.08 0 2 0 2.75.07a12.53 12.53 0 0 1 1.85.23 6.14 6.14 0 0 1 2.23 1 5.11 5.11 0 0 1 1.63 2.07 6.36 6.36 0 0 1 .57 2.74 5.91 5.91 0 0 1 -1.12 3.73 5.27 5.27 0 0 1 -3.27 1.89l5.36 7.93h-6.06l-4.52-7.7v7.7zm5-10.37h1a4.38 4.38 0 0 0 2.54-.58 2.27 2.27 0 0 0 .79-1.87 2.61 2.61 0 0 0 -.74-2.1 3.93 3.93 0 0 0 -2.51-.63h-1.08z"/><path d="m214.94 127.8a10.4 10.4 0 0 1 -.77 4 10.2 10.2 0 0 1 -2.28 3.3 10.67 10.67 0 0 1 -3.44 2.23 11 11 0 0 1 -4 .8 10.78 10.78 0 0 1 -4-.8 10.23 10.23 0 0 1 -5.7-13.49 10.5 10.5 0 0 1 5.7-5.59 10.53 10.53 0 0 1 4-.77 10.81 10.81 0 0 1 4 .77 10.61 10.61 0 0 1 5.69 5.59 10.27 10.27 0 0 1 .8 3.96zm-10.51 5.78a4.82 4.82 0 0 0 3.71-1.65 5.29 5.29 0 0 0 1.08-1.84 6.84 6.84 0 0 0 .35-2.29 6 6 0 0 0 -1.46-4.12 4.75 4.75 0 0 0 -3.68-1.66 4.69 4.69 0 0 0 -3.7 1.66 6.69 6.69 0 0 0 0 8.28 4.81 4.81 0 0 0 3.7 1.62z"/><path d="m223.32 137.6h-5v-19.68h5.62a22.48 22.48 0 0 1 4.64.33 5.67 5.67 0 0 1 2.24 1.1 6 6 0 0 1 1.66 2.23 8.5 8.5 0 0 1 0 6.12 5 5 0 0 1 -1.66 2.2 5.07 5.07 0 0 1 -2 .93 15.58 15.58 0 0 1 -3.61.28h-1.88zm0-10.82h1a4.91 4.91 0 0 0 2.7-.55 2 2 0 0 0 .76-1.79 2 2 0 0 0 -.74-1.75 4.9 4.9 0 0 0 -2.67-.53h-1.08z"/><path d="m25.32 57.21v-23.11h6.59c1.28 0 2.36 0 3.24.08a13.43 13.43 0 0 1 2.17.27 7.05 7.05 0 0 1 2.62 1.2 6 6 0 0 1 1.91 2.43 7.39 7.39 0 0 1 .68 3.22 6.88 6.88 0 0 1 -1.33 4.37 6.14 6.14 0 0 1 -3.83 2.23l6.3 9.31h-7.12l-5.31-9.05v9.05zm5.92-12.21h1.17a5 5 0 0 0 3-.68 2.63 2.63 0 0 0 .94-2.19 3 3 0 0 0 -.87-2.46 4.59 4.59 0 0 0 -3-.74h-1.24z"/><path d="m43.35 57.21 8-23.11h7.89l8 23.11h-6.31l-1.16-4.14h-9l-1.2 4.14zm8.82-8.64h6.27l-2.35-7.57a9.37 9.37 0 0 1 -.3-1.14c-.18-.72-.34-1.38-.49-2-.15.54-.28 1.08-.38 1.63s-.31 1-.43 1.48z"/><path d="m69.41 57.21v-23.11h6.07l8.73 11.9a15.26 15.26 0 0 1 .84 1.46c.43.85.85 1.71 1.26 2.61-.16-1.21-.25-2.06-.27-2.54q-.09-1.14-.09-2v-11.43h6v23.11h-5.95l-8.78-11.93c-.13-.17-.4-.67-.84-1.49s-.8-1.52-1.26-2.56c.11.83.21 1.68.3 2.56s.06 1.66.06 2v11.42z"/><path d="m97 57.21v-23.11h4.81a38.32 38.32 0 0 1 7.63.51 10.65 10.65 0 0 1 3.91 1.69 9.47 9.47 0 0 1 3.33 3.91 13.65 13.65 0 0 1 0 10.92 9.82 9.82 0 0 1 -3.33 3.92 11.12 11.12 0 0 1 -3.82 1.64 30.8 30.8 0 0 1 -6.66.52zm6.18-5.21h1.06c2.49 0 4.29-.51 5.42-1.54s1.7-2.62 1.7-4.81a6.27 6.27 0 0 0 -1.7-4.84c-1.14-1-2.94-1.56-5.42-1.56h-1.06z"/><path d="m158.33 57.21h-5.88l-1.36-10c-.12-.9-.2-1.68-.25-2.36s-.15-1.6-.22-2.82a33.07 33.07 0 0 1 -.89 3.66c-.08.26-.15.49-.19.68l-3.14 10.84h-4.2l-3.14-10.83a4 4 0 0 0 -.19-.68 23.5 23.5 0 0 1 -.87-3.7c-.08 1.16-.16 2-.23 2.59 0 .29-.08.72-.14 1.29s-.11 1-.15 1.3l-1.35 10h-5.86l3.57-23.11h6.23l3.49 11.93a3.2 3.2 0 0 0 .13.42 16.38 16.38 0 0 1 .61 2.72 10.88 10.88 0 0 1 .24-1.39l.46-1.75 3.52-11.89h6.25z"/><path d="m159 57.21 8-23.11h7.89l8 23.11h-6.27l-1.16-4.14h-9l-1.2 4.14zm8.83-8.64h6.26l-2.34-7.57q-.08-.21-.3-1.14c-.18-.72-.34-1.38-.49-2-.15.54-.27 1.08-.38 1.63s-.31 1-.42 1.48z"/><path d="m185.06 57.21v-23.11h6.59c1.27 0 2.35 0 3.23.08a13.43 13.43 0 0 1 2.17.27 7.05 7.05 0 0 1 2.62 1.2 6 6 0 0 1 1.91 2.43 7.39 7.39 0 0 1 .68 3.22 6.88 6.88 0 0 1 -1.33 4.37 6.14 6.14 0 0 1 -3.83 2.23l6.3 9.31h-7.12l-5.28-9.05v9.05zm5.94-12.21h1.17a5.06 5.06 0 0 0 3-.68 2.65 2.65 0 0 0 .93-2.19 3 3 0 0 0 -.87-2.46 4.57 4.57 0 0 0 -2.95-.74h-1.28z"/><path d="m205.8 57.21v-23.11h6.2v10.5l7.31-10.5h7.34l-8.54 11.27 9.28 11.84h-7.86l-7.53-10.37v10.37z"/></g><path d="m40.65 91.24-14.5-34.57h10l6.93 19.33.38 1.44c.19.82.45 1.88.78 3.19.2-1 .45-1.89.73-2.84a13.17 13.17 0 0 1 .47-1.79l6.87-19.34h10l-14.48 34.58z" fill="#28c1e2"/><path d="m61.07 91.24 11.93-34.57h11.81l12 34.57h-9.43l-1.75-6.19h-13.39l-1.79 6.19zm13.2-12.92h9.38l-3.52-11.4c-.08-.21-.23-.78-.45-1.7l-.73-3c-.22.81-.41 1.62-.57 2.44s-.46 1.52-.63 2.22z" fill="#28c1e2"/><path d="m100.06 91.24v-34.57h9.42v26.49h11.72v8.08z" fill="#28c1e2"/><path d="m125.57 56.67h9.43v16.81a48.68 48.68 0 0 0 .19 5.34 10.56 10.56 0 0 0 .63 2.69 3.43 3.43 0 0 0 1.87 2 7.71 7.71 0 0 0 6.59 0 4.05 4.05 0 0 0 1.89-2 12.19 12.19 0 0 0 .61-2.69 44 44 0 0 0 .21-5.34v-16.81h9.38v18.27a37 37 0 0 1 -.69 8.36 10.33 10.33 0 0 1 -7.2 7.8 22.71 22.71 0 0 1 -7.48 1.06 22.45 22.45 0 0 1 -7.51-1.06 10.9 10.9 0 0 1 -4.89-3.1 11 11 0 0 1 -2.3-4.66 35.24 35.24 0 0 1 -.73-8.36z" fill="#28c1e2"/><path d="m163.51 91.24v-34.57h21.19v7.6h-12v6h11.3v7.43h-11.3v5.81h12v7.75z" fill="#28c1e2"/><path d="m192.46 80.07a18 18 0 0 0 4.15 3.56 8.14 8.14 0 0 0 4.06 1.19 4.63 4.63 0 0 0 3.08-1 3.19 3.19 0 0 0 1.25-2.59 3.52 3.52 0 0 0 -1-2.67 13.9 13.9 0 0 0 -4.79-1.91q-5-1.38-7.14-3.55a8.35 8.35 0 0 1 -2.13-6 10.56 10.56 0 0 1 3.3-8.1 11.92 11.92 0 0 1 8.59-3.14 17.65 17.65 0 0 1 5.42.78 18.35 18.35 0 0 1 4.86 2.31l-3 6.78a12.42 12.42 0 0 0 -3.3-2.08 9 9 0 0 0 -3.33-.68 4.44 4.44 0 0 0 -2.76.83 2.43 2.43 0 0 0 -1.06 2.07 2.68 2.68 0 0 0 .92 2.08 10.55 10.55 0 0 0 3.64 1.49h.16l.22.06q5.76 1.55 7.6 3.45a8.41 8.41 0 0 1 1.93 3.05 11.89 11.89 0 0 1 .61 4 11.55 11.55 0 0 1 -3.61 8.86 13.73 13.73 0 0 1 -9.64 3.33 17 17 0 0 1 -6.57-1.2 19.23 19.23 0 0 1 -5.71-3.88z" fill="#28c1e2"/><path d="m155.59 204.77a1.22 1.22 0 0 0 -.21-.06h-.17a10.55 10.55 0 0 1 -3.64-1.49 2.67 2.67 0 0 1 -.92-2.07 2.47 2.47 0 0 1 1.06-2.08 4.5 4.5 0 0 1 2.76-.83 8.79 8.79 0 0 1 3.33.69 12.38 12.38 0 0 1 3.3 2.07l3-6.77a18.16 18.16 0 0 0 -4.85-2.32 17.71 17.71 0 0 0 -5.43-.78 11.92 11.92 0 0 0 -8.59 3.14 10.59 10.59 0 0 0 -3.32 8.08 8.37 8.37 0 0 0 2.12 6.05 14.19 14.19 0 0 0 6 3.21 117.62 117.62 0 0 0 12.26-4.11 22 22 0 0 0 -6.7-2.73z" fill="#fff"/><path d="m88.82 191.81h-5l-1.16-8.51c-.1-.76-.17-1.43-.21-2s-.13-1.37-.19-2.41a25 25 0 0 1 -.76 3.12c-.07.23-.12.42-.16.58l-2.67 9.22h-3.59l-2.67-9.22a4.9 4.9 0 0 0 -.16-.58 18.48 18.48 0 0 1 -.74-3.12c-.07 1-.14 1.73-.2 2.21 0 .25-.07.62-.12 1.1s-.1.85-.13 1.1l-1.15 8.51h-5l3-19.68h5.31l3 10.15a3.56 3.56 0 0 0 .11.36 14.14 14.14 0 0 1 .52 2.32 12 12 0 0 1 .2-1.19c0-.13.17-.64.41-1.51l3-10.13h5.34z" fill="#ff6445"/><path d="m91.84 191.81v-19.68h5.42v19.68z" fill="#ff6445"/><path d="m102.46 185.45a10.13 10.13 0 0 0 2.36 2 4.66 4.66 0 0 0 2.31.68 2.7 2.7 0 0 0 1.76-.58 1.86 1.86 0 0 0 .7-1.47 2 2 0 0 0 -.58-1.52 7.84 7.84 0 0 0 -2.72-1.08 8.94 8.94 0 0 1 -4.07-2 4.75 4.75 0 0 1 -1.21-3.44 6 6 0 0 1 1.89-4.6 6.8 6.8 0 0 1 4.89-1.79 9.94 9.94 0 0 1 3.09.45 10.26 10.26 0 0 1 2.76 1.31l-1.64 3.87a7.12 7.12 0 0 0 -1.88-1.18 5.07 5.07 0 0 0 -1.89-.39 2.57 2.57 0 0 0 -1.57.47 1.39 1.39 0 0 0 -.61 1.18 1.54 1.54 0 0 0 .53 1.19 6 6 0 0 0 2.07.84h.09.12a9.76 9.76 0 0 1 4.33 2 4.7 4.7 0 0 1 1.07 1.73 6.66 6.66 0 0 1 .35 2.26 6.57 6.57 0 0 1 -2 5 7.83 7.83 0 0 1 -5.49 1.9 9.59 9.59 0 0 1 -3.74-.69 10.93 10.93 0 0 1 -3.25-2.2z" fill="#ff6445"/><path d="m118.45 185.45a10.16 10.16 0 0 0 2.37 2 4.6 4.6 0 0 0 2.3.68 2.68 2.68 0 0 0 1.76-.58 1.83 1.83 0 0 0 .7-1.47 2 2 0 0 0 -.58-1.52 7.84 7.84 0 0 0 -2.72-1.08 9 9 0 0 1 -4.07-2 4.79 4.79 0 0 1 -1.2-3.44 6 6 0 0 1 1.89-4.6 6.77 6.77 0 0 1 4.89-1.79 10 10 0 0 1 3.09.45 10.26 10.26 0 0 1 2.76 1.31l-1.64 3.87a7 7 0 0 0 -1.88-1.18 5 5 0 0 0 -1.89-.39 2.57 2.57 0 0 0 -1.57.47 1.4 1.4 0 0 0 -.6 1.18 1.53 1.53 0 0 0 .52 1.19 6.22 6.22 0 0 0 2.07.84h.09.12a9.76 9.76 0 0 1 4.33 2 4.72 4.72 0 0 1 1.08 1.73 6.92 6.92 0 0 1 .35 2.26 6.58 6.58 0 0 1 -2.06 5 7.82 7.82 0 0 1 -5.48 1.9 9.64 9.64 0 0 1 -3.75-.69 10.89 10.89 0 0 1 -3.24-2.2z" fill="#ff6445"/><path d="m133.71 191.81v-19.68h5.42v19.68z" fill="#ff6445"/><path d="m163.66 182a9.82 9.82 0 0 1 -3 7.3 10.56 10.56 0 0 1 -3.44 2.23 10.94 10.94 0 0 1 -4 .8 10.79 10.79 0 0 1 -4-.8 10.49 10.49 0 0 1 -5.7-5.56 10.23 10.23 0 0 1 0-7.93 10.59 10.59 0 0 1 5.7-5.59 10.54 10.54 0 0 1 4-.77 10.76 10.76 0 0 1 4 .77 10.4 10.4 0 0 1 3.4 2.25 10.27 10.27 0 0 1 2.29 3.34 10.09 10.09 0 0 1 .75 3.96zm-10.51 5.78a4.8 4.8 0 0 0 3.71-1.65 5.47 5.47 0 0 0 1.14-1.83 7.1 7.1 0 0 0 .35-2.29 6 6 0 0 0 -1.47-4.12 4.93 4.93 0 0 0 -7.38 0 6.67 6.67 0 0 0 0 8.28 4.78 4.78 0 0 0 3.65 1.62z" fill="#ff6445"/><path d="m167 191.81v-19.68h5.18l7.43 10.13a12 12 0 0 1 .71 1.25c.37.71.73 1.45 1.08 2.21-.14-1-.21-1.75-.23-2.16-.06-.65-.08-1.22-.08-1.71v-9.72h5.15v19.68h-5.15l-7.44-10.16c-.1-.14-.34-.56-.71-1.26s-.68-1.3-1.07-2.18c.09.7.17 1.42.25 2.18s.06 1.41.06 1.7v9.72z" fill="#ff6445"/><path d="m14.62 51.9a6.17 6.17 0 0 1 -3.15.59h-2.21v-3.72a52.14 52.14 0 0 0 -4.65 8.44h5.32a48.41 48.41 0 0 0 5.7-.25 10.62 10.62 0 0 0 2.91-.96 5.23 5.23 0 0 0 2.22-2.2 6.42 6.42 0 0 0 .79-3.23 5.94 5.94 0 0 0 -1.39-4.14 5.77 5.77 0 0 0 -3.85-1.71 6.36 6.36 0 0 0 3.2-1.72 4.59 4.59 0 0 0 1-3.14 5.59 5.59 0 0 0 -.68-2.78v-.05a59.51 59.51 0 0 0 -9.63 10.41h1.36a6.13 6.13 0 0 1 3.16.57 2.34 2.34 0 0 1 .85 2 2 2 0 0 1 -.95 1.89z" fill="#fff"/><path d="m98.94 206.37v2.36 2.79a76.1 76.1 0 0 0 9.32 2.35c.06-1.1.09-2.32.09-3.67v-18.28h-9.41z" fill="#fff"/><path d="m77.52 200.59c1.43 1 2.87 2 4.29 2.89q2.52 1.62 5.13 3v-14.56h-9.42z" fill="#fff"/><path d="m136 212.94v-7.44h-11.35v-6h12v-7.6h-21.18v23a84.87 84.87 0 0 0 9.18.37v-2.31z" fill="#fff"/></g></svg>