<svg enable-background="new 0 0 300 300" viewBox="0 0 300 300" xmlns="http://www.w3.org/2000/svg"><g fill="#e57925" opacity=".98"><path d="m72.8 149.3c.6-.8 1.1-1.6 1.5-2.5.3-.8.6-1.6.7-2.4.1-.7.1-1.3.1-2 0-1 0-2.5 0-4.5h5.2v5c0 .9-.1 1.8-.4 2.6-.2.9-.6 1.8-1.1 2.6-.4.8-1 1.6-1.7 2.2-.6.6-1.4 1.1-2.2 1.5z"/><path d="m67.3 151.7c-1.6.9-4.8.9-9 1.1-5.4 0-10.7.5-16 1.5-12.8 2.5-26.8 6.8-28.9 10-.2.2-.2.5-.2.8 0 .1.1.1.1.2.9.4 4.3-1.5 6.4-2.9.2-.1 5.5-3.5 18.2-6.1 7.7-1.6 13.1-1.2 13.9.9.3.6.3 2-2.4 3.8-3.1 2-7.8 3.2-11.9 4.4-4.3 1.2-8.4 2.2-9.2 3.8-.2.3-.2.7-.1 1 .2.1.4.2.6.1.7 0 2-.3 4.5-1.7 4.4-2.4 9-4.6 11.7-1.9.6.5.9 1.3.7 2.1-.4 2.3-4 4.5-5.4 5.1-4 2.2-6.9 5.9-8.1 10.3 15.1 3.9 30.5-5.1 34.5-20.2 1.2-4.1 1.3-8.3.6-12.3zm-13.6 15.1c1.3-1.5 2.7-3.5 2.4-4.1l-.1-.2.7-1 .3.1c.4.2.6.5.7.9.2.8-.2 1.9-1.3 3.2l-.8 1c-.8 1-1 1.2-1.3 1.2h-.1c-.2 0-.4-.2-.4-.4 0-.1-.1-.2-.2-.3l-.2-.3zm-3.5 13.1c-.8 1-2.9 1.6-6.1 1.6-.5 0-1.1 0-1.7 0l-3-.1c-3.4-.1-3.6-.2-3.8-.6s.1-.6.2-.7c.2-.2.3-.4.4-.6l.1-.3h.3c3.9.3 10.4.4 11.5-.7l.1-.1h2.1l.1.3c.3.4.2.9-.2 1.2zm15.9-26.2c-3.4 13-8.3 17.7-11.6 20.8l-.9.8c-1.8 1.8-6.6 2.2-10.6 2.2-3 0-5.4-.2-5.6-.3l-.8-.1 1.9-1.9h.2c.1 0 1.6-.1 7.8-.1 11.3 0 17.1-21.5 17.2-21.7l.1-.3h2.4z"/><path d="m59.8 142.5 1 .2-3.2 2h-.2c-9.1-1.5-18.4-1.7-27.5-.6l1.5 2.4c.2.4.3.9.2 1.3-.2.5-.5.9-1 1.2-.9.5-2 .4-2.8-.3v-.1l-.5-.8c-.1.5-.4 1-.8 1.3-.9.6-2.1.5-2.9-.4l-2.4-3.1c-2.9.8-3.6 1.6-3.5 1.9 0 .1.5 2.2 16.6 2.4.1 0 15.8-.3 20.8-1 3.2-.5 8.8-.8 11.5-.2-4.4-15-20.1-23.5-35-19.2-2.8.8-5.5 2.1-7.9 3.7l4.9 8.3c15-2 31.1.9 31.2 1z"/><path d="m27.7 182.4c.8-2.5 2.8-5.9 7.4-8.5 7.9-4.4 8.3-5.7 8.3-6 0 0-.1-.4-1.9-.5-1.8 0-3.2.7-7.1 2.9s-7.7 2.2-9.1.9c-.7-.6-.8-1.6-.4-2.4 1.6-3.7 11-5.9 12.9-6.3 4.2-.9 10.4-3.5 10.3-4.4 0 0-.2-.6-4.4-.6-7.1 0-14 1.8-20.2 5.1-.3.2-6.4 4-10.2 4.6 2.7 6.8 7.9 12.2 14.4 15.2z"/><path d="m46 151.9c-18.3 1.4-31.1-.7-31.8-4-.3-1.5 1.5-2.9 5.4-4.2l-2.9-3.6c-3.6 4.8-5.5 10.7-5.5 16.7 0 1.9.2 3.8.6 5.7 4.7-4.1 18.9-8.7 34.2-10.6z"/><path d="m65.5 150.4c-.7-.1-1.5-.1-2.2-.1-2.4 0-4.8.2-7.2.5-1.3.2-2.5.3-3.7.4 1.4-.1 2.7-.2 4.1-.2 3 .1 6.1-.1 9-.6z"/><path d="m30.1 148c.2-.1.3-.2.4-.4 0-.5-.2-1-.5-1.4l-18.2-30c-.2-.8-.8-1.4-1.4-1.8-.2-.1-.3-.1-.5-.1-.4 0-.7.1-1 .3-.5.2-.9.7-1 1.2 0 .6.3 1.2.7 1.7v.1l20 30.3c.3.3 1 .4 1.5.1z"/><path d="m5.1 117.7s-.6-1.4-1.6-1.7c-.1 0-.2 0-.4 0-.4 0-.8.2-1.1.4-.5.3-.9.7-.9 1.3.1.6.4 1.2.9 1.6l.1.1 22.5 28.7c.4.4 1.1.4 1.5 0 .2-.1.3-.3.3-.5-.1-.5-.3-1-.6-1.3z"/><path d="m246.7 152.5c-2.8 6.3-6.2-2.7-9.9-.9 2.3-6.9 7.1 1.6 9.9.9z"/><path d="m114.1 157c7.4 1.6 16.3-1.1 22.5.4-.9 2.7-4.2 1.5-7.7 2.3 15.6 5.6-5.1 28.1-15.3 17.1-2.3-8 2.9-12 6.8-15.3-3.3-.1-6 2.1-9 .9-.3-2.2.8-4.4 2.7-5.4zm10 20.3c8.2.3 11.5-12.7 4.1-16.7-12.6-2.4-13.5 16.3-4.1 16.7z"/><path d="m299 157.9c-.4 1.3-1.3 2-3.2 1.8.4 8.3-.4 15.5-2.3 21.6-2.4-1.4-2-4.6-3.1-6.8-2.6-5-6.8-9.6-10.8-13.1-.6 2.4-1.1 4.8-1.4 7.2 10.6-1.1 9.7 12.6 2.3 13.1-3.2.2-4.7-2.7-7.7-3.6-2.4 0-.2 3.9-1.8 3.6-2.1-7.7 8.5-6.3 10.8-2.3 2.3-.4 3.2-1.3 3.2-3.2 0-6.6-9.1.7-11.7-2.7-.5-2.1 0-4.5 3.2-4.1.1-2.7-.2-5.5-.9-8.1-2.1.1-4.4 1.5-5.4 0 .1-6.5 7.8-2.8 12.6-4.1-.4 2 1.9 2.4 2.7 3.6 3.4 4.8 5.7 10.3 7.2 17.1 1-6.3 1-15.8-4.5-18 1.9-3.9 6.8-3.1 10.8-2z"/><path d="m103.3 160.1c2.8 7 6.3 13.3 7.2 22.1-2.7-6.4-5.3-13-9.5-18-2.9 3.9-4.1 9.5-7.7 12.6-2.4-3.2-4.3-7.2-8.6-8.6-4.3 3.2-3.5 14.5 3.6 14-10.7 4.2-12.3-9.3-5-14 .1-1-1.6-.2-2.3-.4 1-2.6 3.8-3.4 4.5-6.3-1.8-1-5.6-.2-8.1-.5.6-5.8 9.4-3 14-3.6-1.2 2.8-3.8 4.4-5.4 6.8 3.4 2.3 6.8 4.7 6.8 10.4 3.2-2.6 3.8-7.6 4.5-12.6 0-1.5-2.7-.3-2.7-1.8-.2-2 1.2-2.4 1.8-3.6 3.8 1.9 11.9.3 15.8.9-.7 2.9-5.8 1.8-8.9 2.6z"/><path d="m214.7 158.3c-1.9 1-4.2 1-7.7 1.4 2.3 1.1 4.3 2.9 5.8 5-.8 8.4-7.4 16.3-15.8 15.3-10-1.2-5.4-15.6.9-18.5-3 .2-4.8 1.5-8.1 1.4-.7-.7-.7-3 0-3.6-8.6 3.2-.2 23.5-9 26.6-1.1-5.7-13.1-7.5-16.7-2.7.1-2.2 3.1-5.3 4.5-7.7 4.6.7 13.6.8 13.5 7.7 2.4-3.4-.5-8.3-.4-12.2-2 .4-3.6 3.6-6.3 4.1-7.5 1.1-10.4-7-5.4-12.2-.8-.6-3.8.4-5.9 0-.1-1.2 0-2.5.4-3.6-.5.4-1.2.5-1.8.5-1.3 5.6.5 17.8-4.1 21.6-1.6-9.2-7.2-14.4-12.6-19.8-1.2 1.7-1.1 4.6-1.4 7.2 10.5-1.1 9.7 12.4 2.3 13.1-3.2.3-4.7-2.5-7.7-3.6-2.6.5-.6 3.5-1.8 3.6-2.3-7.9 8.5-6.2 10.8-2.3 4-.1 3.5-5.1.9-6.3-4.3-.1-8.2 4.1-9.9-.9.3-1.6.9-3 3.1-2.7-.1-2.7.4-6.1-.4-8.1-2 .2-3.9 1.1-5.4.5-.4-2.5 1-3.2 1.8-4.5 4.1 0 6.6.7 10.4 0 4.5 5.9 8.6 12.2 10.4 20.7 1-6.7.6-15.9-4.5-18 1.6-3.8 7.4-3.9 10.4-1.8 1.3-.3 2.6-.9 3.6-1.8 9 2.9 17.9.2 26.6.9 6 .5 12.4-1.6 17.6-.9.9.1 1.5-.1 1.8 1.4 4.6-2.5 18.4 1.4 23.4-1.4 3.9 1.3 11.4 1.4 13.1 0 5.4 1.4 14.3-.8 18.9 1.4.2 2-2.6 1-3.6 1.8 1.8 5.3 3.6 12.8 2.2 19.8-2.4-5.6-14.7-8.3-19.8-3.2 1.8-7.7 7.9-11.1 13.5-14.9-3.3-3.2-9.3.3-13.5.5-.5-.5-.5-1.6-.4-2.7-5.5.8-3.6 9-4.1 14.9.6 1.2 1.8 1.9 3.2 1.8-.9 4.2-6.2 4.2-8.6 1.4-2-.3-2 1.3-3.6 1.4 1.3-2.7 2.4-5.7 6.8-5.4.9-4.7 0-8.1-.4-12.6-2.3-.1-4.4.1-5.9.9-.9-.4-1.6-1.6-.9-2.3-2.7 1.2-7.3.5-10.4 1.4-1.4 5-4.1 8.9-5.9 13.5 6.6-2.5 16.4 1 14.9 10.8-2.3-6-12.1-8.9-18.5-6.8 2.9-3.8 4.4-9.1 4.1-16.2-1-.8-3.3-.3-5-.5.1-1.4 0-2.8.6-3.4zm-44.2 9.9c1.2 3.8 8.6 3.4 10.8 0 0-3.2 1.5-5.1 2.3-7.7-7.5-.9-15 1.6-13.1 7.7zm31.6 9.1c8.1.1 11-12.4 4.1-16.7-12.7-2.5-13.5 16.5-4.1 16.7zm60.8-14.9c-2.6 1.9-5.9 3.1-7.2 6.3 6.6-.6 9.4 2.6 12.6 5.4-1-4.7-1.8-9.6-5.4-11.7z"/></g></svg>