<svg enable-background="new 0 0 300 300" viewBox="0 0 300 300" xmlns="http://www.w3.org/2000/svg"><g opacity=".98"><path d="m10.8 174.3c.1 4.1.6 8.3 1.5 12.3.6 3.1 1.5 6.2 2.4 9.2-.4 0-.9-.2-1.2-.4-2.8-1.4-5.5-2.9-8.3-4.2-.5-.2-.9-.7-1-1.3-1.4-5.5-2.4-11.2-2.8-16.9 0-.2 0-.4-.2-.5v-11.9c.3-1.4.5-2.9.6-4.3 1.6-13.4 6.3-26.3 13.7-37.6.5-.9 1.2-1.8 1.9-2.7-1 5.4-1.6 10.8-1.6 16.3 0 .3-.1.5-.2.8-3 8.3-4.8 16.9-5.2 25.7-.4 5.1-.2 10.3.4 15.5z" fill="#f26f22"/><path d="m240.9 241.2c0-.2-.2-.2-.4-.2-3.1-.5-5.6-3-6.1-6.2-.7-2.7-.7-5.5 0-8.2.8-3.6 4-6.1 7.6-6 2.6 0 5.2.5 7.7 1.3.9.3 1 .2 1-.8 0-2.3 0-4.6 0-7 0-.7.2-.9.8-.9 2.1 0 2.1 0 2.1 2.1v24.3c0 .3.3 1-.3 1s-1.5.4-1.8-.5c-.3-.7-.6-.8-1.3-.5-1.7.5-3.4.9-5.2 1.2-.2 0-.4 0-.4.2zm9.9-10.3v-5.9c0-.4.1-.8-.4-.9-2.5-.9-5.1-1.3-7.8-1.3-2.5 0-4.6 1.8-5.1 4.2-.6 2.2-.7 4.5-.2 6.7.7 3.8 2.6 5.3 6.5 5.3 2.2-.1 4.5-.5 6.6-1.2.5-.1.5-.5.5-.9z" fill="#c41d77"/><path d="m203.4 241.2c0-.2-.2-.2-.4-.2-3.1-.5-5.6-2.9-6.2-6-.7-2.7-.7-5.6.1-8.4.8-3.6 4-6.1 7.7-6 2.6.1 5.1.5 7.6 1.3.8.2 1.5.5 1.9-.6.3-.6 1.1-.3 1.7-.3s.3.6.3.9v17.9c0 .3.2.9-.3.9s-1.4.4-1.7-.4-1-.8-1.8-.6c-1.5.5-3.1.8-4.7 1.2-.2 0-.4 0-.5.2zm9.8-10.3c0-2 0-3.9 0-5.8 0-.4.1-.8-.5-1-2.5-.9-5.1-1.3-7.8-1.3-2.3.1-4.3 1.7-4.9 3.9-.7 2.4-.8 4.9-.3 7.3.8 3.4 2.7 4.9 6.2 4.9 2.3-.1 4.5-.5 6.7-1.2.5-.1.5-.5.5-.9.1-1.9.1-3.9.1-5.9z" fill="#c41d77"/><path d="m101.2 155.3h-40.1c-1.6 0-1.6 0-1.6 1.6 0 5.6 1.1 11.2 3.1 16.5 3.3 8.1 9.3 13.1 17.5 15.8 5.6 1.7 11.3 2.6 17.1 2.7 9 .5 17.7-1.3 26.3-3.6 4-1.1 7.8-2.4 11.6-3.9.5-.2.8-.3 1 .4.8 2.6 1.6 5.3 2.4 7.9.2.7-.1.8-.6 1-5.5 2.4-11.2 4.3-17 5.7-8.5 2.2-17.3 3-26.1 2.5-7.9-.2-15.7-1.7-23.2-4.2-8.5-3.1-15.6-8.1-20.5-16-3-5-5-10.5-5.9-16.3-1-5.9-1.4-11.8-1.1-17.8.1-8 1.7-16 4.7-23.4 5-11.5 13.7-18.8 25.7-22.3 5.7-1.6 11.5-2.4 17.4-2.4 6.7-.3 13.4.4 19.9 2 11 2.9 19.5 9.1 24.9 19.4 2.6 5.1 4.3 10.5 5.2 16.1.9 5.7 1.3 11.5 1.2 17.4 0 .9-.3 1-1 1zm-7.8-9.3h10.4 22.8c.9 0 1.1-.2 1-1.1-.1-1.2-.1-2.5-.2-3.8-.2-3.9-.8-7.8-1.9-11.6-2.7-9.3-8.5-15.6-17.9-18.2-9-2.6-18.5-2.5-27.5.1-7.9 2.2-14.3 8-17.2 15.7-2.4 5.7-3.1 11.7-3.4 17.8-.1 1 .3 1.1 1.1 1.1z" fill="#818285"/><path d="m15.4 133.1c.1-.3.1-.5.2-.8 0-5.5.6-11 1.6-16.4.8-4 1.9-7.9 3.2-11.8 4.2-12.3 11.4-23.3 20.9-32.1.1-.1.2-.2.3-.2l.2.2c-1.4 1.6-2.8 3.1-4.2 4.7-7.6 9.2-12.9 20-15.5 31.6-.1.3-.3.7-.1 1.1-.3 0-.1.2-.2.4-.9 4.1-1.4 8.2-1.6 12.3-.2 2.3-.2 4.5-.1 6.8-.1 2.6.1 5.2.5 7.8.4 3.4 1 6.8 1.8 10.2 1.8 7.4 4.5 14.5 8.1 21.2.3.8.8 1.6 1.4 2.3 0 .2.1.4.2.5 3.3 5.8 7.2 11.2 11.8 16 11.5 12.2 26.4 20.7 42.8 24.3 5.7 1.3 11.5 2 17.4 2 17.8.3 35.3-5.1 49.8-15.4.3-.2.5-.5.9-.5-.6 3.6-1.2 7.1-1.7 10.6 0 .5-.3.9-.7 1.1-9.7 6.3-20.5 10.7-31.9 12.9-6.3 1.2-12.7 1.7-19.1 1.6-2.9-.2-5.9-.4-8.8-.8-9-1.2-17.7-3.7-25.8-7.6-9.5-4.5-18.2-10.8-25.5-18.4-5.3-5.4-9.8-11.4-13.6-17.9-2.4-4.2-4.5-8.6-6.2-13.1-.7-2.3-1.5-4.6-2.2-6.9-1-3.3-1.7-6.7-2.3-10.1-.7-4.1-1.1-8.2-1.2-12.4-.1-1-.2-2.1-.4-3.2z" fill="#c41d77"/><path d="m21.4 165.9c1.8 4.5 3.9 8.9 6.2 13.1 3.8 6.5 8.3 12.5 13.6 17.9 7.3 7.6 16 13.8 25.5 18.4 8.1 3.9 16.9 6.5 25.8 7.7 2.9.4 5.9.6 8.8.8.9.2 1.8.4 2.8.3 6.4.5 12.8.3 19.2-.7h.4c-.8 1.2-1.6 2.3-2.4 3.4-1.2 1.7-2.4 3.3-3.6 5.1-.4.6-1.1 1-1.8 1-3 .3-6 .5-9 .5-5 0-10-.4-14.9-1.2-8.4-1.4-16.6-4-24.3-7.8-.3-.1-.5-.4-.8-.2-.1-.4-.3-.4-.6-.4 0-.2-.3-.2-.4-.3-1.1-.5-2.2-1.1-3.2-1.8-10.1-5.8-18.9-13.6-25.9-22.9-6.1-8.1-10.7-17.1-13.7-26.7-.9-2.2-1.4-4.2-1.7-6.2z" fill="#ccdc55"/><path d="m21.4 165.9c.3 2.1.8 4.1 1.5 6 3 9.6 7.6 18.7 13.7 26.7 7 9.3 15.8 17.1 25.9 22.9 1 .7 2.1 1.4 3.2 1.8 0 .3.1.4.4.3.1.3.3.4.6.4 1.7 1.2 3.5 2.3 5.4 3.2 3.7 1.9 7.5 3.5 11.4 4.9l.8.3c-.9.5-1.7.9-2.4 1.3-2.4 1.2-4.8 2.4-7.2 3.6-.4.2-.9.2-1.3.1-10.9-4.1-20.9-10.4-29.4-18.4-3.7-3.5-7.1-7.3-10.1-11.4-.2-.2-.3-.5-.6-.5 0-.3-.2-.5-.4-.6l-.2-.3c-.6-.8-1.1-1.6-1.6-2.4-2.8-4.3-5.3-8.9-7.4-13.6-3.8-9-6.2-18.6-6.9-28.4-.3-4.3-.3-8.6 0-12.9.7 3.4 1.4 6.8 2.4 10.1.7 2.2 1.4 4.6 2.2 6.9z" fill="#818285"/><path d="m16.8 148.8c-.3 4.3-.3 8.6 0 12.9.7 9.8 3 19.4 6.9 28.5 2.1 4.7 4.5 9.3 7.4 13.6.5.9 1 1.7 1.6 2.4 0 .2 0 .3.2.3-.1.3 0 .6.4.6-.2.4.1.6.3.9 3.1 4.9 6.7 9.6 10.8 13.7.2.2.4.5.8.9h-1.9c-3 0-6 0-9 0-.5 0-1-.2-1.3-.5-10-11.1-17.1-24.5-20.7-39-.7-2.7-1.2-5.4-1.6-8.2 0-.2-.1-.4-.1-.6-.6-5.2-.8-10.4-.6-15.6.4-8.8 2.2-17.4 5.2-25.6.2 1.1.2 2.3.2 3.4.3 4.1.7 8.2 1.4 12.3z" fill="#23bff0"/><path d="m91.8 78.8c1.7.1 3.5.2 5.2.3 20.8 1.8 39.1 9.3 54.4 23.6 8 7.4 14.2 16.5 18.4 26.5.2.3.2.6.2 1l-1.4-2.9c-7.2-14-18.7-25.4-32.8-32.5-9-4.7-18.8-7.7-28.9-8.9-18.3-2.2-36.9 1.4-53 10.4-.4.2-.8.5-1.3.5.2-.4.6-.5.9-.8 11-8.8 24.3-14.7 38.3-17.2z" fill="#f26f22"/><path d="m41.8 92.9c2.4-2.2 4.9-4.6 7.4-6.8 11.9-10.1 26.3-16.8 41.7-19.5 4.5-.7 9.1-1.1 13.7-1.1 6.7.1 13.3 1.1 19.7 2.9-2.4-.4-4.9-.9-7.3-1.2-5.3-.6-10.7-.7-16.1-.2-7.4.7-14.6 2.5-21.5 5.3-6.4 2.6-12.3 6-17.8 10-.2.1-.4.3-.5.5-3.1 2.3-6.1 4.8-8.8 7.5-6.8 6.7-12.4 14.5-16.8 23-.7 1.2-1.3 2.5-1.7 3.9-.2 0-.2.3-.2.4-2.2 4.5-3.8 9.3-4.9 14.2-1 4-1.7 8.1-2.1 12.2 0 .2-.1.4-.2.6-.1-1-.2-2-.2-3 0-2.6 0-5.1.1-7.6.3-4.3.8-8.5 1.7-12.7 1.4-7.1 3.8-14 7-20.5 1.5-1.7 3-3.5 4.4-5.2.8-.7 1.5-1.5 2.1-2.4z" fill="#818285"/><path d="m33.9 117.2c.4-1.4 1-2.7 1.7-3.9 4.3-8.5 10-16.3 16.8-23 2.7-2.7 5.6-5.3 8.8-7.5 2.9-1.2 5.8-2.5 8.8-3.5 7.4-2.6 15.2-4.3 23-5 11.8-1.1 23.6.3 34.8 4 8.6 2.9 16.6 7.3 23.7 13 .2.2.5.3.6.7-.4.2-.5-.1-.8-.3-8.9-6.4-19.1-10.8-29.9-12.8-7.6-1.4-15.3-1.8-22.9-1-2.2.2-4.5.5-6.7.9-14.1 2.5-27.3 8.5-38.5 17.3-.3.2-.7.4-.9.8-2.2 1.7-4.3 3.6-6.3 5.5-4.4 4.2-8.3 8.9-11.6 14-.2.3-.4.5-.6.8z" fill="#23bff0"/><path d="m35.1 100.6c-3.3 6.5-5.6 13.4-7.1 20.5-.9 4.2-1.4 8.4-1.7 12.6-.2 2.5-.1 5.1-.1 7.6 0 1 0 2 .2 3 .5 8.2 2.1 16.2 4.9 23.9.3.7.5 1.4.6 2.1-.6-.7-1.1-1.5-1.4-2.3-3.6-6.7-6.3-13.8-8.1-21.2-.8-3.3-1.4-6.7-1.8-10.2-.4-2.6-.6-5.2-.5-7.8.2-1.1.4-2.2.7-3.2.6-2.4 1.1-4.7 1.7-7.1l2.1-5.8c1.2-3.5 2.8-6.8 4.4-10.1 2.5-4.7 5.3-9.1 8.5-13.4 5.1-6.7 11.1-12.6 18-17.5s14.5-8.7 22.6-11.2c2.3-.7 4.6-1.3 7-1.7-3.2 1-6.4 1.9-9.5 3.2-6 2.4-11.7 5.7-16.9 9.6-7 5.4-13 11.8-17.8 19-1 1.3-1.9 2.8-2.5 4.3-.2 0-.2.1-.2.3-1.3 1.6-2.3 3.5-3.1 5.4z" fill="#ccdc55"/><path d="m170.8 149.7c0 3-.1 6 0 9 .2 5.2-2.8 7.1-6.9 7.7-3.6.4-7.3 0-10.8-1.1-1.2-.3-.6-1-.5-1.6.1-.9.6-.7 1.1-.5 2.7.9 5.5 1.3 8.3 1.2 4.7-.3 5.9-3 5.8-6.7 0-.6-.4-.4-.7-.3-1.8.6-3.7 1-5.6 1.3-1.6.2-3.2.2-4.7-.2-2.7-.7-4.7-2.8-5.4-5.5s-.8-5.5-.2-8.2c1.2-5.3 5.2-6.9 9.7-6.5 2.2.3 4.3.7 6.4 1.4.6.2.9.1 1.1-.4.4-1 1.2-.6 1.9-.6.5 0 .3.5.3.8.2 3.4.2 6.9.2 10.2zm-3-1.2v-5.9c0-.4 0-.8-.4-.9-2.5-.9-5.1-1.3-7.8-1.3-2.3.1-4.2 1.6-4.9 3.8-.8 2.5-.9 5.2-.3 7.7.7 3.2 2.7 4.6 6 4.7 2.2-.1 4.5-.5 6.6-1.1.7-.2.9-.5.9-1.2-.1-2-.1-3.9-.1-5.8z" fill="#818285"/><path d="m180.1 225.9-4.5 12c-.2.6-.5 1.2-.7 1.9s-.2 1-1.1 1c-.7.1-1.3-.3-1.5-1-2.6-6-5.2-11.9-7.8-17.9-.4-.9-.2-1 .7-1 2.3 0 2.3 0 3.2 2.1 1.8 4.3 3.6 8.6 5.5 13.2l2.1-5.6c1.1-3 2.2-5.9 3.2-8.9.3-.7.7-.9 1.3-.9.7 0 .9.3 1.1.9 1.6 4.4 3.2 8.8 4.8 13.2.1.4.3.7.5 1l2.7-6.7 3-7.5c.6-.8 1.7-1.1 2.7-.8.4.3 0 .5-.1.8l-3.4 8.1c-1.4 3.4-2.9 6.7-4.2 10.1-.3.8-.8.8-1.5.8-.6.1-.8-.4-1-.9-1.5-4.3-3.1-8.6-4.7-12.9.1-.2-.1-.6-.3-1z" fill="#c41d77"/><path d="m193.1 149.7c0 3-.1 6 0 9 .2 5.3-3 7.2-7 7.7-3.6.4-7.2 0-10.6-1.1-1.1-.3-.5-.9-.5-1.5.1-.6.5-.8 1.1-.6 2.6.8 5.3 1.3 8 1.2 5-.2 6.1-3.1 6.1-6.7 0-.6-.3-.5-.7-.4-1.9.6-3.7 1-5.7 1.4-1.5.2-3 .2-4.4-.2-2.1-.5-3.7-2.2-4.1-4.4-.4-1.8-.5-3.5-.5-5.3-.1-3 0-6 0-9 0-.4-.2-.9.2-1.1.6-.3 1.3-.2 1.8.1.6.5.9 1.2.9 1.9v9.1c0 .9.1 1.9.2 2.8.4 3 2.3 4.4 5.5 4 2.1-.3 4.1-.7 6.1-1.3.7-.2.5-.6.5-1 0-3.2 0-6.4 0-9.6 0-1.8.1-3.6.1-5.4 0-.5.1-.7.7-.8 2.2 0 2.2-.1 2.2 2.1z" fill="#818285"/><path d="m197.4 152.4c0-4.3 0-8.5 0-12.8 0-.3-.3-.9.4-1s1.4-.4 1.7.4 1 .8 1.7.6c1.8-.6 3.6-1 5.5-1.2 6-.8 9.9 2.3 10.5 8.3.3 2.4 0 4.8-.8 7.1-1.1 3-3.9 4.9-7.1 5-2.7 0-5.3-.4-7.8-1.3-.8-.3-1.2-.2-1.1.8.1 2.4 0 4.8 0 7.1 0 .6-.1.9-.8.9-2.2 0-2.2 0-2.2-2.1zm16.7-3.8c.1-1.3-.1-2.6-.4-3.8-.5-2.7-2.9-4.5-5.6-4.4-2.4 0-4.8.5-7.1 1.2-.4.1-.7.5-.6.9v12.2c0 .4.1.7.5.8 2.3.8 4.6 1.2 7 1.3 2.8.2 5.2-1.7 5.8-4.5.3-1.2.5-2.5.4-3.7z" fill="#818285"/><path d="m142.2 240.8c.9-2 1.7-3.8 2.6-5.6 2.8-6.2 5.7-12.3 8.5-18.5.4-1 1.2-.7 1.9-.8s.9.3 1.1.8c3.3 7.7 6.6 15.3 9.9 23 .4 1.1.4.9-.7 1.1-1.3.4-2.8-.3-3.2-1.6-.1-.2-.1-.4-.1-.6-.4-2-1.6-2.5-3.6-2.4-3.5.2-7 .1-10.6 0-.6-.1-1.2.3-1.4.9-.4.9-.9 1.8-1.2 2.7-.1.6-.8 1-1.4.9-.5 0-1.1.1-1.8.1zm12-20.5-6.1 13.2c-.3.6.1.6.5.6h11.8c-2.1-4.6-4-9-6.2-13.8z" fill="#c41d77"/><g fill="#818285"><path d="m253.7 194.4c-2.5 0-5 0-7.6 0-.6 0-.8.1-.7.8.5 4.4 2.5 6.2 7.1 6.5 2.5.1 5-.4 7.4-1.3.4-.1.9-.4.9.3.1.7.9 1.1-.2 1.6-3.7 1.6-7.8 1.9-11.7.9-3.5-.7-6.2-3.6-6.4-7.2-.3-2.1-.2-4.2.2-6.2.6-3.1 3-5.5 6.1-6.2 2.3-.6 4.8-.6 7.1 0 3.6.9 5.4 3.5 6 7 .2 1 .2 1.9.2 2.9 0 .6-.2.9-.8.9-2.5 0-5 0-7.6 0zm-1.5-1.9h5.9c.4 0 .8 0 .8-.6-.1-3.2-1.2-5.8-4.9-6.4-.7-.1-1.4-.1-2.1-.1-4 0-6.3 2.4-6.4 6.3 0 .6.2.8.8.8z"/><path d="m194.4 203.7c-1.3.1-2.6 0-3.9-.4-2.9-.7-5.2-2.9-6-5.8-.7-2.5-.8-5.2-.1-7.7.7-3.1 3.2-5.5 6.3-6.1 2.4-.6 5-.6 7.5 0 3.3.7 5.8 3.3 6.4 6.5.6 2.4.5 4.8-.1 7.2-1 3.7-4.4 6.3-8.3 6.3-.6 0-1.3 0-1.8 0zm7.6-10.1c0-.6 0-1.2-.1-1.9-.1-3.1-2.4-5.8-5.4-6.2-1.2-.2-2.4-.2-3.6 0-2.7.2-4.9 2.1-5.5 4.7-.6 2.1-.6 4.3-.1 6.5.4 2.3 2 4.1 4.3 4.8 1.9.5 3.9.5 5.8 0 2-.5 3.6-2 4.2-4 .2-1.4.4-2.7.4-3.9z"/><path d="m208.1 193.4c0-3 0-5.9 0-8.9 0-.3-.2-.9.3-.9s1.4-.4 1.8.4.9.8 1.6.6c2.3-.8 4.7-1.2 7.2-1.3 4.5-.1 6.9 2.1 7.2 6.6.4 4.3.1 8.6.2 12.9 0 .2.1.7-.3.6-.7 0-1.4.4-2-.3-.5-.5-.8-1.2-.8-2 0-3.7.2-7.5-.1-11.2-.3-3.1-1.8-4.5-5-4.5-1.2 0-2.5.2-3.6.5s-2.6.2-3.3 1.1c-.7.8-.2 2.2-.2 3.3v12.1c0 .7-.1 1.1-1 1-2 0-2 0-2-2z"/><path d="m265.1 193.4c0-3 0-5.9 0-8.9 0-.3-.3-.9.3-1 .6 0 1.4-.4 1.7.3.4.8.9.8 1.7.6 2.3-.7 4.6-1.2 7-1.3 4.7-.1 7 2.1 7.4 6.7.3 4.2.1 8.5.1 12.7 0 .3.1.7-.4.7-.4 0-1.3.3-1.8-.2s-.8-1.2-.8-2c0-3.7.2-7.5-.1-11.2-.3-3.2-1.8-4.6-5-4.6-1.5.1-3 .3-4.5.7-2.7.6-2.7.7-2.7 3.4v12.9c0 .8-.2 1-1 1-1.9 0-2 0-2-2v-7.8z"/><path d="m166.9 190.8c0 1.3.1 2.6.4 3.8 1.2 5.3 5.4 7.1 10.1 6.6 1.7-.2 3.3-.6 4.9-1.2.4-.1.8-.3.8.3s.9 1.2 0 1.6c-4 1.6-8.1 2.4-12.4.9-2.9-1-5.2-3.3-6.2-6.2-1.4-3.7-1.4-7.7-.1-11.4 1.6-4.4 4.9-6.4 9.4-6.8 3-.1 5.9.4 8.7 1.5.4.1.5.3.4.7-.1.3-.2.6-.3 1-.1.5-.4.6-.9.4-1.6-.6-3.3-1-4.9-1.2-5.1-.6-8.7 2.1-9.6 7.1-.2.8-.3 1.8-.3 2.9z"/><path d="m224.2 147.6c-.1 2.1 0 4.2.2 6.2.1 1.6 1.4 2.8 3 2.7 1.3.1 2.6 0 3.9-.4 1.1-.4 1 .5 1.2 1.1s0 .9-.6 1c-2.1.6-4.3.7-6.4.3-2.3-.2-4.1-2.2-4.1-4.5-.3-3.4-.1-6.8-.2-10.2 0-.2 0-.5 0-.7 0-.7.2-1.6-.1-2.2s-1.3-.2-2.1-.2c-.4 0-.6-.2-.6-.6-.1-1.6-.1-1.7 1.5-1.6.8.2 1.7-.3 1.8-1.2.2-.7.7-1.4 1-2.1.2-.5.6-.6 1-.5.5 0 .4.5.4.8v2.2c0 .7.2.8.8.8h5.3c.9 0 1.2.2 1.2 1.1s-.3 1.1-1.1 1.1c-1.7 0-3.4 0-5.1 0-.8 0-1.1.2-1.1 1 .1 1.9.1 3.7.1 5.9z"/><path d="m290.5 191.9c.1 2.1-.1 4.2.2 6.4s1.2 3.2 3.4 3.2c1.2.1 2.5-.1 3.6-.4 1.2-.3.9.7 1.1 1.2.4.7-.1.8-.6.9-1.7.4-3.4.6-5.1.5-3.6-.1-5.2-1.8-5.4-5.4-.2-3.8-.1-7.6-.1-11.4 0-.9-.2-1.4-1.2-1.2h-.2c-1.2 0-1.8-.8-1.3-1.9.1-.4.4-.3.7-.3 1.7.4 2.6-.5 3-2 .1-.5.4-.9.6-1.4s.6-.4 1-.4.3.4.3.7c.1.7.1 1.4 0 2.1-.1.8.3 1 1 1h5.5c1.1 0 .7.7.7 1.2.1.5.1 1-.8 1-1.9 0-3.8 0-5.7 0-.6 0-.8.2-.8.8.2 1.8.1 3.5.1 5.4z"/><path d="m233.5 191c.1 2.8-.1 5 .2 7.2.2 2.2 1.2 3.2 3.5 3.3 1.2 0 2.4-.1 3.6-.4 1-.3.8.6 1 1.1s.3.8-.4 1c-2 .5-4 .7-6 .5-3.1-.4-4.6-2-4.7-5.4-.1-3.8-.1-7.6-.1-11.4 0-.9-.2-1.3-1.2-1.1-.1 0-.3 0-.4 0-.4-.1-1 .2-1.1-.2-.1-.6-.1-1.2 0-1.8 0-.4.5-.3.8-.2 1.1.3 2.3-.3 2.7-1.4 0-.1.1-.2.1-.4.2-.5.5-1 .7-1.6.2-.5.6-.5 1-.4.4 0 .4.5.4.8v2.1c-.1.8.2.9 1 .9h5.4c1.1 0 1 .5 1 1.2s-.2 1.1-1.1 1.1c-1.8 0-3.6 0-5.3 0-.9 0-1.1.3-1 1.1-.1 1.4-.1 3-.1 4z"/></g><path d="m220.3 230.9c0-3 0-6 0-9 0-.3-.2-.9.3-.9s1.4-.4 1.7.4c.4.8.9.9 1.8.7 2.4-.4 5-.8 7.5-1.1.8-.1 1.3.1 1.1 1v.8c0 1.5 0 1.5-1.5 1.3-2.4-.3-4.7-.5-7.1-.8-.8-.1-.9.1-.9.8v15.5c0 .9-.2 1.2-1.2 1.1-1.8-.1-1.8 0-1.8-1.7z" fill="#c41d77"/><path d="m28.8 102.7c-1.6 3.3-3.1 6.7-4.4 10.1l-2.1 5.8c-.8 1.1-1.5 2.3-2.2 3.5.2-4.1.7-8.2 1.6-12.3.2-.1.2-.2.2-.4 1.1-1 2.1-2 3-3.1 1.4-1.1 2.6-2.5 3.9-3.6z" fill="#f26f22"/><path d="m152 191.3c-2.1 0-4.2 0-6.3 0-.9 0-.8-.5-.8-1.1s-.2-1.2.8-1.2h12.8c1 0 .8.6.8 1.2s.1 1.1-.8 1.1c-2.2 0-4.4 0-6.5 0z" fill="#818285"/><path d="m35.1 100.6c.8-2 1.8-3.8 3-5.6.1 0 .3-.1.2-.3.8-.3 1.6-.8 2.3-1.3l1-.5c-.6.9-1.3 1.7-2.1 2.4-1.4 1.9-2.9 3.6-4.4 5.3z" fill="#f26f22"/><path d="m42.2 71.3c.4-.5 1-.9 1.5-1.3-.3.6-.8 1.1-1.4 1.4z" fill="#c41d77"/><path d="m44.4 69.6c-.1-.4.3-.2.4-.4l-.1.1c-.1.1-.1.3-.3.3z" fill="#c41d77"/><path d="m152.8 92.6c-.3-.1-.6-.3-.7-.6.4 0 .7.2.7.6z" fill="#23bff0"/><path d="m85.5 58.8h.2s-.1 0-.2 0z" fill="#ccdc55"/><path d="m33.6 117.6c0-.2 0-.4.2-.4.1.2 0 .3-.2.4z" fill="#23bff0"/><path d="m153.4 93c.1 0 .2.1.2.2v.1.1c-.1-.1-.2-.2-.2-.4.1 0 .1 0 0 0z" fill="#23bff0"/><path d="m32.1 170.9c-.2-.1-.2-.3-.2-.5.2.1.2.3.2.5z" fill="#ccdc55"/><path d="m43.8 70c.1-.2.2-.3.4-.2-.1.2-.2.4-.4.2z" fill="#c41d77"/><path d="m41.6 71.9.2-.2.2.2-.2.2z" fill="#c41d77"/><path d="m41.8 71.7.2-.2.1.2-.1.2z" fill="#c41d77"/><path d="m152.9 92.5.1.2c-.1.1-.1 0-.1-.2z" fill="#23bff0"/><path d="m41.8 92.9-.3.1z" fill="#f26f22"/><path d="m153.4 93h-.2l.1-.1z" fill="#23bff0"/><path d="m44.2 69.8c0-.2 0-.2.2-.2z" fill="#c41d77"/><path d="m42 71.5.2-.2.2.2-.2.2z" fill="#c41d77"/><path d="m20.2 122.2c.7-1.2 1.4-2.4 2.2-3.5-.6 2.4-1.1 4.7-1.7 7.1-.2 1.1-.4 2.2-.7 3.2 0-2.3 0-4.6.2-6.8z" fill="#23bff0"/></g></svg>