<svg enable-background="new 0 0 300 300" viewBox="0 0 300 300" xmlns="http://www.w3.org/2000/svg"><g opacity=".98"><path d="m27.6 139.6c-3.8-1.5-5.9-2.1-9.7-2.1-4.1 0-9 1.5-9 6.8 0 9.9 22.2 7.6 22.2 24.7 0 11-8.5 15.4-18.9 15.4-3.6-.1-7.2-.9-10.6-2.1l.7-6.8c3.4 1.4 7 2.3 10.7 2.4 4.2 0 10.1-2.4 10.1-8.4.1-11.6-22.1-8.4-22.1-24.5 0-9.1 7.3-14.1 16.6-14.1 3.8 0 7.5.6 11 1.8z" fill="#082551"/><path d="m60.5 151.4h-10v20.6c0 4.4 2.7 6.7 5.8 6.7 1.7 0 3.3-.4 4.7-1.3v5.9c-1.9.6-3.9 1-5.9 1-7.2 0-11.6-3.4-11.6-10.9v-22.1h-8.5v-5.6h8.5v-8.7l7-2.2v10.9h10z" fill="#082551"/><path d="m91.7 165.5c-1.5 0-3-.1-4.4-.1-3.8 0-13.1.6-13.1 7.3 0 4 3.9 6.2 7 6.2 6.8 0 10.5-4.3 10.5-9.9zm-20.7-17.1c3.7-2.3 8-3.6 12.4-3.6 10.8 0 15.2 5.3 15.2 15.6v15.7c0 2.5.1 5 .3 7.5h-6.6v-4.9h-.1c-2.7 3.7-7.1 5.9-11.7 5.8-8.1 0-13.8-3.6-13.8-11.8 0-9.5 10.4-12.4 17.5-12.4 2.7 0 4.7 0 7.4.1 0-6.5-2.4-9.8-9.3-9.8-4 0-7.8 1.4-10.9 3.9z" fill="#082551"/><path d="m110.4 145.7h6.5v5.9h.1c1.7-4 5.6-6.6 9.9-6.8 1.5 0 3.1.2 4.6.5v6.3c-1.2-.5-2.5-.7-3.9-.7-6.2 0-10.3 5.9-10.3 15.4v17.2h-7v-37.8z" fill="#082551"/><path d="m159.3 151.4h-10v20.6c0 4.4 2.7 6.7 5.9 6.7 1.7 0 3.3-.4 4.7-1.3v5.9c-1.9.6-3.9 1-5.9 1-7.2 0-11.6-3.4-11.6-10.9v-22.1h-8.5v-5.6h8.5v-8.7l7-2.2v10.9h10z" fill="#082551"/><path d="m193.6 83.3c2.4 1.8 3.9 5.9 5.5 9.4 1.3 2.9 3.3 6.1 2.3 8.7-2.6-.9-3.8-4.6-5.4-7.9-1.5-2.9-4.9-8-2.4-10.2" fill="#fdbd18"/><path d="m286.4 103.2c.1 3.6-3.2 6.4-5.3 9-1.9 2.4-3.8 6.5-7.3 6.3 2.1-5.9 7.1-11.6 11.6-15.5z" fill="#fdbd18"/><path d="m290.6 187c-6 0-14.1-3.8-18.3-6.9 0-.6.5-.5.6-1 5.9 1.4 15.4 3.2 17.7 7.9" fill="#fdbd18"/><path d="m241.1 88c3.1-3.9 6.7-3.2 7.9 1.7l7.3 29.1c1.7 5.4 5.6 9.8 10.8 12l28.1 10.4c4.7 1.8 5.1 5.4.8 8l-25.4 16c-4.6 3.3-7.6 8.4-8.1 14l-1.3 30c-.2 5-3.5 6.5-7.4 3.3l-23-19.2c-4.5-3.4-10.3-4.6-15.8-3.4l-28.9 8.1c-4.8 1.3-7.2-1.4-5.4-6l11.2-27.8c1.8-5.3 1.2-11.2-1.7-16.1l-16.6-24.9c-2.8-4.2-.9-7.3 4.1-7l29.9 2c5.6.1 11-2.3 14.7-6.5z" fill="#fdbd18"/><g fill="#082551"><path d="m214.3 209.8c2.7 1.2 7.3 1.9 10.3.9.2-.1.6-.6 1 0-.3 2.7-1.1 2.2-3.1 4-1.1 1-2.1 3-4.6 1.5-.6-.4-.7-1.4-1.3-2-1.1-1.1-3.3-2-2.3-4.4"/><path d="m229 198.5c-1.6 5.5-16 5-16.3-1.6 3.9 3.4 11.4 3.7 15.3 1.2.6-.1.5.4 1 .4"/><path d="m228 202.2c.4 3.3-5.3 4.3-9 3.8-3.1-.5-6.3-2.4-6.1-4.7 4.1 3.4 10.9 2.7 15.1.9"/><path d="m212.6 205.3c3.4 1.6 8.4 3.3 13 1.4.3-.1.8-.7 1.3 0-.5 3.4-1.6 2.7-4.1 5-1.4 1.2-2.7 3.8-5.8 1.8-.8-.5-.9-1.9-1.5-2.6-1.4-1.4-4.2-2.6-2.9-5.6"/><path d="m232.8 182.8c-2.4.1-1.5 1-8.3-.1-7.5-1.1-5.6-2-8.1-3.2l-1.6-.3c-.2 2.3 1 4.5 3.1 5.6 2.3 2.1 9.6 2.6 12 2.2 4.6-.8 4.3-4.1 4.3-4.1z"/><path d="m233.9 147.2c-4 7.3-6.8 15.3-8.3 23.5-.5 2.6-.9 6.2 1.2 8.1 3.2 2.9 8 .3 9.5-3.1.7-1.7-2.6-1.5-3.1-.3-.4 1-1.3 2.6-2.7 2.3-.9-.3-1.6-1.1-1.8-2.1-.6-2.3 0-5 .6-7.2 1.6-7.3 4.2-14.3 7.7-20.9.4-.7-.3-1.2-1-1.3-.8-.1-1.6.3-2.1 1"/><path d="m229.8 159.4c2.2 1.7 4.9 1 7.2 0 .6-.3 1.2-1.1.8-1.8-.6-.6-1.5-.7-2.3-.3-1.1.5-2.2.9-3.2.1-1.3-1-4.1.7-2.5 2"/><path d="m216.2 150.8c.3 2.5.9 4.9 1.6 7.3.6 2.6.9 5.3 1 8 .1 1.8 0 3.7 0 5.5 0 1.5-.1 3.5-1.3 4.6-.4.3-.4.8-.1 1.2.1.2.3.3.5.3.8.2 1.7 0 2.3-.6 1.2-1.4 1.8-3.1 1.8-4.9.2-2 .1-4 .1-6-.1-2.8-.3-5.5-.8-8.2s-1.6-5.3-1.8-8.1c-.1-1.4-3.4-.6-3.3.9"/><path d="m218 142.5c-.5-2.7-3.4-2.6-5.2-1-1.3 1.1-2.1 3.5-.7 4.9 1.1.9 2.4 1.3 3.7 1.1 2.1 0 4.1-1.2 5.2-3 .9-1.6.8-3.7-.3-5.2-1.2-1.4-2.8-2.4-4.6-2.9-.8-.3-1.7-.2-2.3.3-.4.3-1 1.1-.2 1.4 2.1.8 4.7 1.9 4.7 4.6.1 1.1-.5 2.2-1.4 2.8-.6.1-1.2 0-1.7-.4-.8-.5-.4-1.8 0-2.5.1-.2.2-.3.3-.4.3-.3-.2.2.1 0-.2.1-.3.1-.1 0-.2.1-.3.1-.5.1-.6.1-.4 0-.6-.1.1.1 0 0 .1.2.2.3.3.6.3.9.2 1.4 3.5.6 3.2-.8"/><path d="m4.1 211.6h1.1c2-.1 3.5-1.8 3.4-3.8-.1-1.9-1.6-3.3-3.4-3.4h-1.1zm-2.1-9h2.9c3.3 0 6.1 1.1 6.1 5.3s-2.9 5.3-6.1 5.3h-2.9z"/><path d="m12.8 205.4h2v7.8h-2zm0-3.4h2v2h-2z"/><path d="m22.2 209.3c0-1.3-.5-2.4-1.7-2.4-1.4 0-1.8 1.3-1.8 2.5s.6 2.4 1.7 2.4c1.1-.1 1.8-1.3 1.8-2.5m2-3.9v7.1c0 2.1-.9 4.1-4.1 4.1-.9 0-1.8-.2-2.7-.5l.2-1.7c.7.4 1.5.6 2.3.7 2.3 0 2.4-1.7 2.4-3-.5.8-1.5 1.3-2.4 1.3-2.3 0-3.2-1.9-3.2-4 0-1.9 1-4.1 3.3-4.1 1-.1 1.9.4 2.4 1.2v-1.1z"/><path d="m26.4 205.4h2v7.8h-2zm0-3.4h2v2h-2z"/><path d="m31.2 206.9h-1.5v-1.5h1.5v-1.6l2-.7v2.3h1.8v1.5h-1.8v3.6c0 .7.2 1.3 1 1.3.3 0 .6-.1.9-.2l.1 1.6c-.5.1-1 .2-1.5.2-1.3.1-2.4-.8-2.5-2 0-.2 0-.4 0-.6z"/><path d="m39.2 212c.6 0 1.1-.2 1.4-.7s.5-1 .4-1.6h-.9c-.9 0-2.3.1-2.3 1.4.1.6.7.9 1.4.9m-2.4-6.2c.9-.4 1.8-.6 2.7-.6 2.4 0 3.4 1 3.4 3.3v1 2s0 1.1.1 1.8h-1.8c-.1-.4-.1-.8-.1-1.1-.5.8-1.4 1.4-2.4 1.4-1.4.1-2.6-.9-2.7-2.2-.1-1 .5-1.9 1.3-2.3.8-.3 1.7-.5 2.6-.5h1.1c0-1.3-.6-1.7-1.8-1.7-.9 0-1.7.3-2.4.8z"/><path d="m45 201.9h2v11.4h-2z"/><path d="m57.8 204.8-1.5 4.4h3.1zm-1.1-2.2h2.4l4.2 10.6h-2.4l-.9-2.4h-4.3l-.9 2.4h-2.3z"/><path d="m64.5 205.4h1.8v1.8c.2-1.1 1.1-1.9 2.1-2h.6v2.1c-.3-.1-.6-.2-.9-.2-1.7 0-1.7 2.1-1.7 3.2v2.9h-2v-7.8z"/><path d="m73.1 212c.6 0 1.1-.2 1.4-.7s.5-1 .4-1.6h-.9c-.9 0-2.3.1-2.3 1.4.1.6.6.9 1.4.9m-2.4-6.2c.9-.4 1.8-.6 2.7-.6 2.4 0 3.4 1 3.4 3.3v1 2s0 1.1.1 1.8h-1.8c-.1-.4-.1-.9-.1-1.1-.5.8-1.4 1.4-2.4 1.4-1.4.1-2.6-.9-2.7-2.2-.1-1 .5-1.9 1.3-2.3.8-.3 1.7-.5 2.6-.5h1.1c0-1.3-.6-1.7-1.8-1.7-.9 0-1.7.3-2.4.8z"/><path d="m82.7 211.9c1.3 0 1.7-1.5 1.7-2.5s-.4-2.5-1.7-2.5-1.8 1.4-1.8 2.5.4 2.5 1.8 2.5m-3.9-10h2.1v4.6c.5-.8 1.4-1.2 2.3-1.1 2.4 0 3.3 1.9 3.3 4.1s-.9 4.1-3.3 4.1c-.9 0-1.8-.4-2.4-1.1v1h-2z"/><path d="m88.1 205.4h2v7.8h-2zm0-3.4h2v2h-2z"/><path d="m97.4 207.1c-.4-.2-.9-.3-1.4-.3-1.3 0-2.1 1-2.1 2.5s.7 2.6 2.1 2.6c.5 0 1.1-.1 1.6-.4l.1 1.7c-.7.2-1.4.3-2 .3-2.6 0-3.9-1.8-3.9-4.1-.2-2 1.3-3.8 3.4-4h.4c.7 0 1.3.1 2 .3z"/><path d="m111.2 213.2c-.8.2-1.6.3-2.4.3-3.4 0-5.8-1.7-5.8-5.3s2.3-5.7 5.8-5.7c.8 0 1.6.2 2.4.4l-.1 1.8c-.7-.4-1.5-.6-2.3-.6-2 0-3.6 1.6-3.6 3.5v.3c-.2 1.9 1.3 3.6 3.2 3.8h.4c.8 0 1.6-.1 2.3-.4z"/><path d="m116.2 211.9c1.6 0 2-1.4 2-2.7.2-1.1-.6-2.1-1.7-2.3s-2.1.6-2.3 1.7v.6c0 1.2.5 2.7 2 2.7m0-6.7c2.2-.1 4 1.6 4.1 3.7v.4c0 2.3-1.8 4.1-4.1 4.1s-4.1-1.8-4.1-4.1c-.1-2.2 1.5-4 3.7-4.1z"/><path d="m121.9 205.4h1.9v1.1c.6-.8 1.6-1.3 2.6-1.2 1.9 0 2.7 1.3 2.7 3.1v5h-2v-4.2c0-1 0-2.3-1.3-2.3s-1.8 1.6-1.8 2.6v3.8h-2z"/><path d="m131.9 206.9h-1.5v-1.5h1.5v-1.6l2-.7v2.3h1.8v1.5h-1.8v3.6c0 .7.2 1.3 1 1.3.3 0 .6-.1.9-.2l.1 1.6c-.5.1-1 .2-1.5.2-1.3.1-2.4-.8-2.5-2 0-.2 0-.3 0-.5z"/><path d="m142.1 208.6c0-1-.5-1.8-1.7-1.8-1 0-1.8.8-1.8 1.7v.1zm1.3 4.2c-.8.4-1.8.7-2.7.6-2 .2-3.9-1.3-4.1-3.3 0-.2 0-.5 0-.7 0-2.3 1.1-4.1 3.6-4.1 2.9 0 3.7 2 3.7 4.7h-5.4c0 1.1 1 2 2.1 2h.2c.9 0 1.8-.3 2.6-.8z"/><path d="m145.6 205.4h1.9v1.1c.6-.8 1.6-1.3 2.6-1.2 1.9 0 2.7 1.3 2.7 3.1v5h-2v-4.2c0-1 0-2.3-1.3-2.3s-1.8 1.6-1.8 2.6v3.8h-2z"/><path d="m155.6 206.9h-1.5v-1.5h1.5v-1.6l2-.7v2.3h1.8v1.5h-1.8v3.6c0 .7.2 1.3 1 1.3.3 0 .6-.1.9-.2l.1 1.6c-.5.1-1 .2-1.5.2-1.3.1-2.4-.8-2.5-2.1 0-.2 0-.3 0-.5z"/></g></g></svg>