<svg enable-background="new 0 0 300 300" viewBox="0 0 300 300" xmlns="http://www.w3.org/2000/svg"><g opacity=".98"><path d="m256.4 174v2.5c-.2 3.2.8 6.4 2.8 9 1.9 2.1 4.6 3.3 7.4 3.2 3.4-.1 6.8-.8 9.9-2.2 3.6-1.6 7-3.6 10.2-5.9 3.4-2.5 7.5-5.8 12.4-10v5.9c-7.3 8.8-14.2 15.6-20.6 20.3s-12.9 7.1-19.5 7c-5.4.2-10.5-2.3-13.7-6.7-3.4-4.5-5-10.6-5-18.4-.1-6.5 1.6-12.9 4.8-18.5s8.4-11.4 15.6-17.6c4.4-3.9 9.4-7.1 14.7-9.5 4.1-2 8.5-3.1 13-3.2 2.6-.1 5.1.6 7.2 2.1 1.8 1.5 2.8 3.8 2.7 6.2-.1 4.5-1.7 8.8-4.6 12.2-3.1 4.1-7.7 8.1-14 12.1-7.5 4.5-15.3 8.3-23.3 11.5zm1-6.3c5.4-2 10.4-4.9 14.9-8.5 3.5-2.7 6.6-6 9.2-9.7 2-3.1 3-5.3 3-6.8 0-1.4-.7-2.2-2-2.2-1.2 0-3.1.7-5.7 2.2-2.9 1.7-5.5 3.6-8 5.8-2.8 2.5-5.2 5.3-7.2 8.5-2.2 3.3-3.6 6.9-4.2 10.7z" fill="#05ad4b"/><path d="m136.3 196c-11.2 0-21.2-6.7-25.5-17-2.4 2.2-4.6 4-6.4 5.6-2.6 2.2-5.4 4.2-8.2 6.1-2.2 1.5-4.5 2.8-6.9 3.9-1.6.8-3.4 1.2-5.2 1.2-3.3.1-6.5-1.4-8.6-3.9-2.2-2.7-3.4-6.2-3.2-9.7 0-4.3.9-8.6 2.6-12.6 1.9-4.5 4.3-8.7 7.2-12.7 3.1-4.3 6.9-9.1 11.5-14.4.9-1 1.6-1.8 2.2-2.5-.8.6-1.7 1.4-2.8 2.4-3.9 3.3-9 8.4-15.2 14.9-6.2 6.6-12.9 14.4-20 23.4-.4.5-1.7 2.2-3.8 5-1.5 2-3.1 3.9-4.8 5.7-.9 1-2.1 1.6-3.4 1.7-2.9 0-4.1-3.4-4.5-4.5-.9-2.5-1.3-5.2-1.3-7.9.1-2.1.7-4.1 1.8-5.9 1.1-1.9 3.3-5.2 6.8-10s6.3-8.7 8.6-11.9 4.7-7.1 7.4-11.7c1.9-3.2 3.3-5.7 4.2-7.5.7-1.3 1.1-2.8 1.2-4.3v-.1c-.9.4-2.9 1.6-7 5.6-5.6 5.7-10.8 11.7-15.6 18.1-6.2 8-12.8 17.4-19.5 28-2.3 3.7-3.8 6.2-4.8 7.5-1 1.5-2.6 2.5-4.4 2.5-3.2 0-5-4.2-5.5-5.6-1.2-2.5-1.8-5.2-2-7.9 0-1.1.4-2.1 1-2.9 5.4-7.2 9.8-13.2 13.2-18.2 3.4-4.9 6.5-9.7 9.1-14.1 2.1-3.5 4.1-7.1 5.7-10.9.9-2 1.5-4.1 1.7-6.2 0-1-.2-1-.7-1s-2 .2-5.9 2.3c-3.1 1.7-7 4-11.7 6.8s-8.6 5.1-11.5 6.6c-3.2 1.7-5.5 2.5-7.2 2.5-1.9.1-3.6-1.4-3.7-3.3 0-.2 0-.4 0-.6.1-2.1.4-4.1.9-6.2.4-2.4 1-4.7 1.9-6.9 1-1.9 3.3-4.2 7-7 5.7-4.3 6.1-4.3 6.8-4.3 1.1 0 2.1.8 2.1 2v.1c0 .3-.1.6-.2.8 3.9-2.1 8-4 12.1-5.7 6.1-2.5 10.3-3.6 12.8-3.6 1.7 0 3.2 1 4.6 3 1.2 1.8 2.1 3.7 2.8 5.6.6 1.4 1 2.9 1.2 4.4-.1 2.7-.7 5.4-1.7 7.9-1.1 2.8-2.5 6.2-4.3 10l-.6 1.2c1-1.1 1.9-2.3 2.9-3.4 1.9-2.2 3.8-4.4 5.8-6.6 2.8-3.2 5.8-6.2 9-8.9 3-2.5 6.1-4.9 9.4-6.9 4.1-2.6 5.7-2.9 6.7-2.9 2.1.1 4.1 1.2 5.1 3 1.3 1.7 2 3.8 2 6 0 .9-.2 2.7-2.5 7.5-1.5 3.3-3.8 7.6-6.8 12.8-1.3 2.3-2.8 4.8-4.4 7.6 1.5-1.5 3-3.1 4.5-4.7 5-5.2 8.7-9 11.2-11.4 2-2 4-3.9 6.2-5.6s4.5-3.5 6.6-5.4l5.3-4.7c1.2-1 2.4-2 3.7-2.8 1.1-.7 2.3-1.1 3.6-1.1 1.7 0 3.4 1.4 5.4 4.4 2.4 3.6 2.7 4.8 2.7 5.6-.1 1.5-.7 3-1.8 4.1-1 1.2-3 3.4-6 6.6-5.2 5.5-10 11.4-14.3 17.7-3.5 5.1-6.5 10.5-9 16.2-2 4.7-3 8.5-3 11.1-.1 1 .1 2 .6 2.8.1.2.5.6 1.9.6 1 0 2-.2 3-.6 1.2-.5 2.4-1.2 3.5-1.9l3.8-2.5c1.7-1 3.4-2.1 5-3.2l2.5-1.8c-.1-1-.2-2.1-.2-3.1 0-15.3 12.4-27.6 27.6-27.7 15.3 0 27.6 12.4 27.7 27.6-.4 15.5-12.7 27.8-28 27.8zm0-41.7c-7.8 0-14.1 6.3-14 14.1 0 7.8 6.3 14.1 14.1 14 7.8 0 14-6.3 14-14.1 0-7.7-6.3-14-14.1-14z" fill="#841619"/><g fill="#05ad4b"><path d="m257.3 95.6c-3.6-4.3-8.5-7.5-13.9-9.1-3.1-1.1-6.3-1.9-9.5-2.6-4-.8-8.5-1.6-13.4-2.2-5-.6-10.1-.9-15.1-.9-16.8.1-33.5 2.4-49.7 7-7.1 2.1-12.4 4.2-15.8 6.2-3.1 1.8-5.8 4.3-7.9 7.3-2.2 2.8-4 5.9-5.4 9.2-1 2-1.6 4.1-1.9 6.2-.1 1.4.4 2.7 1.2 3.7.9 1 2.3 1.5 3.6 1.4 1.1 0 3.1 0 6-.2s6.4-.3 10.7-.4c7.5-.3 12-.5 13.7-.6 1.6-.1 2.5-.5 2.5-1.1s-.6-1-1.8-1.1c-1.7-.2-3.4-.3-5.2-.2-1.8 0-3.7-.1-5.5-.4-1.5-.3-2.2-.8-2.2-1.5s.6-1.4 1.8-1.8c2-.6 4.1-1.1 6.2-1.5 3-.6 6.6-1.2 11-2.1 4.2-.9 11.4-2.1 21.8-3.5-3.5 4.5-8.3 10.9-14.4 19.1-5.8 7.8-11.2 15.1-16.3 21.9 2.8 3 5 6.6 6.3 10.5 10.9-.7 21.1-1.7 30.2-3.1 9.5-1.3 19-3.1 28.3-5.5 6-1.4 11.8-3.5 17.4-6.1 4.6-2.3 8.7-5.5 12.1-9.3 3.3-3.6 5.8-7.9 7.5-12.5 1.6-4.4 2.5-9 2.5-13.7 0-4.6-1.7-9.3-4.8-13.1zm-12.5 28.7c-3.2 2.8-8 5.4-14.4 7.9-7.9 3-16.1 5.5-24.3 7.5-9.9 2.5-21.7 5-35.6 7.6 3-4 6.4-8.3 10-13.1 3.6-4.7 6.3-8.4 8.2-10.9 1.7-2.4 3.2-4.9 4.5-7.5 1-2 1.6-4.2 1.7-6.4 0-.7 0-1.2 0-1.7 0-.4-.1-.8-.1-1.2.9-.1 2.8-.2 5.9-.5s5.7-.5 7.9-.6 4.3-.1 6.3-.1c8.3-.2 16.6.8 24.7 2.8 6.7 1.9 10.1 4.5 10.1 7.8 0 2.8-1.7 5.7-4.9 8.4z"/><path d="m136.3 180.8c6.9-.4 12.1-6.3 11.7-13.2-.4-6.1-5.2-11.1-11.3-11.7-.8 1-1.8 2.4-2.9 4.1-2.1 3.2-3.3 5.5-3.5 7-.3 1.1.1 2.4 1.1 3 .9.5 3.3 1.6 7.3 3.2-1.9 2.5-3.6 4.9-5.2 7.2.9.3 1.9.4 2.8.4z"/><path d="m231.9 192.3c-3-2.1-6.2-3.9-9.5-5.5-3.4-1.8-8.2-4.1-14.3-6.9s-13.5-6-22.4-9.6c-6.6-2.7-13.5-5.4-20.8-8 1.6 7.5.2 15.3-3.9 21.8l24.9 12.1c8 3.9 13.8 6.8 17.4 8.7 3.7 2 7.8 4.2 12.3 6.7s8 4.4 10.6 5.7c1.5.9 3.1 1.5 4.7 1.9 1.9 0 3.1-1.1 3.6-3.3.7-3.4 1-6.8.8-10.3.1-3-.1-5.9-.7-8.9-.3-1.8-1.3-3.4-2.7-4.4z"/><path d="m123.9 194.9c-.6 1-1.2 2-1.8 2.9-4 6.9-6 11.1-6 12.6 0 2.6 1.7 3.9 5.1 3.9 1.2 0 3.2-1 5.9-3 2.6-1.8 4.5-4.4 5.3-7.5.7-2.1 1.6-4.2 2.8-6.1-3.9-.3-7.7-1.2-11.3-2.8z"/></g></g></svg>