<svg enable-background="new 0 0 300 300" viewBox="0 0 300 300" xmlns="http://www.w3.org/2000/svg"><g opacity=".98"><path d="m225.9 133.3c-11.6 0-14.8 7.4-14.8 16.1s3.2 16.2 14.7 16.2 14.9-7.4 14.9-16.2c0-8.6-3.2-16.1-14.8-16.1zm21.1-35.3c-28.7 0-51.9 23.3-51.9 52s23.3 51.9 52 51.9c28.6 0 51.9-23.2 51.9-51.9s-23.3-52-52-52zm-21.2 71.5c-15.1 0-20.4-8.8-20.4-20.1s5.5-20 20.5-20 20.5 8.8 20.5 20c0 11.4-5.6 20.1-20.6 20.1zm56.7-.9-1.9-2.7v-17.2c0-8.8-.6-15.4-9.6-15.4-5.9 0-14.5 2.9-14.5 2.9l-.1 32.3h-5.7v-38.6h3.6l1.5 2.4s10.6-3.2 16.5-3.2c12.2 0 14 8 14 19.4v19.9z" fill="#cddd54"/><g fill="#c31c78"><path d="m1 167.5v-47.1h34.7v2.7h-30.4v18.6h26.7v2.8h-26.7v20.2h30.4v2.8z"/><path d="m56.9 183.1c-5.8-.1-11.5-1.1-16.9-3l.7-2.6c1.6.6 3.3 1.1 5 1.5 3.7.9 7.6 1.4 11.4 1.5 11.3 0 14.3-5.8 14.3-11.9v-3.5c-2.3.6-11.4 3.1-16.8 3.1-12.4 0-17-8.1-17-19.6s4.6-19.6 17-19.6c5.6 0 14.8 2.7 17.2 3.2l1.2-2.4h2.4v39.3c-.1 9.1-5.2 14-18.5 14zm14.5-48.4c-2.4-.5-10.8-2.9-16.2-2.9-10.7 0-13.6 7.8-13.6 16.9s2.9 16.9 13.6 16.9c5.3 0 13.8-2.4 16.2-2.9z"/><path d="m98.2 183.1c-5.7-.1-11.4-1.2-16.8-3l.7-2.6c1.6.6 3.3 1.1 5 1.5 3.7.9 7.6 1.4 11.4 1.5 11.3 0 14-6.1 14-12.1v-3.2c-4.7.9-11.4 3.1-17.2 3.1-12 0-13.8-7.5-13.8-19v-19.4h2.5l1.5 2.5v17c0 9.2.7 16.3 10.6 16.3 5.6 0 11.8-2 16.4-2.9l.1-32.9h4v39c-.2 8.8-5.1 14.2-18.4 14.2z"/><path d="m143.1 168.2c-5.4 0-13.5-2.4-16.8-3.1v17.3h-4v-52.5h2.4l1.2 2.4c3.4-.7 11.6-3.2 17.2-3.2 12.5 0 17 8.4 17 19.6s-4.4 19.5-17 19.5zm-.6-36.5c-5.7 0-13.8 2.5-16.2 3v28c2.4.5 10.6 2.9 16.2 2.9 10.7 0 13.6-7.9 13.6-17s-2.9-16.9-13.6-16.9z"/><path d="m184.5 167.7c-1.9.3-3.8.6-5.7.6-11.3 0-12.9-4.1-12.9-14.9l-.1-21.1h-5.2v-2.8h5.2l2.4-7h1.7v7h15.6v2.8h-15.6v21.2c0 8.1.7 12.3 9.5 12.1 2.6-.2 5.1-.6 7.5-1.3l.6 2.6c.1 0-1.2.4-3 .8z"/></g></g></svg>