<svg enable-background="new 0 0 300 300" viewBox="0 0 300 300" xmlns="http://www.w3.org/2000/svg"><g fill="#006738" opacity=".98"><path d="m15 147.1c.2-3 .5-5.9.7-8.9 4.5-57.9 47.4-107.8 104.2-119.7 40.5-8.5 78.3-1.4 111.6 24.1 23.9 18.3 41.2 41.5 48.6 71 10.3 41.2 4.7 80.2-20.4 115-20.6 28.5-48.4 47.2-83.3 53.6-46.1 8.5-86.5-3.5-120.6-36-21.1-19.8-34.8-46.1-39.1-74.7-.7-4.6-.9-9.2-1.4-13.8-.1-1-.2-2-.4-3v-7.6zm3 2c-.6 71.8 56.3 133.1 131.7 132.9 76.1-.2 132.5-59.7 132.6-132.4s-59.4-131.9-132.5-131.6c-70.5.2-131.6 54.8-131.8 131.1z"/><path d="m150.2 24.6c65.7-.8 125.6 55.2 125.3 125.2-.2 66.4-54.5 124-122.5 125.4-66.3 1.4-126.7-49.8-128.4-122.8-1.5-64.8 50.2-128 125.6-127.8zm81.3 126.1c.5-44.8-35.4-81.5-80.2-82-.3 0-.6 0-.8 0-47.2-.2-81.7 38.4-81.7 80 0 53.1 42.4 82.6 80.6 82.7 45.2 0 81.9-35.8 82.1-80.7zm-85.8 111.9c-.9 1.6-1.8 3-2.5 4.5-.5 1-.9 2.1-1 3.3-.1.8.3 1.7.9 2.2.9.4 1.9.4 2.8 0 .9-.6 1.6-1.5 2-2.5.6-1.5 1.2-3 1.6-4.5.3-1.1.9-1.4 1.9-1.3 1.6.3 3.3.4 4.9.3 9-1.2 17.8-4 25.8-8.4 1.1-.7 2.5-1 3.8-.9 8.1 1 16.2-1.6 22.3-7 14.1-11.7 26.9-24.8 38.2-39.1 2.2-3.2 3.4-6.9 3.4-10.8-.1-.5-.2-1.1-.4-1.6-.8 1.1-1.4 1.8-2 2.6-7 9.8-15.1 18.2-26 23.8-3.8 1.9-7.2 3-11.1.5-1-.6-2.2-.7-3.2-.3-3.1 1.9-5.5 4.7-6.9 8-.6 1.3-.1 2.9 1.3 3.5 2.6 1.6 5.2 2.3 8 .7 5.6-3.2 11.2-6.6 16.8-9.8.5-.3 1-.7 1.6-1 0 .4-.2.7-.5 1-4.7 4.6-9.2 9.3-14 13.7-2.9 2.6-5.9 5.1-9.1 7.3-3.4 2.4-7.7 3.1-11.6 1.9 1-1.1 1.9-2 2.6-3 .9-1.1 1.7-2.4 2.4-3.7 1.6-3.6-.3-6.6-4.2-7-1-.1-2.1-.1-3.1 0-11.2 1.1-22 4.8-31.6 10.8-3 2.3-5.7 4.9-8.1 7.8-.9 1.2-1.6 2.6-2.2 4l-2.2-3.4c-1-2-3-3.2-5.2-3.4-2.5-.2-5 .3-7.1 1.6-1.9 1.3-4 2.2-6.2 2.8-5.3.5-10.5-.7-15.1-3.3-2-.9-3.5-2.8-3.9-5-1.3-8.2-4-16.3-3.4-24.8.1-1.9-1.7-4.2-3.2-4.1-3.2.1-4.5 1.3-4.2 4.3.9 8.8 2.7 17.4 5.2 25.8 1.2 4.4 4.7 7.9 9.1 9 3.1.9 6.4 1.9 9.6 2.7 5.4 1.3 10.7 1.1 15.1-2.8.4-.3.8-.5 1.2-.7zm-2.4-222.7.3-.9c1.6.1 3.1.3 4.7.7 4.2 1.3 8.3 2.8 12.4 4.2 1.6.5 3.3.9 5 1 .7 0 1.6-.9 2.1-1.6.2-.3-.4-1.4-.9-1.8-5.1-4.4-11.3-7.2-17.9-8.1-2.9-.6-5.9-.4-8.7.8-4.5 2.2-5 7.1-.9 9.7 1.9 1.2 4 2 5.9 3.3 3.3 2 6.4 4.2 9.3 6.6 2.4 2.2 1.5 4.7-1.8 5-5.2.5-10.3-1.3-14-4.9-.5-.5-.5-1.6-.7-2.5.9 0 2-.5 2.6-.1 1.6 1 3.2 2.1 4.5 3.5 1.6 1.5 3.8 2.2 6 1.7 1.6-.2 1.8-.8.8-2-2.6-3.1-5.9-5.6-9.6-7-2.9-1.1-5.8-1.6-8.2 1-1.9 2-1.7 4.9.2 8.4 4 6.6 11.7 10.1 19.3 8.9 4.1-.6 7.4-3.8 8-7.9.9-4-1.2-6.6-4.1-8.8-.5-.4-1.1-.8-1.6-1.2-3.3-2-6.7-4-10-6-.9-.7-1.8-1.4-2.7-2zm-53.2 199.5c-.2-.6-.5-1.6-.9-2.6-3.3-8.4-6.6-16.9-10.1-25.2-1.4-3-3.1-5.8-5.3-8.3-1.4-1.4-3.2-2.5-5.2-3.1-1.3-.7-2.9-.2-3.6 1-.3.6-.4 1.2-.3 1.8 0 1.8.5 3.6 1.4 5.2 3.6 5.7 7.4 11.3 11.2 16.9 1.2 1.8 2.3 3.5 3.4 5.3.2.6.3 1.2.3 1.8-.6 0-1.2 0-1.8-.2-.9-.3-1.8-.8-2.6-1.3-3.8-2.6-7.5-5.2-11.2-8-4.1-3.1-7.9-6.7-12-9.9-.9-.7-2.7-1.6-3.4-1.2-1.5.8-.5 2.5 0 3.8 1.6 4.6 4.6 8.5 8.6 11.2 7.4 4.8 14.9 9.3 22.5 13.7 1.9 1 3.9 1.6 5.9 2 2.1.5 3.1-.5 3.1-2.9zm146.4-141.1c-1.7-.5-3.5 0-4.7 1.3-1.2 1.7-2.2 3.7-2.9 5.7-.2 1.2-.9 2.2-1.9 2.9-1.3.8-1.8 2.4-1 3.8.3.5.7.9 1.2 1.1 2.1.9 2.9 2.6 4.1 4.2 3.6 5.1 8.2 9.1 14.8 8.2 6.5-.8 10.9-5.6 13-11.9 2.4-7.2 1.1-14.1-2.4-20.7-.5-.9-1.3-1.7-2.2-2.4-1.1-1.1-3-1.2-4.1 0-.4.4-.7 1-.8 1.6.9.9 2.1 1.6 2.6 2.5 2.1 4.3 2.8 9.3 1.9 14-.8 4.1-2.6 7.8-6.5 9.9-.8.5-1.8.7-2.7.6-3.9-.6-7.2-3.3-8.5-7.1-.4-.8-.1-1.9.7-2.3.1-.1.3-.1.4-.2 4.1-1.7 8.2-3.6 12.2-5.5 1.3-.6 2.5-1.4 3.7-2.1-1.3-2.9-2.9-3.9-5.6-3.3-2.3.6-4.5 1.3-6.7 2.2-1.8.7-3.4 1.6-5.6 2.5zm-174.3 12.1 4.4-6.5c1.6 1 3.3 1.9 4.9 2.9 1.6 1.1 3.8.7 4.9-1 .1-.1.1-.2.2-.3 1.1-1.7.9-2.7-1.1-4.3-1.1-.9-2.3-1.7-3.5-2.3-6.7-3.8-13.5-7.5-20.2-11.2-.4-.2-1-.5-1.2-.4-1.1.9-2.1 2-2.8 3.3-.3.8.2 2.1.7 3 .3.5 1.1.8 1.7 1.2l10.7 6-4.7 6.3c-3.6-2.6-6.9-5-10.1-7.5-1.2-1-2-.9-2.9.1-.5.5-1 1.1-1.4 1.8-1.1 1.8-.8 2.7.9 4l8 6-3.7 2.5c2.1 1.4 4.1 3.4 6.6 2.6s4.5.2 6.4 1.5c.9.6 1.9 1 2.9 1.4 2.7 1 4 .4 5.4-2.1.8-.9.6-2.2-.3-3-.2-.1-.4-.3-.6-.3-1.5-1.3-3.3-2.5-5.2-3.7zm31.5-39.7c3.1-1.6 6.1-2.8 8.9-4.3.9-.7 2.2-.5 2.9.4.1.1.2.2.2.3 1 1.6 2 3 3 4.5 1.2 1.7 2.1 1.7 3.3 0 1.5-1.9 1.5-4.5 0-6.4-1.9-2.1-3.2-4.7-3.9-7.5-.3-1-.8-2-1.2-3l-2.5 2.5c-1.6-1.3-2.9-2.5-4.3-3.7-2.7-2.5-6.2-4.1-9.9-4.5-4.4-.3-6.8 1.6-7.3 6-1.2 9.2 2.1 18.3 8.7 24.7 1 .9 2.2 1.6 3.6 2 1.3.5 2.8-.2 3.4-1.4.7-1.1.5-2.4-.4-3.3zm103.4-5c2.9 2.3 5.7 4.4 8.4 6.6.4.6.5 1.3.2 2-.8 1.7-1.8 3.3-2.8 5-1.1 1.9-.6 2.8 1.6 3.1 2.4.4 4.7-.9 5.7-3 .9-2.5 2.5-4.7 4.6-6.4.9-.8 1.8-1.8 2.5-2.8l-3.4-1.1c.6-1.8 1-3.6 1.3-5.4.5-2.7.6-5.4.4-8.1-1-6.7-4.9-8.7-11.1-6-7.7 3.3-13.6 9.7-16.3 17.6-.5 1.5-.6 3.1-.4 4.7.2 1.4 1.4 2.5 2.8 2.5 1.2.2 2.4-.6 2.8-1.8z"/><path d="m149.9 227.4c-39.7.3-77.3-31.2-77.6-78-.2-38.3 31.8-77.1 77.9-77 43.1.1 77.3 34.6 77.8 77.9.4 34.9-29.1 77.6-78.1 77.1zm-1.7-2.1c41.7.6 76.6-32.7 77.3-73.4 1.1-41.5-31.7-76-73.2-77.1-.3 0-.6 0-1 0-43.4-.2-76.1 32.8-76.6 73.9-.7 41.5 32.4 75.9 73.5 76.6z"/><path d="m150.9 259.8c1.2-1.8 2.6-3.5 4.2-5 7.1-6.2 16-9.8 25.4-10.2 1.3.1 2.5.4 3.7.9-.6 1.4-.8 3.1-1.8 4-2.5 2.2-5.3 4.1-8.3 5.7-6.1 3-12.8 4.9-19.6 5.6-1.1 0-2.2 0-3.3-.1z"/><path d="m90.7 66.3c-.7-3.7-1.5-7-1.9-10.3-.2-1.3.9-2.1 2.2-1.4 3.4 1.4 6.4 3.7 8.7 6.6z"/><path d="m199.6 61.1c2.9-2.3 5.4-4.3 8-6.2 1.3-.9 2.6-.4 2.6 1.1.2 3.7-.5 7.4-2 10.8z"/><path d="m182.3 117.6c.3-1.6.7-3.3.8-4.9.4-5.1.3-5 5.3-4.3 4.1.6 8.2 1 12.3 1.6 1.3.2 1.7-.3 1.9-1.4.3-3.2-.7-6.4-2.8-8.9-.3-.5-1.6-.4-2.3-.4-4.7.4-9.1 2.6-12.3 6-1.2 1.2-2.5 2.1-4 2.7-1.7.7-2.3 0-1.8-1.7.2-1.1.7-2.2 1.4-3.1 3.8-4.7 8.4-7.5 14.8-6.7 3.1.3 6 1.8 8 4.2.4.6.9 1.1 1.4 1.6 2.7 2.4 4.3 5.2 3.6 8.9-.2 1.2.4 2.4 1.4 3.1 1.6 1.4 1.3 2.1-.7 2.7-2.5.7-2.9 1.1-2.8 4.2 0 4.4.5 8.8.6 13.2 0 2.5-.1 5.1-.3 7.6 0 .8-.3 1.5-.9 2.1-1 .6-2.1 1-3.2.9-.5 0-.9-1.6-1.3-2.3-.1-.4-.1-.9 0-1.3 1.7-10-3.4-17.6-8.9-24.9-1-1.3-3-1.9-4.5-2.8l-.7.5c.3 11.2.5 22.4.8 33.6l-3.1 1.2v.5c-.4-.4-.8-.8-1.3-1.1-.4-.1-.9-.1-1.3-.1.2.4.2 1.1.5 1.2 1 .4 2 .8 3 1.4-2.1.1-4.3.3-6.4.4-6.8.1-13.7.2-20.5.3s-13.8.5-20.4 2.9c-.3.1-.9.2-1 0-1.6-1.6-3.3-.9-4.8-.5-8.6 2.6-17.1 5.3-25.7 8l-5.9 1.8c-.5.1-1.1.4-1.5.3-2.2-1-3.5.6-5.1 1.7-3.3 2.4-6.8 4.7-11 4.9-1.2.1-2.5 0-4 0 .9-2.7 2.9-4.9 5.5-6 5.6-2.9 11.6-5 17.8-6.2 2.6-.5 5.2-.9 7.8-1.1 6.2-.6 11.9-3.1 17.5-5.7v-.7c-2.6-.1-5.1.1-7.6.5-10.3 2.4-20.6 4.8-30.8 7.7-3.1.9-5.6 2.1-8.2-.8-.7-.6-1.5-.9-2.3-1.1-.8-.3-1.6-.4-2.5-.6v-4.7h2l-1.7-6.2 4.7.6c-.3-1.4-.5-2.5-.7-3.5-.2-1.1-.4-2.5-.5-3.8s-.2-2.7 1.7-3.2c1.1-.3 2-1.6 3.1-2.3 2 2.2 3.4 5 3.8 8 .2 1.7 1.2 3.2 2.6 4.1 1.9 1.2 3 3.3 2.9 5.5 0 1.6.8 2.2 2 2 2.5-.5 4.8-1.2 7.3-1.9-.5-3.9-1.9-7.4.5-11.2 1.1 1 2.1 2.1 3.1 3.2 1.2 1.6 2.2 3.1 3.3 4.7s3.1 2.4 5.1 1.9c1.2-.2 1.8-.8 1.6-2.1-.3-1.3-.5-2.2-.8-3.3-.7-3.2 0-5 2.8-6.7 2.8-1.8 6-2.7 9.3-2.5 3.1.2 4.7 1.8 4.6 4.9 0 1.3-.3 2.5-.5 3.8-.1.4-.1.8 0 1.1.4 1 .9 1.9 1.4 2.9.7-.7 1.8-1.3 2.1-2.2 1-3 1.8-6.1 2.6-9.3 1.9.1 2.7 1.1 2.4 2.7-.3 1.8-.7 3.5-1.2 5.2-.8 3.1-.1 4.2 3.1 4.3 4.7.1 4.8 0 5-4.7 0-2.6 0-5.2.3-7.8.1-.9.9-1.6 1.4-2.4.9.7 2.4 1.2 2.6 2 .4 2.3.6 4.6.5 6.9 0 1.2-.2 2.4-.5 3.6-.4 1.4.3 2.2 1.6 2.2 2 0 4.1-.2 6.2-.3l.1-.5c-.7-.7-1.4-1.4-2.2-2.1-1-.9-.9-1.7 0-2.6 1.8-1.9 7.2-2.6 9.2-.9.8.8 1.3 1.9 1.4 3 .2 2.1 2 3.6 4.1 3.5 1.9.2 3.8 0 5.9 0-1.6-3.6-.2-6.8.9-10.1.2-.8.2-1.6-.1-2.3-2.3-6.1-6.5-11.2-12-14.7-6.2-4.1-13.1-6.7-20-9.2-2-.7-4-1.5-5.8-2.6 3.3.8 6.6 1.5 9.8 2.4 2 .6 2.7-.2 3-1.9 0-.1 0-.1 0-.2-.1-2.2 1.4-4.2 3.6-4.7 1.7-.5 3.1-2.5 4.5-4 1.6-1.7 2.8-3.8 4.5-5.5 1.6-1.7 3.3-2 5.4-.4.6.6 1.5.7 2.2.2.1 0 .1-.1.2-.2.7-.5 2.2-1.3 2.4-1 1 .9 1.8 2.2 2.1 3.5.1 1.2-.8 2.5-1.3 3.7-.7 1.5-1.4 3.1-1.9 4.8-.5 2.1.2 2.7 2.4 3 .8.2 1.5.8 1.9 1.6.2 1.3.3 2.6.3 4 .2.9.4 1.8.7 2.6z"/><path d="m212.1 161.9-10.9 6.6c-7.8 4.8-15.7 9.6-23.3 14.5-2.4 1.6-4.4 3.7-6.7 5.4-4.5 3.3-9 6.7-13.8 9.6-5.2 3-9.5 7.5-12.3 12.8-1.3 2.5-3.2 4.5-5.6 6-1 .8-2.1 1.4-3.3 2-1.3.5-2.1 2.7-3.9 1.2-2.2-1.5-3-4.4-1.9-6.8.6-1.2 1.3-2.3 2.2-3.3 2.1-2.2 4.3-4.3 6.7-6.2 14.7-11.5 29.6-22.6 45.9-31.7 7.1-4 14.8-6.8 22.3-10.1 1.4-.4 2.9-.6 4.4-.7z"/><path d="m93.9 141.7c-1.3-6.3 1.4-11.5 4.4-16.6 4.2-6.8 9.4-13 15.6-18.1.8-.7 1.6-1.3 2.5-1.8 3.7-2.3 6.2-2.2 9.7.3 2.1 1.6 4.3 3 6.3 4.7.9.7 1.7 1.7 2.6 2.5.6.5 1.2.9 1.9 1.3.5.3 1.3.5 1.6.9 2.5 2.9 5.1 5.7 7.3 8.8 1.2 1.9 2.1 4 2.9 6.1l-.6.4c-.5-.4-1-.8-1.4-1.2-4.1-4.5-8.1-9-12.2-13.5-1.3-1.3-2.7-2.6-4.2-3.6-2.7-1.9-4.3-1.8-7 .2-1.2.9-2.3 1.8-3.3 2.9-7.5 8.1-15.1 16.3-22.6 24.6-.9 1-1.8 2.4-3.5 2.1z"/><path d="m173.6 158.6c-.9.6-1.8 1.1-2.8 1.6-5.4 1.9-10.9 3.7-16.3 5.6-4.9 1.7-9.6 4.1-13.9 7.2-1.8 1.1-3.7 2.1-5.7 3-.7.3-1.3.7-1.9 1.2-2.4 2.1-4.9 4.1-7.2 6.3-.8.9-2.1 1.2-3.3.9-.9-.2-1.8-.3-2.6-.2s-1.5.6-1.9 1.2c-1.3 2.8-3.5 5.1-6.1 6.7-1.2.9-2.3 1.8-3.5 2.6-.5.2-1 .3-1.5.3-1.6 1.5-3.2 2.9-4.9 4.2-2.5 1.6-4.1.8-4.7-2.1-.6-1.7-.1-3.7 1.2-4.9 3.1-2.7 5.9-6 9.4-8 13-7.4 26-14.7 40-19.9 6.8-2.5 14-4.2 21.1-6.1 1.5-.2 3-.3 4.5-.3z"/><path d="m222.4 145.1c-1.4.6-1.4 1.1 0 2.9-3.3 1.8-2.1 6.7-6.1 8.6v-3.1c0-1.8-.8-2.5-2.5-2.1-.9.2-1.7.6-2.5.8-1.5.8-3.4.1-4.2-1.4-.2-.5-.3-1-.3-1.5-.4-3 .9-5.9 3.3-7.7.5-.5.8-1.2.8-2-.1-1.7-.3-3.1 1.3-4.4.9-.8 1.1-2.4 1.9-3.4.9-1 1.9-1.9 3.1-2.5.5-.3 1.4.2 2.1.3-.2 1 1.3 1.8.1 3-.3.3.4 1.6.6 2.4.4.8.7 1.6.9 2.5.7 2.5 1.1 5 1.5 7.6z"/><path d="m183.3 213.4c1-1.9 2.2-3.8 3.5-5.6 1.6-1.9 3.5-3.7 5.4-5.4 5.9-4.9 11.9-9.7 17.8-14.5l2.4-1.9c-3.2 8.5-19.7 24.1-29.1 27.4z"/><path d="m126.4 122.5c0 2.8-.3 3-2.6 2-.4-.1-.8-.1-1.2.1-1.6.7-2.4.1-3-1.3-.8-1.3-.5-3 .6-4 1.1-.8 2.3-1.2 3.7-1.1 1.6.1 2.1 1.6 2.4 3 .1.4.1.8.1 1.3z"/></g></svg>