<svg enable-background="new 0 0 300 300" viewBox="0 0 300 300" xmlns="http://www.w3.org/2000/svg"><g opacity=".98"><path d="m136.5 127.8c-.6-2.6-1-4.1-2-5.4-1.2-1.9-2.6-2.4-7.6-2.4h-4.9c-2.1 0-2.3.2-2.3 2.2v15.4h6.8c6.2 0 6.6-.6 7.4-4.9h2v13h-2c-.8-4.6-1.2-5.3-7.4-5.3h-6.8v11.5c0 5.9.6 6.3 6.8 6.7v1.9h-19v-1.9c5.4-.4 6-.9 6-6.7v-25.8c0-5.8-.6-6.2-5.8-6.6v-1.9h30.2c.1 2.4.4 6.6.7 9.9z" fill="#009245"/><path d="m183.8 161.1c-.8 0-1.6 0-2.4-.1-5.5-.3-8.3-1.7-11.4-6-2.3-3.2-4.5-7.2-6.6-10.3-1.2-1.9-2.4-2.7-5.9-2.7h-1.9v10.3c0 5.5.6 6 6 6.5v1.9h-18.2v-1.9c5.5-.5 6.1-.9 6.1-6.5v-26.2c0-5.6-.6-6-5.8-6.4v-2h17.3c5.1 0 8.4.6 11 2.3 2.7 1.7 4.5 4.6 4.5 8.7 0 5.7-3.7 9.2-8.5 11.2 1.2 2.2 3.9 6.5 6 9.5 1.6 2.5 3.5 4.8 5.5 6.9 1.2 1.5 2.8 2.6 4.7 3zm-25-21.5c3.4 0 5.6-.5 7.4-1.9 2.6-2 3.6-4.6 3.6-8.1 0-7.1-4.6-9.7-9.6-9.7-2 0-3.1.3-3.6.6-.5.4-.7 1.1-.7 2.8v16.2h2.9z" fill="#009245"/><path d="m186.1 160.5v-1.9c5.5-.4 6.1-.8 6.1-6.5v-26c0-5.7-.6-6.1-6.1-6.5v-2h18.4v2c-5.5.4-6 .8-6 6.5v26c0 5.6.6 6.1 6 6.5v1.9z" fill="#009245"/><path d="m251.3 149.1c-1 3.6-2.3 7.1-3.9 10.5-2 .5-7.9 1.9-12.9 1.9-17.4 0-25.2-11.5-25.2-21.9 0-13.9 11.3-23 26.9-23 5.8 0 10.6 1.6 12.5 1.9.5 3.8 1 6.6 1.4 10.3l-2 .5c-1.9-7.3-6.4-10.2-13.7-10.2-11.5 0-17.6 9.3-17.6 19.1 0 12.4 7.6 20.7 18.2 20.7 7 0 10.8-3.8 14.4-10.5z" fill="#009245"/><path d="m281.9 160.5v-1.9c4.2-.6 4.8-1.2 3.9-3.8-.9-2.7-2.2-5.9-3.6-9.7h-14.5c-1.1 3-2 5.6-2.9 8.2-1.4 4-.9 4.8 4.2 5.3v1.9h-14.9v-1.9c4.4-.7 5.3-1.1 7.7-7l14.2-34.4 2.3-.6c4.3 11.7 8.7 23.4 13.2 35 2.2 5.8 3.1 6.6 7.5 7v1.9zm-6.6-34.8h-.1c-2.2 5.5-4.3 11.1-6.3 16.4h12.4z" fill="#009245"/><path d="m96 151.6c-2.2-5.6-4.3-11.2-6.4-16.8.5-2.7.8-5.6.8-8.5 0-24.7-20-44.7-44.7-44.7-24.7 0-44.7 20-44.7 44.7s20 44.7 44.7 44.7c18.2 0 33.9-10.9 40.9-26.6l.1.7c1.4 3.8 2.7 7 3.6 9.7s.3 3.3-3.9 3.8v1.9h17.1v-1.9c-4.4-.4-5.3-1.2-7.5-7zm-38.8 7v1.9c-4.1-1.1-7.4-4.4-8.4-8.6-2-7.2-3-10.8-3-10.8l2.2-5.6-5.4-8.3 1.6-4.4-5.9-1.7s-18.3 9.3-17.5-13.1l6.4-6.9v-2.9l3.4-4 3.6.6 10.4-1.8.5 2.8-1.3.8 7.7 2.8.9-.3.1-1.4 1.8-.7 6.4 1.7 1.8-.3 9.6 18.1 1.9 1 5.6-1.8-16.1 38.9c-1.2 2.5-3.6 4-6.3 4zm16-16.6c2.1-5.3 4.2-11 6.3-16.5h.1l5.9 16.5z" fill="#009245"/><g fill="#bd1e2d"><path d="m148.5 171.1.5-.4.5.1c.3 0 .6-.1.8-.2.1-.1.3-.2.5-.3.2 0 .3-.1.5-.3s.5-.3.8-.3.6-.2.8-.3c.2-.2.3-.3.6-.3.2-.1.5-.1.7-.2l2.4-.8c.1 0 .2.1.3.1h.1c.2 0 .5-.1.6-.3.2-.2.5-.3.7-.3.4-.1.7-.2 1-.3l.2.2c.3-.3.5-.5.7-.5h.2l.5.1c.4-.1.7-.2 1.1-.2l.6-.1c.1 0 .1 0 .2.1.2-.2.4-.3.6-.3h.3l1.1-.3.3.1c.3-.2.6-.3 1-.3h.3.3c.2 0 .3-.1.5-.2.7-.1 1.4-.2 2.2-.2l.7.1c.2-.1.5-.2.7-.3l.7.2.3-.1h.1c.1 0 .2.1.3.1l1.9-.3.2.1c.1-.1.2-.2.3-.2l.5.1c.3 0 .5-.1.8-.3l.2.2 1.8-.2.7.1.6-.1c.5 0 1 .1 1.3.5.3.2.4.6.5.9l.1.8-.2.5-.1.5c-.1.2-.2.3-.4.4 0 0-.1.1-.2.1-.2.1-.3.1-.5.2-.5.2-1.1.2-1.6.2-.3 0-.7-.1-.9-.4-.1-.3-.3-.4-.4-.5l-1.1-.5s-.1-.1-.3-.1h-.2l-1.1.1-.3-.1c-.1.1-.2.1-.4.2l-2-.1-.8.1-.6.1c-.1 0-.3 0-.4.1-.4.1-.7.1-1.1.1-.6 0-.9.2-.9.5 0 .2.1.5.2.6.1.2.2.4.2.6-.2.2-.3.5-.4.7-.1.1-.3.2-.4.3-.2.2-.5.5-.9.8s-.7.6-1 1.1c-.1.3-.4.5-.6.5-.3.2-.5.5-.7.8l-.2.2c0 .1-.1.2-.1.2 0 .1-.1.2-.2.3l-.2.6c-.4.4-.8.9-1.1 1.4l-.3.2-.3.4h-.4c-.2 0-.2.1-.2.3l.1.8c-.3.3-.5.6-.6.9l-.3.5c-.2.2-.4.4-.6.6-.1.4-.3.8-.5 1.2l-.1.3c0 .3-.6 1.2-1.9 2.6-.2.5-.3 1-.3 1.6-.5 1.1-.9 1.6-1.1 1.5 0 .6-.1 1.1-.3 1.7-.2.4-.4 1.1-.7 1.9-.2.6-.5 1.2-.9 1.8l-.1.2c-.1.2-.2.3-.3.4-.1.8-.3 1.6-.5 2.3l-.2 1.2-.5 1.5c0 .1-.1.2-.1.3 0 .2.1.3.2.4.1.2.2.4.2.6s0 .4-.1.6-.2.4-.1.6c0 .5-.4 1-.9 1.1h-.2l-.6.1c-.8 0-1.6-.4-2-1.1-.7-.8-1-1.9-.9-3 0-.1.1-.3.2-.8s.2-.8.2-.9c0-.2.1-.3.1-.4.1-.2.1-.4.1-.7 0-.8.2-1.6.7-2.3.3-.4.6-.9.9-1.4 0-.1.1-.2.2-.2-.1-.2-.1-.4-.1-.5 0-.5.2-1 .7-1.3 0-.2.1-.3.2-.5s.3-.6.6-1.4c.2-.6.6-1.1 1.1-1.3 0 0 .1-.2.3-.4l-.1-.9c0-.1.2-.4.5-.7l.5-.8c.1-.4.4-.7.7-.8.1-.1.2-.3.3-.3 0-.1.1-.3.2-.7.2-.5.5-1 .9-1.4.4-.6.9-1.1 1.3-1.8.4-.6.8-.9 1.1-.9s.5-.2.5-.5l.2-.9c.4-.3.7-.6.9-.9l.4-.4c0-.2.1-.4.3-.5s.3-.3.4-.5c.2-.3.4-.5.7-.7.3-.8.9-1.5 1.6-1.9l.4-.5c.2-.3.5-.6.8-.9.2-.2.4-.4.4-.6.1-.3.3-.5.6-.6s.4-.3.4-.4-.1-.1-.2-.1c-.2 0-.5.1-.7.2h-.2l-.5.1h-.2l-.5-.1c-.2.1-.5.1-.8.2-.1.1-.2.2-.3.2h-.6l-.3.3-.2.1-.7-.1c-.3 0-.6.1-.8.3-.3.1-.6.2-.9.2-.6.1-1.1.2-1.6.5-.3.2-.6.3-.9.4l-.5-.1h-.1c-.3 0-.5.1-.6.3-.2.2-.5.4-.9.4h-.3c-.4 0-.7.1-1.1.3-.2.1-.5.2-.7.3l-.5-.1c-.2.1-.4.2-.6.3s-.3.1-.4.3c-.1.1-.3.2-.4.3-.2.1-.3.2-.5.3-.1.1-.3.2-.4.2h-.5l-.3-.1c-.1 0-.3.1-.5.3-.1.2-.3.3-.6.4-.2.1-.3.1-.5.3-.1.1-.3.2-.5.2-.1.2-.3.4-.4.6-.2.3-.4.6-.6.8s-.4.3-.5.5c-.1.1-.2.2-.2.2-.9 0-1.3-.5-1.3-1.6l.5-1.2c.3-.8.9-1.4 1.7-1.7.5-.1 1-.3 1.5-.6z"/><path d="m177.7 198.9-1.3 1.1c-.1-.1-.1-.1-.2-.1-.2 0-.4.2-.7.5s-.4.5-.5.5l-.3-.1c-.3.2-.6.4-.9.6-.2.1-.5.2-.7.3s-.5.2-.8.2c-.2 0-.4.1-.6.2-.3.2-.7.3-1 .2l-.4-.1c-.1.1-.3.1-.5.2-.2 0-.3-.1-.5-.2-.1-.1-.3-.2-.5-.3-.2 0-.4-.2-.6-.4s-.3-.4-.6-.5c-.2-.1-.3-.2-.4-.4l-.4-.3c-.4-.3-.7-.7-.9-1.2-.2-.4-.4-.9-.4-1.3v-.1l.1-.5-.1-.6c.1-.1.2-.3.3-.5v-.9l.6-2.2c0-.1 0-.2-.2-.3-.1.2-.3.4-.5.5s-.3.2-.4.4-.2.3-.3.3l-.3-.1c-.1.2-.2.4-.2.5-.1.3-.3.5-.6.5s-.5-.1-.5-.4v-.5l-.2-.7c.1-.3.2-.6.4-.8.2-.3.4-.6.8-.7.3-.1.5-.3.6-.5.3-.4.7-.7 1.1-1 .4-.1.7-.4.8-.7.3-.2.6-.4.9-.5.4-.1.7-.3.9-.5.5-.5 1.2-.8 1.8-1.1.7-.4 1.4-.7 2.2-.8.2 0 .4-.1.6-.1l.7-.2c.2-.1.5-.2.7-.3s.4-.2.6-.2l.8.3c.4.1.7.2 1 .3.2.1.4.2.6.2.4.1.7.3 1 .5.4.2.6.7.5 1.1-.2.2-.3.5-.5.7 0 .1.2.2.6.3.2.4.4.7.6 1l.3.9.1 2.2-.1.2c-.2.2-.3.3-.3.3l.1.5-.2.7c0 .2-.1.4-.3.5-.1.1-.2.2-.2.3l-.2.2c-.1.2-.2.3-.2.5-.1.2-.2.4-.4.6-.1.1-.2.3-.3.5 0 .2-.1.3-.3.4-.1.1-.2.2-.3.3.3.5.2.6.1.6zm-8.3.7.1.6h.1.4l.1.1c.3.1.5.1.8.1.5 0 .9-.1 1.3-.4.2-.2.5-.4.8-.4.2 0 .4-.1.5-.4s.2-.4.3-.4h.4l.1-.1c0-.4.2-.7.5-.9.3-.1.6-.4.8-.7.1-.3.3-.5.5-.7s.3-.4.4-.6l.2-.3c.1-.1.1-.3.1-.4l.5-.9c.1-.3.1-.7.2-1 0-.4-.2-.7-.6-.9-.4-.3-.6-.8-.6-1.3s.3-.9.6-1.1c.4-.3.6-.6.6-.6s0-.2-.2-.2c-.2.1-.4.1-.6.2-.1.2-.8.6-1.9.9-.2-.1-.4-.2-.6-.3-.1 0-.2.1-.3.3s-.2.3-.3.5h-.3s-.2.1-.3.3c-.2.2-.5.4-.7.3l-.3.3c0 .4-.2.7-.5.9l-.3.3c-.2.2-.4.5-.7.7l-.5 1.2c-.2.3-.3.7-.3 1-.1.1-.2.3-.4.3-.2.1-.3.3-.3.4s.1.2.2.3.2.2.2.3l-.1.4-.1.9z"/><path d="m182.3 218-.4.3c-.2.1-.4.2-.6.2-.6-.1-1-.4-1.3-.9-.4-.5-.6-1.2-.6-1.8 0-.8.1-1.6.3-2.4.2-.3.3-.7.4-1.1 0 0 .2-.5.6-1.3.3-.7.7-1.4 1.1-2 .3-.4.6-.8.9-1.3l.1-.2c.2-.3.5-.6.8-.9 0-.1.3-.5 1-1.1s1.3-1.2 1.9-1.6l.3-.4c.2-.2.5-.3.8-.4l1.6-.4c.3-.3.7-.6 1-.8h.2l.7-.2c.6-.2 1.2-.4 1.9-.5.8-.2 1.3-.3 1.4-.5s.2-.4.3-.6.3-.6.6-1.1c.1-.3.1-.5.2-.7 0-.1.1-.2.2-.3s.2-.3.3-.5c.1-.3.3-.5.4-.8l-.2-.5c.1-.3.2-.6.4-.8.2-.1.2-.2.2-.2l-.2-.5.5-.9c0-.1 0-.1-.1-.1-.5.4-1.1.7-1.7.9-.2.2-.4.4-.6.6-.3.1-.5.3-.6.6l-.2.1-.2.3s-.1.1-.2.1-.4.2-.8.4h-.3c-.1 0-.2.2-.3.5-.2.3-.5.5-.9.7-.2 0-.4.1-.5.3l-.2.3-.3-.1c-.4 0-.6.2-.6.4s-.2.4-.3.6c-.2 0-.4.1-.5.2h-.4c-.2.4-.5.7-.9.7l-.8.5-.5.2c-.2.1-.4.2-.6.4-.3.2-.7.3-1.1.3-.4-.2-.8-.4-1.2-.5-.5-.1-.9-1-1.1-2.6h-.1c-.2 0-.3.1-.5.2-.1.1-.2.1-.4.2-.4 0-.6-.2-.6-.5-.1-.7.3-1.3.9-1.6l.7-.8 1.7-1.7c1.2-1.2 2-2 2.4-2.3s.9-.7 1.3-1l1.4-.9c.3-.2.6-.4.9-.5.1 0 .2-.1.3-.2.3-.2.6-.3.9-.4l.5-.2c.6-.2 1.3-.4 1.9-.5h.4c.2 0 .4-.1.6-.2.4-.1.8-.3 1.1-.6l.9-.3c.2-.1.4-.1.7-.1h.5c.4 0 .6.3.7.9s.2.9.3.9.1-.1.3-.4l.4-.3c.2-.1.3-.2.5-.3.4 0 .7.2.8.5v.1l.1.1c.1.5.2 1.1.2 1.6 0 .7-.2 1.4-.6 2-.3.3-.5.7-.6 1-.2 1.1-.6 2.2-1.1 3.3-.1.2-.3.7-.6 1.6l-.3.3c-.1 0-.1.1-.1.2l.1.4c-.2.3-.4.7-.5 1.2-.1.3-.2.7-.4.9.1.1.3.2.5.3.4.2.7.5.9.9.3.3.4.6.5.9-.1.4-.2.7-.3 1-.5.4-1 .7-1.6.7-.3 0-.6-.2-.8-.3l-.2.1v-.1c-.2 0-.4-.1-.6-.2-.1-.1-.2-.1-.4-.1-.1 0-.2.1-.2.2 0 .1 0 .1.1.2-.2.1-.3.3-.4.4-.1.3-.2.5-.4.8s-.4.7-.7.9c-.4 0-.7.3-.8.9-.1.4-.2.8-.5 1.1l-.3-.1c-.4 1-1.1 1.9-1.8 2.6-.4.1-.6.2-.6.2s0 .2-.1.3c-.1.3-.4.7-.6.9-.4.4-.6.6-.7.6l-.3.1-.2.2c0 .4-.5.9-1.4 1.7-.5.3-.8.5-.8.6-.1.3-.7.7-1.6 1.2l-.5.5c-.2.2-.4.3-.7.5zm9.7-13.8-.8.1c-.1-.1-.3-.2-.5-.2-.1 0-.1.1-.2.2-.4.4-.9.6-1.4.7s-1 .3-1.5.6c-.2.2-.4.3-.7.3-.2 0-.3.1-.3.1-.1.1-.3.2-.4.4-.2.1-.4.2-.5.3-.2.1-.4.2-.6.3-.3.7-.6 1-.7 1h-.3c-.1.3-.3.6-.5.8-.1.1-.2.2-.3.3-.1.2-.3.3-.5.4-.3.2-.5.5-.5.8s-.2.5-.3.8c-.2.3-.3.6-.3.9l-.2.4c-.1.3-.2.6-.2.9-.1.5-.1.8-.1.8 0 .3.1.5.3.7.1-.1.3-.2.5-.2l1.6-.6c.1 0 .3-.2.6-.5.3-.2.6-.4.9-.6.3-.1.5-.3.7-.5.1-.2.3-.4.5-.5s.3-.3.4-.5c.4-.4.8-.7 1.1-1 .3-.2.5-.5.7-.8.1-.2.3-.4.5-.5l.1-.3c.1 0 .1-.1.2-.1s.3-.3.6-.9l.7-1.2c.4-.5.8-1 1-1.6l.4-.3c.1-.1.1-.2.1-.2zm-.5-8.6.3-.5c.1-.2.3-.3.5-.3.3-.1.5-.2.6-.5.4-.6.9-1 1.5-1.3l.3-.2c.3-.5.5-.8.7-.8.2-.1.4-.2.6-.5.1-.2.2-.4.2-.7 0-.1-.1-.1-.2-.1-.2 0-.5.1-.7.2-.1.1-.2.2-.4.2h-.5c-.3.2-.8.4-1.3.6l-.5.4c-.2.1-.4.2-.6.3-.2 0-.3.2-.4.3-.1.2-.2.3-.3.3l-.2.1c-.1.1-.3.1-.6.1-.2.1-.4.3-.5.5-.2.2-.3.3-.3.3-.3.4-.6.6-1.1.8-.2.1-.5.2-.6.5-.3.1-.6.3-.9.6-.2.3-.4.5-.6.6s-.4.3-.5.4l-.3.2c-.2.2-.3.4-.4.7s-.2.5-.3.8c0 .1.1.2.2.2.4-.1.7-.2 1-.4s.7-.4.9-.6c.1-.2.2-.2.3-.2l1 .1c.1-.2.3-.4.5-.5.3-.1.5-.2.6-.5.3-.4.7-.6 1.2-.7l.3-.5z"/><path d="m207.2 190.8.6-.5c.4 0 .7-.3.7-.7.1-.5.4-.9.9-1.1l.3-.5c.7-.5 1.4-.8 2.2-1 .2-.1.4-.3.6-.5 0 0 .1-.1.1-.1l.4.1c.3 0 .6-.1.9-.2s.7-.2 1.1-.2h1.1c.2 0 .3.1.4.2.3.1.5.2.8.2.4 0 .8.2 1.1.5s.5.6.5 1c-.1.7-.4 1.3-.9 1.7-.4.4-.8.8-1.4.9-.2.2-.4.4-.7.6-.2.1-.4.2-.5.4-.1.1-.3.2-.4.3-.1 0-.1 0-.2-.1 0 0-.1-.1-.2-.1-.3 0-.6.3-.9 1l-.5-.1c-.3.1-.5.4-.6.6s-.3.4-.6.3c-.7.7-1.1 1-1.3 1-.1 0-.3-.1-.4-.1-.1.2-.2.4-.2.6s-.2.3-.4.4l-.3.3-.3-.1-.5.6c-.3 0-.6.1-.8.3 0 .2-.1.5-.2.8s-.1.5-.1.6c0 .5.5.8 1.4.8l1.3-.2c.3 0 .7-.1.9-.3.3-.2.6-.3.9-.3.2 0 .3 0 .5-.1l.3.1c.2-.3.4-.6.7-.7.2-.2.5-.3.8-.3l.3-.2c0-.2.2-.3.3-.4l.2-.2c.1-.1.2-.2.4-.2h.4l.1-.1c.1-.4.5-.7.9-.8s.6-.2.7-.4.3-.3.5-.3.5-.2.6-.4c.2-.2.4-.4.6-.6.2-.1.4-.3.5-.4s.2-.1.3-.1.2.1.2.2c0 .2 0 .2.1.2s.1 0 .1-.1c0-.1 0-.2 0-.3v.2c0-.3.2-.5.4-.5l1.2-.8c0-.4.1-.6.3-.7.1-.1.3-.1.4-.2s.2-.1.3-.1c.2 0 .3.1.3.4l-.1.7.1.7c0 .2-.1.3-.3.4-.2.2-.3.5-.4.9s-.2.6-.3.6h-.2c-.2.3-.5.5-.8.6-.2.1-.3.2-.4.3l-.9 1c-.2.2-.3.3-.5.5-.1.2-.2.2-.3.2l-.2-.2s0 0-.1 0-.3.1-.3.3-.1.4-.3.6c-.4.1-.8.4-1 .7l-.2.1h-.2c-.2 0-.4.2-.5.5s-.4.6-.8.6c-.3 0-.7.1-.9.3-.1 0-.2.1-.2.1-.3.1-.5.3-.8.4l-2.3.8c-.1.1-.2.1-.3.1l-.8.1c-.1 0-.3-.1-.3-.2-.1-.1-.2-.2-.2-.2l-.5.2c-.3.1-.7.2-1 .2-.2 0-.4-.1-.6-.2s-.3-.2-.5-.3c-.5 0-.9-.4-1.1-1.2l-.3.1c-.3-.6-.6-1.2-.7-1.9-.1-.2-.3-.3-.5-.3-.2-.1-.4-.3-.3-.5-.1-.6.1-1.2.5-1.6.2-.2.4-.4.6-.6l.4-1.4c.1-.2.2-.3.3-.5l.6-1.1zm5.6-1.6-.3.2c-.2.1-.4.3-.6.5-.3.3-.7.5-1 .7-.5.3-.8.8-1 1.3-.2.4-.4.8-.5 1.2 0 .1 0 .1.1.2l.9-.4c.3-.2.7-.4.9-.6.4-.3.8-.7 1.3-.9l.2-.2c.1-.2.3-.3.5-.4.3-.1.5-.3.7-.5l.3-.1c.2-.4.5-.7.9-.9.3-.1.5-.2.5-.3s-.2-.3-.5-.3c-.2 0-.5.1-.6.3h-.6c-.2.1-.4.2-.6.3z"/><path d="m229.1 177.5.4-.1.3-.3.2.1h.1c.4 0 .8-.1 1.1-.3.3-.1.5-.3.8-.4.1 0 .3-.1.4-.2 0 0 .1-.1.1-.1l.4.1c.1 0 .3-.3.6-.8.2-.4.5-.8.8-1.1.4-.4.7-.8.9-1.3.1-.1.2-.3.2-.4.1-.2.2-.3.2-.3.3 0 .5-.2.6-.5.5-.6.9-.9 1.3-.9s.8.4.9 1.3l.3 1s0 .2-.1.4-.1.5-.1.7v.5.3c0 .1.2.2.5.2.2 0 .4-.1.6-.2l.2-.1c.1.1.3.1.5.2.3-.1.5-.2.8-.3l.9-.3c.2 0 .4-.1.6-.2h.3l.2.1c.2 0 .3-.1.4-.2.4-.2.8-.3 1.3-.3l.4-.2h.1c.6 0 .9.3.9.8 0 .2-.1.4-.3.6-.2.3-.3.6-.4.9l-1.2 1.6c-.3.4-.7.7-1.2.8-.1 0-.3-.2-.7-.7 0 0 0-.1-.1-.1-.2 0-.4 0-.6.1s-.3.1-.5.1c0 0-.5.1-1.4.4l-.6.1c-.2 0-.3.1-.5.1l-1.4.3c-.5.3-.9.8-1.1 1.3 0 0-.1.1-.3.2l-1.2 2.2c-.4.1-.7.3-.8.7l-.1.2c-.2 0-.4.2-.5.3-.1.2-.3.3-.5.4l-.5.7c-.2.3-.4.5-.6.8s-.3.6-.4.9c0 .2-.1.4-.2.6-.1.1-.1.2-.1.3l-.1.2c-.2.2-.3.5-.3.7l.1.4c-.3.9-.4 1.3-.4 1.4v.3.2c0 .5-.2 1-.4 1.5v.4l-.2 1.2c0 .3.1.6.2.9-.1.1-.1.1-.1.2.1.6.3 1.2.8 1.6.6.8.9 1.8.8 2.8 0 .2 0 .3-.1.5s-.1.4-.1.7-.2.5-.4.7-.4.3-.7.3c-.9 0-1.7-.7-2.1-2.1-.3-.9-.6-1.7-.7-2.7l.1-1-.2-.5.2-2.4-.1-.6.6-2.3v-.8c.1-.2.2-.3.4-.4 0 0 0-.1-.1-.1s-.3.1-.4.3c-.2.2-.4.4-.7.6l-.2.4c-.1-.1-.1-.1-.2-.1-.3.4-.6.8-.9 1.3-.4.1-.7.3-.9.6s-.5.6-.9.6h0c-.1.5-.3.8-.8.8l-.1.1c-.3.6-.6.9-.8.9-.2.6-.7 1-1.3 1.1-.1.2-.3.4-.5.5s-.3.2-.4.3-.1.1-.2.1c-.2 0-.3-.2-.3-.7 0-.2.1-.3.2-.5.1-.1.1-.2.2-.4-.1-.1-.2-.2-.3-.3 0-.6.1-.9.4-1s.5-.3.6-.6c.1-.2.3-.4.5-.5.3-.1.4-.2.4-.3s.2-.4.7-.8c.4-.3.7-.6 1-.9.2-.3.4-.4.5-.4l.1-.1c0-.4.2-.7.5-.7l.3-.2v-.2l.2-.1h.2l.1-.1c0-.4.3-.8.6-1 .8-.6 1.5-1.3 2.1-2.1.7-.7 1.2-1.4 1.7-2.2.2-.4.4-.9.7-1.3.3-.5.5-1 .6-1.5 0-.1-.1-.2-.2-.2l-1.2.6c0-.1-.2-.1-.5-.2-.2.1-.4.3-.6.5-.1.2-.2.2-.3.2h-.4l-1.2.1c-.8 0-1.7.2-2.4.6l-1.1.3h-.2c-.2 0-.5.1-.6.3l-.6-.1c-.4.2-.8.4-1.3.5l-.3-.1-2.7.8c-.5.3-1 .7-1.4 1.1h-.2c-.2 0-.4-.2-.6-.6-.2-.3-.3-.7-.4-1.1 0-1.8 1.5-2.8 4.6-3.1l1.1-.4.3.1h.1c.2 0 .4-.1.5-.2.5-.2 1-.4 1.6-.5l1.1-.3.3.1c.2 0 .4-.1.6-.2.3-.2.7-.3 1-.3s.6-.1.9-.2l.4-.1c.2 0 .3-.1.4-.2.3-.1.6-.2.9-.2s.4 0 .6.1z"/><path d="m237.2 192 .2-.3c.4 0 .7-.2.9-.5.4-.5.9-1 1.3-1.4.8-.8 1.3-1.2 1.4-1.3.4-.7.8-1.5 1-2.3.2-.1.3-.2.3-.4l.2-.4.2-.1.1-.1v-.2c.2-.8.6-1.6 1-2.2.7-1.4 1.1-2.2 1.1-2.4.1-.2.2-.5.3-.7.2-.3.4-.9.7-1.7.4-.9.9-1.8 1.5-2.6.1 0 .2-.2.3-.6.2-.4.4-.8.7-1.1l.3-.6.6-.9c.2-.4.5-.7.7-1.1.2-.2.4-.5.5-.8.1-.2.2-.4.4-.6s.4-.4.5-.7.5-.5.8-.5c.6 0 1.2.3 1.5.9.3.5.4 1 .5 1.5 0 .1-.1.4-.3 1.1l-.4 2.4c-.4.2-.5.4-.5.6 0 1.1-.4 2.1-1.1 2.9-.1.2-.2.5-.2.7 0 .4-.2.7-.5.9-.3.4-.6.8-.7 1.3l-2.5 3.6-.2.2c-.1.1-.3.3-.4.5l-.4-.1c-.5 0-.7.2-.7.5 0 .1 0 .3.1.4v.1s-.7.9-2 2.8c-.2.3-.3.7-.4 1l-.4.8c-.3.5-.6 1-.8 1.5-.1.4-.3.8-.6 1.2-.4.8-.5 1.2-.5 1.3s0 .1.1.2c.1 0 .4-.3.8-.8.3-.4.6-.8 1-1.1.3-.2.5-.4.7-.7l.3-.2c.1 0 .2-.2.5-.3l.3.1c.1-.1.2-.2.3-.4 0-.1.1-.2.2-.3.5-.1.8-.2.9-.5s.3-.4.4-.4c.2 0 .3-.2.6-.5s.6-.6 1-.8c.3-.2.6-.3.9-.5.4-.3.8-.5 1.2-.6.4-.2.8-.3 1.3-.3h.2l.2.1.4-.1c.7 0 1.3.2 1.9.5s.9 1 .8 1.6l-.2 1.7-.3 1.3c-.1.5-.3 1-.4 1.4-.2.4-.3.8-.4 1.3l-.1.5.1.7-.1.6c0 .1.1.3.2.3h.1c.1 0 .3-.2.6-.5.2 0 .4-.1.6-.3.2-.3.5-.5.7-.8 0-.1.1-.1.3-.2.4-.1.7-.4.9-.6.3-.4.6-.7 1-1 .5-.5 1.1-.9 1.8-1.2l.2-.2c.2-.3.5-.4.8-.5.3 0 .4.1.4.4 0 .2 0 .4-.1.6s-.2.5-.2.8c-.1.5-.3.9-.5 1.4l-.1.3c-.1.2-.2.4-.5.5-.2.1-.4.2-.6.4-.4.3-.8.6-1.3.7-.3.5-.5.8-.7.8l-.4-.2c-.3.2-.5.6-.6.9-.3.2-.6.5-.8.8l-.5-.1c-.1 0-.2.2-.2.6 0 0-.2.2-.5.4s-.6.3-.8.6c-.4.2-.8.3-1.3.2-.1 0-.2-.1-.3-.2-.2-.1-.4-.3-.6-.3-.3-.1-.5-.3-.6-.6s-.2-.5-.3-.8c-.1-.1-.2-.3-.2-.4l.1-.5-.1-.6.2-.4c-.1-.2-.1-.3-.2-.5l.3-1.6c.1-.8.3-1.5.5-2.3.1-.1.1-.2.1-.3l-.1-.7.1-.4c0-.3-.1-.4-.3-.4s-.3-.1-.3-.1c-.1-.1-.3-.1-.4-.2-.1 0-.3.1-.4.3s-.2.4-.4.6l-.7-.1c0 .1-.2.4-.7.8-.4.1-.8.3-1.1.7-.3.1-.5.2-.7.4s-.4.3-.7.5l-.2.4-.4.1c-.1.4-.5.6-.9.7l-.3.5c-.4 0-.7.2-.8.6-.1.3-.2.5-.3.5s-.1 0-.2-.1c-.1 0-.2-.1-.2-.1-.4 0-.6.3-.6.9-.3.5-.7.9-1.1 1.3s-.8.8-1.2 1.2c-.1.2-.2.3-.3.5-.1.3-.4.6-.6.8-.3.2-.5.3-.6.4s-.2.1-.3.2c-.4 0-.7-.3-.9-.8s-.3-.8-.3-.8l.2-.6v-.5s.1-.4.3-1.1c.2-.6.4-1.2.8-1.7.4-.6.6-1.3.7-2-.4.4-.9.6-1.4.8-.4 0-.5-.2-.5-.7-.5-1.2-.2-2 .3-2.6z"/><path d="m264.3 190.8.6-.5c.4 0 .7-.3.7-.7.1-.5.4-.9.9-1.1l.3-.5c.7-.5 1.4-.8 2.2-1 .2-.1.4-.3.6-.5 0 0 .1-.1.1-.1l.4.1c.3 0 .6-.1.9-.2s.7-.2 1.1-.2h1.1c.2 0 .3.1.4.2.3.1.5.2.8.2.4 0 .8.2 1.1.5s.5.6.5 1c-.1.7-.4 1.3-.9 1.7-.4.4-.8.8-1.4.9-.2.2-.4.4-.7.6-.2.1-.4.2-.5.4-.1.1-.3.2-.4.3-.1 0-.1 0-.2-.1 0 0-.1-.1-.2-.1-.3 0-.6.3-.9 1l-.5-.1c-.3.1-.5.4-.6.6s-.3.4-.6.3c-.7.7-1.1 1-1.3 1l-.4-.1c-.1.2-.2.3-.2.6 0 .2-.1.3-.4.4l-.3.3-.3-.1-.5.6c-.3 0-.6.1-.8.3 0 .2-.1.5-.2.8s-.1.5-.1.6c0 .5.5.8 1.4.8l1.3-.2c.3 0 .7-.1.9-.3.3-.2.6-.3.9-.3.2 0 .3 0 .5-.1l.3.1c.2-.3.4-.6.7-.7.2-.2.5-.3.8-.3l.3-.2c0-.2.2-.3.3-.4l.2-.2c.1-.1.2-.2.4-.2h.4l.1-.1c.1-.4.5-.7.9-.8s.6-.2.7-.4.3-.3.5-.3.5-.2.6-.4c.2-.2.4-.4.6-.6.2-.1.4-.3.5-.4s.2-.1.3-.1.2.1.2.2c0 .2 0 .2.1.2s.1 0 .1-.1c0-.1 0-.2 0-.3v.2c0-.3.2-.5.4-.5l1.2-.8c0-.4.1-.6.3-.7.1-.1.3-.1.4-.2s.2-.1.3-.1c.2 0 .3.1.3.4l-.1.7.1.7c0 .2-.1.3-.3.4-.2.2-.3.5-.4.9s-.2.6-.4.6h-.2c-.2.3-.5.5-.8.6-.2.1-.3.2-.4.3l-.9 1c-.2.2-.3.3-.5.5-.1.2-.2.2-.3.2l-.2-.2s0 0-.1 0-.3.1-.3.3-.1.4-.3.6c-.4.1-.8.4-1 .7l-.2.1h-.5c-.2 0-.4.2-.5.5s-.4.6-.8.6c-.3 0-.7.1-.9.3-.1 0-.2.1-.2.1-.3.1-.5.3-.8.4l-2.3.8c-.1.1-.2.1-.3.1l-.8.1c-.1 0-.3-.1-.3-.2-.1-.1-.2-.2-.2-.2l-.5.2c-.3.1-.7.2-1 .2-.2 0-.4-.1-.6-.2s-.3-.2-.5-.3c-.5 0-.9-.4-1.1-1.2l-.3.1c-.3-.6-.6-1.2-.7-1.9-.1-.2-.3-.3-.5-.3-.2-.1-.4-.3-.3-.5-.1-.6.1-1.2.5-1.6.2-.2.4-.4.6-.6l.4-1.4c.1-.2.2-.3.3-.5l.6-1.1zm5.6-1.6-.3.2c-.2.1-.4.3-.6.5-.3.3-.7.5-1 .7-.5.3-.8.8-1 1.3-.2.4-.4.8-.5 1.2 0 .1.1.2.2.2l.9-.4c.3-.2.7-.4.9-.6.4-.3.8-.7 1.3-.9l.2-.2c.1-.2.3-.3.5-.4s.5-.3.7-.5l.3-.1c.2-.4.5-.7.9-.9.3-.1.5-.2.5-.3s-.2-.3-.5-.3c-.2 0-.5.1-.6.3h-.8c-.2.1-.4.2-.6.3z"/><path d="m283.4 188.8.4-.1.2-.4c.7-.4 1.3-.9 1.9-1.5.1-.1.1-.2.2-.2.2-.1.3-.2.4-.4.6-.6 1.5-1 2.4-.9 1.1 0 1.6.6 1.7 1.9l.2.4c.2.5.4 1 .6 1.5s.3.9.4 1.4c0 .5-.2 1-.5 1.4-.7.6-1.3 1.3-1.8 2l-.3.2c-.2.3-.3.6-.6.9-.4.1-.5.3-.5.4v.5c0 .1-.1.2-.1.2-.1.2-.2.4-.3.6l-.2.3c-.1.1-.2.3-.2.4-.1.2-.2.4-.3.6-.1.1-.2.3-.2.4 0 .3.3.4 1 .4.1 0 .3-.1.4-.2l.4.1c.1 0 .2-.1.3-.2.2-.1.4-.2.7-.3s.5-.2.8-.3c.3-.2.5-.3.8-.4s.6-.3.9-.5.5-.4.8-.5.6-.3.8-.5c.3-.2.5-.4.8-.6.5-.4 1-.8 1.4-1.3.3-.2.6-.4.9-.6.2-.2.3-.5.5-.7.2-.4.5-.7.9-.7s.6.2.6.5c0 .2-.1.4-.3.6v.2l.1.4c0 .1.1.2.1.2 0 .1-.1.2-.2.3-.1.2-.2.3-.3.5s-.3.4-.5.4c-.1.4-.2.6-.4.7-.3.1-.5.3-.7.5-.4.4-.8.7-1.3 1.1-.4.3-.8.6-1.1.9-.2.2-.3.3-.4.3s-.1-.1-.2-.1-.1-.1-.2-.1-.2.1-.2.4l-.1.3c-.1.1-.3.2-.4.2l-.2-.1h-.1c-.2 0-.3.1-.3.2l.2.3v.1c0 .3-.1.4-.4.4-.6.2-1.2.6-1.7 1l-.8.2-.6.3c-.1-.1-.3-.2-.4-.2l-.4.1-.8.1s-.3-.2-.9-.5c-.5-.2-.9-.6-1.1-1.1-.1-.4-.3-.7-.5-1.1-.1-.2-.3-.5-.3-.8 0-.6 0-1.3.2-1.9.1-.3.2-.5.3-.8.1-.2.2-.4.3-.6.2-.3.4-.6.4-1 .3-.7.7-1.3 1.1-1.9.2-.3.4-.5.5-.9l.3-.5c.1-.1.1-.3.2-.4.1-.2.2-.4.3-.4.1-.1.2-.3.2-.5 0-.5-.2-.8-.7-.8-.1 0-.2.1-.3.3-.2.3-.4.4-.7.6-.3.1-.5.2-.7.4-.2.1-.4.3-.6.3-.3.1-.6.4-.8.6l-.5.2c-.1.3-.3.5-.4.6l-1 .3c-.1.1-.2.2-.3.3-.1.2-.4.3-.6.3-.2.2-.5.5-.6.7-.2 0-.4.1-.6.2l-.5.1c-.2.2-.3.3-.5.5-.2.3-.6.4-.9.3-.3 0-.4-.2-.4-.6 0-.8.3-1.6.9-2.1.4-.4.8-.7 1.4-.8.2 0 .4-.1.5-.3s.3-.4.5-.5c.4-.2.7-.5.9-.8.3-.4.7-.7 1.2-.8z"/></g></g></svg>