<svg enable-background="new 0 0 300 300" viewBox="0 0 300 300" xmlns="http://www.w3.org/2000/svg" xmlns:xlink="http://www.w3.org/1999/xlink"><linearGradient id="a"><stop offset="0" stop-color="#c31c78"/><stop offset=".42" stop-color="#c31c78"/><stop offset=".52" stop-color="#b81971"/><stop offset=".68" stop-color="#9c125f"/><stop offset=".89" stop-color="#6e0741"/><stop offset="1" stop-color="#53002f"/></linearGradient><linearGradient id="b" gradientTransform="matrix(1 0 0 -1 0 302.24)" gradientUnits="userSpaceOnUse" x1="106.791" x2="106.791" xlink:href="#a" y1="232.1293" y2="123.1632"/><linearGradient id="c" gradientTransform="matrix(1 0 0 -1 0 302.24)" gradientUnits="userSpaceOnUse" x1="132.5638" x2="132.5638" xlink:href="#a" y1="136.5276" y2="127.116"/><linearGradient id="d" gradientTransform="matrix(1 0 0 -1 0 302.24)" gradientUnits="userSpaceOnUse" x1="150.0297" x2="150.0297" xlink:href="#a" y1="151.2493" y2="142.7788"/><linearGradient id="e" gradientTransform="matrix(1 0 0 -1 0 302.24)" gradientUnits="userSpaceOnUse" x1="80.3445" x2="80.3445" xlink:href="#a" y1="136.9041" y2="126.6702"/><g opacity=".98"><path d="m86.8 162.9-85.8 31 100.8-54.9-9 91.9z" fill="#15bef0"/><path d="m128.2 162.6-7.4 69.3-6.3-92.4 184.5.2-157.2 10.5 26.4 42z" fill="#d2db6a"/><path d="m162.3 119.1c-2.5-28.8-26.6-51-55.5-51-1.6 0-3.2.1-4.8.2-30.6 2.7-53.3 29.6-50.7 60.3.9 10.8 5 21.2 11.8 29.7l39.8-21.7h.2c.1 0 .2 0 .2.1.1.1.2.3.2.4l-4.1 42c1.2.2 2.2.3 3.2.3l.9-7.3 2.7-30.2c0-.2.2-.4.5-.4h2.3c.2 0 .4.2.4.4l2 34.9.2 2.3c1.2-.1 2.4-.3 3.7-.5l-.5-9.4-2.1-31.1c0-.1.1-.2.1-.3.1-.1.2-.1.3-.1l47.4.1c1.8-6 2.3-12.4 1.8-18.7z" fill="url(#b)"/><path d="m99 117.7c-5.2 0-11 1-10.9 6-.2 2.3 1.6 4.3 3.9 4.4h.6c2.8 0 5.3-1.8 6.2-4.4.2-.5.2-1 .2-1.5zm.9 13.3-.4-3.3h-.2c-1.8 2.5-4.8 4-7.9 4-5.3.1-8-3.6-8.1-7.3-.1-6.3 5.4-9.8 15.5-9.9v-.5c0-2.1-.7-6-6-5.9-2.4 0-4.7.7-6.7 2l-1.1-3.1c2.5-1.6 5.5-2.4 8.5-2.4 7.9-.1 10 5.3 10 10.5l.2 9.7c0 2.1.2 4.2.5 6.2z" fill="#fff"/><path d="m105 130.9-.4-26 4.7-.1.4 26zm5.3 5c-.3 1.6-1.8 2.7-3.4 2.4-1.2-.2-2.2-1.1-2.4-2.3 0-1.6 1.2-2.9 2.8-3h.1c1.5-.1 2.9 1.1 3 2.6-.1.1-.1.2-.1.3" fill="#fff"/><path d="m110.8 111.9c0-2.7-.1-4.9-.3-7l4.1-.1.3 4.2h.2c1.5-3.1 4.7-5 8.1-5 3.3-.1 6.3 2 7.4 5.1h.1c.7-1.3 1.7-2.5 2.8-3.4 1.6-1.3 3.6-2 5.7-1.9 3.4 0 8.6 2.1 8.7 11.1l.2 15.3-4.6.1-.2-14.7c-.1-5-2-7.9-5.8-7.9-2.6.1-4.8 1.9-5.5 4.4-.2.8-.4 1.6-.3 2.4l.2 16-4.6.1-.2-15.6c-.1-4.1-2-7.1-5.5-7.1-3 0-5.1 2.4-5.8 4.8-.3.7-.4 1.5-.3 2.3l.2 15.7-4.6.1z" fill="#fff"/><g fill="#58595b"><path d="m175 107.7-.8-2.6c-.2-.7-.4-1.6-.6-2.3-.2.7-.4 1.6-.6 2.3l-.7 2.6zm-3.1 2-.9 3.1h-2.8l3.7-12.1h3.6l3.7 12.1h-3l-.9-3.1z"/><path d="m187.8 112.7c-.8.3-1.6.4-2.4.4-2.8 0-4.6-1.7-4.6-4.5 0-2.6 1.8-4.7 5-4.7.7 0 1.4.1 2.1.3l-.4 2c-.5-.2-1-.3-1.5-.3-1.4 0-2.5 1.1-2.5 2.5s1.1 2.5 2.5 2.5c.5 0 1.1-.1 1.6-.3z"/><path d="m190.1 100.1h2.7v5c.3-.4.7-.7 1.1-.9s.9-.3 1.4-.3c1.7 0 3.1 1.2 3.1 3.8v5.1h-2.7v-4.8c0-1.1-.4-2-1.4-2-.6 0-1.2.4-1.4 1-.1.2-.1.4-.1.6v5.2h-2.8z"/><path d="m201.3 112.9v-8.8h2.7v8.8zm2.8-11.2c0 .7-.6 1.4-1.4 1.4h-.1c-.8 0-1.4-.6-1.4-1.4s.6-1.4 1.4-1.4c.8-.1 1.4.5 1.5 1.3z"/><path d="m212.2 107.5c.1-.9-.5-1.7-1.4-1.8-.1 0-.1 0-.2 0-.9 0-1.7.8-1.7 1.8zm-3.2 1.9c.1 1.1 1.2 1.7 2.5 1.7.8 0 1.6-.1 2.4-.4l.4 1.8c-1 .4-2.1.6-3.2.5-3 0-4.7-1.7-4.7-4.5-.2-2.4 1.7-4.5 4.1-4.7h.4c2.8 0 3.9 2.2 3.9 4.4 0 .4 0 .7-.1 1.1z"/><path d="m219 104.2 1.2 4.1c.2.7.4 1.4.5 2.1h.1c.1-.7.3-1.4.5-2.1l1.1-4.1h2.9l-3.3 8.7h-2.7l-3.2-8.8z"/><path d="m232.2 107.6c.1-.9-.5-1.7-1.4-1.8-.1 0-.1 0-.2 0-.9.1-1.7.8-1.7 1.8zm-3.2 1.8c.1 1.1 1.2 1.7 2.5 1.7.8 0 1.6-.1 2.4-.4l.4 1.9c-1 .4-2.1.6-3.2.5-3 0-4.7-1.7-4.7-4.5-.2-2.4 1.7-4.5 4.1-4.7h.3c2.8 0 3.9 2.2 3.9 4.4 0 .4 0 .7-.1 1.1z"/><path d="m164.4 123.9h12.1v2.7h-12.1z" transform="matrix(.0017453 -1 1 .0017453 44.86 295.5065)"/><path d="m176.5 121.5h-3.2v-2.3l9.3.1v2.3h-3.3v9.7h-2.8z"/><path d="m179.3 123.9h12.1v2.7h-12.1z" transform="matrix(.0017453 -1 1 .0017453 59.7402 310.4524)"/><path d="m191.9 129.3c.3.1.7.1 1 .1 2.5 0 4.1-1.3 4.1-4.2.2-1.9-1.1-3.6-3.1-3.8-.2 0-.5 0-.7 0-.4 0-.8 0-1.2.1zm-2.8-9.9c1.2-.2 2.5-.3 3.7-.2 1.8-.1 3.5.3 5 1.3 1.4 1.1 2.2 2.8 2 4.6.1 1.8-.6 3.6-2 4.9-1.6 1.2-3.6 1.7-5.6 1.6-1 0-2.1-.1-3.1-.2z"/><path d="m207.2 126.2-.7-2.6c-.2-.7-.4-1.6-.6-2.3-.2.7-.4 1.6-.6 2.3l-.7 2.6zm-3.1 2.1-.9 3.1h-2.8l3.7-12.1h3.6l3.7 12.1h-3l-.9-3.1z"/><path d="m226.9 126.8c0-1.4-.1-3.2-.1-5-.4 1.5-.9 3.3-1.4 4.7l-1.5 4.7h-2.1l-1.3-4.7c-.4-1.4-.8-3.1-1.1-4.7-.1 1.6-.1 3.5-.2 5l-.2 4.6h-2.5l.8-12.1h3.6l1.2 4c.4 1.4.7 2.9 1 4.3.3-1.4.8-3 1.2-4.3l1.3-4h3.6l.6 12.1h-2.7z"/><path d="m231.9 131.4v-8.8h2.7v8.8zm2.8-11.2c0 .8-.6 1.4-1.4 1.4h-.1c-.8.1-1.4-.5-1.5-1.3s.5-1.4 1.3-1.5h.2c.8 0 1.4.5 1.5 1.3z"/><path d="m236.8 129.1c.7.4 1.5.6 2.3.7.8 0 1.2-.3 1.2-.7s-.3-.7-1.3-1c-1.8-.6-2.5-1.6-2.5-2.6 0-1.6 1.4-2.9 3.6-2.9.9 0 1.7.2 2.5.5l-.5 1.9c-.6-.3-1.2-.5-1.9-.5s-1 .3-1 .7.3.6 1.4 1c1.7.6 2.4 1.4 2.4 2.7 0 1.6-1.3 2.8-3.8 2.8-1 0-2-.2-2.9-.6z"/><path d="m244.6 129.1c.7.4 1.5.6 2.3.7.8 0 1.2-.3 1.2-.7s-.3-.7-1.3-1c-1.8-.6-2.5-1.6-2.5-2.6 0-1.6 1.4-2.9 3.6-2.9.9 0 1.7.2 2.5.5l-.5 1.9c-.6-.3-1.2-.5-1.9-.5s-1 .3-1 .7.3.6 1.4 1c1.7.6 2.4 1.4 2.4 2.7 0 1.6-1.3 2.8-3.8 2.8-1 0-2-.2-2.8-.6z"/><path d="m252.3 131.5v-8.8h2.7v8.8zm2.9-11.2c0 .8-.6 1.4-1.4 1.4h-.1c-.8.1-1.4-.5-1.5-1.3s.5-1.4 1.3-1.5h.2c.8-.1 1.4.5 1.5 1.4 0-.1 0-.1 0 0"/><path d="m259.6 127.1c0 1.5.6 2.6 1.8 2.6s1.7-1.1 1.7-2.6c0-1.3-.5-2.6-1.7-2.6-1.3 0-1.8 1.3-1.8 2.6m6.3-.1c.2 2.4-1.7 4.5-4.1 4.7-.2 0-.4 0-.6 0-2.4.1-4.4-1.7-4.5-4 0-.2 0-.3 0-.5-.1-2.4 1.7-4.5 4.1-4.6h.6c2.4-.1 4.4 1.7 4.5 4.1z"/><path d="m267.6 125.5c0-1.1 0-2-.1-2.8h2.4l.1 1.2h.1c.6-.9 1.6-1.4 2.7-1.4 1.8 0 3.1 1.2 3.1 3.8v5.2h-2.7v-4.9c0-1.1-.4-1.9-1.4-1.9-.6 0-1.2.4-1.4 1-.1.2-.1.5-.1.7v5.1h-2.7z"/></g><path d="m136.6 170.8-7.2-5.3-1 9.6c2.9-1.2 5.6-2.6 8.2-4.3z" fill="url(#c)"/><path d="m155.5 150.9-10.9.7 5 7.9c2.2-2.7 4.2-5.6 5.9-8.6z" fill="url(#d)"/><path d="m85.4 165.1-11 4c3.7 2.6 7.7 4.8 11.9 6.5z" fill="url(#e)"/></g></svg>