<svg enable-background="new 0 0 300 300" viewBox="0 0 300 300" xmlns="http://www.w3.org/2000/svg"><g opacity=".98"><path d="m272.2 186.8c-1.7.3-3.4.4-5.1.4-.9 0-1.8 0-2.6-.1 2.6-4.6 3.9-9.9 3.9-15.2 0-18.4-16.4-33.4-36.5-33.4h-15.6l1-19.3 25-35.3 10.6-14.8h-53l-2.7 4.7-.9 1.6-.9-1.5-2.7-4.8h-53.1l3.6 5.2c-6.3.8-12.5 2.6-18.2 5.5v-10.7h-74.8l.8 10.1 3.5 59.3h-53.5l5.1 12.9 28.1 71.3 2.4 6h24.4l2.3-6.1 2.4-6.6 2.4 6.5 2.3 6.1h89.8l2.6-5 1.9-3.7h21.4l2 3.8 2.7 4.9h43.3l.4-8.9.1-1.9c4.2 3.9 8.9 7.2 14 9.8l6.4 3.2 4.8-5.3 20.9-23.2 18.2-20.2z" fill="#ffd534"/><path d="m267.1 196.7c-6.8 0-13.4-1.8-19.3-5.2 6.9-4.5 11.2-11.5 11.2-19.5 0-13.2-12.2-24-27.1-24h-25.5l1.6-32 26.6-37.5h-29.4l-9.1 15.8-9-15.8h-29.4l4.7 6.6c-16.6-8.3-36.8-2.7-46.8 12.9v-19.5h-55.3l5.2 70-14.3 30.9-4.9-31.4h-31.5l28.2 71.3h11.5l11.3-30.1 11.2 30.1h11.6l12-30.6 2.3 30.6h51.7l4.6-8.7h32.6l4.7 8.7h28.7l1.1-23.7 2.3.3c6.8 10.2 14.4 18.4 24.3 23.4l20.9-23.2c-2.2.4-4.4.6-6.7.6zm-186.9-17.3-13.6-29.5h18.2zm3.6-39.7.7-23.8 18.7 10v-25.6l-18.5 9.9.8-23.8 28.1 15.5c-3.8 7.8-4.5 16.7-2.1 25zm32.8-2.3c3.1 4.3 7 7.9 11.6 10.5h-11.6zm37.2 57.2v-.8l-32.8 15.3.7-23.8 18.7 10v-25.6l-18.5 9.9.8-23.9 30.2 16.7v-20.2c2.2-.4 4.4-1 6.5-1.8l8.1 15zm10.6 5.8 10.8-20.7 11.1 20.7zm0-52.5c2.5-1.5 4.8-3.2 6.9-5.2v-28.5h-28.7v7.4h12.9v12.7c-2.1 1.9-4.8 2.9-7.7 3-8.1 0-14.9-9.2-14.9-20.3s6.8-20.2 14.9-20.2c5.5 0 10.2 4.1 12.8 10.1l9.9-10.2 15.2 21.4 2.5 29.9h-23.8zm25.9 1.9h12.3l2.4 46.7zm36.5 36.1.3-26.7c7.8 1 13.2 6.7 13.2 13.3 0 6.9-6.1 12.9-13.5 13.4z" fill="#009bdb"/></g></svg>