<svg enable-background="new 0 0 300 300" viewBox="0 0 300 300" xmlns="http://www.w3.org/2000/svg"><g opacity=".98"><path d="m60.1 117.4c-.1-15.4 3.9-30.6 11.4-44l-.2-.2c-14.1-13.7-36.7-13.4-50.4.7-.5.6-1.1 1.1-1.6 1.7-13 15.3-11.6 40.8 9.6 54.1-4.3 1.9-8.5 3.7-12.6 5.4-5.7 2.3-10.7 6.1-14.5 10.8-1.1 1-1.1 2.7-.1 3.8 16.5 23.9 48.8 29.1 72.1 15.8-9-14.4-13.8-31.1-13.7-48.1z" fill="#a6a8ab"/><path d="m298.3 146.2c-3.8-4.9-8.9-8.7-14.6-11.1-4.1-1.8-8.2-3.6-12.6-5.4 23.6-14.9 21.1-43.3 7.2-56.5-13.6-13.2-35.3-13.4-49.1-.4 16.6 29.1 15.7 64.9-2.2 93.2 23.5 12.8 55.4 7.3 71.5-16.6.7-1 .7-2.4-.2-3.2z" fill="#a6a8ab"/><path d="m59.5 142.5c-15.3-51.1 13.8-105 64.9-120.3s105 13.8 120.3 64.9-13.8 105-64.9 120.3c-8.9 2.7-18.1 4-27.4 4.1-2.6 0-17.4-1.4-18.1 5.3-5.5 18.7 2.7 35.1-3 53.7-2.8 9.2-10.7 13.4-19.9 10.7-5.8-1.7-11.6-3.5-17.4-5.3-9.8-3-14-10.7-11-20.5 5.6-18.4 19.1-28.2 24.9-46.5 2.9-5.1-7.5-12.3-9.8-13.9-13-8.8-23.8-20.5-31.5-34.3-2.5-6.1-5.3-12-7.1-18.2zm130.4 44.9c40.4-21.5 55.8-71.4 34.4-111.1s-71.3-54.7-110.8-33.6c-39.5 21.4-54.5 70.7-33.5 110.5 21 39.5 70.8 55 109.9 34.2z" fill="#14bdef"/><path d="m172.8 133.2c5.6 2.4 10.9 4.7 16.2 7 7.4 3 13.9 8 18.8 14.2 1.1 1.1 1.2 2.8.1 3.9-26.8 39.8-87.8 40.1-115.3.4-1.3-1.4-1.3-3.5.1-4.8 0 0 .1 0 .1-.1 5-6.1 11.4-10.9 18.7-13.9 5.3-2.3 10.6-4.6 16.2-7-27.3-17-29.1-49.8-12.4-69.4 16.5-19.3 45.4-21.5 64.7-5.1.7.6 1.4 1.3 2.1 1.9 17.8 17.2 21 53.7-9.3 72.9z" fill="#c31c78"/><path d="m158.5 179.8-8.3 8.4-8.4-8.4 8.4-40.6z" fill="#fff"/><path d="m150.2 139.2 3.5 5.1 19.1-11.1z" fill="#fff"/><path d="m150.2 139.2-3.8 5.1-18.9-11.1z" fill="#fff"/><g fill="#c31c78"><path d="m140 216.2h11.1v3h-7.3v4.6h6.7v3h-6.7v5.3h7.4v3h-11.2z"/><path d="m154.6 221.1h3.4v1.9c.9-1.4 2.5-2.3 4.1-2.3 1.8-.2 3.4.8 4.1 2.5.9-1.6 2.5-2.5 4.3-2.5 3.4 0 4.4 2.3 4.4 5.4v8.8h-3.6v-8.3c0-1.3 0-3.1-2.1-3.1-2.4 0-2.7 2.9-2.7 4.7v6.7h-3.5v-8.3c0-1.3 0-3.1-2.1-3.1-2.4 0-2.7 2.9-2.7 4.7v6.7h-3.6z"/><path d="m178.6 221.1h3.5v2c.9-1.5 2.6-2.4 4.3-2.3 4.3 0 5.8 3.4 5.8 7.2s-1.6 7.3-5.9 7.3c-1.6.1-3.1-.6-4.1-1.9v7.2h-3.6zm3.7 6.9c0 2 .8 4.5 3.2 4.5s3-2.6 3-4.5-.7-4.4-3-4.4-3.2 2.6-3.2 4.4z"/><path d="m195.2 214.8h3.6v20.2h-3.6z"/><path d="m209 220.8c3.8-.2 7.1 2.8 7.3 6.6v.8c0 4-3.3 7.3-7.3 7.3s-7.3-3.3-7.3-7.3c-.2-3.8 2.7-7.1 6.5-7.4zm0 11.7c2.8 0 3.5-2.5 3.5-4.8.3-1.9-1-3.8-2.9-4.1s-3.8 1-4.1 2.9c-.1.4-.1.8 0 1.2 0 2.3.7 4.8 3.5 4.8z"/><path d="m224.9 231.3 3.3-10.1h3.8l-5.2 13.8c-1.1 3.1-2 6.1-5.8 6.1-.9 0-1.7-.1-2.6-.4l.2-2.7c.6.2 1.2.3 1.9.2 1.2.1 2.3-.9 2.4-2.2 0-.1 0-.2 0-.3l-5.3-14.6h4z"/><path d="m234 221.1h3.4v1.9c.9-1.4 2.5-2.3 4.1-2.3 1.8-.2 3.4.8 4.1 2.5.9-1.6 2.6-2.5 4.4-2.5 3.4 0 4.4 2.3 4.4 5.4v8.8h-3.6v-8.3c0-1.3 0-3.1-2.1-3.1-2.4 0-2.7 2.9-2.7 4.7v6.7h-3.6v-8.3c0-1.3 0-3.1-2.1-3.1-2.4 0-2.7 2.9-2.7 4.7v6.7h-3.6z"/><path d="m269.2 234.2c-1.5.8-3.1 1.2-4.8 1.1-4.6 0-7.3-2.6-7.3-7.2 0-4 2.1-7.3 6.5-7.3 5.2 0 6.6 3.5 6.6 8.4h-9.6c.1 2 1.7 3.6 3.8 3.5h.2c1.6-.1 3.2-.5 4.6-1.4zm-2.4-7.5c-.1-1.8-.9-3.3-2.9-3.3-1.7-.1-3.2 1.3-3.3 3v.2h6.2z"/><path d="m273 221.1h3.4v1.9c1-1.5 2.8-2.3 4.6-2.2 3.3 0 4.7 2.3 4.7 5.4v8.8h-3.6v-7.4c0-1.6 0-4-2.3-4-2.6 0-3.2 2.8-3.2 4.6v6.8h-3.6z"/><path d="m290.7 223.8h-2.7v-2.6h2.7v-2.8l3.6-1.2v3.9h3.3v2.6h-3.3v6.6c0 1.2.3 2.3 1.6 2.3.6 0 1.1-.1 1.6-.4l.1 2.9c-.9.2-1.8.3-2.7.3-2.2.2-4.2-1.5-4.4-3.7 0-.3 0-.5 0-.8z"/><path d="m140 241.4h10.5v3h-6.7v4.6h6.3v3h-6.3v8.2h-3.8z"/><path d="m153.8 247c1.5-.7 3.2-1 4.8-1 4.2 0 6 1.8 6 5.8v1.8 3.5c0 1 0 2 .2 3.1h-3.1c-.1-.7-.1-1.4-.2-2.1-.9 1.5-2.6 2.5-4.3 2.5-2.4.3-4.6-1.5-4.9-3.9 0-.1 0-.2 0-.2-.1-1.7.8-3.4 2.4-4.1 1.5-.6 3.1-.9 4.7-.8h2c0-2.2-1-3-3.1-3-1.6 0-3.1.6-4.3 1.5zm4.2 10.9c1 0 1.9-.4 2.5-1.2s.8-1.8.8-2.9h-1.6c-1.6 0-4 .3-4 2.4 0 1.1 1 1.7 2.3 1.7z"/><path d="m168.2 240.3h3.6v3.5h-3.6zm0 6h3.6v13.9h-3.6z"/><path d="m175.7 246.3h3.3v3.2c.3-2.2 2.3-3.7 4.5-3.4.1 0 .3 0 .4.1v3.7c-.5-.2-1.1-.3-1.6-.3-2.9 0-2.9 3.7-2.9 5.7v5.1h-3.6z"/><path d="m5.8 217.2h8.5v42.6h-8.5z"/><path d="m54.4 259.2c-3.2.8-6.4 1.3-9.7 1.3-13.8 0-23.3-6.9-23.3-21.3s8.9-22.7 23.3-22.7c3.3 0 6.5.6 9.6 1.8l-.6 7.2c-2.8-1.6-6-2.4-9.2-2.3-8.8 0-14.3 6.7-14.3 15.4s5.4 15.2 14.4 15.2c3.2 0 6.4-.6 9.3-1.8z"/><path d="m68.4 223.9h-12.2v-6.7h32.9v6.7h-12.1v35.8h-8.5v-35.8z"/></g><path d="m115.7 246.1c-3 0-3.5-1.3-3.5-4v-4.6h-1.5v-.9l3-2.9h.9v1.9h2.9v1.9h-2.9v4.8c0 1 0 2 1.3 2 .6 0 1.1-.1 1.6-.3l.5 1.7c-.8.2-1.6.4-2.3.4z" fill="#fff"/><path d="m127.2 245.9-.8-.9v-4.5c0-1.9 0-3.3-1.9-3.3-.9 0-1.8.3-2.5.7v7.9h-2.5v-14.3h2.4v4.7c1-.5 2.1-.8 3.3-.9 3.2 0 3.7 2.3 3.7 5.1v5.3h-1.7z" fill="#fff"/><path d="m100.6 270.9c-7.5 0-11.9-6-11.9-13.7 0-7.5 4.7-13.7 13-13.7 2.8.1 5.5.6 8.1 1.5l-1 4c-1.9-.8-4-1.2-6-1.4-6.1 0-8 3.5-8.3 7.5 2.1-1.1 4.4-1.7 6.7-1.8 6.7 0 10 3.9 10 8.3s-2.9 9.3-10.6 9.3zm-.1-13.6c-2.1 0-4.2.6-6.1 1.6.1 4.6 2.5 8 6.2 8 2.5.1 4.6-1.8 4.7-4.3 0-.2 0-.4 0-.6.2-2.5-1.7-4.6-4.2-4.8-.1.1-.4.1-.6.1z" fill="#fff"/></g></svg>