<svg enable-background="new 0 0 300 300" viewBox="0 0 300 300" xmlns="http://www.w3.org/2000/svg"><g opacity=".98"><path d="m124.2 62.7c-32.1 14.3-46.5 52-32.2 84.1s52 46.5 84.1 32.2 46.5-52 32.2-84.1c-6.5-14.5-18.1-26-32.7-32.4v24.2c10.8 7.9 17.2 20.5 17.2 33.9.1 23.6-19 42.8-42.6 42.9s-42.8-19-42.9-42.6c-.1-13.4 6.2-26 16.8-34.1v-24.1z" fill="#8bc53f"/><path d="m163.2 120.1c0-7.3-6-13.2-13.2-13.1-7.3 0-13.2 6-13.1 13.2s6 13.2 13.2 13.1c7.2 0 13.1-5.9 13.1-13.2z" fill="#4d4d4d"/><path d="m163.3 27.1c0-5-6-12.1-13.4-12.1s-13.3 7.4-13.3 12.2l.2 62.8c0 4.6 6 11 13.4 10.9 7.4 0 13.3-7.4 13.3-11zm-13.1 69.7c-5.5 0-9.9-5.7-9.9-9.9l-.2-56.7c0-4.3 4.4-11 9.8-11s9.9 6.4 9.9 10.9l.2 56.7c0 3.3-4.4 9.9-9.8 10z" fill="#4d4d4d"/><path d="m22.3 273.2c0 5.9 4.8 10.6 10.7 10.6s10.6-4.8 10.6-10.7-4.8-10.6-10.7-10.6-10.6 4.8-10.6 10.7z" fill="#8bc53f"/><g fill="#4d4d4d"><path d="m32.8 201.4c-5.2 0-11.1 3.3-11.1 8.5l.2 41.5c0 6.5 5.9 8.8 11.1 8.8s10.8-2.9 10.8-8.9v-41.5c.1-6.2-5.8-8.4-11-8.4zm.3 55.6c-4.3 0-7.8-2-7.8-6.8l-.3-37.7c-.4-4.1 2.6-7.6 6.7-8h1c4.3 0 7.8 2 7.8 7.9l.2 37.7c.1 4.9-3.3 6.9-7.6 6.9z"/><path d="m94.3 201.4h-31c-8.4 0-11 3.3-11 10.7v61.6c-.1 5.9 4.5 10.8 10.4 10.9h.4c5.8.1 10.6-4.5 10.7-10.3 0-.2 0-.5 0-.7v-50.6h20.3c6.3 0 7.8 1.5 7.8 7.9v42.9c-.2 5.9 4.4 10.8 10.3 11h.6c5.8.1 10.6-4.5 10.8-10.3 0-.2 0-.4 0-.5v-42.7c0-18.9-10.7-29.9-29.3-29.9zm26.2 71c0 6.2-1.4 9.3-7.6 9.3s-7.7-3.1-7.7-9.4v-42.9c0-6.3-3.1-9.5-9.4-9.5h-24.9v52.3c0 6.3-1.5 9.4-7.7 9.4s-7.6-3.2-7.6-9.4v-60c0-5.2 2.3-7.7 7.8-7.7h31c15.3 0 26.1 10.2 26.1 27z"/><path d="m151.4 231v10.3h33.9v-21.5h-22.8c-7.8 0-11.1 4.9-11.1 11.2zm30.9 7.3h-27.6v-7.3c0-5.5 2.2-8.1 7.9-8.1h19.7z"/><path d="m193.1 201.4h-30.8c-20.8 0-29.5 9.6-29.5 30v42.6c0 6.2 3.7 11 11 11s10.6-4.9 10.6-11.1v-14.1h27.9v14.1c0 7.3 4.1 11.1 11 11.1s10.6-4 10.6-11.1v-61.8c-.1-6.9-4-10.7-10.8-10.7zm7.6 70.8c0 6.3-1.4 9.4-7.5 9.4s-7.8-3.1-7.8-9.4v-15.6h-33.9v15.6c0 6.3-1.5 9.4-7.7 9.4s-7.8-3.1-7.8-9.3v-40.9c0-17.5 9-26.9 26.3-26.9h29.1c5.7 0 9.3 2.4 9.3 7.7z"/><path d="m269 201.4h-26.2c-21.1 0-29.5 9.2-29.5 30v42.6c0 6.2 3.3 11 11 11 7.2 0 10.6-3.1 10.6-9.4v-42.9c0-6.4 1.8-9.8 8.1-9.8h35.3v-10.9c-.1-6-3.2-10.6-9.3-10.6zm6.1 18.3h-33.9c-6.3 0-9.5 4.9-9.5 11.3v42.9c0 5.4-2.4 7.6-7.6 7.6-4.8 0-7.7-2.6-7.7-7.5v-42.6c0-18.1 8.4-26.8 26.2-26.8h23.1c6.2 0 9.3 1.4 9.3 7.5z"/></g></g></svg>