<svg enable-background="new 0 0 300 300" viewBox="0 0 300 300" xmlns="http://www.w3.org/2000/svg"><g opacity=".98"><path d="m32.1 109.4v19.7c2.4-.5 4.8-.8 7.2-.8 4.1 0 8.2.8 12.1 2.4 7.4 3.1 13.2 9 16.4 16.4 3.3 7.7 3.3 16.4 0 24.1-1.6 3.7-3.8 7-6.6 9.8-2 1.8-4.1 3.5-6.4 5h22.8v-76.6z" fill="#78c601"/><path d="m30.5 186v-13.2l.3.1h.1c1.3.5 2.6 1 3.9 1.4l.5.1c1.3.3 2.6.5 4 .5 2.1 0 4.2-.4 6.1-1.2 3.8-1.6 6.8-4.6 8.4-8.4 1.6-3.9 1.6-8.3 0-12.2-.8-1.9-2-3.6-3.4-5s-3.1-2.6-5-3.4-4-1.2-6.1-1.2c-2.6 0-5.2.6-7.5 1.8h-.1-.1c-.2.1-.5.2-.7.4-5 3.3-7.5 7.6-7.5 13.2v27.1zm1-30.2c.4-1 1-1.9 1.8-2.7s1.7-1.4 2.7-1.8c2.1-.9 4.5-.9 6.6 0 1 .4 1.9 1 2.7 1.8s1.4 1.7 1.8 2.7c.5 1 .7 2.2.7 3.3s-.2 2.2-.7 3.3c-.4 1-1 1.9-1.8 2.7s-1.7 1.4-2.7 1.8c-2.1.9-4.5.9-6.6 0-1-.4-1.9-1-2.7-1.8s-1.4-1.7-1.8-2.7c-.5-1-.7-2.1-.7-3.3 0-1.1.2-2.2.7-3.3z" fill="#78c601"/><path d="m64.7 169.9c2.9-6.9 2.9-14.6 0-21.4-2.8-6.6-8-11.8-14.6-14.6-3.4-1.5-7-2.2-10.7-2.2-2.3 0-4.6.3-6.9.8-1.3.3-2.5.7-3.8 1.2v-24.3h-17v76.6h8.3v-27.1c0-6.7 3-12 9-16 .4-.2.7-.4 1.1-.6 2.8-1.5 5.9-2.3 9.1-2.3 2.6 0 5.1.5 7.5 1.5 2.3 1 4.3 2.4 6.1 4.1 1.7 1.8 3.1 3.8 4.1 6.1 2 4.8 2 10.1 0 14.9-1.9 4.6-5.6 8.2-10.2 10.2-2.4 1-4.9 1.5-7.5 1.5-1.6 0-3.2-.2-4.8-.6l-.6-.2v8.4h12.1s2.8-.8 4.1-1.4c3.3-1.4 6.2-3.4 8.7-6 2.6-2.4 4.6-5.4 6-8.6z" fill="#004a49"/><path d="m1 109.4h7.3v76.5h-7.3z" fill="#78c601"/><path d="m112.2 186.5c2.2 0 4.4-.4 6.4-1.3 2-.8 3.7-2.1 5.2-3.6s2.7-3.3 3.5-5.3c1.7-4.1 1.7-8.7 0-12.8-.8-2-2-3.7-3.5-5.3-1.5-1.5-3.3-2.7-5.2-3.5-2-.9-4.2-1.3-6.4-1.3-1.4 0-2.8.2-4.1.5s-2.6.8-3.7 1.4l-.8.5v-12.6h-7.9v42.7h7.9v-2l.8.5c2.3 1.4 5 2.1 7.8 2.1zm-8.7-16.6c0-1.2.2-2.3.7-3.4.4-1 1.1-2 1.9-2.8s1.7-1.4 2.7-1.9c1.1-.5 2.2-.7 3.4-.7s2.3.2 3.4.7c1 .4 2 1.1 2.8 1.9s1.4 1.7 1.9 2.8c.9 2.2.9 4.6 0 6.7-.4 1-1.1 1.9-1.9 2.7s-1.7 1.4-2.8 1.9-2.2.7-3.4.7-2.3-.2-3.4-.7c-2.1-.9-3.7-2.5-4.6-4.6-.4-1-.7-2.1-.7-3.3z" fill="#004a49"/><path d="m131.9 153.8v31.2 1h8v-1-31.2h-.7-6.6z" fill="#004a49"/><path d="m170.8 185.9v-7.8h-16.3l15.8-17.7v-6.6h-26.3v7.1h15.4l-16.3 17.7v7.4z" fill="#004a49"/><path d="m207.7 176.4c1.7-4.1 1.7-8.7 0-12.9-.8-2-2-3.8-3.5-5.3s-3.3-2.7-5.3-3.6-4.2-1.3-6.4-1.3c-2.7 0-5.4.7-7.8 2l-.8.5v-2h-7.9v36.8h7.9v-6.5l.8.5c1.2.6 2.4 1.1 3.7 1.4 1.4.3 2.7.5 4.1.5 2.2 0 4.4-.4 6.4-1.3 4-1.7 7.2-4.8 8.8-8.8zm-7.2-3.1c-.4 1-1 2-1.8 2.8s-1.7 1.4-2.8 1.9-2.2.7-3.4.7-2.3-.2-3.4-.7c-1-.4-1.9-1.1-2.7-1.9s-1.4-1.7-1.9-2.8c-.9-2.2-.9-4.6 0-6.8.4-1 1.1-1.9 1.9-2.7s1.7-1.4 2.7-1.9c2.2-.9 4.6-.9 6.7 0 1 .4 2 1.1 2.8 1.8.8.8 1.4 1.7 1.9 2.7.9 2.3.9 4.8 0 6.9z" fill="#78c601"/><path d="m135.9 143.2c.9 0 1.8.3 2.4 1 .7.6 1 1.5 1 2.4 0 1.9-1.5 3.4-3.4 3.4-.9 0-1.7-.3-2.4-1-.7-.6-1-1.5-1-2.4 0-1.8 1.4-3.3 3.2-3.3.1 0 .1 0 .2-.1m0-1.7c-2.7 0-5 2.1-5.1 4.9v.2c0 1.4.5 2.7 1.5 3.6.9 1 2.2 1.5 3.6 1.5 2.8 0 5.1-2.3 5.1-5.1 0-1.4-.5-2.7-1.5-3.6-1-1-2.3-1.5-3.6-1.5z" fill="#004a49"/><g fill="#78c601"><path d="m216.2 143.2c.9 0 1.8.3 2.4 1 .7.6 1 1.5 1 2.4 0 1.9-1.5 3.4-3.3 3.4 0 0 0 0-.1 0-.9 0-1.8-.3-2.4-1-.7-.6-1-1.5-1-2.4 0-1.8 1.4-3.3 3.2-3.3.1 0 .2 0 .2-.1m0-1.7c-2.8 0-5 2.2-5.1 5v.1c0 1.4.5 2.7 1.4 3.6.9 1 2.2 1.5 3.6 1.5 2.8 0 5.1-2.2 5.1-5.1 0 0 0 0 0-.1 0-1.4-.5-2.7-1.5-3.6-.9-.9-2.2-1.4-3.5-1.4z"/><path d="m212.2 153.8v31.2 1.1h8.1v-1.1-31.2h-.7-6.7z"/><path d="m231.5 144.7v-1.5h-8.1v1.5 40.3.9h8.1v-.9z"/><path d="m242.8 144.7v-1.5h-8.1v1.5 40.3.9h8.1v-.9z"/><path d="m247.2 163.5c-1.7 4.1-1.7 8.7 0 12.8.8 2 2.1 3.8 3.6 5.3s3.3 2.7 5.3 3.6c4.6 1.9 9.9 1.7 14.3-.7l.8-.4v1.9h7.9v-32.1h-7.8v2l-.8-.4c-2.4-1.3-5.1-2-7.8-2-2.2 0-4.4.4-6.4 1.3-2 .8-3.8 2-5.3 3.5-1.7 1.4-2.9 3.2-3.8 5.2zm7.3 3.1c.4-1 1.1-2 1.8-2.8.8-.8 1.7-1.4 2.7-1.9 2.2-.9 4.6-.9 6.8 0 2.1.9 3.7 2.5 4.6 4.6.9 2.2.9 4.6 0 6.7-.4 1-1.1 1.9-1.8 2.7-.8.8-1.7 1.4-2.8 1.9s-2.2.7-3.4.7-2.3-.2-3.4-.7c-1-.4-1.9-1.1-2.7-1.8-.8-.8-1.4-1.7-1.8-2.7-.9-2.2-.9-4.6 0-6.7z"/><path d="m299 161.3v-7.9c-3.1 0-6.1.9-8.7 2.5v-2.1h-8.1v32.1h8.1v-16.2c.1-4.7 4-8.5 8.7-8.4z"/></g></g></svg>