<svg enable-background="new 0 0 300 300" viewBox="0 0 300 300" xmlns="http://www.w3.org/2000/svg" xmlns:xlink="http://www.w3.org/1999/xlink"><linearGradient id="a"><stop offset="0" stop-color="#1b75bb"/><stop offset=".22" stop-color="#1e72b9"/><stop offset=".37" stop-color="#2769b4"/><stop offset=".5" stop-color="#365aab"/><stop offset=".62" stop-color="#4c459f"/><stop offset=".72" stop-color="#652d90"/><stop offset=".79" stop-color="#5b2f90"/><stop offset=".92" stop-color="#3f348f"/><stop offset="1" stop-color="#2b388f"/></linearGradient><radialGradient id="b" cx="-473.8004" cy="1614.1768" gradientTransform="matrix(.7 0 0 -.7 396.0355 1289.1749)" gradientUnits="userSpaceOnUse" r="83.9539" xlink:href="#a"/><radialGradient id="c" cx="-473.8007" cy="1614.1768" gradientTransform="matrix(.7 0 0 -.7 396.0355 1289.1749)" gradientUnits="userSpaceOnUse" r="83.9536" xlink:href="#a"/><radialGradient id="d" cx="-473.8004" cy="1614.1689" gradientTransform="matrix(.7 0 0 -.7 396.0355 1289.1749)" gradientUnits="userSpaceOnUse" r="83.9598" xlink:href="#a"/><radialGradient id="e" cx="-473.8004" cy="1614.1768" gradientTransform="matrix(.7 0 0 -.7 396.0355 1289.1749)" gradientUnits="userSpaceOnUse" r="83.9485" xlink:href="#a"/><clipPath id="f"><ellipse cx="61.6" cy="150.2" rx="60.4" ry="60.3"/></clipPath><linearGradient id="g"><stop offset="0" stop-color="#00adee"/><stop offset=".47" stop-color="#1b75bb"/><stop offset=".63" stop-color="#1c72b9"/><stop offset=".75" stop-color="#1e68b2"/><stop offset=".86" stop-color="#2358a6"/><stop offset=".97" stop-color="#294196"/><stop offset="1" stop-color="#2b388f"/></linearGradient><radialGradient id="h" cx="-5995.7363" cy="8779.7832" gradientTransform="matrix(.38 0 0 -.38 2363.9846 3498.113)" gradientUnits="userSpaceOnUse" r="144.2991" xlink:href="#g"/><radialGradient id="i" cx="-472.144" cy="1405.516" gradientTransform="matrix(.71 0 0 -.7 394.2187 1289.1749)" gradientUnits="userSpaceOnUse" r="37.1537"><stop offset=".29" stop-color="#9e1f63"/><stop offset=".49" stop-color="#9b1e61"/><stop offset=".65" stop-color="#911b5c"/><stop offset=".78" stop-color="#811553"/><stop offset=".91" stop-color="#6a0d46"/><stop offset="1" stop-color="#56063b"/></radialGradient><radialGradient id="j" cx="-472.8603" cy="1618.3835" gradientTransform="matrix(.71 0 0 -.7 394.2187 1289.1749)" gradientUnits="userSpaceOnUse" r="90.0918" xlink:href="#g"/><clipPath id="k"><ellipse cx="61.6" cy="150.2" rx="60.4" ry="60.4"/></clipPath><linearGradient id="l"><stop offset="0" stop-color="#d0d2d3"/><stop offset=".14" stop-color="#d2d4d5"/><stop offset=".2" stop-color="#d9dadb"/><stop offset=".23" stop-color="#e4e6e6"/><stop offset=".26" stop-color="#f5f6f6"/><stop offset=".28" stop-color="#fff"/><stop offset=".52" stop-color="#d0d2d3"/><stop offset=".58" stop-color="#fff"/><stop offset=".66" stop-color="#d0d2d3"/><stop offset="1" stop-color="#bbbdbf"/></linearGradient><linearGradient id="m" gradientTransform="matrix(1 0 0 -1 0 301.7)" gradientUnits="userSpaceOnUse" x1="-38.2308" x2="139.4595" xlink:href="#l" y1="106.9816" y2="250.7821"/><linearGradient id="n" gradientTransform="matrix(1 0 0 -1 0 301.7)" gradientUnits="userSpaceOnUse" x1="-40.8484" x2="136.851" xlink:href="#l" y1="110.213" y2="254.0045"/><linearGradient id="o" gradientTransform="matrix(1 0 0 -1 0 301.7)" gradientUnits="userSpaceOnUse" x1="-1.8524" x2="175.8379" xlink:href="#l" y1="62.0213" y2="205.8217"/><linearGradient id="p"><stop offset=".66" stop-color="#fff" stop-opacity="0"/><stop offset=".79" stop-color="#fff" stop-opacity=".01"/><stop offset=".83" stop-color="#fff" stop-opacity=".03"/><stop offset=".87" stop-color="#fff" stop-opacity=".08"/><stop offset=".89" stop-color="#fff" stop-opacity=".15"/><stop offset=".91" stop-color="#fff" stop-opacity=".23"/><stop offset=".93" stop-color="#fff" stop-opacity=".34"/><stop offset=".95" stop-color="#fff" stop-opacity=".47"/><stop offset=".97" stop-color="#fff" stop-opacity=".61"/><stop offset=".98" stop-color="#fff" stop-opacity=".78"/><stop offset="1" stop-color="#fff" stop-opacity=".96"/><stop offset="1" stop-color="#fff"/></linearGradient><radialGradient id="q" cx="-193.1925" cy="1007.1049" gradientTransform="matrix(.77 0 0 -.77 210.2576 923.1445)" gradientUnits="userSpaceOnUse" r="81.1615" xlink:href="#p"/><radialGradient id="r" cx="-349.2104" cy="1229.5458" gradientTransform="matrix(.73 0 0 -.74 317.155 1053.699)" gradientUnits="userSpaceOnUse" r="72.9111" xlink:href="#p"/><radialGradient id="s" cx="-349.3554" cy="1230.3164" gradientTransform="matrix(.73 0 0 -.74 317.155 1053.699)" gradientUnits="userSpaceOnUse" r="68.6953" xlink:href="#p"/><radialGradient id="t" cx="-235.6246" cy="1097.1881" gradientTransform="matrix(.76 0 0 -.76 238.1044 981.206)" gradientUnits="userSpaceOnUse" r="82.7662" xlink:href="#p"/><radialGradient id="u" cx="-324.9896" cy="1269.2694" gradientTransform="matrix(.74 0 0 -.74 300.9681 1087.719)" gradientUnits="userSpaceOnUse" r="85.8759"><stop offset=".82" stop-color="#231f20" stop-opacity="0"/><stop offset=".92" stop-color="#231f20" stop-opacity=".05"/><stop offset=".96" stop-color="#231f20" stop-opacity=".25"/><stop offset=".98" stop-color="#231f20" stop-opacity=".58"/><stop offset="1" stop-color="#231f20"/></radialGradient><g opacity=".98"><path d="m19.4 129.2c7 13.3 14.6 26.2 20.9 39.9 5.9 12.9 10 26.6 12.2 40.7 3 .5 6 .7 9.1.7s6.2-.2 9.3-.7c2.2-14.1 6.3-27.8 12.2-40.7 6.2-13.7 13.9-26.6 20.9-39.9 2.4-4.5 4.7-9.2 6.9-13.9-3.5-4.9-7.6-9.2-12.4-12.8-5.6 25.3-21.3 26.3-36.7 49-15.4-22.7-31.2-23.7-36.7-49.1-4.8 3.6-8.9 8-12.4 12.8 1.9 4.7 4.2 9.4 6.7 14z" fill="#808184"/><ellipse cx="61.6" cy="113.9" fill="#808184" rx="17.2" ry="17.6"/><g stroke="#2b388f" stroke-miterlimit="10" stroke-width=".22"><path d="m52.4 209.1v.7c2.6.4 5.3.6 8 .7v-.7c-2.7-.1-5.3-.3-8-.7" fill="url(#b)"/><path d="m52.4 205.5v3.1c2.6.4 5.3.6 8 .7v-3.1c-2.7-.1-5.3-.3-8-.7" fill="url(#b)"/><path d="m52.4 199.2v5.2c2.6.4 5.3.6 8 .6v-5.2c-2.7-.1-5.3-.3-8-.6" fill="url(#b)"/><path d="m52.4 190.6v7c2.6.3 5.3.5 8 .5v-7.1c-2.7 0-5.4-.2-8-.4" fill="url(#b)"/><path d="m52.4 179.9v8.5c2.6.3 5.3.4 8 .4v-8.6c-2.7 0-5.4-.1-8-.3" fill="url(#b)"/><path d="m52.4 167.7v9.8c2.6.2 5.3.3 8 .3v-9.9c-2.7-.1-5.4-.1-8-.2" fill="url(#b)"/><path d="m52.4 154.2v10.7c2.6.1 5.3.2 8 .2v-10.9c-2.7 0-5.4 0-8 0" fill="url(#b)"/><path d="m52.4 140.1v11h8v-11.1c-2.7 0-5.4 0-8 .1" fill="url(#b)"/><path d="m52.4 127.2v10.1c2.6-.1 5.3-.1 8-.1v-10.2c-2.7 0-5.4.1-8 .2" fill="url(#b)"/><path d="m52.4 115.6v9c2.6-.2 5.3-.3 8-.3v-9.1c-2.7 0-5.4.1-8 .4" fill="url(#b)"/><path d="m52.4 105.8v7.6c2.6-.2 5.3-.4 8-.4v-7.7c-2.7 0-5.3.2-8 .5" fill="url(#b)"/><path d="m52.4 98.1v5.8c2.6-.3 5.3-.5 8-.5v-5.9c-2.7 0-5.3.2-8 .6" fill="url(#b)"/><path d="m52.4 92.9v3.9c2.6-.4 5.3-.6 8-.6v-3.9c-2.7 0-5.3.2-8 .6" fill="url(#b)"/><path d="m52.4 90.6v1.6c2.6-.4 5.3-.6 8-.7v-1.5c-2.7 0-5.3.2-8 .6" fill="url(#b)"/><path d="m43 206.9v.7c2.5.8 5 1.4 7.6 1.9v-.7c-2.6-.5-5.1-1.1-7.6-1.9" fill="url(#b)"/><path d="m43 203.4v2.9c2.5.8 5 1.4 7.6 1.9v-3c-2.6-.4-5.1-1-7.6-1.8" fill="url(#b)"/><path d="m43 197.4v5c2.5.7 5 1.3 7.6 1.7v-5.1c-2.6-.4-5.1-1-7.6-1.6" fill="url(#b)"/><path d="m43 189v6.7c2.5.6 5 1.2 7.6 1.5v-7c-2.6-.2-5.2-.6-7.6-1.2" fill="url(#b)"/><path d="m43 178.8v8.2c2.5.5 5 .9 7.6 1.2v-8.5c-2.6-.2-5.2-.5-7.6-.9" fill="url(#b)"/><path d="m43 167v9.4c2.5.4 5 .7 7.6.9v-9.8c-2.6-.1-5.2-.3-7.6-.5" fill="url(#b)"/><path d="m43 154v10.3c2.5.2 5 .4 7.6.5v-10.7c-2.6 0-5.2-.1-7.6-.1" fill="url(#b)"/><path d="m43 140.6v10.5h7.6v-10.9c-2.6.1-5.2.2-7.6.4" fill="url(#b)"/><path d="m43 128v9.7c2.5-.2 5-.3 7.6-.4v-10.1c-2.6.3-5.2.5-7.6.8" fill="url(#b)"/><path d="m43 116.9v8.7c2.5-.3 5-.6 7.6-.8v-8.9c-2.6.2-5.2.5-7.6 1" fill="url(#b)"/><path d="m43 107.4v7.3c2.5-.5 5-.9 7.6-1.2v-7.5c-2.6.3-5.2.8-7.6 1.4" fill="url(#b)"/><path d="m43 100v5.6c2.5-.6 5-1.1 7.6-1.5v-5.8c-2.6.5-5.1 1-7.6 1.7" fill="url(#b)"/><path d="m43 95.1v3.7c2.5-.7 5-1.3 7.6-1.7v-3.8c-2.6.4-5.1 1-7.6 1.8" fill="url(#b)"/><path d="m43 92.9v1.5c2.5-.8 5-1.4 7.6-1.8v-1.6c-2.6.4-5.1 1.1-7.6 1.9" fill="url(#b)"/><path d="m34.2 203.3v.6c2.1 1 4.9 2.2 7 3v-.7c-2.4-.8-4.7-1.8-7-2.9" fill="url(#b)"/><path d="m34.2 200.1v2.7c2.3 1.2 4.6 2.2 7 3.1v-2.9c-2.4-.9-4.7-1.8-7-2.9" fill="url(#b)"/><path d="m34.2 194.4v4.7c2.3 1 4.6 2 7 2.7v-4.9c-2.4-.8-4.7-1.6-7-2.5" fill="url(#b)"/><path d="m34.2 186.6v6.3c2.3.9 4.7 1.7 7 2.4v-6.7c-2.4-.6-4.8-1.3-7-2" fill="url(#b)"/><path d="m34.2 177v7.7c2.3.7 4.6 1.4 7 2v-8.2c-2.4-.5-4.8-.9-7-1.5" fill="url(#b)"/><path d="m34.2 165.9v8.8c2.3.5 4.6 1 7 1.4v-9.3c-2.4-.2-4.8-.5-7-.9" fill="url(#b)"/><path d="m34.2 153.7v9.7c2.3.3 4.6.5 7 .8v-10.2c-2.4-.1-4.8-.2-7-.3" fill="url(#b)"/><path d="m34.2 141.1v9.9h7v-10.4c-2.4.2-4.8.3-7 .5" fill="url(#b)"/><path d="m34.2 129.4v9.1c2.3-.3 4.6-.5 7-.7v-9.6c-2.4.4-4.8.8-7 1.2" fill="url(#b)"/><path d="m34.2 119v8.1c2.3-.5 4.6-.9 7-1.3v-8.6c-2.4.5-4.8 1.1-7 1.8" fill="url(#b)"/><path d="m34.2 110.1v6.8c2.3-.7 4.6-1.3 7-1.9v-7.2c-2.4.8-4.7 1.5-7 2.3" fill="url(#b)"/><path d="m34.2 103.2v5.3c2.3-.9 4.7-1.7 7-2.4v-5.5c-2.4.7-4.7 1.6-7 2.6" fill="url(#b)"/><path d="m34.2 98.6v3.5c2.3-1 4.6-2 7-2.7v-3.6c-2.4.7-4.7 1.7-7 2.8" fill="url(#b)"/><path d="m34.2 96.5v1.4c2.3-1.1 4.6-2.1 7-3v-1.5c-2.4.9-4.7 1.9-7 3.1" fill="url(#b)"/><path d="m26.1 198.4v.6c1.9 1.3 4.4 2.9 6.4 4.1v-.6c-2.2-1.3-4.3-2.6-6.4-4.1" fill="url(#b)"/><path d="m26.1 195.5v2.5c2.1 1.5 4.2 2.8 6.4 4v-2.7c-2.1-1.2-4.3-2.4-6.4-3.8" fill="url(#b)"/><path d="m26.1 190.3v4.2c2.1 1.4 4.2 2.6 6.4 3.7v-4.6c-2.1-.9-4.3-2-6.4-3.3" fill="url(#b)"/><path d="m26.1 183.2v5.7c2.1 1.2 4.2 2.3 6.4 3.3v-6.2c-2.1-.8-4.3-1.7-6.4-2.8" fill="url(#b)"/><path d="m26.1 174.5v7c2 1 4.2 1.8 6.4 2.6v-7.6c-2.2-.6-4.3-1.2-6.4-2" fill="url(#b)"/><path d="m26.1 164.5v8c2 .7 4.2 1.3 6.4 1.8v-8.6c-2.2-.4-4.3-.8-6.4-1.2" fill="url(#b)"/><path d="m26.1 153.4v8.8c2 .4 4.2.7 6.4 1v-9.5c-2.2-.1-4.3-.2-6.4-.3" fill="url(#b)"/><path d="m26.1 142v9l6.4.1v-9.7c-2.2.1-4.3.3-6.4.6" fill="url(#b)"/><path d="m26.1 131.3v8.3c2-.3 4.2-.6 6.4-.9v-9c-2.2.5-4.3 1.1-6.4 1.6" fill="url(#b)"/><path d="m26.1 121.9v7.4c2-.6 4.2-1.2 6.4-1.7v-8c-2.2.6-4.3 1.4-6.4 2.3" fill="url(#b)"/><path d="m26.1 113.8v6.2c2-.9 4.2-1.8 6.4-2.5v-6.7c-2.1.9-4.3 1.9-6.4 3" fill="url(#b)"/><path d="m26.1 107.5v4.8c2.1-1.2 4.2-2.2 6.4-3.2v-5.1c-2.1 1-4.3 2.2-6.4 3.5" fill="url(#b)"/><path d="m26.1 103.3v3.2c2.1-1.3 4.2-2.5 6.4-3.6v-3.4c-2.2 1.1-4.3 2.4-6.4 3.8" fill="url(#b)"/><path d="m26.1 101.4v1.3c2.1-1.4 4.2-2.8 6.4-4v-1.4c-2.2 1.3-4.3 2.6-6.4 4.1" fill="url(#b)"/><path d="m19 192.4v.5c1.7 1.5 3.9 3.6 5.7 5v-.6c-2-1.5-3.9-3.1-5.7-4.9" fill="url(#b)"/><path d="m19 189.8v2.2c1.8 1.7 3.7 3.4 5.7 4.9v-2.4c-2-1.5-3.9-3-5.7-4.7" fill="url(#b)"/><path d="m19 185.3v3.7c1.8 1.6 3.7 3.1 5.7 4.5v-4.1c-2-1.2-3.9-2.6-5.7-4.1" fill="url(#b)"/><path d="m19 179.1v5c1.8 1.4 3.7 2.8 5.7 4v-5.6c-2-1-3.9-2.2-5.7-3.4" fill="url(#b)"/><path d="m19 171.5v6.1c1.8 1.2 3.7 2.2 5.7 3.2v-6.8c-2-.8-3.9-1.6-5.7-2.5" fill="url(#b)"/><path d="m19 162.7v7c1.8.8 3.7 1.6 5.7 2.3v-7.9c-2-.4-3.9-.9-5.7-1.4" fill="url(#b)"/><path d="m19 153v7.7c1.8.4 3.7.9 5.7 1.2v-8.6c-2-.1-3.9-.2-5.7-.3" fill="url(#b)"/><path d="m19 143v7.9l5.7.1v-8.8c-2 .2-3.9.5-5.7.8" fill="url(#b)"/><path d="m19 133.7v7.3c1.8-.4 3.7-.7 5.7-1.1v-8.1c-2 .6-3.9 1.2-5.7 1.9" fill="url(#b)"/><path d="m19 125.4v6.4c1.8-.8 3.7-1.5 5.7-2.1v-7.2c-2 .9-3.8 1.8-5.7 2.9" fill="url(#b)"/><path d="m19 118.3v5.4c1.8-1.1 3.7-2.2 5.7-3.1v-6.1c-2 1.3-3.9 2.5-5.7 3.8" fill="url(#b)"/><path d="m19 112.8v4.2c1.8-1.4 3.7-2.7 5.7-3.9v-4.7c-2 1.4-3.9 2.9-5.7 4.4" fill="url(#b)"/><path d="m19 109.1v2.8c1.8-1.6 3.7-3.1 5.7-4.5v-3.1c-2 1.5-3.9 3.1-5.7 4.8" fill="url(#b)"/><path d="m19 107.5v1.1c1.8-1.7 3.7-3.4 5.7-4.9v-1.3c-2 1.6-3.9 3.3-5.7 5.1" fill="url(#b)"/><path d="m12.9 185.4v.4c1.4 1.8 3.3 4.1 4.8 5.8v-.5c-1.7-1.8-3.3-3.7-4.8-5.7" fill="url(#b)"/><path d="m12.9 183.2v1.8c1.5 2 3.1 3.9 4.8 5.7v-2.1c-1.7-1.7-3.3-3.5-4.8-5.4" fill="url(#b)"/><path d="m12.9 179.5v3.1c1.5 1.9 3.1 3.6 4.8 5.3v-3.6c-1.7-1.6-3.3-3.2-4.8-4.8" fill="url(#b)"/><path d="m12.9 174.3v4.2c1.5 1.6 3.1 3.2 4.8 4.6v-4.9c-1.7-1.2-3.3-2.5-4.8-3.9" fill="url(#b)"/><path d="m12.9 167.9v5.1c1.5 1.3 3.2 2.6 4.8 3.7v-5.9c-1.6-.8-3.2-1.8-4.8-2.9" fill="url(#b)"/><path d="m12.9 160.6v5.8c1.6 1 3.2 1.9 4.8 2.6v-6.8c-1.7-.4-3.3-1-4.8-1.6" fill="url(#b)"/><path d="m12.9 152.5v6.4c1.5.5 3.1 1 4.8 1.4v-7.5c-1.7 0-3.3-.1-4.8-.3" fill="url(#b)"/><path d="m12.9 144.2v6.5l4.8.1v-7.6c-1.7.3-3.3.6-4.8 1" fill="url(#b)"/><path d="m12.9 136.4v6c1.5-.4 3.1-.9 4.8-1.3v-7c-1.7.8-3.3 1.6-4.8 2.3" fill="url(#b)"/><path d="m12.9 129.5v5.4c1.6-.9 3.2-1.7 4.8-2.5v-6.3c-1.6 1.1-3.3 2.2-4.8 3.4" fill="url(#b)"/><path d="m12.9 123.6v4.5c1.5-1.3 3.2-2.5 4.8-3.6v-5.3c-1.7 1.4-3.3 2.9-4.8 4.4" fill="url(#b)"/><path d="m12.9 119.1v3.5c1.5-1.6 3.1-3.1 4.8-4.5v-4c-1.7 1.5-3.3 3.2-4.8 5" fill="url(#b)"/><path d="m12.9 116v2.3c1.5-1.8 3.1-3.6 4.8-5.2v-2.7c-1.7 1.7-3.3 3.6-4.8 5.6" fill="url(#b)"/><path d="m12.9 114.6v.9c1.5-2 3.1-3.9 4.8-5.6v-1c-1.7 1.8-3.3 3.7-4.8 5.7" fill="url(#b)"/><path d="m7.9 177.5v.3l.1.1c1.1 1.9 2.6 4.5 3.9 6.4v-.4c-1.5-2.1-2.8-4.2-4-6.4" fill="url(#b)"/><path d="m7.9 175.8v1.4c1.2 2.2 2.5 4.3 3.9 6.3v-1.8c-1.4-1.8-2.7-3.8-3.9-5.9" fill="url(#b)"/><path d="m7.9 172.9v2.4c1.2 2.1 2.5 4 3.9 5.9v-3c-1.4-1.7-2.7-3.4-3.9-5.3" fill="url(#b)"/><path d="m7.9 168.9v3.2c1.2 1.8 2.5 3.5 3.9 5.2v-4c-1.4-1.4-2.7-2.9-3.9-4.4" fill="url(#b)"/><path d="m7.9 163.9v4c1.2 1.5 2.5 2.9 3.9 4.2v-4.9c-1.3-1-2.7-2.1-3.9-3.3" fill="url(#b)"/><path d="m7.9 158.3v4.5c1.2 1.1 2.5 2.1 3.9 3v-5.6c-1.3-.6-2.6-1.2-3.9-1.9" fill="url(#b)"/><path d="m7.9 152v5c1.3.6 2.6 1.1 3.9 1.6v-6.1c-1.4-.2-2.7-.4-3.9-.5" fill="url(#b)"/><path d="m7.9 145.5v5.1l3.9.1v-6.3c-1.4.4-2.7.7-3.9 1.1" fill="url(#b)"/><path d="m7.9 139.5v4.7c1.2-.5 2.5-1 3.9-1.4v-5.8c-1.3.8-2.6 1.6-3.9 2.5" fill="url(#b)"/><path d="m7.9 134.2v4.2c1.2-1 2.5-2 3.9-2.8v-5.1c-1.4 1-2.7 2.3-3.9 3.7" fill="url(#b)"/><path d="m7.9 129.6v3.5c1.2-1.4 2.5-2.8 3.9-4v-4.3c-1.4 1.5-2.7 3.1-3.9 4.8" fill="url(#b)"/><path d="m7.9 126.1v2.7c1.2-1.8 2.5-3.5 3.9-5.1v-3.4c-1.4 1.9-2.7 3.8-3.9 5.8" fill="url(#b)"/><path d="m7.9 123.7v1.8c1.2-2 2.5-4 3.9-5.8v-2.2c-1.4 1.9-2.7 4-3.9 6.2" fill="url(#b)"/><path d="m7.9 122.6v.7c1.2-2.2 2.5-4.3 3.9-6.3v-.9c-1.4 2.1-2.7 4.2-3.9 6.5" fill="url(#b)"/><path d="m4.2 168.8v.2l.1.2c.8 2.1 1.9 4.9 2.8 6.9v-.3c-1.1-2.3-2.1-4.6-2.9-7" fill="url(#b)"/><path d="m4.2 167.6v1c.8 2.4 1.8 4.7 2.9 7v-1.3c-1.1-2.2-2.1-4.4-2.9-6.7" fill="url(#b)"/><path d="m4.2 165.7v1.6c.8 2.2 1.8 4.4 2.9 6.5v-2.2c-1.1-2-2-3.9-2.9-5.9" fill="url(#b)"/><path d="m4.2 162.9v2.2c.8 2 1.8 3.9 2.9 5.7v-3c-1.1-1.6-2-3.2-2.9-4.9" fill="url(#b)"/><path d="m4.2 159.6v2.7c.8 1.6 1.8 3.1 2.9 4.5v-3.7c-1-1.1-2-2.2-2.9-3.5" fill="url(#b)"/><path d="m4.2 155.7v3.1c.9 1.2 1.8 2.3 2.9 3.3v-4.3c-1-.6-2-1.3-2.9-2.1" fill="url(#b)"/><path d="m4.2 151.4v3.4c.9.7 1.9 1.2 2.9 1.8v-4.7c-1.1-.2-2-.3-2.9-.5" fill="url(#b)"/><path d="m4.2 147v3.5l2.9.1v-4.8c-1 .3-1.9.7-2.9 1.2" fill="url(#b)"/><path d="m4.2 142.9v3.2c.9-.6 1.9-1.1 2.9-1.5v-4.4c-1 .8-2 1.7-2.9 2.7" fill="url(#b)"/><path d="m4.2 139.3v2.8c.9-1.1 1.8-2.1 2.9-3.1v-3.9c-1.1 1.3-2 2.7-2.9 4.2" fill="url(#b)"/><path d="m4.2 136.2v2.4c.8-1.5 1.8-3 2.9-4.4v-3.3c-1.1 1.6-2 3.4-2.9 5.3" fill="url(#b)"/><path d="m4.2 133.7v1.8c.8-1.9 1.8-3.8 2.9-5.5v-2.5c-1.1 2-2 4.1-2.9 6.2" fill="url(#b)"/><path d="m4.2 132.1v1.2c.8-2.2 1.8-4.3 2.9-6.3v-1.7c-1.1 2.2-2 4.4-2.9 6.8" fill="url(#b)"/><path d="m4.2 131.4v.5c.8-2.4 1.8-4.7 2.9-6.9v-.7c-1.1 2.3-2.1 4.6-2.9 7.1" fill="url(#b)"/><path d="m2 159.5v.1c0 .1 0 .3.1.4.4 2.2 1.1 5.1 1.7 7.3v-.3c-.9-2.5-1.4-5-1.8-7.5" fill="url(#b)"/><path d="m2 158.9v.5c.4 2.5 1 5 1.7 7.5v-.9c-.7-2.4-1.3-4.7-1.7-7.1" fill="url(#b)"/><path d="m2 157.9v.8c.4 2.4 1 4.7 1.7 7v-1.5c-.8-2.1-1.3-4.2-1.7-6.3" fill="url(#b)"/><path d="m2 156.5v1.1c.4 2.1 1 4.1 1.7 6.1v-2c-.8-1.7-1.3-3.4-1.7-5.2" fill="url(#b)"/><path d="m2 154.9v1.4c.4 1.7 1 3.3 1.7 4.9v-2.4c-.7-1.3-1.3-2.6-1.7-3.9" fill="url(#b)"/><path d="m2 152.9v1.5c.4 1.2 1 2.4 1.7 3.5v-2.8c-.7-.6-1.3-1.3-1.7-2.2" fill="url(#b)"/><path d="m2 150.8v1.7c.5.7 1.1 1.3 1.7 1.9v-3.1c-.6-.1-1.2-.3-1.7-.5" fill="url(#b)"/><path d="m2 148.6v1.7c.4 0 1 .1 1.7.1v-3.1c-.7.3-1.2.8-1.7 1.3" fill="url(#b)"/><path d="m2 146.5v1.6c.5-.6 1.1-1.2 1.7-1.7v-2.9c-.7 1-1.3 2-1.7 3" fill="url(#b)"/><path d="m2 144.7v1.4c.4-1.2 1-2.3 1.7-3.3v-2.6c-.8 1.5-1.3 3-1.7 4.5" fill="url(#b)"/><path d="m2 143.2v1.2c.4-1.6 1-3.2 1.7-4.7v-2.2c-.7 1.8-1.3 3.7-1.7 5.7" fill="url(#b)"/><path d="m2 142v.9c.4-2 1-4 1.7-5.9v-1.7c-.7 2.2-1.3 4.4-1.7 6.7" fill="url(#b)"/><path d="m2 141.1v.6c.4-2.3 1-4.6 1.7-6.8v-1.1c-.8 2.4-1.3 4.9-1.7 7.3" fill="url(#b)"/><path d="m2 140.8v.2c.4-2.5 1-5 1.7-7.4v-.4c-.8 2.4-1.3 5-1.7 7.6" fill="url(#b)"/><path d="m1.3 150.2c.1 2.3.2 5.3.5 7.5v-.1c-.3-2.2-.5-5.2-.5-7.4" fill="url(#b)"/><path d="m1.3 150.2c0 2.5.2 4.9.5 7.4v-.4c-.4-2.4-.5-4.7-.5-7" fill="url(#b)"/><path d="m1.3 150.2c0 2.3.2 4.6.5 6.8v-.7c-.3-1.8-.5-4.3-.5-6.1" fill="url(#b)"/><path d="m1.3 150.2c0 2 .2 4 .5 6v-.9c-.4-1.7-.5-3.5-.5-5.1" fill="url(#b)"/><path d="m1.3 150.2c0 1.6.2 3.2.5 4.8v-1.1c-.4-1.2-.5-2.5-.5-3.7" fill="url(#b)"/><path d="m1.3 150.2c0 1.2.2 2.3.5 3.4v-1.3c-.4-.7-.5-1.4-.5-2.1" fill="url(#b)"/><path d="m1.3 150.2c0 .6.2 1.3.5 1.8v-1.3c-.3-.2-.4-.3-.5-.5" fill="url(#b)"/><path d="m1.3 150.2s.2.1.5.1v-1.4c-.4.4-.5.8-.5 1.3" fill="url(#b)"/><path d="m1.3 150.2c0-.6.2-1.1.5-1.6v-1.3c-.4.9-.5 1.9-.5 2.9" fill="url(#b)"/><path d="m1.3 150.2c0-1.1.2-2.2.5-3.3v-1.1c-.4 1.4-.5 2.9-.5 4.4" fill="url(#c)"/><path d="m1.3 150.2c0-1.6.2-3.1.5-4.6v-1c-.3 1.6-.5 3.9-.5 5.6" fill="url(#b)"/><path d="m1.3 150.2c0-2 .2-3.9.5-5.8v-.7c-.4 2.1-.5 4.3-.5 6.5" fill="url(#b)"/><path d="m1.3 150.2c0-2.3.2-4.5.5-6.7v-.5c-.4 2.4-.5 4.8-.5 7.2" fill="url(#b)"/><path d="m1.3 150.2c.1-2.2.2-5.1.5-7.3v-.2c-.4 2.5-.5 5-.5 7.5" fill="url(#b)"/><path d="m121.4 157.6c.2-2.2.4-5.2.5-7.4 0 2.4-.2 4.9-.5 7.4" fill="url(#b)"/><path d="m121.4 157.1v.4c.3-2.4.5-4.9.5-7.4 0 2.4-.2 4.7-.5 7" fill="url(#b)"/><path d="m121.4 156.4v.7c.3-2.3.5-4.5.5-6.8-.1 1.7-.4 4.2-.5 6.1" fill="url(#b)"/><path d="m121.4 155.3v.9c.2-1.8.4-4.2.5-6 0 1.7-.2 3.4-.5 5.1" fill="url(#b)"/><path d="m121.4 153.9v1.1c.3-1.6.5-3.2.5-4.8 0 1.2-.2 2.5-.5 3.7" fill="url(#b)"/><path d="m121.4 152.3v1.2c.3-1.1.5-2.3.5-3.4 0 .8-.2 1.5-.5 2.2" fill="url(#b)"/><path d="m121.4 150.7v1.4c.3-.6.4-1.2.5-1.8-.2.1-.3.3-.5.4" fill="url(#b)"/><path d="m121.4 148.9v1.4c.3 0 .5-.1.5-.1-.1-.5-.2-.9-.5-1.3" fill="url(#b)"/><path d="m121.4 147.3v1.3c.3.5.5 1.1.5 1.6 0-1-.2-2-.5-2.9" fill="url(#b)"/><path d="m121.4 145.8v1.1c.3 1 .5 2.1.5 3.2 0-1.4-.2-2.9-.5-4.3" fill="url(#b)"/><path d="m121.4 144.6v1c.3 1.5.5 3.1.5 4.6 0-1.9-.2-3.8-.5-5.6" fill="url(#b)"/><path d="m121.4 143.6v.7c.3 1.9.5 3.9.5 5.8-.1-1.9-.3-4.5-.5-6.5" fill="url(#b)"/><path d="m121.4 143v.5c.2 2 .4 4.7.5 6.7 0-2.5-.2-4.9-.5-7.2" fill="url(#b)"/><path d="m121.4 142.7v.2c.3 2.4.5 4.9.5 7.3 0-2.5-.2-5-.5-7.5" fill="url(#b)"/><path d="m119.4 167v.2c.5-2.2 1.3-5.1 1.7-7.3l.1-.4v-.1c-.5 2.6-1 5.2-1.8 7.6" fill="url(#b)"/><path d="m119.4 166v.9c.7-2.5 1.3-5 1.7-7.5v-.5c-.4 2.4-.9 4.8-1.7 7.1" fill="url(#b)"/><path d="m119.4 164.2v1.5c.7-2.3 1.3-4.6 1.7-7v-.8c-.4 2.1-1 4.2-1.7 6.3" fill="url(#b)"/><path d="m119.4 161.7v2c.7-2 1.3-4 1.7-6.1v-1.1c-.4 1.8-1 3.5-1.7 5.2" fill="url(#b)"/><path d="m119.4 158.7v2.4c.7-1.6 1.3-3.2 1.7-4.9v-1.4c-.4 1.4-1 2.7-1.7 3.9" fill="url(#b)"/><path d="m119.4 155.2v2.8c.7-1.1 1.3-2.3 1.7-3.5v-1.5c-.4.8-1 1.5-1.7 2.2" fill="url(#b)"/><path d="m119.4 151.3v3.1c.7-.5 1.2-1.2 1.7-1.9v-1.7c-.5.2-1.1.4-1.7.5" fill="url(#b)"/><path d="m119.4 147.3v3.1c.7 0 1.3-.1 1.7-.1v-1.7c-.5-.5-1.1-1-1.7-1.3" fill="url(#b)"/><path d="m119.4 143.6v2.9c.7.5 1.2 1 1.7 1.7v-1.6c-.4-1.1-1-2.1-1.7-3" fill="url(#b)"/><path d="m119.4 140.3v2.6c.7 1 1.3 2.1 1.7 3.3v-1.4c-.4-1.6-1-3.1-1.7-4.5" fill="url(#b)"/><path d="m119.4 137.5v2.2c.7 1.5 1.3 3.1 1.7 4.7v-1.2c-.4-2-1-3.9-1.7-5.7" fill="url(#b)"/><path d="m119.4 135.3v1.7c.7 1.9 1.3 3.9 1.7 5.9v-.9c-.4-2.3-.9-4.5-1.7-6.7" fill="url(#b)"/><path d="m119.4 133.8v1.1c.7 2.2 1.3 4.5 1.7 6.8v-.6c-.4-2.4-.9-4.9-1.7-7.3" fill="url(#b)"/><path d="m119.4 133.1v.4c.7 2.4 1.3 4.9 1.7 7.4v-.2c-.4-2.5-.9-5.1-1.7-7.6" fill="url(#b)"/><path d="m116 175.8v.3c.9-2 2-4.8 2.8-6.9l.1-.2v-.2c-.8 2.4-1.8 4.7-2.9 7" fill="url(#b)"/><path d="m116 174.3v1.3c1.1-2.3 2.1-4.6 2.9-7v-1c-.8 2.3-1.7 4.5-2.9 6.7" fill="url(#b)"/><path d="m116 171.5v2.2c1.1-2.1 2.1-4.3 2.9-6.5v-1.6c-.8 2.1-1.8 4-2.9 5.9" fill="url(#b)"/><path d="m116 167.8v3c1.1-1.8 2.1-3.7 2.9-5.7v-2.2c-.8 1.7-1.8 3.3-2.9 4.9" fill="url(#b)"/><path d="m116 163.1v3.7c1.1-1.4 2.1-3 2.9-4.6v-2.7c-.8 1.4-1.8 2.6-2.9 3.6" fill="url(#b)"/><path d="m116 157.8v4.3c1.1-1 2-2.1 2.9-3.3v-3.1c-.9.8-1.9 1.5-2.9 2.1" fill="url(#b)"/><path d="m116 151.9v4.7c1-.5 2-1.1 2.9-1.8v-3.4c-.8.2-1.8.4-2.9.5" fill="url(#b)"/><path d="m116 145.8v4.8l2.9-.1v-3.5c-1-.5-1.9-.9-2.9-1.2" fill="url(#b)"/><path d="m116 140.1v4.4c1 .4 2 .9 2.9 1.5v-3.2c-.9-.9-1.9-1.8-2.9-2.7" fill="url(#b)"/><path d="m116 135.1v3.9c1.1.9 2 1.9 2.9 3.1v-2.8c-.8-1.5-1.8-2.9-2.9-4.2" fill="url(#b)"/><path d="m116 130.8v3.3c1.1 1.4 2.1 2.9 2.9 4.4v-2.4c-.8-1.8-1.8-3.6-2.9-5.3" fill="url(#b)"/><path d="m116 127.5v2.5c1.1 1.8 2.1 3.6 2.9 5.5v-1.8c-.8-2.1-1.8-4.2-2.9-6.2" fill="url(#b)"/><path d="m116 125.2v1.7c1.1 2 2.1 4.2 2.9 6.3v-1.2c-.8-2.3-1.8-4.5-2.9-6.8" fill="url(#b)"/><path d="m116 124.2v.7c1.1 2.2 2.1 4.6 2.9 6.9v-.5c-.8-2.4-1.8-4.8-2.9-7.1" fill="url(#b)"/><path d="m111.3 183.9v.4c1.2-1.9 2.7-4.5 3.8-6.4l.1-.1v-.3c-1.2 2.2-2.5 4.3-3.9 6.4" fill="url(#b)"/><path d="m111.3 181.8v1.8c1.4-2 2.7-4.1 3.9-6.3v-1.5c-1.2 2.1-2.5 4.1-3.9 6" fill="url(#b)"/><path d="m111.3 178.2v3c1.4-1.9 2.7-3.9 3.9-5.9v-2.4c-1.2 1.9-2.5 3.6-3.9 5.3" fill="url(#b)"/><path d="m111.3 173.3v4c1.4-1.6 2.7-3.4 3.9-5.2v-3.2c-1.2 1.5-2.5 3-3.9 4.4" fill="url(#b)"/><path d="m111.3 167.2v4.9c1.4-1.3 2.7-2.7 3.9-4.2v-4c-1.2 1.2-2.5 2.3-3.9 3.3" fill="url(#b)"/><path d="m111.3 160.2v5.6c1.4-.9 2.7-1.9 3.9-3v-4.5c-1.3.7-2.6 1.3-3.9 1.9" fill="url(#b)"/><path d="m111.3 152.4v6.1c1.3-.5 2.6-1 3.9-1.6v-5c-1.2.2-2.5.4-3.9.5" fill="url(#b)"/><path d="m111.3 144.4v6.3l3.9-.1v-5.1c-1.2-.4-2.5-.7-3.9-1.1" fill="url(#b)"/><path d="m111.3 137v5.8c1.4.5 2.7.9 3.9 1.4v-4.7c-1.3-.9-2.6-1.7-3.9-2.5" fill="url(#b)"/><path d="m111.3 130.4v5.1c1.4.8 2.7 1.8 3.9 2.8v-4.2c-1.2-1.3-2.5-2.6-3.9-3.7" fill="url(#b)"/><path d="m111.3 124.8v4.3c1.4 1.2 2.7 2.6 3.9 4v-3.5c-1.2-1.7-2.5-3.3-3.9-4.8" fill="url(#b)"/><path d="m111.3 120.4v3.3c1.4 1.6 2.7 3.3 3.9 5.1v-2.7c-1.2-2-2.5-3.9-3.9-5.7" fill="url(#b)"/><path d="m111.3 117.4v2.2c1.4 1.9 2.7 3.8 3.9 5.8v-1.8c-1.2-2.2-2.5-4.2-3.9-6.2" fill="url(#b)"/><path d="m111.3 116.1v.9c1.4 2 2.7 4.1 3.9 6.3v-.7c-1.2-2.2-2.5-4.4-3.9-6.5" fill="url(#b)"/><path d="m105.4 191.1v.5c1.5-1.7 3.5-4 4.8-5.8v-.4c-1.5 2-3.1 3.9-4.8 5.7" fill="url(#b)"/><path d="m105.4 188.6v2.1c1.7-1.8 3.3-3.7 4.8-5.7v-1.8c-1.5 1.9-3.1 3.7-4.8 5.4" fill="url(#b)"/><path d="m105.4 184.2v3.6c1.7-1.7 3.3-3.4 4.8-5.3v-3.1c-1.5 1.8-3.1 3.4-4.8 4.8" fill="url(#b)"/><path d="m105.4 178.2v4.9c1.7-1.4 3.3-3 4.8-4.6v-4.2c-1.5 1.4-3.1 2.7-4.8 3.9" fill="url(#b)"/><path d="m105.4 170.8v5.9c1.7-1.1 3.3-2.4 4.8-3.7v-5.1c-1.5 1.1-3.2 2.1-4.8 2.9" fill="url(#b)"/><path d="m105.4 162.3v6.8c1.7-.8 3.3-1.7 4.8-2.7v-5.8c-1.5.6-3.1 1.2-4.8 1.7" fill="url(#b)"/><path d="m105.4 152.9v7.5c1.7-.5 3.3-.9 4.8-1.4v-6.4c-1.5.1-3.1.2-4.8.3" fill="url(#b)"/><path d="m105.4 143.2v7.6l4.8-.1v-6.5c-1.5-.4-3.1-.7-4.8-1" fill="url(#b)"/><path d="m105.4 134.2v7c1.7.4 3.3.8 4.8 1.3v-6.1c-1.5-.8-3.1-1.5-4.8-2.2" fill="url(#b)"/><path d="m105.4 126.1v6.3c1.7.7 3.3 1.6 4.8 2.5v-5.4c-1.5-1.2-3.1-2.3-4.8-3.4" fill="url(#b)"/><path d="m105.4 119.3v5.3c1.7 1.1 3.3 2.3 4.8 3.6v-4.5c-1.5-1.6-3.1-3-4.8-4.4" fill="url(#b)"/><path d="m105.4 114v4.1c1.7 1.4 3.3 2.9 4.8 4.5v-3.5c-1.5-1.8-3.1-3.5-4.8-5.1" fill="url(#b)"/><path d="m105.4 110.4v2.7c1.7 1.6 3.3 3.4 4.8 5.2v-2.3c-1.5-2-3.1-3.9-4.8-5.6" fill="url(#b)"/><path d="m105.4 108.8v1.1c1.7 1.8 3.3 3.7 4.8 5.6v-.9c-1.5-2-3.1-3.9-4.8-5.8" fill="url(#b)"/><path d="m98.4 197.3v.6c1.7-1.5 4-3.4 5.7-5v-.5c-1.8 1.8-3.7 3.4-5.7 4.9" fill="url(#b)"/><path d="m98.4 194.5v2.4c2-1.5 3.9-3.1 5.7-4.9v-2.2c-1.8 1.7-3.7 3.2-5.7 4.7" fill="url(#b)"/><path d="m98.4 189.4v4.1c2-1.4 3.9-2.9 5.7-4.5v-3.7c-1.8 1.5-3.7 2.9-5.7 4.1" fill="url(#b)"/><path d="m98.4 182.5v5.6c2-1.2 3.9-2.5 5.7-4v-5c-1.8 1.2-3.7 2.4-5.7 3.4" fill="url(#b)"/><path d="m98.4 174v6.8c2-1 3.8-2 5.7-3.2v-6.1c-1.8.9-3.7 1.7-5.7 2.5" fill="url(#b)"/><path d="m98.4 164.1v7.8c2-.7 3.9-1.5 5.7-2.3v-7c-1.8.6-3.7 1.1-5.7 1.5" fill="url(#b)"/><path d="m98.4 153.3v8.6c2-.4 3.9-.8 5.7-1.2v-7.7c-1.8.1-3.7.2-5.7.3" fill="url(#b)"/><path d="m98.4 142.1v8.8l5.7-.1v-7.8c-1.8-.3-3.7-.6-5.7-.9" fill="url(#b)"/><path d="m98.4 131.8v8.1c2 .3 3.9.7 5.7 1.1v-7.3c-1.8-.7-3.7-1.3-5.7-1.9" fill="url(#b)"/><path d="m98.4 122.5v7.2c2 .7 3.9 1.4 5.7 2.1v-6.4c-1.8-1.1-3.7-2-5.7-2.9" fill="url(#b)"/><path d="m98.4 114.6v6.1c1.9.9 3.8 2 5.7 3.1v-5.4c-1.8-1.4-3.7-2.7-5.7-3.8" fill="url(#b)"/><path d="m98.4 108.5v4.7c2 1.2 3.9 2.5 5.7 3.9v-4.2c-1.8-1.6-3.7-3.1-5.7-4.4" fill="url(#b)"/><path d="m98.4 104.3v3.1c2 1.4 3.9 2.9 5.7 4.5v-2.7c-1.8-1.7-3.7-3.3-5.7-4.9" fill="url(#b)"/><path d="m98.4 102.5v1.2c2 1.5 3.9 3.1 5.7 4.9v-1.1c-1.8-1.8-3.7-3.5-5.7-5" fill="url(#b)"/><path d="m90.5 202.4v.6c2-1.2 4.5-2.8 6.4-4.1v-.6c-2 1.6-4.1 2.9-6.4 4.1" fill="url(#b)"/><path d="m90.5 199.3v2.7c2.2-1.2 4.4-2.5 6.4-4v-2.5c-2 1.4-4.1 2.6-6.4 3.8" fill="url(#b)"/><path d="m90.5 193.7v4.6c2.2-1.1 4.4-2.3 6.4-3.7v-4.2c-2 1.2-4.1 2.3-6.4 3.3" fill="url(#b)"/><path d="m90.5 186v6.2c2.2-1 4.3-2 6.4-3.2v-5.7c-2 1-4.2 1.9-6.4 2.7" fill="url(#b)"/><path d="m90.5 176.6v7.6c2.2-.8 4.3-1.6 6.4-2.6v-7c-2 .7-4.1 1.3-6.4 2" fill="url(#b)"/><path d="m90.5 165.7v8.7c2.2-.6 4.4-1.2 6.4-1.8v-8.1c-2 .4-4.1.8-6.4 1.2" fill="url(#b)"/><path d="m90.5 153.7v9.6c2.2-.3 4.4-.6 6.4-1v-8.8c-2 0-4.1.1-6.4.2" fill="url(#b)"/><path d="m90.5 141.3v9.7l6.4-.1v-9c-2-.2-4.1-.4-6.4-.6" fill="url(#b)"/><path d="m90.5 129.8v9c2.2.3 4.4.6 6.4.9v-8.3c-2-.6-4.1-1.2-6.4-1.6" fill="url(#b)"/><path d="m90.5 119.5v8c2.2.5 4.4 1.1 6.4 1.7v-7.4c-2-.8-4.1-1.6-6.4-2.3" fill="url(#b)"/><path d="m90.5 110.8v6.7c2.2.8 4.4 1.6 6.4 2.5v-6.2c-2-1.1-4.2-2.1-6.4-3" fill="url(#b)"/><path d="m90.5 104v5.2c2.2.9 4.3 2 6.4 3.2v-4.8c-2-1.4-4.1-2.6-6.4-3.6" fill="url(#b)"/><path d="m90.5 99.4v3.4c2.2 1.1 4.4 2.3 6.4 3.6v-3.1c-2-1.4-4.1-2.8-6.4-3.9" fill="url(#d)"/><path d="m90.5 97.3v1.4c2.2 1.2 4.4 2.5 6.4 4v-1.3c-2-1.5-4.1-2.8-6.4-4.1" fill="url(#b)"/><path d="m81.9 206.3v.7c2.1-.9 5-2 7-3v-.6c-2.2 1-4.6 2-7 2.9" fill="url(#b)"/><path d="m81.9 202.9v3c2.4-.8 4.8-1.8 7-3v-2.7c-2.3 1-4.6 2-7 2.7" fill="url(#b)"/><path d="m81.9 196.9v4.9c2.4-.8 4.8-1.7 7-2.7v-4.7c-2.3 1-4.6 1.8-7 2.5" fill="url(#b)"/><path d="m81.9 188.6v6.7c2.4-.7 4.7-1.5 7-2.4v-6.3c-2.2.7-4.6 1.4-7 2" fill="url(#b)"/><path d="m81.9 178.5v8.2c2.4-.6 4.8-1.2 7-2v-7.7c-2.2.6-4.6 1.1-7 1.5" fill="url(#b)"/><path d="m81.9 166.8v9.3c2.4-.4 4.8-.9 7-1.4v-8.8c-2.2.4-4.6.7-7 .9" fill="url(#b)"/><path d="m81.9 153.9v10.2c2.4-.2 4.8-.5 7-.8v-9.7c-2.2.2-4.6.3-7 .3" fill="url(#b)"/><path d="m81.9 140.6v10.4h7v-9.9c-2.2-.2-4.6-.3-7-.5" fill="url(#b)"/><path d="m81.9 128.3v9.6c2.4.2 4.8.4 7 .7v-9.1c-2.2-.5-4.6-.9-7-1.2" fill="url(#b)"/><path d="m81.9 117.2v8.6c2.4.4 4.8.8 7 1.3v-8.1c-2.2-.7-4.6-1.3-7-1.8" fill="url(#b)"/><path d="m81.9 107.9v7.2c2.4.5 4.8 1.2 7 1.9v-6.8c-2.3-.9-4.6-1.7-7-2.3" fill="url(#b)"/><path d="m81.9 100.6v5.5c2.4.7 4.7 1.4 7 2.4v-5.2c-2.3-1.1-4.6-2-7-2.7" fill="url(#b)"/><path d="m81.9 95.6v3.6c2.4.8 4.8 1.7 7 2.7v-3.4c-2.2-1.1-4.6-2-7-2.9" fill="url(#b)"/><path d="m81.9 93.4v1.5c2.4.8 4.8 1.8 7 3v-1.4c-2.2-1.2-4.6-2.2-7-3.1" fill="url(#b)"/><path d="m72.6 208.8v.7c2.3-.5 5.3-1.3 7.6-1.9v-.7c-2.5.8-5.1 1.4-7.6 1.9" fill="url(#b)"/><path d="m72.6 205.2v3c2.6-.5 5.1-1.1 7.6-1.9v-3c-2.5.9-5.1 1.5-7.6 1.9" fill="url(#b)"/><path d="m72.6 198.9v5.1c2.6-.4 5.1-1 7.6-1.7v-5c-2.6.7-5.1 1.3-7.6 1.6" fill="url(#b)"/><path d="m72.6 190.3v7c2.5-.4 5.1-.9 7.6-1.5v-6.8c-2.5.6-5 1-7.6 1.3" fill="url(#b)"/><path d="m72.6 179.8v8.5c2.6-.3 5.1-.7 7.6-1.2v-8.2c-2.5.3-5 .6-7.6.9" fill="url(#b)"/><path d="m72.6 167.6v9.7c2.6-.2 5.1-.5 7.6-.9v-9.4c-2.5.2-5 .4-7.6.6" fill="url(#b)"/><path d="m72.6 154.1v10.7c2.6-.1 5.1-.3 7.6-.5v-10.3c-2.5 0-5 .1-7.6.1" fill="url(#e)"/><path d="m72.6 140.2v10.9h7.6v-10.5c-2.5-.2-5-.3-7.6-.4" fill="url(#b)"/><path d="m72.6 127.3v10.1c2.6.1 5.1.2 7.6.4v-9.8c-2.5-.3-5-.5-7.6-.7" fill="url(#b)"/><path d="m72.6 115.8v8.9c2.6.2 5.1.5 7.6.8v-8.7c-2.5-.4-5-.7-7.6-1" fill="url(#b)"/><path d="m72.6 106v7.5c2.6.3 5.1.7 7.6 1.2v-7.3c-2.6-.5-5.1-1-7.6-1.4" fill="url(#b)"/><path d="m72.6 98.4v5.8c2.5.4 5.1.9 7.6 1.5v-5.7c-2.6-.7-5.1-1.2-7.6-1.6" fill="url(#b)"/><path d="m72.6 93.2v3.8c2.6.4 5.1 1 7.6 1.7v-3.7c-2.5-.7-5.1-1.3-7.6-1.8" fill="url(#b)"/><path d="m72.6 90.9v1.6c2.6.4 5.1 1 7.6 1.8v-1.5c-2.5-.7-5.1-1.4-7.6-1.9" fill="url(#b)"/><path d="m62.7 209.8v.7c2.4-.1 5.6-.4 8-.7v-.7c-2.7.4-5.3.6-8 .7" fill="url(#b)"/><path d="m62.7 206.1v3.1c2.7 0 5.3-.3 8-.7v-3.1c-2.7.5-5.3.7-8 .7" fill="url(#b)"/><path d="m62.7 199.8v5.2c2.7 0 5.3-.2 8-.6v-5.2c-2.7.3-5.3.5-8 .6" fill="url(#b)"/><path d="m62.7 191v7.1c2.7 0 5.3-.2 8-.5v-7c-2.6.2-5.3.4-8 .4" fill="url(#b)"/><path d="m62.7 180.2v8.6c2.7 0 5.4-.2 8-.4v-8.5c-2.6.2-5.3.3-8 .3" fill="url(#b)"/><path d="m62.7 167.8v9.9c2.7 0 5.4-.1 8-.3v-9.8c-2.6.2-5.3.2-8 .2" fill="url(#b)"/><path d="m62.7 154.2v10.8c2.7 0 5.4-.1 8-.2v-10.7c-2.6.1-5.3.1-8 .1" fill="url(#b)"/><path d="m62.7 140v11.1h8v-11c-2.6 0-5.3-.1-8-.1" fill="url(#b)"/><path d="m62.7 127v10.2c2.7 0 5.4.1 8 .1v-10.1c-2.6-.2-5.3-.2-8-.2" fill="url(#b)"/><path d="m62.7 115.2v9.1c2.7 0 5.4.1 8 .3v-8.9c-2.6-.3-5.3-.5-8-.5" fill="url(#b)"/><path d="m62.7 105.3v7.7c2.7 0 5.4.2 8 .4v-7.6c-2.7-.3-5.3-.5-8-.5" fill="url(#b)"/><path d="m62.7 97.5v5.9c2.7 0 5.3.2 8 .5v-5.8c-2.7-.4-5.3-.6-8-.6" fill="url(#b)"/><path d="m62.7 92.3v3.9c2.7 0 5.3.2 8 .6v-3.8c-2.7-.5-5.3-.7-8-.7" fill="url(#b)"/><path d="m62.7 90v1.6c2.7.1 5.3.3 8 .7v-1.6c-2.7-.5-5.3-.7-8-.7" fill="url(#b)"/></g><g clip-path="url(#f)"><path d="m99.5 96.8c-24-11.3-51.7-11.3-75.7 0 4.4 27.4 21.3 31.6 37.9 55.9 16.5-24.3 33.5-28.5 37.8-55.9zm-55.1 17.1c0-9.5 7.7-17.2 17.2-17.2s17.2 7.7 17.2 17.2-7.7 17.2-17.2 17.2-17.2-7.7-17.2-17.2z" fill="url(#h)"/><path d="m61.7 299.9c-19.6 0-35.4-4.9-35.4-10.9v10.9c0 6 15.9 10.9 35.4 10.9s35.4-4.9 35.4-10.9v-10.9c0 6-15.9 10.9-35.4 10.9z" fill="url(#i)"/><path d="m115 105.3c-3.2 8.2-6.9 16.2-11.1 24-7 13.3-14.7 26.2-20.9 39.9-6.4 14-10.7 28.9-12.7 44.3-2.5 20.1-1.2 40.5 4 60.1-8.4-1-16.9-1-25.3 0 5.2-19.6 6.5-40 4-60.1-2-15.3-6.3-30.2-12.7-44.3-6.2-13.7-13.9-26.6-20.9-39.9-4.2-7.8-7.9-15.8-11.1-24-4.8 3.7-9.3 7.9-13.3 12.5 0 19.1 2.9 38.1 8.6 56.3 4.6 14.3 11.9 27.2 19.2 40.1 7.6 13.4 15.9 27.4 17.7 43.2.7 5.8.7 11.6.2 17.4-8.8 2-14.5 5.2-14.5 8.8 0 6 15.9 10.9 35.4 10.9s35.4-4.9 35.4-10.9c0-3.6-5.7-6.8-14.5-8.8-.5-5.8-.4-11.6.2-17.4 1.8-15.8 10.1-29.8 17.7-43.2 7.3-12.9 14.6-25.8 19.2-40.1 5.7-18.2 8.6-37.2 8.6-56.3-3.9-4.6-8.4-8.8-13.2-12.5z" fill="url(#j)"/><path d="m61.7 298.7c-20.2 0-34.2-5.1-34.2-9.6h-2.5v10.9c0 3.5 3.9 6.6 11.3 8.9 6.8 2.1 15.8 3.2 25.4 3.2s18.6-1.2 25.4-3.2c7.4-2.3 11.3-5.3 11.3-8.9v-11h-2.4c-.1 4.6-14.2 9.7-34.3 9.7zm34.2 1.2c0 4.5-14.1 9.6-34.2 9.6s-34.2-5.1-34.2-9.6v-6.3c1.9 1.6 4.8 3.1 8.8 4.3 6.8 2.1 15.8 3.2 25.4 3.2s18.6-1.2 25.4-3.2c4-1.2 6.9-2.7 8.8-4.3z" fill="#fff"/></g><g clip-path="url(#k)"><path d="m61.7 300.1c-19.6 0-35.4-4.9-35.4-10.9v10.9c0 6 15.9 10.9 35.4 10.9s35.4-4.9 35.4-10.9v-10.9c0 6-15.9 10.9-35.4 10.9z" fill="#d6de23"/><path d="m80.1 113.9c0-10.2-8.3-18.5-18.5-18.5s-18.5 8.3-18.5 18.5c0 10.2 8.3 18.5 18.5 18.5s18.5-8.3 18.5-18.5zm-34.4 0c-.2-8.8 6.8-16.2 15.6-16.4s16.2 6.8 16.4 15.6v.8c.2 8.8-6.8 16.2-15.6 16.4s-16.2-6.8-16.4-15.6c0-.3 0-.6 0-.8z" fill="url(#m)"/><path d="m60.6 151.2 1 1.5 1-1.5c14.9-22 33.5-25.6 38.1-54.3l.1-.9-.8-.4c-24.3-11.5-52.5-11.5-76.8 0l-.8.4.1.9c4.6 28.7 23.2 32.3 38.1 54.3zm1.1-61.7c12.6 0 25.1 2.7 36.5 8-4.6 27.2-22 29.6-36.5 50.9-14.4-21.3-31.9-23.7-36.5-50.9 11.4-5.3 23.9-8 36.5-8z" fill="url(#n)"/><path d="m61.7 298.9c-20.2 0-34.2-5.1-34.2-9.6h-2.5v10.9c0 3.5 3.9 6.6 11.3 8.9 6.8 2.1 15.8 3.2 25.4 3.2s18.6-1.2 25.4-3.2c7.4-2.3 11.3-5.3 11.3-8.9v-10.9h-2.4c-.1 4.5-14.2 9.6-34.3 9.6zm34.2 1.2c0 4.5-14.1 9.7-34.2 9.7s-34.2-5.1-34.2-9.7v-6.3c1.9 1.6 4.8 3.1 8.8 4.3 6.8 2.1 15.8 3.2 25.4 3.2s18.6-1.2 25.4-3.2c4-1.2 6.9-2.7 8.8-4.3z" fill="#fff"/><path d="m129.2 116.9c-4.1-4.7-8.6-8.9-13.5-12.7l-1.3-1-.6 1.6c-3.2 8.2-6.8 16.2-11 23.9-2.2 4.2-4.5 8.5-6.8 12.6-4.9 8.9-9.9 18-14.1 27.5-6.5 14.2-10.8 29.2-12.8 44.7-2.5 19.7-1.3 39.7 3.6 58.9-7.3-.7-14.7-.7-22.1 0 4.8-19.3 6-39.2 3.6-58.9-2-15.4-6.3-30.5-12.8-44.7-4.3-9.4-9.3-18.6-14.1-27.4-2.2-4.1-4.5-8.4-6.8-12.6-4.2-7.7-7.8-15.7-11-23.9l-.6-1.6-1.3 1.1c-4.9 3.8-9.4 8-13.5 12.7l-.3.3v.5c0 19.2 2.9 38.4 8.6 56.7 4.5 14.1 11.8 27 18.8 39.5l1.6 2.9c7.3 12.8 14.7 26 16.4 40.8.6 5.4.7 10.9.3 16.3-9.4 2.3-14.6 5.7-14.6 9.8 0 7.9 18.9 12.1 36.7 12.1 9.6 0 18.6-1.2 25.4-3.2 7.4-2.3 11.3-5.3 11.3-8.9 0-4.1-5.2-7.5-14.6-9.8-.4-5.4-.3-10.9.3-16.3 1.7-14.8 9.2-28 16.3-40.8l1.6-2.9c7-12.5 14.3-25.4 18.8-39.6 5.8-18.4 8.7-37.5 8.6-56.7v-.5zm-10.7 56.8c-4.5 13.9-11.7 26.7-18.7 39.1l-1.6 2.9c-7.3 13-14.9 26.5-16.7 41.7-.6 5.5-.7 11.1-.3 16.6l-4 1 5 1.1c8.3 1.8 13.6 4.8 13.6 7.6 0 4.5-14.1 9.7-34.2 9.7s-34.2-5-34.2-9.6c0-2.7 5.3-5.7 13.6-7.6l5.1-1.2-4.1-1c.4-5.5.3-11.1-.3-16.6-1.8-15.3-9.3-28.7-16.7-41.7l-1.6-2.9c-7-12.5-14.2-25.3-18.6-39.2-5.7-18-8.5-36.7-8.5-55.5 3.5-4 7.4-7.7 11.5-11 3.1 7.7 6.6 15.3 10.5 22.6 2.2 4.2 4.5 8.5 6.8 12.6 4.8 8.8 9.8 17.9 14.1 27.2 6.4 13.9 10.6 28.8 12.6 44 2.5 20 1.2 40.2-3.9 59.7l-.5 1.7 1.8-.2c8.3-.9 16.7-.9 25 0l1.8.3-.5-1.7c-5.1-19.5-6.5-39.7-3.9-59.7 2-15.2 6.2-30 12.6-44 4.2-9.3 9.2-18.4 14.1-27.2 2.3-4.1 4.6-8.4 6.8-12.6 3.9-7.3 7.5-14.9 10.5-22.6 4.1 3.3 8 7 11.5 11 0 18.8-2.9 37.5-8.6 55.5z" fill="url(#o)"/></g><path d="m49.6 209.4c-28.1-6.2-48.6-30-48.6-59.9 0-12.3 3.9-22.8 10-32.5z" fill="url(#q)"/><path d="m27.8 99.8c10.5-6.7 22.6-10.3 35-10.3 12.6 0 24.4 5.5 34.3 12-2.5 24.7-34.3 68.3-34.3 68.3s-35.9-51.1-35-70z" fill="url(#r)"/><path d="m81.2 109.1c-1.1-20.2-35.5-18.4-22.7-18.4 12.3-.1 24.3 3.4 34.7 10 9.2 7.5-17.8 40.9-17.8 40.9 4.3-10.3 6.2-21.4 5.8-32.5z" fill="url(#s)"/><path d="m112.8 118.3c5.7 9.4 9.3 19.6 9.3 31.4 0 29.5-20.9 53.5-48.6 59.7z" fill="url(#t)"/><ellipse cx="61.7" cy="150.2" fill="url(#u)" rx="60.3" ry="60.4"/><path d="m133 120.8c0-.1 0-.2-.1-.3-.2-.1-.4-.2-.7-.2v-.3h6.6v.3c-.2 0-.4 0-.6.1-.1 0-.1.1-.2.2.1.2.2.3.4.5.2.3.5.7.9 1.1s.8.9 1.3 1.5l1.5 1.6c.5.5 1 1.1 1.4 1.5l1.2 1.3v-7.4c0-.3-.2-.5-.6-.5v-.2h5v.3c-.2 0-.5.1-.6.2s-.1.2-.1.3v12.8c0 .1 0 .2.1.3.2.1.4.2.6.2v.3h-5.1v-.3c.2 0 .3 0 .5-.1.1 0 .1-.1.1-.2s0-.2-.1-.2c-.1-.1-.2-.3-.4-.4l-.8-.9c-.4-.4-.8-.9-1.4-1.5l-2.2-2.4c-.9-.9-1.9-2.1-3.1-3.5v8.7c0 .1 0 .2.1.3.2.1.4.2.6.2v.3h-5.2v-.3c.2 0 .5-.1.7-.2.1-.1.1-.2.1-.3v-12.8z" fill="#929497"/><path d="m165.4 132c.4 0 .6-.2.7-.7h.3v3.6h-.3c-.1-.3-.2-.4-.3-.4-.2 0-.3-.1-.5-.1h-12.3v-.3c.2 0 .4-.1.5-.1.2-.1.3-.2.2-.4v-10.5c0-.2-.1-.3-.2-.4-.2-.1-.4-.1-.5-.1v-.3h12.5c.1 0 .2 0 .3-.1s.2-.2.2-.5h.3v3.7h-.3c0-.2 0-.4-.2-.5-.1-.1-.2-.1-.3-.1h-8.1v2.2h5.2c.1 0 .2-.1.3-.1.1-.1.2-.3.2-.5h.3v3.6h-.3c0-.2 0-.4-.2-.5-.1-.1-.2-.1-.3-.1h-5.2v2.7z" fill="#929497"/><path d="m169.5 134.1c.2 0 .3 0 .4-.1l4.5-5.9-4.1-5.2c-.1-.1-.2-.2-.4-.2-.1 0-.2 0-.3 0v-.3h5.9v.3h-.4c-.2 0-.3.1-.3.2 0 .2.1.3.2.4.1.2.3.4.5.6s.4.4.6.6.4.4.6.6c.1-.2.3-.4.5-.6l.5-.7.4-.6c.1-.1.1-.2.2-.4 0-.1-.1-.2-.2-.2s-.2 0-.4 0v-.3h5.4v.3h-.3c-.1 0-.3.1-.3.2l-3.8 5 4.9 6.1c.1.1.3.2.4.1v.3h-5.7v-.3h.2c.1 0 .2-.1.2-.2 0-.2-.2-.5-.3-.7-.2-.3-.5-.6-.7-.9l-.8-.9c-.2-.2-.3-.4-.5-.6-.1.2-.3.4-.4.6l-.7 1-.7.9c-.1.2-.3.3-.3.5 0 .1.1.1.2.2h.3v.3h-5.4z" fill="#929497"/><path d="m198.6 122.3c.1 0 .2 0 .3-.1s.2-.2.2-.5h.3v4h-.3c0-.2 0-.4-.2-.5-.1-.1-.2-.1-.3-.1h-3.9v8.5c0 .2.1.3.2.4s.3.1.4.1v.3h-5v-.3c.1 0 .3-.1.4-.1.1-.1.2-.2.2-.4v-8.5h-3.9c-.1 0-.2 0-.3.1s-.2.2-.2.5h-.3v-4h.3c0 .3.1.4.2.5s.2.1.3.1z" fill="#929497"/><path d="m135.6 156.6c.2 0 .5-.1.7-.2.1-.1.1-.2.1-.3v-10.3h-4.7c-.1 0-.3 0-.3.2-.1.2-.2.4-.2.6h-.3v-4.9h.3c0 .2.1.4.2.6.1.1.2.2.3.2h13.6c.1 0 .3 0 .3-.2.1-.2.2-.4.2-.6h.3v4.9h-.3c0-.2-.1-.4-.2-.6-.1-.1-.2-.2-.3-.2h-4.7v10.3c0 .1 0 .2.1.3.2.1.4.2.7.2v.3h-5.7z" fill="#929497"/><path d="m160.8 154.5c.4 0 .6-.2.7-.7h.3v3.6h-.3c-.1-.3-.2-.4-.3-.4-.2 0-.3-.1-.5-.1h-12.3v-.3c.2 0 .4-.1.5-.1.2-.1.3-.2.2-.4v-10.5c0-.2-.1-.3-.2-.4-.2-.1-.4-.1-.5-.1v-.3h12.6c.1 0 .2 0 .3-.1s.2-.2.2-.5h.3v3.7h-.4c0-.2 0-.4-.2-.5-.1-.1-.2-.1-.3-.1h-8v2.2h5.2c.1 0 .2 0 .3-.1s.2-.3.2-.5h.3v3.6h-.3c0-.2 0-.4-.2-.5-.1-.1-.2-.1-.3-.1h-5.1v2.7z" fill="#929497"/><path d="m176.9 149.5-.4-.2c0-.1 0-.1.1-.2 0-.1 0-.2 0-.2 0-.1-.1-.2-.3-.4-.3-.2-.6-.3-.9-.4-.4-.1-.8-.2-1.2-.3-.5-.1-.9-.1-1.4-.1s-1.1.1-1.6.2-1 .3-1.4.6-.7.6-1 1-.4 1-.4 1.5.1 1 .4 1.5c.3.4.6.8 1 1 .4.3.9.5 1.4.6s1 .2 1.6.2c.5 0 1.1-.1 1.6-.2.4-.1.9-.3 1.3-.5.3-.1.6-.3.9-.6.2-.2.3-.3.3-.4v-.2c0-.1 0-.2 0-.3l.3-.2 2.6 3.8-.3.2c-.1-.2-.3-.3-.4-.3-.2.1-.4.1-.6.2-.3.2-.8.4-1.3.6-.6.2-1.2.4-1.9.5-.8.2-1.6.2-2.4.2-1 0-2-.1-3-.3-.9-.2-1.8-.5-2.6-1s-1.4-1.1-1.8-1.9c-.5-.9-.7-1.9-.7-2.9s.2-2 .7-2.9c.4-.8 1.1-1.4 1.8-1.9.8-.5 1.7-.9 2.6-1.1 1-.2 2-.3 3-.3.6 0 1.2 0 1.8.1s1.1.2 1.6.3.9.2 1.2.3c.2.1.5.1.7.2.1 0 .2 0 .2-.1.1 0 .1-.1.2-.2l.3.1z" fill="#929497"/><path d="m186.7 156.1c0 .2.1.3.2.4.2.1.4.1.6.1v.3h-5.2v-.3c.2 0 .4 0 .6-.1s.2-.2.2-.4v-10.5c0-.2-.1-.3-.2-.4-.2-.1-.4-.1-.6-.1v-.3h5.2v.3c-.2 0-.4.1-.6.1-.1.1-.2.2-.2.4v3.5h6.1v-3.4c0-.2-.1-.3-.2-.4-.2-.1-.4-.1-.6-.1v-.3h5.2v.3c-.2 0-.4.1-.6.1-.1.1-.2.2-.2.4v10.5c0 .2.1.3.2.4.2.1.4.1.6.1v.3h-5.2v-.3c.2 0 .4 0 .6-.1s.2-.2.2-.4v-4.2h-6.1z" fill="#929497"/><path d="m214.9 156.1c0 .2.1.3.2.4.2.1.4.1.6.1v.3h-5.1v-.3c.2 0 .3 0 .5-.1.2 0 .3-.1.3-.3s-.2-.5-.6-.9-.9-1-1.6-1.7l-2.1-2.2c-.8-.8-1.6-1.7-2.3-2.6l-.1.1v7.3c0 .2.1.3.2.4.2.1.3.1.5.1v.3h-4.7v-.3c.2 0 .3-.1.5-.1.1-.1.2-.2.2-.4v-10.5c0-.2-.1-.3-.2-.4-.2-.1-.3-.1-.5-.1v-.3h6.6v.3c-.1 0-.3.1-.4.1-.1.1-.2.2-.2.4.1.2.3.4.5.6l1.2 1.3c.5.5 1 1.1 1.6 1.7l1.8 1.9v-5.4c0-.2-.1-.3-.2-.4-.2-.1-.4-.1-.5-.1v-.3h4.9v.3c-.2 0-.4.1-.6.1-.1.1-.2.2-.2.4z" fill="#929497"/><path d="m225.7 144.6c.9 0 1.8.1 2.6.4.8.2 1.6.6 2.4 1.1.7.5 1.3 1.2 1.7 1.9.9 1.8.9 3.9 0 5.6-.4.8-1 1.4-1.7 1.9s-1.5.9-2.4 1.1c-1.7.4-3.5.4-5.2 0-.8-.2-1.6-.6-2.4-1.1-2.3-1.8-3.1-5-1.7-7.6.4-.8 1-1.4 1.7-1.9s1.5-.9 2.4-1.1c.8-.1 1.7-.3 2.6-.3zm0 3c-.5 0-1 .1-1.5.2-.4.1-.9.4-1.2.7-.7.6-1.1 1.5-1.1 2.4 0 .5.1 1 .3 1.4s.5.8.8 1c.4.3.8.5 1.2.7.5.2 1 .2 1.5.2s1-.1 1.5-.2c.4-.2.8-.4 1.2-.7.3-.3.6-.6.8-1s.3-.9.3-1.4-.1-.9-.3-1.4c-.2-.4-.5-.8-.8-1-.4-.3-.8-.5-1.2-.7-.5-.2-1-.2-1.5-.2z" fill="#929497"/><path d="m236.5 145.6c0-.2-.1-.3-.2-.4-.2-.1-.3-.1-.5-.1v-.3h5.1v.3c-.2 0-.3.1-.5.1-.1.1-.2.2-.2.4v8.6h7.6c.1 0 .2 0 .3-.1s.2-.3.2-.6h.3v4.1h-.3c0-.3-.1-.5-.2-.5-.1-.1-.2-.1-.3-.1h-12v-.3c.2 0 .4-.1.5-.1.2-.1.2-.2.2-.4z" fill="#929497"/><path d="m257.9 144.6c.9 0 1.8.1 2.6.4.9.2 1.7.6 2.4 1.1s1.3 1.2 1.7 1.9c1.4 2.6.7 5.8-1.7 7.6-.7.5-1.5.9-2.4 1.1-1.7.4-3.5.4-5.2 0-.9-.2-1.7-.6-2.4-1.1s-1.3-1.2-1.7-1.9c-.9-1.8-.9-3.9 0-5.6.4-.8 1-1.4 1.7-1.9s1.5-.9 2.4-1.1c.8-.3 1.7-.5 2.6-.5zm0 3c-.5 0-1 .1-1.5.2-.4.1-.9.4-1.2.7-.7.6-1.1 1.5-1.1 2.4 0 .5.1 1 .3 1.4s.5.8.8 1c.4.3.8.5 1.2.7 1 .3 2 .3 2.9 0 .4-.2.8-.4 1.2-.7.3-.3.6-.6.8-1s.3-.9.3-1.4c0-.9-.4-1.8-1.1-2.4-.4-.3-.8-.5-1.2-.6-.4-.3-.9-.3-1.4-.3z" fill="#929497"/><path d="m281.3 154.1c0 .2 0 .3.1.5.1.1.2.2.4.2h.2v.3c-.4.2-.9.4-1.5.7-.6.2-1.2.4-1.8.6-.7.2-1.4.3-2 .4-.7.1-1.4.2-2.1.2-1 0-2-.1-2.9-.3-.8-.2-1.6-.6-2.3-1.1-.6-.5-1.2-1.2-1.5-1.9-.4-.9-.6-1.8-.5-2.8 0-1 .2-1.9.6-2.8.4-.8.9-1.4 1.6-1.9s1.5-.9 2.3-1.1c.9-.3 1.8-.4 2.7-.4.6 0 1.3 0 1.9.1s1.1.2 1.5.3l1.1.3c.2.1.4.1.6.1.1 0 .2 0 .3-.1l.2-.2.3.1-1.4 3.6-.3-.2v-.2c0-.2-.1-.3-.4-.5s-.6-.3-.9-.4c-.4-.1-.8-.2-1.2-.3s-.7-.1-1.1-.1c-.5 0-1.1.1-1.6.2s-.9.3-1.3.6-.7.7-.9 1.1c-.2.5-.4 1.1-.3 1.6 0 .6.1 1.2.3 1.7s.5.8.9 1.2c.4.3.9.5 1.4.7.5.1 1.1.2 1.7.2.5 0 .9 0 1.4-.1.4-.1.9-.2 1.3-.3v-1.8h-2.3c-.2 0-.4.1-.4.2s-.1.3-.1.4h-.3v-3.4h.3c0 .1 0 .3.1.4.1.2.2.2.4.2h5.7z" fill="#929497"/><path d="m293.5 156.1c0 .2.1.3.2.4s.3.1.4.1v.3h-4.9v-.3c.1 0 .3-.1.4-.1.1-.1.2-.2.2-.4v-3.6l-5.3-7.1c-.1-.1-.2-.2-.4-.2-.1 0-.3-.1-.4-.1v-.3h5.9v.3c-.1 0-.3 0-.4 0s-.2.1-.2.3.1.4.3.5c.2.3.4.5.7.9s.5.7.9 1.1c.3.4.6.8.9 1.1.1-.3.3-.5.5-.8l.8-1.2c.3-.4.5-.8.8-1.1.2-.2.3-.4.3-.6 0-.1-.1-.3-.2-.3-.1 0-.2 0-.4 0v-.3h5.4v.3c-.1 0-.3 0-.4.1-.1 0-.3.1-.4.2l-4.7 7z" fill="#929497"/><path d="m146.6 176c.1 0 .3 0 .3-.2.1-.2.2-.4.2-.6h.3v4.8h-.3c0-.2-.1-.4-.2-.5s-.2-.1-.3-.1h-14.4v-.3c.2 0 .5-.1.7-.2.1-.1.1-.2.1-.3v-12.8c0-.1 0-.2-.1-.3-.2-.1-.4-.2-.7-.2v-.3h5.7v.3c-.2 0-.5.1-.7.2-.1.1-.1.2-.1.3v10.2z" fill="#929497"/><path d="m162.4 177c.4 0 .6-.2.7-.7h.3v3.6h-.3c-.1-.3-.2-.4-.3-.4-.2-.1-.3-.1-.5-.1h-12.3v-.3c.2 0 .4-.1.5-.1.2-.1.3-.2.2-.4v-10.5c0-.2-.1-.3-.2-.4-.2-.1-.4-.1-.5-.1v-.3h12.5c.1 0 .2 0 .3-.1s.2-.2.2-.5h.3v3.7h-.3c0-.2 0-.4-.2-.5-.1-.1-.2-.1-.3-.1h-8.1v2.2h5.2c.1 0 .2 0 .3-.1s.2-.3.2-.5h.3v3.6h-.3c0-.2 0-.4-.2-.5-.1-.1-.2-.1-.3-.1h-5.2v2.7z" fill="#929497"/><path d="m177.7 179.1h.2c.1 0 .1-.1.1-.2s0-.2-.1-.3c-.1-.2-.1-.3-.2-.5s-.2-.4-.3-.5-.2-.3-.2-.5h-6.2c-.1.2-.1.3-.2.5s-.2.4-.3.5-.2.4-.2.5c-.1.1-.1.2-.1.3s.1.2.1.2h.2v.3h-4.1v-.3c.1 0 .2 0 .3-.1.1 0 .2-.1.2-.2.6-1.3 1.1-2.6 1.7-3.8.6-1.3 1.1-2.4 1.5-3.4.5-1 .8-1.9 1.1-2.5.2-.4.3-.7.4-1.1 0-.2-.1-.3-.4-.3v-.3h5.8v.3c-.2 0-.4.1-.4.3.1.2.2.5.3.7.2.4.4 1 .8 1.6.3.7.7 1.4 1 2.2l1.1 2.4c.4.8.7 1.5 1.1 2.2s.6 1.3.8 1.8c0 .1.1.2.2.2s.2.1.3.1v.3h-4.5zm-3.7-9-2.3 4.8h4.5z" fill="#929497"/><path d="m186 168.1c0-.2-.1-.3-.2-.4-.2-.1-.3-.1-.5-.1v-.3h8.3c.9 0 1.8.1 2.6.5 1.4.6 2.4 1.8 2.8 3.2.4 1.5.4 3.1 0 4.6s-1.4 2.7-2.8 3.3c-.8.3-1.7.5-2.6.5h-8.3v-.3c.2 0 .3 0 .5-.1.1-.1.2-.2.2-.4zm5.7 8.6c1.1.1 2.2-.2 3.1-.8 1.3-1.6 1.3-3.8 0-5.3-.9-.6-2-.8-3.1-.8h-2v6.8h2z" fill="#929497"/><path d="m214.4 177c.4 0 .6-.2.7-.7h.3v3.6h-.3c-.1-.3-.2-.4-.3-.4-.2-.1-.3-.1-.5-.1h-12.3v-.3c.2 0 .4-.1.5-.1.2-.1.3-.2.2-.4v-10.5c0-.2-.1-.3-.2-.4-.2-.1-.4-.1-.5-.1v-.3h12.5c.1 0 .2 0 .3-.1s.2-.2.2-.5h.3v3.7h-.3c0-.2 0-.4-.2-.5-.1-.1-.2-.1-.3-.1h-8.1v2.2h5.2c.1 0 .2-.1.3-.1.1-.1.2-.3.2-.5h.3v3.6h-.3c0-.2 0-.4-.2-.5-.1-.1-.2-.1-.3-.1h-5.2v2.7z" fill="#929497"/><path d="m219.9 168.1c0-.2-.1-.3-.2-.4s-.3-.1-.4-.1v-.3h8.8c1.2-.1 2.3.3 3.3 1 .8.7 1.3 1.8 1.2 2.9 0 .9-.3 1.7-.9 2.4-.6.6-1.4 1.1-2.2 1.4l2.4 3.7c.1.2.2.3.4.4s.4.2.6.2v.3h-5.6v-.3c.1 0 .3 0 .4-.1.1 0 .2-.1.2-.3-.1-.2-.2-.5-.3-.7-.2-.4-.4-.8-.7-1.2l-.7-1.2c-.2-.4-.4-.6-.4-.7h-2.6v3.7c0 .2.1.3.2.4.2.1.3.1.5.1v.3h-4.7v-.3c.1 0 .2-.1.4-.1.1-.1.2-.2.2-.4zm7.3 4.4c.5 0 1-.1 1.4-.4.3-.3.5-.7.5-1.1s-.1-.8-.4-1.1c-.5-.3-1.1-.5-1.7-.4h-3.7v3z" fill="#929497"/><path d="m236.7 175.3v.1.2c0 .2.2.4.5.5.4.2.9.3 1.3.5.6.1 1.2.3 1.8.3.6.1 1.2.1 1.8.1h.7c.3 0 .6-.1.8-.2.3-.1.5-.2.7-.4s.3-.4.3-.7c0-.4-.2-.6-.7-.8s-1.1-.3-1.7-.4l-2.2-.3c-.7-.1-1.5-.2-2.2-.5-.6-.2-1.2-.5-1.7-1s-.7-1.1-.7-1.8c0-.5.1-.9.3-1.4s.6-1 1-1.3c.6-.5 1.2-.8 1.9-1 .9-.3 1.9-.4 2.8-.4.6 0 1.3 0 1.9.1s1.1.2 1.6.2l1.2.2c.2.1.5.1.7.1.1 0 .3 0 .4-.1l.2-.2.3.1-1.7 3.5-.4-.2v-.1c0-.1 0-.1 0-.2s-.1-.2-.3-.3c-.3-.1-.6-.2-.9-.3-.4-.1-.8-.2-1.2-.3-.5-.1-.9-.1-1.4-.1h-.8c-.4 0-.7.1-1 .1-.3.1-.6.2-.9.4-.3.1-.4.4-.4.7s.2.6.7.7c.5.2 1.1.3 1.7.3l2.2.3c.7.1 1.5.3 2.2.5.6.2 1.2.6 1.7 1 .5.5.7 1.2.7 1.9 0 .5-.1 1.1-.4 1.5-.3.5-.6.9-1.1 1.3-.6.4-1.2.7-1.9.8-.9.2-1.8.3-2.7.3-.7 0-1.3 0-2-.1s-1.3-.2-1.9-.3-1-.2-1.4-.3c-.2-.1-.4-.1-.7-.2-.1 0-.2 0-.3.1l-.3.3-.3-.1 1.1-3.7z" fill="#929497"/></g></svg>