<svg enable-background="new 0 0 300 300" viewBox="0 0 300 300" xmlns="http://www.w3.org/2000/svg" xmlns:xlink="http://www.w3.org/1999/xlink"><linearGradient id="a" gradientTransform="matrix(1 0 0 -1 0 402.8)" gradientUnits="userSpaceOnUse" x1=".7581" x2="71.0399" y1="255.8135" y2="255.8135"><stop offset="0" stop-color="#c31c78"/><stop offset=".18" stop-color="#bf1b75"/><stop offset=".37" stop-color="#b2186d"/><stop offset=".57" stop-color="#9e1360"/><stop offset=".76" stop-color="#810c4d"/><stop offset=".96" stop-color="#5c0234"/><stop offset="1" stop-color="#52002e"/></linearGradient><g opacity=".98"><g fill="#999"><path d="m87.7 177.1c-.1-1.1.3-2.1 1-2.9.9-.7 2-1.1 3.1-1h2.5v4c0 .4 0 .8.1 1.2 0 .2.1.5.3.7.1.2.3.3.5.3.2.1.4.1.6.1h.8c.3 0 .4.1.4.2v.7c0 .1 0 .2-.1.2s-.2 0-.3 0h-1c-.3 0-.6-.1-.9-.1-.3-.1-.5-.2-.8-.5-.2-.2-.4-.5-.5-.9-.2-.4-.2-.9-.2-1.3v-3.5h-.8c-.5 0-.9 0-1.4.1-.4.1-.7.2-1.1.4-.3.2-.5.5-.7.9-.2.5-.2 1-.2 1.5v2.7c0 .6-.1 1.2-.3 1.8s-.6 1.2-1.1 1.6c-.5.5-1.2.9-1.9 1.1-.9.3-1.8.5-2.7.4-.7 0-1.4-.1-2.1-.2-.6-.1-1.1-.4-1.6-.6-.4-.2-.8-.6-1.1-.9s-.5-.7-.7-1.1c-.2-.3-.3-.7-.4-1.1-.1-.3-.1-.7-.1-1 0-.7.1-1.3.3-2 .2-.6.4-1.1.7-1.6l.5.3.5.3c-.2.4-.4.9-.5 1.4s-.2 1-.2 1.5c0 .3 0 .6.1.8.1.3.2.6.3.9.2.3.4.6.6.8.3.3.6.5.9.7.4.2.9.4 1.3.4.6.1 1.2.2 1.8.2.7 0 1.3-.1 2-.3.5-.2 1-.4 1.4-.8.3-.3.6-.7.8-1.1s.3-.8.3-1.3v-3zm-6.3 10.1c0-.2.1-.4.2-.6s.4-.2.6-.2.4.1.6.2c.2.2.2.4.2.6s-.1.4-.2.6c-.1.1-.3.2-.6.2-.2 0-.4-.1-.6-.2-.1-.2-.2-.4-.2-.6zm2.5 0c0-.4.3-.8.8-.8.2 0 .4.1.6.2.2.2.2.4.2.6s-.1.4-.2.6c-.3.3-.8.3-1.1 0-.2-.2-.3-.4-.3-.6z"/><path d="m95.9 180.8c-.3 0-.4-.1-.4-.2v-.7c0-.1 0-.2.1-.2h.3 3.8v-6.3h1.2v7.5h-5zm5.3-10.8c0 .2-.1.4-.2.6-.2.1-.4.2-.6.2s-.4-.1-.6-.2c-.2-.2-.2-.4-.2-.6s.1-.4.2-.6c.1-.1.3-.2.6-.2.2 0 .4.1.6.2.1.2.2.4.2.6z"/><path d="m110.7 180.3c-.2.1-.4.2-.6.2-.2.1-.5.1-.7.1s-.4.1-.6.1h-.5c-.6 0-1.3-.1-1.8-.3s-.9-.5-1.3-.9c-.3-.4-.6-.8-.7-1.2s-.2-.9-.2-1.4.1-1.1.3-1.6c.4-1 1.1-1.8 2.1-2.2.5-.2 1.1-.3 1.7-.3.3 0 .6 0 .9.1.3 0 .6.1.9.3.3.1.6.3.8.5.3.2.5.5.6.8.2.4.4.8.4 1.2.1.5.2 1.1.2 1.6v1.8c0 .9-.1 1.7-.5 2.5-.3.7-.7 1.2-1.3 1.7s-1.3.8-2 1c-.9.3-1.7.4-2.6.5l-.2-1.1c.7-.1 1.4-.2 2.1-.4.6-.2 1.1-.4 1.7-.7.4-.3.8-.6 1.1-1 .1-.3.2-.8.2-1.3zm-2.2-.7h.6l.6-.1c.2 0 .4-.1.6-.1l.4-.2v-1.2c0-.7-.1-1.3-.2-2-.1-.4-.3-.9-.6-1.2-.2-.3-.5-.5-.9-.6-.3-.1-.7-.2-1-.2s-.7.1-1 .2-.6.3-.8.6-.4.6-.6.9c-.1.4-.2.8-.2 1.2 0 .3.1.7.2 1s.3.6.6.9.6.5 1 .6.9.2 1.3.2z"/><path d="m113.3 184c.6-.1 1.2-.3 1.8-.5.4-.2.8-.5 1.1-.9s.4-.8.5-1.3c.1-.6.1-1.1.1-1.7v-6.3h1.3v6.3h2.3c.3 0 .4.1.4.2v.7c0 .1 0 .2-.1.2s-.2 0-.3 0h-2.4c0 .6-.2 1.2-.4 1.8-.2.5-.5.9-.9 1.3s-.9.7-1.4.9c-.6.2-1.3.4-1.9.5z"/><path d="m119.9 180.8c-.3 0-.4-.1-.4-.2v-.7c0-.1 0-.2.1-.2h.3 2.1c.2 0 .4 0 .6-.1.1 0 .3-.1.4-.2s.2-.3.2-.5c.1-.3.1-.5.1-.8v-4.8h1.2v5.1.3.3c.8.4 1.7.6 2.6.6h.1c.3 0 .4.1.4.2v.7c0 .1 0 .2-.1.2s-.2 0-.3 0h-.2c-.3 0-.7 0-1-.1-.3 0-.5-.1-.8-.2-.2-.1-.4-.1-.6-.2s-.4-.2-.6-.3c-.2.2-.4.4-.7.6s-.7.2-1.1.2zm3.4-10.8c0 .4-.3.8-.8.8-.4 0-.8-.4-.8-.8 0-.2.1-.4.2-.6.1-.1.3-.2.6-.2.5 0 .8.3.8.8zm2.6 0c0 .2-.1.4-.2.6s-.4.2-.6.2c-.4 0-.8-.4-.8-.8 0-.2.1-.4.2-.6.1-.1.3-.2.6-.2.2 0 .4.1.6.2.1.2.2.4.2.6z"/><path d="m126.5 180.8c-.3 0-.4-.1-.4-.2v-.7c0-.1 0-.2.1-.2h.3 3.2c.4 0 .8 0 1.3-.1.3-.1.6-.2.8-.3s.4-.3.5-.5.1-.5.1-.7c0-.4-.1-.7-.2-1.1-.2-.4-.4-.8-.7-1.1-.4-.4-.7-.8-1.2-1.1-.5-.4-1-.8-1.5-1.1l3.8-6.5c.1.1.3.2.4.3l.4.3-3.2 5.6c.9.5 1.8 1.2 2.4 2.1.5.7.8 1.6.8 2.4v.7c0 .2-.1.4-.2.6.3.2.7.3 1.1.4.5.1.9.1 1.4.1h.1c.3 0 .4.1.4.2v.7c0 .1 0 .2-.1.2s-.2 0-.3 0h-.1c-.3 0-.7 0-1-.1-.3 0-.5-.1-.8-.2-.2-.1-.4-.2-.7-.3-.2-.1-.4-.2-.6-.4-.4.3-.8.5-1.3.6-.7.2-1.3.2-2 .2z"/><path d="m135.3 180.8c-.3 0-.4-.1-.4-.2v-.7c0-.1 0-.2.1-.2h.3 3.2v-12.8h1.3v14h-4.5z"/><path d="m153.9 166.8v14h-11.1v-1.2h4.4v-8.6h1.2v8.6h4.2v-12.8zm-4.7 16.1h-.2-.3c-.1 0-.3 0-.4 0s-.2.1-.4.1c-.1.1-.2.2-.2.3-.1.1-.1.3-.1.4 0 .3.2.7.4.8.3.2.7.3 1.2.3h.3v.7h-3v-.7h1.1c-.1 0-.1-.1-.2-.2s-.2-.2-.2-.3c-.1-.1-.1-.2-.2-.4 0-.1-.1-.3-.1-.4 0-.2 0-.4.1-.6s.2-.3.3-.5c.2-.1.3-.2.5-.3s.5-.1.8-.1h.4.4z"/><path d="m157.4 166.8h1.3v14h-1.3z"/><path d="m170.5 178.8c-.4-.4-.9-.8-1.3-1.2s-.7-.8-1-1.1c-.3-.4-.5-.7-.7-.9-.1-.2-.3-.4-.4-.5 0-.1.1-.3.1-.4s.1-.3.1-.4.1-.2.1-.3.1-.1.1-.1c.2-.1.5-.3.8-.4s.7-.2 1.1-.3c.9-.2 1.8-.3 2.7-.3.3 0 .7 0 1 .1s.6.2.9.3.5.3.7.5.3.5.3.8c0 .6-.2 1.1-.4 1.6-.2.4-.5.9-.8 1.3-.4.5-.9 1-1.4 1.5.3.1.5.2.8.3s.7.2 1 .2c.3.1.7.1 1.1.1h1.1.9c.3 0 .4.1.4.2v.7c0 .1 0 .2-.1.2s-.2 0-.3 0h-1.4c-.5 0-1 0-1.6-.1-.4-.1-.9-.2-1.3-.3-.3-.1-.7-.3-1-.4-.2-.1-.5-.2-.7-.4-.5.2-1 .4-1.5.7s-.9.6-1.3 1c-.4.3-.7.8-.9 1.2-.4.8-.4 1.8-.1 2.7.1.4.4.7.7 1s.7.5 1.2.7c.6.2 1.2.3 1.7.3h.9s.6-.1.9-.1v1.1c-.3.1-.6.1-.9.2-.3 0-.6.1-.9.1-.8 0-1.5-.1-2.2-.3-.6-.2-1.1-.5-1.5-.9s-.7-.8-.9-1.3-.3-1-.3-1.6c0-1.1.4-2.2 1.1-3.1.8-1.2 1.9-2 3.2-2.4zm3.4-3.8c0-.2-.1-.3-.2-.5s-.3-.3-.5-.4c-.3-.1-.5-.2-.8-.2-.4-.1-.7-.1-1.1-.1s-.9.1-1.3.2c-.6.1-1.3.3-1.9.6.1.2.2.3.3.5s.3.4.4.6c.2.2.4.4.6.7.2.2.4.5.6.7s.4.4.7.6c.2.2.4.4.6.5.4-.2.7-.5 1-.8s.5-.6.8-.9c.2-.3.4-.6.5-.9.3-.1.4-.4.3-.6z"/><path d="m176.8 180.8c-.3 0-.4-.1-.4-.2v-.7c0-.1 0-.2.1-.2h.3 2.1c.2 0 .4 0 .6-.1.1 0 .3-.1.4-.2s.2-.3.2-.5c.1-.3.1-.5.1-.8v-4.8h1.2v5.1.3.3c.8.4 1.7.6 2.6.6h.1c.3 0 .4.1.4.2v.7c0 .1 0 .2-.1.2s-.2 0-.3 0h-.1c-.3 0-.7 0-1-.1-.3 0-.5-.1-.8-.2-.2-.1-.4-.1-.6-.2s-.4-.2-.6-.3c-.2.2-.4.4-.7.6s-.7.2-1.1.2zm1.5 2.6c0-.2.1-.4.2-.6s.4-.2.6-.2c.4 0 .8.4.8.8 0 .4-.4.8-.8.8-.2 0-.4-.1-.6-.2-.1-.2-.2-.4-.2-.6zm2.5 0c0-.4.3-.8.8-.8.2 0 .4.1.6.2s.2.4.2.6-.1.4-.2.6c-.3.3-.8.3-1.1 0-.2-.2-.3-.4-.3-.6z"/><path d="m187.4 179.5c-.2-.2-.4-.4-.6-.6s-.3-.5-.4-.7-.2-.5-.2-.7-.1-.5-.1-.7c0-.5.1-1.1.3-1.6s.5-.9.8-1.3c.4-.4.8-.7 1.3-.9s1.1-.3 1.6-.3 1 .1 1.5.3c.4.2.8.4 1.1.8s.6.8.7 1.2c.2.5.3 1.1.2 1.7v4h-10.3c-.3 0-.4-.1-.4-.2v-.7c0-.1 0-.2.1-.2h.3zm5.1 0v-2.3c0-.5-.1-1-.2-1.5-.1-.4-.3-.7-.6-1-.2-.2-.5-.4-.8-.5s-.7-.2-1-.2c-.4 0-.7.1-1 .2s-.6.3-.8.6-.4.5-.6.9c-.1.4-.2.7-.2 1.1s.1.7.2 1.1c.1.3.4.6.6.9.3.3.6.4 1 .6.4.1.9.2 1.3.2zm-3-9.5c0 .2-.1.4-.2.6-.1.1-.3.2-.6.2-.2 0-.4-.1-.6-.2-.2-.2-.2-.4-.2-.6s.1-.4.2-.6c.2-.1.4-.2.6-.2s.4.1.6.2c.1.2.2.4.2.6zm2.5 0c0 .2-.1.4-.2.6s-.4.2-.6.2-.4-.1-.6-.2c-.2-.2-.2-.4-.2-.6s.1-.4.2-.6c.2-.1.4-.2.6-.2s.4.1.6.2c.1.2.2.4.2.6z"/><path d="m201 180.8c-.7 0-1.4-.1-2-.3-.5-.2-1-.5-1.3-.9-.3-.3-.6-.8-.7-1.2s-.2-.9-.2-1.4.1-1.1.3-1.6c.4-1 1.2-1.8 2.1-2.2.5-.2 1.1-.3 1.7-.3.3 0 .5 0 .8.1s.6.1.8.3c.3.1.5.3.8.5s.5.5.6.8c.2.4.3.8.4 1.2.1.5.2 1.1.2 1.6v2.2h2.4c.3 0 .4.1.4.2v.7c0 .1 0 .2-.1.2s-.2 0-.3 0h-2.5c-.1.7-.4 1.3-.8 1.8s-.9.9-1.4 1.2c-.6.3-1.2.6-1.9.7-.7.2-1.4.3-2.2.4 0-.2 0-.4-.1-.6s0-.4-.1-.6c.7-.1 1.3-.2 2-.3.6-.1 1.1-.3 1.6-.6.4-.2.8-.5 1.1-.9.3-.3.5-.7.5-1.2zm2.2-1.3v-1.5c0-.7-.1-1.3-.2-2-.1-.4-.3-.9-.6-1.2-.2-.3-.5-.5-.9-.6-.3-.1-.7-.2-1-.2s-.7.1-1 .2-.6.4-.8.6c-.2.3-.4.6-.6.9-.1.3-.2.7-.2 1.1 0 .3.1.7.2 1s.3.6.5.9c.3.3.6.5 1 .6.5.2 1 .2 1.4.2z"/><path d="m206.3 180.8c-.3 0-.4-.1-.4-.2v-.7c0-.1 0-.2.1-.2h.3 2c.2 0 .4 0 .6-.1.1 0 .3-.1.4-.2s.2-.3.2-.5c.1-.3.1-.5.1-.8v-4.8h1.2v5.1.3.3c.8.4 1.7.6 2.6.6h.1c.3 0 .4.1.4.2v.7c0 .1 0 .2-.1.2s-.2 0-.3 0h-.1c-.3 0-.7 0-1-.1-.3 0-.5-.1-.8-.2-.2-.1-.4-.1-.6-.2s-.4-.2-.6-.3c-.2.2-.4.4-.7.6s-.7.2-1.1.2zm3.5-10.8c0 .4-.3.8-.8.8-.2 0-.4-.1-.6-.2-.2-.2-.2-.4-.2-.6s.1-.4.2-.6c.3-.3.8-.3 1.1 0 .2.2.3.4.3.6zm2.5 0c0 .2-.1.4-.2.6s-.4.2-.6.2-.4-.1-.6-.2c-.2-.2-.2-.4-.2-.6s.1-.4.2-.6c.1-.1.3-.2.6-.2.2 0 .4.1.6.2.1.2.2.4.2.6z"/><path d="m212.9 180.8c-.3 0-.4-.1-.4-.2v-.7c0-.1 0-.2.1-.2h.3 3.2v-12.8h1.2v14h-4.4z"/><path d="m220.9 166.8h1.3v14h-1.3z"/><path d="m229.7 184c.6-.1 1.2-.3 1.8-.5.4-.2.8-.5 1.1-.9s.4-.8.5-1.3c.1-.6.1-1.2.1-1.7v-6.3h1.2v6.3h2.3c.3 0 .4.1.4.2v.7c0 .1 0 .2-.1.2s-.2 0-.3 0h-2.4c0 .6-.2 1.2-.4 1.8-.2.5-.5.9-.9 1.3s-.9.7-1.4.9c-.6.2-1.3.4-1.9.5zm4.6-14c0 .4-.3.8-.8.8-.2 0-.4-.1-.6-.2-.2-.2-.2-.4-.2-.6s.1-.4.2-.6c.3-.3.8-.3 1.1 0 .2.2.3.4.3.6z"/><path d="m236.1 180.8c-.3 0-.4-.1-.4-.2v-.7c0-.1 0-.2.1-.2h.3 2.1c.2 0 .4 0 .6-.1.2 0 .3-.1.4-.2s.2-.3.2-.5c.1-.3.1-.5.1-.8v-4.8h1.3v5.1.3.3c.8.4 1.7.6 2.6.6h.1c.3 0 .4.1.4.2v.7c0 .1 0 .2-.1.2s-.2 0-.3 0h-.1c-.3 0-.7 0-1-.1-.3 0-.5-.1-.8-.2-.2-.1-.4-.1-.6-.2s-.4-.2-.6-.3c-.2.2-.4.4-.7.6s-.7.2-1.1.2zm1.5 2.6c0-.2.1-.4.2-.6s.4-.2.6-.2.4.1.6.2.2.4.2.6-.1.4-.2.6-.4.2-.6.2-.4-.1-.6-.2c-.1-.2-.2-.4-.2-.6zm2.5 0c0-.4.3-.8.8-.8.2 0 .4.1.6.2s.3.3.2.6c0 .2-.1.4-.2.6-.3.3-.8.3-1.1 0-.2-.1-.3-.3-.3-.6z"/><path d="m245.6 179.5c-.1.2-.3.4-.4.6-.2.2-.3.3-.5.4s-.4.2-.6.2-.5.1-.7.1h-.5c-.3 0-.4-.1-.4-.2v-.7c0-.1 0-.2.1-.2h.3.4c.2 0 .4 0 .6-.1.2 0 .4-.1.6-.2s.3-.3.5-.4c.2-.2.3-.4.3-.7.2-.7.4-1.3.7-1.9.2-.5.5-.9.7-1.4.2-.3.5-.6.8-.9.2-.2.5-.4.8-.5.2-.1.5-.2.8-.3.2 0 .4-.1.7-.1.4 0 .8.1 1.2.2.3.1.7.3.9.5.3.2.5.5.7.7.2.3.4.6.5.9s.2.6.3.9c.1.6.1 1.2 0 1.8-.1.3-.2.6-.3.9.4.2.7.3 1.1.4.5.1.9.1 1.4.1h.1c.3 0 .4.1.4.2v.7c0 .1 0 .2-.1.2s-.2 0-.3 0h-.1c-.3 0-.7 0-1-.1-.3 0-.5-.1-.8-.2-.2-.1-.5-.2-.7-.3s-.4-.2-.6-.4c-.3.3-.7.6-1.1.7-.5.2-1.1.3-1.6.3-.4 0-.8 0-1.2-.1-.7-.1-1.4-.4-2-.7-.5 0-.8-.2-1-.4zm6.7-2c0-.3-.1-.7-.2-1-.1-.4-.3-.7-.5-1s-.5-.6-.9-.8-.8-.3-1.2-.3-.8.1-1.1.3c-.4.2-.7.6-1 .9-.3.4-.6.9-.7 1.3-.2.5-.4 1.1-.5 1.6.1.2.3.3.5.4.3.1.5.3.8.4s.6.2.9.2c.3.1.7.1 1 .1.4 0 .8 0 1.2-.1s.7-.2 1-.4.5-.4.6-.7c0-.2.1-.6.1-.9z"/><path d="m254.9 180.8c-.3 0-.4-.1-.4-.2v-.7c0-.1 0-.2.1-.2h.3 3.8v-6.3h1.3v7.5h-5.1zm3.9-10.8c0 .4-.3.8-.8.8-.2 0-.4-.1-.6-.2s-.2-.4-.2-.6.1-.4.2-.6c.3-.3.8-.3 1.1 0 .2.1.3.3.3.6zm2.6 0c0 .2-.1.4-.2.6s-.4.2-.6.2-.4-.1-.6-.2c-.2-.2-.2-.4-.2-.6s.1-.4.2-.6c.2-.1.4-.2.6-.2s.4.1.6.2c.1.2.2.4.2.6z"/><path d="m267.1 184c.6-.1 1.2-.3 1.8-.5.4-.2.8-.5 1.1-.9s.4-.8.5-1.3c.1-.6.1-1.2.1-1.7v-6.3h1.2v6.3h2.3c.3 0 .4.1.4.2v.7c0 .1 0 .2-.1.2s-.2 0-.3 0h-2.4c0 .6-.2 1.2-.4 1.8-.2.5-.5.9-.9 1.3s-.9.7-1.4.9c-.6.2-1.3.4-1.9.5zm4.6-14c0 .4-.3.8-.8.8-.2 0-.4-.1-.6-.2-.2-.2-.2-.4-.2-.6s.1-.4.2-.6c.3-.3.8-.3 1.1 0 .2.2.3.4.3.6z"/><path d="m273.6 180.8c-.3 0-.4-.1-.4-.2v-.7c0-.1 0-.2.1-.2h.3 3.2c.4 0 .9 0 1.3-.1.3-.1.6-.2.8-.3s.4-.3.4-.5c.1-.2.1-.5.1-.7 0-.4-.1-.7-.2-1.1-.2-.4-.4-.8-.7-1.1-.4-.4-.7-.8-1.2-1.1-.5-.4-1-.8-1.5-1.1l3.8-6.5.4.3.4.3-3.2 5.6c.9.5 1.8 1.2 2.4 2.1.5.7.8 1.6.8 2.4 0 .4-.1.8-.2 1.2s-.4.7-.7 1c-.4.3-.8.5-1.2.6-.6.2-1.3.2-2 .2z"/><path d="m281.8 184c.6-.1 1.2-.3 1.8-.5.4-.2.8-.5 1.1-.9s.4-.8.5-1.3c.1-.6.1-1.1.1-1.7v-6.3h1.3v6.3h2.3c.3 0 .4.1.4.2v.7c0 .1 0 .2-.1.2s-.2 0-.3 0h-2.4c0 .6-.2 1.2-.4 1.8-.2.5-.5.9-.9 1.3s-.9.7-1.4.9c-.6.2-1.3.4-1.9.5z"/><path d="m291.1 179.5c-.1.2-.3.4-.4.6-.2.2-.3.3-.5.4s-.4.2-.6.2-.5.1-.7.1h-.4c-.3 0-.4-.1-.4-.2v-.7c0-.1 0-.2.1-.2h.3.4c.2 0 .4 0 .6-.1.2 0 .4-.1.6-.2s.3-.3.5-.4c.2-.2.3-.4.3-.7.2-.7.4-1.3.7-1.9.2-.5.5-.9.8-1.4.2-.3.5-.6.8-.9.2-.2.5-.4.8-.5.2-.1.5-.2.8-.3.2 0 .4-.1.7-.1.4 0 .8.1 1.2.2.3.1.7.3.9.5.3.2.5.5.7.7.2.3.4.6.5.9s.2.6.3.9c.2.7.1 1.5-.1 2.2-.1.4-.4.8-.7 1.2s-.7.6-1.2.8-1.1.3-1.7.3c-.4 0-.8 0-1.2-.1-.7-.1-1.4-.4-2-.7-.6-.1-.9-.3-1.1-.6zm6.6-2c0-.3-.1-.7-.2-1-.1-.4-.3-.7-.5-1s-.5-.6-.9-.8-.8-.3-1.2-.3-.8.1-1.1.3c-.4.2-.7.6-1 .9-.3.4-.6.9-.7 1.3-.2.5-.4 1.1-.5 1.6.1.2.3.3.5.4.3.1.5.3.8.4s.6.2.9.2c.3.1.7.1 1 .1.4 0 .8 0 1.2-.1s.7-.2 1-.4.5-.4.6-.7c.1-.2.2-.6.1-.9z"/></g><path d="m36 111.9c-19.2 0-34.7 15.5-35 34.6 4.9.8 9.9 1 14.9.3 0 0 .6-37.1 29.2-26.3s-24.5 29.4-24.5 29.4-1.6 40.2 25.8 14.1c10.2-9.7 17.6-13.5 24.4-14.1.1-.9.1-1.9.1-2.9.1-19.4-15.6-35.1-34.9-35.1zm-12.4 61c-8.3-8.5-7.1-22.6-7.1-22.6-5.1.7-10.3.5-15.3-.5 1.3 19.2 18.1 33.6 37.4 32.2 15.7-1.2 28.7-12.7 31.7-28.1-4.5 1-11.5 3.5-19.8 11.2-6.6 6.1-16.3 18.6-26.9 7.8zm19.1-48.7c-20.2-7.6-22.1 22.2-22.1 22.2s40.4-15.3 22.1-22.2z" fill="url(#a)"/><path d="m87.7 154.1c-3.8 0-7.5-.7-11.1-2.1l.6-1.7c3.3 1.2 6.7 1.9 10.2 2 4.3 0 9.6-.8 9.6-5.5-.1-8.1-20.4-2.4-20.4-12.9-.1-6.1 6.7-7.4 12.4-7.4 3.5.1 6.9.8 10.2 2l-.6 1.8c-3-1.1-6.1-1.7-9.3-1.8-4.4 0-9.8.5-9.8 5.3.1 7.9 20.5 2.5 20.5 12.9-.1 5.7-6.5 7.4-12.3 7.4z" fill="#999"/><path d="m104 153.6v-26.7h2.8v26.7z" fill="#999"/><path d="m124.6 164.6c-4.1-.1-8.1-.8-12-2.1l.5-1.8c1.2.4 2.3.7 3.5 1 2.6.6 5.4 1 8.1 1 8 0 10.1-4.1 10.1-8.4v-2.4c-1.6.4-8.1 2.2-11.9 2.2-8.8 0-12-5.7-12-13.9 0-8.1 3.3-13.9 12-13.9 4 0 10.5 1.9 12.2 2.3l.8-1.7h1.7v27.8c.1 6.4-3.6 9.9-13 9.9zm10.3-34.3c-1.7-.3-7.6-2.1-11.5-2.1-7.6 0-9.6 5.5-9.6 12s2.1 12 9.6 12c3.8 0 9.8-1.7 11.5-2.1z" fill="#999"/><path d="m166 153.6-1.1-1.8v-12c0-6.5-.5-11.6-7.4-11.6-4.2 0-9.7 1.8-11.5 2.1l-.1 23.3h-2.8v-26.7h1.7l.8 1.6c1.9-.3 8.1-2.2 12.4-2.2 8.5 0 9.8 5.4 9.8 13.5v13.8z" fill="#999"/><path d="m196.7 153.6-.9-1.8c-2.4.6-8.2 2.3-12.2 2.3-8.8 0-12-5.6-12-13.9s3.3-13.9 12-13.9c3.8 0 9.8 1.8 12.2 2.2l.8-1.6h1.7v26.7zm-1.1-23.3c-2.3-.5-7.6-2.1-11.4-2.1-7.6 0-9.6 5.6-9.6 12s2.1 12 9.6 12c3.8 0 9.1-1.6 11.5-2.1-.1-.5-.1-11.4-.1-19.8z" fill="#999"/><path d="m218.7 153.7c-1.3.2-2.7.4-4 .4-8 0-9.1-2.9-9.1-10.5l-.1-14.9h-3.6v-1.9h3.6l1.7-5h1.2v5h11v2h-11v14.9c0 5.7.5 8.7 6.8 8.6 1.8-.1 3.6-.4 5.3-.9l.4 1.8s-.9.2-2.2.5z" fill="#999"/><path d="m247.2 153.6-.8-1.7c-2.6.5-8.3 2.2-12.4 2.2-8.5 0-9.8-5.3-9.8-13.4v-13.8h1.8l1.1 1.8v12c0 6.5.5 11.5 7.4 11.5 4 0 8.9-1.6 11.5-2l.1-23.3h2.8v26.7z" fill="#999"/><path d="m269.5 129.9-12.2-.1-.1 23.9h-2.8v-26.7h1.7l.9 1.7 12-1.7h1.6v3z" fill="#999"/><path d="m275.1 141.1c0 8 4 11.2 12.5 11.2 3.3-.2 6.6-.9 9.6-2.2l.6 1.7c-1 .5-2.1.9-3.2 1.2-2.3.7-4.6 1.1-7 1.2-12.6 0-15.4-6.1-15.4-13.9s3.3-13.9 13.5-13.9c9.5 0 13.4 5.2 13.3 14.7zm10.6-12.8c-7.6 0-10.5 4.2-10.5 11.1h20.8c0-6.8-2.7-11.1-10.3-11.1z" fill="#999"/></g></svg>