<svg enable-background="new 0 0 300 300" viewBox="0 0 300 300" xmlns="http://www.w3.org/2000/svg"><g opacity=".98"><g fill="#313972"><path d="m67.7 217.2c.9-.6 1.7-1.3 2.3-2.2.7-1 1.2-2.1 1.5-3.3.5-1.5.8-3 .9-4.6.9.8 2 1.4 3.2 1.8 1.1.3 2.2.5 3.3.5h63.2c.7 0 1.4-.1 2.1-.3s1.4-.5 2-.9c.7-.5 1.3-1.1 1.8-1.8s.9-1.4 1.2-2.1c.3-.8.6-1.7.7-2.6.2-1 .2-2.1.1-3.1-.1-1.2-.3-2.4-.6-3.6-.2-.7-.5-1.4-.8-2.1-.3-.6-.7-1.2-1.1-1.8-.4-.5-.8-1-1.3-1.4s-1-.7-1.5-.9c-1.4-.5-2.8-.7-4.2-.7h-4.9c-.5 0-1 0-1.3 0s-.7.1-1 .2l5.2-15.2h-4.8l-6.8 20.2h14.7c.9 0 1.8.3 2.4.8.6.6 1.1 1.3 1.4 2.1s.5 1.7.4 2.6c0 .8-.1 1.6-.4 2.3-.3 1.1-1 2-1.9 2.6-.4.2-.8.4-1.3.5-.4.1-.8.1-1.3.1h-63c-.6 0-1.3-.2-1.9-.5s-1.1-.8-1.5-1.4c-.4-.5-.7-1-.9-1.6s-.4-1.2-.6-1.9c-.1-.7-.2-1.4-.3-2.1 0-.7-.1-1.4-.1-2.1v-11.2h-4.2v18.4c0 1.5-.1 3-.3 4.5-.1 1.1-.4 2.2-.8 3.2-.3.8-.8 1.5-1.3 2.2-.5.6-1.1 1.1-1.8 1.4v5.3c1.4-.2 2.5-.7 3.5-1.3z"/><path d="m68.7 178.8c.3.3.6.5.9.6.3.2.7.2 1.1.2s.8-.1 1.1-.2c.3-.2.6-.4.9-.6.3-.3.5-.6.6-.9.3-.7.3-1.5 0-2.2-.1-.3-.4-.6-.6-.9-.3-.3-.6-.5-.9-.6-.3-.2-.7-.2-1.1-.2s-.7.1-1.1.2c-.3.1-.6.3-.9.6s-.5.6-.6.9c-.4 1.1-.2 2.3.6 3.1z"/><path d="m192.9 209.5h26.1c.7.1 1.5-.1 2-.6.6-.5 1-1.2 1.3-2l.3.3c.4.5.8.9 1.3 1.2.4.3.8.6 1.3.8 1.6.6 3.2.6 4.8.1.9-.3 1.7-.8 2.5-1.4.8-.7 1.5-1.5 2.1-2.4.7-1.1 1.2-2.4 1.5-3.6.4-1.7.6-3.3.5-5 0-1-.1-2-.2-3s-.4-2-.7-2.9-.6-1.8-1.1-2.6c-.4-.8-.8-1.5-1.4-2.1-.7-.8-1.6-1.5-2.6-2-.8-.2-1.5-.4-2.3-.4-.9 0-1.7.1-2.5.4-1.2.4-2.2 1.1-3 1.9-.9 1-1.6 2.1-2 3.3-.6 1.5-.9 3.1-1.1 4.7-.2 2-.4 4.1-.4 6.1-.1 2.8-.9 4.2-2.3 4.2h-49.6c-.7 0-1.3-.2-1.9-.5s-1.1-.8-1.5-1.4c-.4-.5-.7-1-.9-1.6s-.4-1.3-.5-1.9c-.1-.7-.3-1.4-.3-2 0-.7-.1-1.4-.1-2.1v-11.2h-4.2v18.2c0 1.5-.1 3-.3 4.4-.1 1.1-.4 2.2-.8 3.2-.3.8-.8 1.6-1.3 2.2s-1.1 1.1-1.8 1.4v5.3c1.1-.3 2.2-.8 3.2-1.4.9-.6 1.8-1.3 2.4-2.2.7-1 1.2-2.1 1.5-3.3.5-1.5.8-3 .9-4.6.9.8 2 1.4 3.2 1.8 1.1.3 2.2.5 3.4.5zm39.1-11.1c-.1 1-.3 1.9-.7 2.8-.3.8-.7 1.5-1.3 2.1-.4.5-1 .9-1.6 1-.5.1-1.1.1-1.7-.1-.6-.3-1.1-.7-1.5-1.2-.5-.7-.9-1.4-1.2-2.2-.3-.9-.5-1.9-.6-2.9s0-2 .1-3 .3-1.9.7-2.8c.3-.8.7-1.5 1.3-2.1.4-.5 1-.9 1.6-1s1.1-.1 1.7.1c.6.3 1.1.7 1.5 1.2.5.7.9 1.4 1.2 2.2.3.9.5 1.9.5 2.9.2.9.2 2 0 3z"/><path d="m78.8 232.7c-.4-.1-.7-.2-1.1-.2-.7 0-1.4.3-2 .8-.2.3-.4.5-.6.9-.2.3-.2.7-.2 1.1s.1.8.2 1.1.3.6.6.9.6.5.9.6.7.2 1.1.2.8-.1 1.1-.2.6-.3.9-.6.5-.6.6-.9c.2-.3.2-.7.2-1.1s-.1-.8-.2-1.1c-.3-.7-.8-1.3-1.5-1.5z"/><path d="m72.5 232.7c-.3-.1-.7-.2-1.1-.2s-.7.1-1.1.2c-.3.2-.6.4-.9.6s-.5.5-.6.9c-.2.3-.2.7-.2 1.1s.1.8.2 1.1.3.7.6.9c.3.3.6.5.9.6s.7.2 1.1.2.7-.1 1.1-.2c.7-.3 1.2-.8 1.5-1.5.2-.3.2-.7.2-1.1s-.1-.8-.2-1.1-.4-.6-.6-.9c-.3-.3-.6-.5-.9-.6z"/><path d="m84.7 243c.1 2-.2 4-.7 5.9-.4 1.3-1 2.5-1.9 3.5-.7.8-1.7 1.4-2.7 1.8-1 .3-2.1.5-3.2.6-1 .1-2 0-3-.3-1-.2-1.9-.7-2.7-1.3-.9-.7-1.5-1.5-2-2.5-.5-1.3-.8-2.7-.7-4.1 0-.5 0-1 0-1.5 0-.4.1-.9.2-1.3h-4.3c-.1.5-.1.9-.1 1.4v1.4c-.1 2.1.3 4.1 1 6.1.6 1.6 1.5 3 2.7 4.2 1.2 1.1 2.5 1.9 4 2.3 1.5.5 3.1.8 4.7.8 1 0 2-.1 3-.2 1.1-.2 2.1-.5 3-.9 1-.5 1.9-1.1 2.7-1.9.9-.9 1.6-1.9 2.2-3 .7-1.4 1.2-2.9 1.5-4.4.4-2 .6-4 .6-6.1v-9.6h-4.2v9.1z"/><path d="m132.5 240.7c-.3-.9-.6-1.8-1.1-2.6-.4-.8-.8-1.5-1.4-2.1-.7-.9-1.6-1.5-2.6-2-.8-.3-1.5-.4-2.3-.5-.9 0-1.7.1-2.5.4-1.2.4-2.2 1.1-3 1.9-.9 1-1.6 2.1-2 3.3-.6 1.5-.9 3.1-1.1 4.7-.3 2-.4 4.1-.4 6.1-.1 2.8-.9 4.2-2.3 4.2h-13.8c-.7 0-1.3-.2-1.9-.5-.7-.4-1.2-.9-1.6-1.5-.5-.8-.9-1.6-1.2-2.6-.3-1.1-.4-2.3-.4-3.5v-22.9h-4.1v11.7 11.7c0 1.5.1 3.1.4 4.6.2 1.2.7 2.3 1.2 3.4.5.9 1.1 1.7 1.8 2.4.7.6 1.4 1.1 2.2 1.5.7.4 1.5.6 2.4.8.8.1 1.6.2 2.3.2h14.7c.7.1 1.5-.1 2-.6.6-.5 1-1.2 1.3-2l.3.3c.4.4.8.8 1.3 1.2.4.3.8.6 1.3.8 1.6.6 3.2.6 4.8.1.9-.3 1.7-.8 2.5-1.4.8-.7 1.5-1.5 2.1-2.4.7-1.1 1.2-2.4 1.4-3.6.4-1.7.6-3.3.5-5 0-1-.1-2-.2-3-.1-1.1-.3-2.1-.6-3.1zm-3.5 7.6c-.1 1-.3 1.9-.7 2.8-.3.8-.7 1.5-1.2 2.1-.4.5-1 .8-1.6 1-.5.2-1.1.1-1.7-.1-.6-.3-1.1-.7-1.5-1.2-.5-.7-.9-1.4-1.2-2.2-.3-.9-.5-1.9-.5-2.9-.1-1 0-2 .1-3s.4-1.9.7-2.8c.3-.8.7-1.5 1.3-2.1.4-.5 1-.9 1.6-1.1.6-.1 1.1-.1 1.7.1.6.3 1.1.7 1.5 1.2.5.7.9 1.4 1.2 2.2.3.9.5 1.9.6 2.9-.2 1-.2 2.1-.3 3.1z"/><path d="m220.4 246.1c0 1.2-.1 2.4-.4 3.6-.2.9-.6 1.8-1.1 2.6-.4.6-1 1.1-1.6 1.5-.6.3-1.3.5-1.9.5h-4.6c.5-1 .8-2.2 1-3.3.3-1.4.4-2.9.4-4.3 0-1-.1-2-.3-3s-.4-2-.7-2.9-.6-1.8-1.1-2.6c-.4-.8-.8-1.5-1.4-2.1-.4-.5-.8-.9-1.2-1.2s-.9-.6-1.3-.8c-.7-.3-1.5-.4-2.3-.4-.9 0-1.7.1-2.5.4-2.4.9-4.2 2.9-5 5.3-1.1 3.5-1.6 7.2-1.5 10.9-.1 2.8-.9 4.2-2.3 4.2h-3.6c.6-1.2 1-2.4 1.3-3.6.3-1.4.4-2.8.3-4.1-.1-1.9-.4-3.9-1-5.7-.5-1.6-1.3-3.1-2.3-4.4-.8-.9-1.7-1.6-2.8-2.1-1.4-.5-2.8-.7-4.3-.6h-9.5l5.1 20.6h-6c-.6 0-1.3-.2-1.8-.5-.6-.3-1.1-.8-1.5-1.4-.5-.7-.9-1.5-1.2-2.3-.3-1.1-.5-2.2-.5-3.3v-23.7h-4.3v23.7c0 1.1-.2 2.2-.5 3.3-.2.8-.6 1.6-1.2 2.3-.4.6-1 1-1.6 1.4-.6.3-1.2.5-1.8.5h-4.8l.2-2c0-.7 0-1.4 0-2 0-2.2-.1-4.5-.6-6.7-.4-2-1-3.9-2-5.6-.4-.8-.9-1.5-1.5-2.2-.5-.6-1.2-1.1-1.9-1.5-1-.6-2.1-.9-3.3-.8-1 .1-1.9.4-2.6 1-.8.7-1.5 1.5-1.9 2.5-.6 1.1-1 2.3-1.3 3.5-.3 1.3-.5 2.7-.6 4.1s0 2.9.2 4.3.6 2.7 1 4c.5 1.2 1.1 2.4 1.9 3.4s1.7 1.8 2.8 2.3c1.1.6 2.4.9 3.7.8-.4.8-.9 1.4-1.5 2-.5.5-1.2.9-1.8 1.2s-1.3.5-2 .5c-.7.1-1.4.1-2.1.1v5.2c1.3 0 2.5-.2 3.7-.5s2.4-.8 3.5-1.5c1.1-.8 2.1-1.7 2.9-2.8.9-1.3 1.6-2.7 2.1-4.2h4.8c.7 0 1.5-.1 2.2-.2.8-.1 1.5-.4 2.2-.7 1.6-.7 2.9-1.9 3.8-3.4.5.8 1.1 1.5 1.8 2 .6.5 1.3.9 2.1 1.3.7.3 1.5.5 2.2.7.7.1 1.4.2 2.2.2h23.5c.7.1 1.5-.1 2-.6.6-.5 1-1.2 1.3-2 .6.8 1.4 1.4 2.3 1.9.7.4 1.6.7 2.4.9.8.1 1.6.2 2.5.1.8 0 1.6-.1 2.4-.2h.3c.1 0 .2-.1.4-.1h.4 1.2 4.6c.8 0 1.6-.1 2.3-.2.8-.2 1.6-.4 2.3-.8.8-.4 1.5-.9 2.2-1.5.7-.7 1.3-1.5 1.8-2.4.6-1.1 1-2.2 1.2-3.4.3-1.5.5-3 .5-4.6 0-3.9 0-7.8 0-11.7s0-7.8 0-11.7h-4.2zm-73.6 6.1c0 .7-.1 1.4-.2 2h-1.6c-.6 0-1.2-.1-1.8-.4-.7-.4-1.4-.9-1.8-1.6-.5-.8-1-1.7-1.2-2.7-.3-1-.6-2.1-.7-3.2-.1-1-.1-2.1 0-3.1.1-.9.3-1.8.7-2.6.3-.7.8-1.3 1.5-1.6.4-.2.9-.3 1.4-.2.6.1 1.1.5 1.4.9.5.6 1 1.4 1.2 2.2.4 1.1.7 2.3.9 3.5.1.8.2 1.5.2 2.3s0 1.5 0 2.3c.1.8 0 1.5 0 2.2zm39.1-2.8c-.2.9-.6 1.8-1 2.6-.3.7-.8 1.3-1.4 1.8-.4.4-1 .6-1.6.5-.6-.2-1.2-.6-1.5-1.1-.6-1-1.1-2.1-1.3-3.2l-2.8-11.1h5.1c.6 0 1.2.2 1.8.5s1.2.8 1.6 1.4c.5.7.9 1.5 1.2 2.4.3 1.1.5 2.3.4 3.5-.1.8-.2 1.8-.5 2.7zm21.7-1.2c-.1 1-.3 1.9-.7 2.8-.3.8-.7 1.5-1.2 2.1-.4.5-1 .8-1.6 1-.5.1-1.1.1-1.7-.1-.6-.3-1.1-.7-1.5-1.2-.5-.7-.9-1.4-1.1-2.2-.3-.9-.5-1.9-.6-2.9s-.1-2 0-3 .4-1.9.7-2.8c.3-.8.7-1.5 1.2-2.1.4-.5 1-.9 1.6-1s1.1-.1 1.7.1c.6.3 1.1.7 1.5 1.2.5.7.9 1.4 1.2 2.2.3.9.5 1.9.6 2.9 0 1 0 2-.1 3z"/><path d="m229.1 259.4c.7.1 1.3-.1 1.9-.4.5-.3.9-.8 1.2-1.3.3-.6.6-1.3.7-2.1.2-.9.3-1.8.3-2.7 0-1 0-2 0-3v-3.4-23.3h-4.2z"/></g><path d="m174.5 115.3c-12.3 0-22.3-9.9-22.3-22.2s9.9-22.3 22.2-22.3 22.3 9.9 22.3 22.2c.1 12.3-9.9 22.3-22.2 22.3z" fill="#1b68a8"/><path d="m236 93c0 34-27.5 61.5-61.5 61.5-14.4 0-28.3-5-39.3-14.2 29.1 11.1 61.7-3.4 72.8-32.5.5-1.3 1-2.7 1.4-4 .2-.7.4-1.4.6-2.1.7-2.8 1.1-5.8 1.1-8.7 0-20.2-16.4-36.5-36.5-36.5s-36.6 16.4-36.6 36.5c0 13.4-4.4 26.5-12.5 37.2-.9 1.2-1.8 2.3-2.8 3.4-14.6 16.6-37.1 24.1-58.7 19.6 19.5-4 35.8-17.2 43.8-35.4 3.4-7.8 5.2-16.3 5.2-24.9 0-30.4 22.2-56.3 52.3-60.8 3.1-.5 6.2-.7 9.3-.7 33.9.1 61.4 27.7 61.4 61.6z" fill="#31a8dc"/></g></svg>