<svg enable-background="new 0 0 300 300" viewBox="0 0 300 300" xmlns="http://www.w3.org/2000/svg" xmlns:xlink="http://www.w3.org/1999/xlink"><clipPath id="a"><path d="m53.7 57c-4.5-4.4-12-4.5-22.3 9.7-9.9 13.6-30.4 47.8-30.4 101.2 0 36.3 11.1 38.8 12.9 38.8 4.4 0 6.1-2.6 12.6-12.9s32-53.8 48.5-67.9c2.1-1.8 4.5-3.1 6.5-2.9s3.2 1.8 4.8 3.6c4.9 5.4 10.6 9.9 16.9 13.6 15.6 9.4 40.7 14 74-8.1 3.4-2.3 8.1-6.2 13.2-10.3 9.5-7.5 21.3-17 33.6-27.5 34.5-29.2 72.8-63 74.1-64.1 2-1.6.4-1.9-4.8 0s-55.5 36.2-80.2 54.9c-8.2 6.2-16.9 12.6-25.9 19.3-17.6 13.2-35.9 26-52.4 27.6-23.4 2.3-33.6-12.5-40.7-22.6-5-7.1-7.1-12.2-17.8-6.8-12.4 6.3-21.6 20.2-31 33.6-10.9 15.5-20.8 30.4-23.6 33-5.6 5.2-5.2-4.5-5.5-8.4s2.4-26.6 8.4-45.2 10.2-29.4 29.4-47.9c4-3.8 2-8.5-.3-10.7z"/></clipPath><g opacity=".98"><g fill="#231f20"><path d="m57.8 260.7h-2.7v10.3h-2.5v-10.3h-2.7v-2h7.9z"/><path d="m61.3 258.6v4.7h2.9v-4.7h2.5v12.4h-2.5v-5.5h-2.9v5.5h-2.5v-12.3h2.5z"/><path d="m75.4 260.7h-4.4v2.9h4.2v2h-4.2v3.3h4.6v2h-7.1v-12.3h6.9z"/><path d="m82.9 267.5v.8c0 .2.1.4.3.6.1.2.3.3.5.4.3.1.5.1.8.1.4 0 .7-.1 1-.4s.5-.7.5-1.1c0-.2 0-.5-.1-.7s-.2-.4-.4-.5c-.2-.2-.4-.3-.7-.4-.3-.2-.7-.3-1.1-.4-.5-.2-1-.4-1.4-.6s-.7-.4-1-.8c-.3-.3-.5-.6-.6-1s-.2-.9-.2-1.3c-.1-1 .3-2 1-2.7.8-.6 1.8-1 2.8-.9.5 0 1.1.1 1.6.2.4.1.9.3 1.2.6s.6.6.8 1c.2.5.3 1 .3 1.5v.3h-2.4c0-.5-.1-.9-.3-1.4-.2-.3-.6-.5-1-.5-.2 0-.5 0-.7.1s-.3.2-.4.3-.2.3-.2.5v.5c0 .3.1.7.2 1 .3.3.6.6 1 .7l1.9.8c.4.2.8.4 1.2.7.3.2.5.4.7.7s.3.6.4.9.1.7.1 1.1c.1 1.1-.3 2.1-1.1 2.8-.9.6-2 1-3.2.9-1.1.1-2.2-.2-3-.9-.7-.7-1-1.7-.9-2.6v-.5h2.5z"/><path d="m89.8 262.2c.1-.7.3-1.4.6-2s.7-1 1.3-1.3c.7-.4 1.5-.5 2.2-.5.8 0 1.5.1 2.2.5.6.3 1 .8 1.3 1.3.3.6.5 1.3.6 2 .2 1.7.2 3.5 0 5.2-.1.7-.3 1.4-.6 2s-.7 1-1.3 1.3c-.7.3-1.5.5-2.2.5-.8 0-1.6-.1-2.3-.5-.5-.3-1-.7-1.3-1.3s-.5-1.3-.6-2c-.1-1.7-.1-3.5.1-5.2zm2.4 4.7c0 .5.1 1 .2 1.4.1.3.3.6.5.8.3.2.6.3.9.2.3 0 .7-.1 1-.3s.4-.5.5-.8c.1-.5.2-.9.2-1.4 0-.6 0-1.3 0-2.1s0-1.6 0-2.1-.1-.9-.2-1.4c-.1-.3-.3-.6-.5-.8-.3-.2-.6-.3-.9-.3s-.6.1-.9.3-.4.5-.5.8c-.1.5-.2.9-.2 1.4v2.1s-.1 1.6-.1 2.2z"/><path d="m101.9 267.2v.9c0 .2.1.5.2.7s.3.3.5.4.5.2.7.2.5 0 .7-.2c.2-.1.3-.3.5-.4.1-.2.2-.4.2-.7s0-.6 0-.9v-8.6h2.5v8.6c0 .7-.1 1.3-.3 1.9-.2.5-.5.9-.9 1.2s-.8.5-1.3.6c-1 .2-2 .2-2.9 0-.5-.1-.9-.3-1.3-.6s-.7-.7-.9-1.2c-.2-.6-.4-1.3-.3-2v-8.6h2.5z"/><path d="m113.4 258.6c.9-.1 1.7.2 2.4.8.6.6.9 1.5.9 2.4 0 .7-.2 1.4-.5 2-.4.5-1 .9-1.6 1 .5 0 1 .3 1.4.6.3.4.5 1 .5 1.5v.7.9c0 .6 0 1.1.1 1.5 0 .3.2.5.4.7v.1h-2.5c-.1-.2-.2-.4-.2-.6s0-.5 0-.7v-2.4c0-.4-.1-.8-.4-1.1s-.7-.5-1.1-.4h-1.3v5.2h-2.6v-12.3zm-1.1 5.4c.5 0 1-.1 1.4-.4.3-.4.5-.9.5-1.4.1-.8-.5-1.6-1.3-1.7-.1 0-.3 0-.4 0h-1.2v3.6h1z"/><path d="m123.4 260.8c-.2-.4-.7-.7-1.2-.6-.3 0-.6.1-.8.3s-.4.5-.5.8c-.1.5-.2 1-.2 1.5 0 .6-.1 1.4-.1 2.2s0 1.5.1 2.3c0 .5.1.9.3 1.3.1.3.3.5.5.6s.5.2.7.2.4 0 .6-.1.4-.3.5-.5c.2-.3.3-.6.3-1 .1-.5.1-1.1.1-1.6h2.5c0 .6 0 1.3-.1 1.9s-.3 1.1-.6 1.6-.7.8-1.2 1.1c-.6.3-1.3.4-2 .4-.8 0-1.5-.1-2.2-.5-.5-.3-1-.7-1.3-1.3s-.5-1.3-.6-2c-.2-1.7-.2-3.5 0-5.2.1-.7.3-1.4.6-2s.7-1 1.3-1.3c.7-.4 1.5-.5 2.2-.5s1.4.1 2.1.4c.5.2.9.6 1.1 1.1.3.4.4.9.5 1.4s.1 1 .1 1.4h-2.5c.1-.6 0-1.2-.2-1.9z"/><path d="m134.6 260.7h-4.4v2.9h4.2v2h-4.2v3.3h4.6v2h-7.1v-12.3h6.9z"/><path d="m140 262.2c.1-.7.3-1.4.6-2s.7-1 1.3-1.3c1.4-.6 3-.6 4.5 0 .5.3 1 .8 1.3 1.3.3.6.5 1.3.6 2 .2 1.7.2 3.5 0 5.2-.1.7-.3 1.4-.6 2-.3.5-.7 1-1.3 1.3-1.4.6-3 .6-4.5 0-.5-.3-1-.7-1.3-1.3s-.5-1.3-.6-2c-.1-1.7-.1-3.5 0-5.2zm2.5 4.7c0 .5.1 1 .2 1.4.1.3.3.6.5.8.5.3 1.2.3 1.8 0 .3-.2.4-.5.5-.8.1-.5.2-.9.2-1.4 0-.6 0-1.3 0-2.1s0-1.6 0-2.1-.1-1-.2-1.4c-.2-.8-.9-1.3-1.7-1.1-.6.1-1 .6-1.1 1.1s-.2.9-.2 1.4v2.1s-.1 1.5 0 2.1z"/><path d="m156.7 258.6v2h-4.4v2.9h4.2v2h-4.2v5.4h-2.5v-12.3z"/><path d="m168.5 260.7h-2.6v10.3h-2.5v-10.3h-2.7v-2h7.9z"/><path d="m176.5 260.7h-4.4v2.9h4.2v2h-4.2v3.3h4.6v2h-7.1v-12.3h6.9z"/><path d="m182.8 260.8c-.4-.6-1.2-.8-1.9-.4 0 0 0 0-.1 0-.2.2-.4.5-.5.8-.1.5-.2 1-.2 1.5v2.2c0 .8 0 1.5.1 2.3 0 .5.1.9.3 1.3.1.3.3.5.5.6s.5.2.7.2.4 0 .6-.1.4-.3.5-.5c.2-.3.3-.6.3-1 .1-.5.1-1.1.1-1.6h2.5c0 .6 0 1.3-.2 1.9-.1.6-.3 1.1-.6 1.6s-.7.8-1.2 1.1c-.6.3-1.3.4-2 .4-.8 0-1.5-.1-2.2-.5-.5-.3-1-.7-1.3-1.3s-.5-1.3-.6-2c-.2-1.7-.2-3.5 0-5.2.1-.7.3-1.4.6-2s.7-1 1.3-1.3c.7-.4 1.5-.5 2.2-.5s1.4.1 2.1.4c.5.2.9.6 1.1 1.1.3.4.4.9.5 1.4s.1 1 .1 1.4h-2.5c.3-.5.1-1.1-.2-1.8z"/><path d="m189.7 258.6v4.7h2.9v-4.7h2.5v12.4h-2.5v-5.5h-2.9v5.5h-2.5v-12.3h2.5z"/><path d="m202.7 267.1v-8.5h2.3v12.4h-2.8l-3-8.6v8.6h-2.3v-12.3h2.9z"/><path d="m206.6 262.2c.1-.7.3-1.4.6-2s.7-1 1.3-1.3c.7-.4 1.5-.5 2.2-.5.8 0 1.5.1 2.2.5.6.3 1 .8 1.3 1.3.3.6.5 1.3.6 2 .2 1.7.2 3.5 0 5.2-.1.7-.3 1.4-.6 2s-.7 1-1.3 1.3c-.7.3-1.5.5-2.2.5-.8 0-1.5-.1-2.2-.5-.5-.3-1-.7-1.3-1.3s-.5-1.3-.6-2c-.2-1.7-.2-3.5 0-5.2zm2.4 4.7c0 .5.1 1 .2 1.4.1.3.3.6.5.8.3.2.6.3.9.2.3 0 .6-.1.9-.2.3-.2.4-.5.5-.8.1-.5.2-.9.2-1.4 0-.6 0-1.3 0-2.1s0-1.6 0-2.1-.1-.9-.2-1.4c-.1-.3-.3-.6-.5-.8-.3-.2-.6-.3-.9-.3s-.6.1-.9.3-.4.5-.5.8c-.1.5-.2.9-.2 1.4v2.1s0 1.5 0 2.1z"/><path d="m216.3 258.6h2.5v10.3h4.4v2h-6.9z"/><path d="m224.2 262.2c.1-.7.3-1.4.6-2s.7-1 1.3-1.3c.7-.4 1.5-.5 2.2-.5.8 0 1.5.1 2.2.5.6.3 1 .8 1.3 1.3.3.6.5 1.3.6 2 .2 1.7.2 3.5 0 5.2-.1.7-.3 1.4-.6 2s-.7 1-1.3 1.3c-.7.3-1.5.5-2.2.5-.8 0-1.5-.1-2.2-.5-.5-.3-1-.7-1.3-1.3s-.5-1.3-.6-2c-.2-1.7-.2-3.5 0-5.2zm2.4 4.7c0 .5.1 1 .2 1.4.1.3.3.6.5.8.3.2.6.3.9.2.3 0 .6-.1.9-.2.3-.2.4-.5.5-.8.1-.5.2-.9.2-1.4 0-.6 0-1.3 0-2.1s0-1.6 0-2.1-.1-.9-.2-1.4c-.1-.3-.3-.6-.5-.8-.3-.2-.6-.3-.9-.3s-.6.1-.9.3-.4.5-.5.8c-.1.5-.2.9-.2 1.4v2.1s0 1.5 0 2.1z"/><path d="m239.3 261.6c-.1-.2-.1-.5-.3-.7-.1-.2-.3-.4-.4-.5-.2-.1-.4-.2-.6-.2-.6 0-1.1.4-1.3 1-.3 1.1-.4 2.2-.4 3.3v2c0 .5.1 1.1.3 1.6.1.4.3.7.5 1 .4.3.9.4 1.4.2.2-.1.4-.2.5-.4.2-.2.3-.4.4-.6.1-.3.2-.6.2-.9v-1.3h-1.6v-2h4v6.7h-1.8v-1.1c-.3.4-.6.8-1.1 1s-1 .3-1.5.3c-.6 0-1.3-.1-1.9-.4-.5-.3-.9-.7-1.1-1.2-.3-.6-.5-1.3-.5-2.1-.1-.8-.1-1.7-.1-2.8 0-.9.1-1.8.2-2.7.1-.7.3-1.4.7-2 .3-.5.8-.9 1.3-1.2.6-.3 1.3-.4 2-.4 1.1-.1 2.2.3 2.9 1 .7.8 1 1.8.9 2.9h-2.4c-.2-.1-.2-.3-.3-.5z"/><path d="m247.2 263.4 1.7-4.8h2.7l-3.2 7.5v4.8h-2.5v-4.8l-3.2-7.5h2.8z"/></g><g clip-path="url(#a)"><image height="142" overflow="visible" transform="matrix(1.6157 0 0 1.6157 -32.8817 -14.6497)" width="224" xlink:href="429D62BE6B7D370B.png"/></g><path d="m251 249.3h-11.8l-4.3-9.7h-19.4l-4.4 9.7h-11.7l19.3-42.3 6.5-14.4 6.5 14.4zm-20-18.1-5.9-12.9-5.8 12.9z" fill="#231f20"/><path d="m114.3 192.6-25.8 56.8-10.4-22.8-10.3 22.8-25.9-56.8h11.8l14.1 31 4.4-9.9-9.7-21.1h11.8l3.7 8.2 3.7-8.2h11.7l-9.6 21 4.5 10 14.1-31z" fill="#231f20"/><path d="m151.6 249.3h-11.8l-4.3-9.7h-19.4l-4.4 9.7h-11.7l19.3-42.3 6.5-14.4 6.5 14.4zm-20-18.1-5.9-12.9-5.8 12.9z" fill="#231f20"/><path d="m196.3 249.3h-10.3v-24.1h-20.6v24.1h-10.4v-56.7h10.3v24.2h20.7v-24.2h10.3z" fill="#231f20"/><path d="m100.9 160.9-2.6 2.3c-.5-.7-1.2-1.2-1.8-1.7-.7-.4-1.6-.6-2.4-.6-1 0-2 .2-2.8.8-1.2.9-1.4 2.7-.5 3.9.1.1.2.3.3.4 1 .8 2.1 1.5 3.2 2 1.2.6 2.4 1.2 3.5 2 .8.6 1.5 1.2 2.1 2 1 1.4 1.6 3.1 1.6 4.8 0 2-.7 4-2.1 5.4-1.3 1.5-3.2 2.3-5.1 2.2-1.9 0-3.7-.6-5.2-1.8-1.6-1.4-2.8-3.2-3.5-5.3l3.2-1c1.2 2.9 2.9 4.3 5.3 4.3 1.1 0 2.1-.4 2.9-1.1.8-.8 1.2-1.8 1.1-2.9 0-.7-.2-1.5-.6-2.1-.4-.7-.9-1.3-1.5-1.7-.9-.6-1.9-1.2-2.9-1.6-1-.5-2.1-1-3-1.6-.7-.4-1.4-1-1.9-1.6s-.9-1.3-1.1-2c-.9-2.4-.2-5.1 1.6-6.8 1.3-1.3 3-2 4.8-1.9 1.3 0 2.7.3 3.9.9 1.5.6 2.6 1.5 3.5 2.7z" fill="#231f20"/><path d="m105.3 158.1h3.2v25.6h-3.2z" fill="#231f20"/><path d="m112.8 158.1h3.2v22.1h12.1v3.5h-15.3z" fill="#231f20"/><path d="m132.1 158.1h3.2v25.6h-3.2z" fill="#231f20"/><path d="m157.7 159v4c-2.1-1.2-4.5-1.9-7-2-2.6-.1-5.1 1-6.9 2.9-3.9 3.9-3.9 10.2 0 14.1 1.9 1.9 4.5 3 7.2 2.9 2.4-.1 4.6-.8 6.6-2.1v4c-2.1 1.2-4.5 1.9-6.9 1.8-3.5 0-6.9-1.4-9.3-4-2.5-2.6-3.9-6.1-3.9-9.7-.1-3.6 1.3-7 3.8-9.5 2.3-2.6 5.7-4 9.1-4 2.7-.1 5.1.5 7.3 1.6z" fill="#231f20"/><path d="m158.1 170.7c-.1-3.5 1.3-7 3.8-9.5 2.4-2.6 5.7-4 9.2-4 3.4 0 6.7 1.4 9 4 2.5 2.5 3.8 5.9 3.8 9.5.1 3.6-1.2 7.2-3.7 9.8-4.6 5.1-12.5 5.4-17.5.8-.3-.2-.5-.5-.8-.8-2.6-2.6-3.9-6.1-3.8-9.8zm22.4.2c.1-2.7-.9-5.2-2.8-7.1-1.8-1.9-4.3-3-6.9-2.9-2.5 0-4.9 1.1-6.6 3-1.8 1.9-2.8 4.4-2.8 7.1-.1 2.7 1 5.2 2.8 7.1s4.3 3 6.9 2.9c2.5 0 4.8-1.1 6.5-3 1.8-2 2.8-4.5 2.9-7.1z" fill="#231f20"/><path d="m187 157.1 17.3 19.4v-18.5h3.2v26.8l-17.3-19.4v18.2h-3.2z" fill="#231f20"/></g></svg>