<svg viewBox="0 0 246.11 216.54" xmlns="http://www.w3.org/2000/svg" xmlns:xlink="http://www.w3.org/1999/xlink"><clipPath id="a"><path d="m46.24 35c34.82-17.47 104.21-35.82 146.2-13.26 49.11 26.39 42.8 67.93 37 95.69-13.84 66.93-93.5 108.57-142.02 77.22-50.5-32.65-113.12-123.48-41.18-159.65z"/></clipPath><path d="m37.25 26.52c38.88-19.52 116.33-40.02 163.2-14.83 54.82 29.45 47.77 75.82 41.34 106.81-15.49 74.71-104.41 121.15-158.56 86.18-56.37-36.4-126.23-137.82-45.98-178.16z" fill="#16191a"/><g clip-path="url(#a)" fill="#92e340"><path d="m0 81.12 30.24-54.19 14.76 8.24-23.17 41.53 18.36 10.3-7.06 12.61z"/><path d="m111 107.69a32.56 32.56 0 0 1 -8.25 9.82 32 32 0 0 1 -11.37 5.6 33.58 33.58 0 0 1 -12.89.86 34.67 34.67 0 0 1 -12.28-4 34.17 34.17 0 0 1 -9.85-8.36 31.61 31.61 0 0 1 -6-11.38 31.27 31.27 0 0 1 -1.17-12.69 32.07 32.07 0 0 1 12.27-21.83 31.34 31.34 0 0 1 11.41-5.71 31.94 31.94 0 0 1 12.86-1 34.57 34.57 0 0 1 22.19 12.41 32 32 0 0 1 3.08 36.28zm-37.83-.23a15.15 15.15 0 0 0 12.83 1.15 16.69 16.69 0 0 0 5.82-3.4 22.33 22.33 0 0 0 4.48-5.76 18.94 18.94 0 0 0 2.3-13.61 15 15 0 0 0 -7.6-10.22 14.85 14.85 0 0 0 -12.75-1.12 19 19 0 0 0 -10.34 9.13q-3.91 7.07-2.45 13.63a15.07 15.07 0 0 0 7.75 10.2z"/><path d="m142.13 134.27 6.34-11.37 29 16.19a9.18 9.18 0 0 0 -.61 1.27l-1.09 2q-7.83 14-19.43 17.6t-25.12-3.96a38.18 38.18 0 0 1 -10.6-8.49 29.54 29.54 0 0 1 -5.78-11.19 31.32 31.32 0 0 1 -.84-12.5 34 34 0 0 1 1.48-6.48 35.82 35.82 0 0 1 2.59-5.86 34 34 0 0 1 8.29-10 33 33 0 0 1 11.3-5.73 30.09 30.09 0 0 1 12.67-.8 36.11 36.11 0 0 1 12.53 4.32 34.56 34.56 0 0 1 12.28 11 28.55 28.55 0 0 1 2.53 4.54 30.13 30.13 0 0 1 1.75 5.13 33.31 33.31 0 0 1 .83 5.41l-16.23-1a18.18 18.18 0 0 0 -2.53-7.57 15.76 15.76 0 0 0 -5.59-5.11q-6.66-3.72-12.86-1.4t-10.53 10q-4.33 7.77-3 14.32t7.94 10.21a17.26 17.26 0 0 0 10.94 2.41 11.71 11.71 0 0 0 8.47-4.83z"/><path d="m226.75 135a33.31 33.31 0 0 0 -12.24-4.06 32 32 0 0 0 -12.87 1 31.44 31.44 0 0 0 -11.41 5.68 32.45 32.45 0 0 0 -5 45.91 34.27 34.27 0 0 0 9.27 8 136.34 136.34 0 0 0 12.16-10.43 16.32 16.32 0 0 1 -4.63-1.76 15.1 15.1 0 0 1 -7.75-10.2q-1.48-6.56 2.46-13.62a19 19 0 0 1 10.26-9.17 15.58 15.58 0 0 1 19.8 9.55 121.3 121.3 0 0 0 7.82-14.9 34.21 34.21 0 0 0 -7.87-6z"/></g></svg>