<svg enable-background="new 0 0 300 300" viewBox="0 0 300 300" xmlns="http://www.w3.org/2000/svg"><g fill="#92e340"><path d="m100.7 261.5c7.9-1.6 15.8-2.5 23.9-2.9 1.7-4.1 2.7-8.5 3-12.9 1.3-8.8 1-23-.8-47.4-.8-7.9-.6-15.9.8-23.8-6.2.5-12.3 1.6-18.4 3.1-35.6 9.4-50.2 35.9-56.6 45.2l-4.2-5.3c7.8-12 22.4-36.8 58.5-45.5 7.3-1.8 14.8-3 22.4-3.6 4.4-12.6 17.4-29.4 42.5-40 11.8-5 24-9 36.5-12 8.1-22.3 17.5-44.1 28.3-65.2 3.3-6.5 6.5-12.3 9.8-17.9-37.5-19-88.4-19.3-143-5.3-119.9 30.8-127 91.3-60.3 182.4 17 23.2 33.8 40.8 50.8 52.5 2.2-.5 4.4-1 6.8-1.4z"/><path d="m152.8 195.9c6.9-2.1 13.2-6 18-11.3-8-6.4-17.8-10.1-28-10.7-1.4 9.1-1.7 18.3-.8 27.4.9 19.2-.3 32.2-3.1 43-1.6 4.8-3.6 9.5-5.9 14 8.2.4 16.5-.4 24.5-2.3 11.9-3.1 20.3-7.9 25.7-15.1 6.1-7.8 7.2-18.3 4.9-28.9-2-8.8-6.4-16.9-12.7-23.4-6.4 4.9-13.7 8.6-21.5 10.8-3.9 1.2-7.9 2.2-11.9 3l-.2-3.7c3.6-.9 7.3-1.9 11-2.8z"/><path d="m262.3 162.7c2.5-4.6 3.9-9.7 4.2-14.9.4-13-6.6-21-18.3-23.5-2.1 10.4-4.8 19.8-4.5 29.8-.1 4.2.9 8.3 2.8 12 3.6 6.6 10.9 4.8 15.8-3.4z"/><path d="m253.6 37.5c-13.5 25.7-24.5 60.7-30.5 76.9 5.7-.5 11.4-.5 17.2 0 5.8-27.4 12.1-52.4 18.7-73.4-1.8-1.2-3.6-2.4-5.4-3.5z"/><path d="m270.1 50.1c-7.1 23.8-13.7 45.5-19.6 66 13.9 2.6 28 12.5 26.7 29.8-1 12.7-10.5 25-22.6 28.1-7.4 1.9-12.3.3-15.4-3.2-9.2-10.5-4-30.9-.9-48.4-6.1-1-12.3-1.3-18.4-.9-4.7 11.8-10.2 23.3-16.4 34.3-5.8 9.9-12.9 18.9-21.1 27 8.8 7.6 14.8 18 16.8 29.4 3.7 19.9-9.1 40.9-34 47.3-8.5 2.2-20.1 2.5-34.6 1.8-5.3 5.4-11.8 9.4-18.9 11.7 20.3 9.3 43.2 11.5 70.8 4.4 55.6-14.2 105.9-64.3 115.1-132.6 5.3-40.3-4.5-72.5-27.5-94.7z"/><path d="m102.1 264.9c-.7.2-2 .6-3.6 1.1 3 1.9 6.1 3.7 9.2 5.2 6.2-2 12.3-4.9 15.1-9.4-7 .5-13.9 1.5-20.7 3.1z"/><path d="m189.5 158.2c5.9-11.2 11.2-22.8 15.9-34.6-10.5 2.3-20.7 5.8-30.4 10.5-14.4 7-26.5 15.6-31 34 11.4.8 22.5 4.3 32.3 10.2 5-6.2 9.4-13 13.2-20.1z"/></g></svg>