<svg viewBox="0 0 241.99 213.72" xmlns="http://www.w3.org/2000/svg" xmlns:xlink="http://www.w3.org/1999/xlink"><clipPath id="a"><path d="m43.7 33.62c34.83-17.5 104.22-35.85 146.21-13.28 49.09 26.38 42.79 67.92 37.09 95.66-13.93 67-93.59 108.57-142.11 77.24-50.5-32.61-113.12-123.47-41.19-159.62z"/></clipPath><path d="m35.84 26.17c38.37-19.27 114.81-39.49 161.08-14.63 54.08 29.06 47.15 74.83 40.8 105.46-15.29 73.74-103 119.58-156.5 85.06-55.64-35.96-124.63-136.06-45.38-175.89z" fill="#16191a"/><g clip-path="url(#a)"><g fill="#ff6445"><path d="m128.58 162.78 10.34-30h10.24l10.37 30h-8.14l-1.51-5.37h-11.61l-1.56 5.37zm11.42-11.2h8.13l-3-9.89c-.07-.18-.2-.67-.39-1.48s-.45-1.79-.64-2.56c-.19.7-.35 1.4-.49 2.11s-.4 1.32-.55 1.93z"/><path d="m162.39 162.78v-30h6.25a50.87 50.87 0 0 1 9.89.65 14 14 0 0 1 5.08 2.2 12.47 12.47 0 0 1 4.32 5.07 17.72 17.72 0 0 1 0 14.18 12.8 12.8 0 0 1 -4.32 5.07 13.81 13.81 0 0 1 -5 2.13 39.27 39.27 0 0 1 -8.64.68h-7.62zm8.09-6.72h1.37q4.85 0 7-2t2.21-6.24q0-4.26-2.21-6.28t-7-2h-1.37z"/><path d="m203.11 162.78-12.58-30h8.69l6 16.77c.09.37.2.79.32 1.25.17.71.39 1.63.68 2.76.18-.81.39-1.63.63-2.45a13.32 13.32 0 0 1 .41-1.56l6-16.77h8.69l-12.58 30z"/></g><path d="m32.93 134.58h27.23v-39.5h181.16c1.05-10.16 1.05-21-1.42-31.76h-207z" fill="#28c1e2"/><path d="m78.92 104.12h43.73v12h-43.73z" fill="#28c1e2"/><path d="m78.92 125.78h43.73v11.5l-22.49 16.52a31.31 31.31 0 0 1 -2.78 1.58c-1.59.82-3.24 1.61-4.93 2.39 2.29-.3 3.9-.47 4.81-.51 1.44-.12 2.7-.18 3.8-.18h21.59v11.44h-43.73v-11.44l22.58-16.52a32.09 32.09 0 0 1 2.81-1.58c1.28-.72 2.89-1.51 4.84-2.39-1.55.2-3.17.39-4.84.57-1.87.08-3.13.12-3.79.12h-21.6z" fill="#28c1e2"/><path d="m148.19 33.65c0-.91-.05-2.66-.16-5.26q-.37-3.48-.79-6.72c1.22 2.71 2.32 4.95 3.32 6.72a41 41 0 0 0 2.2 3.9l22.93 31.34h15.88v-54.7a93.22 93.22 0 0 0 -15.88-5.36v29.34c0 1.52.08 3.27.24 5.26.06 1.28.29 3.5.71 6.68q-1.64-3.52-3.32-6.85a39 39 0 0 0 -2.2-3.86l-22.93-31.21h-16v60.7h16z" fill="#92e340"/><path d="m59.5 21.17a31.42 31.42 0 0 0 0 24.47 30.57 30.57 0 0 0 7 10.28 30.93 30.93 0 0 0 10.57 6.88 33.46 33.46 0 0 0 12.39 2.45 33.86 33.86 0 0 0 12.39-2.45 32.6 32.6 0 0 0 10.61-6.88 31.32 31.32 0 0 0 7-10.2 31.83 31.83 0 0 0 2.36-12.31 31.7 31.7 0 0 0 -2.36-12.24 32.71 32.71 0 0 0 -17-17 281 281 0 0 0 -39.32 10.61 32.12 32.12 0 0 0 -3.64 6.39zm18.5-.49a14.49 14.49 0 0 1 11.4-5.1 14.69 14.69 0 0 1 11.36 5.1 18.59 18.59 0 0 1 4.52 12.73 21.63 21.63 0 0 1 -1.08 7 16.26 16.26 0 0 1 -3.36 5.68 15.52 15.52 0 0 1 -22.84.13q-4.39-4.89-4.4-12.81a18.57 18.57 0 0 1 4.4-12.73z" fill="#92e340"/><path d="m78.92 200.5c.77.52 1.54 1 2.3 1.52 1.48 1 3 1.84 4.53 2.68h3v-15.18h7.35v14.31h9.41v-14.31h7.49v15.18h9.62v-26.8h-43.7z" fill="#28c1e2"/></g><path d="m165.79 114.76-20.03-6.03-10.04 17.59-.15-42.01z" fill="#fff"/></svg>