<svg viewBox="0 0 245.81 217.1" xmlns="http://www.w3.org/2000/svg" xmlns:xlink="http://www.w3.org/1999/xlink"><clipPath id="a"><path d="m45.61 35.31c34.83-17.5 104.22-35.85 146.21-13.31 49.11 26.39 42.8 67.93 37 95.69-13.82 66.95-93.5 108.56-142.02 77.24-50.5-32.61-113.12-123.48-41.19-159.62z"/></clipPath><path d="m36.41 26.59c38.98-19.59 116.59-40.12 163.59-14.87 55 29.52 47.89 76 41.45 107.08-15.54 74.91-104.68 121.47-159 86.41-56.45-36.49-126.54-138.21-46.04-178.62z" fill="#16191a"/><path d="m45.61 35.31c34.83-17.5 104.22-35.85 146.21-13.31 49.11 26.39 42.8 67.93 37 95.69-13.82 66.95-93.5 108.56-142.02 77.24-50.5-32.61-113.12-123.48-41.19-159.62z" fill="#16191a"/><g clip-path="url(#a)"><path d="m139.57 119.26h25.3v53.72h-25.3z" fill="#92e340"/><path d="m173.31 70.28h25.3v102.7h-25.3z" fill="#92e340"/><g fill="#28c1e2"><path d="m92.25 102.92 7.43-15.17h-8.35v-4.43h15.11v.94l-8.61 18.66z"/><path d="m121.7 83.32v4h-7.5l-.39 2.54c.61-.12 1-.19 1.22-.22.55 0 1-.05 1.21-.05a6.35 6.35 0 0 1 4.76 1.8 6.72 6.72 0 0 1 1.74 4.91 6.62 6.62 0 0 1 -2.15 5.2 8.78 8.78 0 0 1 -6 1.91 12.41 12.41 0 0 1 -3.34-.42 8.44 8.44 0 0 1 -2.74-1.17l.35-4.78.42.08a5 5 0 0 0 1.94 1.72 5.57 5.57 0 0 0 2.62.63 4.25 4.25 0 0 0 2.9-.9 3.11 3.11 0 0 0 1-2.53 3.27 3.27 0 0 0 -1.11-2.57 4.11 4.11 0 0 0 -2.87-1 5.77 5.77 0 0 0 -2.16.39 5.58 5.58 0 0 0 -1.6 1.26l-.66-.39 1.64-10.41z"/><path d="m135.07 88.39a5.54 5.54 0 0 1 -1.39 4 4.78 4.78 0 0 1 -3.7 1.49 4.88 4.88 0 0 1 -3.71-1.46 6.44 6.44 0 0 1 0-8 5.4 5.4 0 0 1 7.41 0 5.66 5.66 0 0 1 1.39 3.97zm-5.07 3.38a1.31 1.31 0 0 0 1.29-.81 5.8 5.8 0 0 0 .42-2.57 5.88 5.88 0 0 0 -.42-2.61 1.28 1.28 0 0 0 -1.29-.78 1.29 1.29 0 0 0 -1.3.77 5.88 5.88 0 0 0 -.42 2.61 5.8 5.8 0 0 0 .42 2.57 1.32 1.32 0 0 0 1.3.82zm-.45 11.68 11.88-20.52h2.57l-12 20.52zm19.26-5.45a5.6 5.6 0 0 1 -1.39 4 4.72 4.72 0 0 1 -3.68 1.5 4.81 4.81 0 0 1 -3.74-1.5 6.46 6.46 0 0 1 0-8 4.92 4.92 0 0 1 3.72-1.46 4.86 4.86 0 0 1 3.7 1.46 5.57 5.57 0 0 1 1.39 4zm-5.07 3.4a1.32 1.32 0 0 0 1.3-.79 5.94 5.94 0 0 0 .42-2.61 5.77 5.77 0 0 0 -.42-2.57 1.46 1.46 0 0 0 -2.6 0 5.77 5.77 0 0 0 -.44 2.57 5.94 5.94 0 0 0 .42 2.61 1.31 1.31 0 0 0 1.32.75z"/><path d="m66 120.59v-52a52.72 52.72 0 0 0 -52 61.41 203.47 203.47 0 0 0 25.6 37 52.73 52.73 0 0 0 79.17-45.62c0-.26 0-.5 0-.76z"/></g><path d="m207 173h7.23a125.52 125.52 0 0 0 18.08-27.39v-49.82h-25.31z" fill="#92e340"/></g></svg>