<svg viewBox="0 0 239.96 211.93" xmlns="http://www.w3.org/2000/svg" xmlns:xlink="http://www.w3.org/1999/xlink"><clipPath id="a"><path d="m42.69 32.73c34.83-17.5 104.21-35.85 146.21-13.29 49.11 26.38 42.79 67.92 37 95.69-13.88 66.93-93.54 108.54-142 77.21-50.52-32.61-113.15-123.47-41.21-159.61z"/></clipPath><path d="m35.54 26c38.05-19.16 113.85-39.21 159.73-14.56 53.65 28.82 46.73 74.2 40.46 104.56-15.17 73.1-102.19 118.55-155.19 84.33-55.17-35.63-123.54-134.89-45-174.33z" fill="#16191a"/><g clip-path="url(#a)"><path d="m169.56 199.84-1.37-67 58.46-95.11c-6.86-9.55-16.91-18.53-31.38-26.3a83.78 83.78 0 0 0 -13.16-5.63l-8.11.2-29.77 60.62-1.23 2.57q-5.2 9.66-6.49 17.33a67.73 67.73 0 0 0 -7.21-17.69 5.46 5.46 0 0 0 -1-1.89l-32.57-59.36-10.42.21a257 257 0 0 0 -49.77 18.21c-.34.17-.66.35-1 .53l72.37 107.57 1.57 76.79c19.79 3.17 41.34-1.09 61.08-11.05z" fill="#ffec5f"/><path d="m139.66 128.55a91.59 91.59 0 0 0 11.24-16.37l-25-35.13q-1.47 12.57-5.34 20a38.54 38.54 0 0 1 -11.69 13.54q-13.5 9.63-28.85 6.63-15.42-3.22-25.49-17.32a58.08 58.08 0 0 1 -5.75-10 39.93 39.93 0 0 1 -3.13-10.25 41.48 41.48 0 0 1 -.18-10.48q2-15.58 15.72-25.39a39.65 39.65 0 0 1 16.5-6.78q8.5-1 20.75 1.57l-20.44-28.78a249.1 249.1 0 0 0 -42.46 16.21 77.67 77.67 0 0 0 -17.25 11.54c-.23.35-.48.69-.7 1.05a66.46 66.46 0 0 0 -9.79 26.41 84.62 84.62 0 0 0 -.92 15.62 64.35 64.35 0 0 0 2.12 13.77 79.69 79.69 0 0 0 13 27.72 81.35 81.35 0 0 0 28.48 25.4 74.83 74.83 0 0 0 35.85 7.9 58.1 58.1 0 0 0 19.91-3.7 82.44 82.44 0 0 0 19.47-10.43 81 81 0 0 0 13.95-12.73z" fill="#28c1e2"/><path d="m143.85 63.31c-.85 2.55-1.48 4.48-1.91 5.8l-15.94 44.49-26.85-5.7 38.85-102.48" fill="#ee1d73"/><path d="m204.31 82.35-3.5 47.14 27 5.73 5-87.19c-4.65-9.67-11.95-19-23-27.38l-4.37-.92-27.79 51.06q-3.39 6.7-3.91 7.72a54.76 54.76 0 0 0 -2.43 6.14 78 78 0 0 0 -.18-13.05c0-.31-.09-1-.17-2.08l-4.38-58-28.58-6.1-38.87 102.48 26.87 5.7 16-44.49c.43-1.32 1.06-3.25 1.91-5.8s1.48-4.47 1.91-5.79q1.34-3.81 3.6-11.64a108.5 108.5 0 0 0 .42 17.63 22.81 22.81 0 0 1 .21 3.3l3.85 52.7 19.25 4.09 24.85-46.6c.37-.82.89-1.8 1.53-2.92a155.13 155.13 0 0 0 7.62-15.93c-.86 5.67-1.44 10-1.74 13.17s-.75 6.82-1.1 11.03z" fill="#ee1d73"/><path d="m138 152.21 37-48.77h-31.8l-31.63 45.43v-45.43l-27 27.72v71.57c.44.24.87.49 1.31.72h25.68v-44.88l32.58 44.88h17.56a123.47 123.47 0 0 0 11.94-5.77z" fill="#16191a"/></g></svg>