<svg viewBox="0 0 241.83 213.58" xmlns="http://www.w3.org/2000/svg"><path d="m35.82 26.16c38.34-19.27 114.74-39.47 161-14.63 54.07 29.05 47.12 74.78 40.78 105.35-15.29 73.69-103 119.5-156.4 85-55.63-35.88-124.58-135.88-45.38-175.72z" fill="#16191a"/><path d="m226.87 116c5.3-25.57 11.07-62.82-26.39-89.16l-173.2 17.82c-29.34 27.17-14.75 70.45 11.8 105.21l183.45-18.87a103 103 0 0 0 4.34-15z" fill="#92e340"/><text fill="#395b63" font-family="AdobeArabic-Regular, Adobe Arabic" font-size="38.48" transform="matrix(.99 -.1 .1 .99 91.15 104.1)">Home</text><path d="m209.9 160.4-34.36-10.33-17.19 30.15-.3-72.02z" fill="#fff" stroke="#566063" stroke-miterlimit="10" stroke-width=".29"/></svg>